<?xml version="1.0" encoding="utf-8"?>
<svg width="1630" height="431" viewBox="6.555 0 4343.854 1178.707" fill="none" xmlns="http://www.w3.org/2000/svg">
  <path d="M 2333.142 1161.331 C 621.955 1160.87 12.441 330.827 -1062.114 280.1 C -2095.526 231.315 -3103.063 344.291 -3354.373 266.35 L -3354.373 -167.145 L 7276.008 -89.248 C 7281.281 -32.058 7252.912 64.839 7240.257 279.872 C 7157.857 254.612 5843.936 115.612 5094.898 269.733 C 4707.187 349.507 3945.608 1161.764 2333.142 1161.331 Z" fill="#2D224C" style=""/>
  <path style="mix-blend-mode:color-dodge" d="M 1346.752 464.212 C 1498.842 464.212 1622.136 351.27 1622.136 211.948 C 1622.136 72.626 1498.842 -40.317 1346.752 -40.317 C 1194.662 -40.317 1071.368 72.626 1071.368 211.948 C 1071.368 351.27 1194.662 464.212 1346.752 464.212 Z" fill="url(#paint0_radial_225_2)"/>
  <path style="mix-blend-mode:color-dodge" d="M 2996.68 1057.613 C 3103.13 1036.304 3189.071 1024.669 3189.071 927.152 C 3189.071 829.635 3102.771 750.582 2996.321 750.582 C 2889.861 750.582 2803.561 829.635 2803.561 927.152 C 2803.561 1024.669 2892.291 1078.51 2996.68 1057.613 Z" fill="url(#paint2_radial_225_2)"/>
  <defs>
    <radialGradient id="paint0_radial_225_2" cx="0" cy="0" r="1" gradientUnits="userSpaceOnUse" gradientTransform="matrix(65.92411, -245.422089, 264.702606, 71.103157, 1306.030457, 236.384468)">
      <stop stop-color="#F0EEF7"/>
      <stop offset="0.02" stop-color="#E6E4ED"/>
      <stop offset="0.13" stop-color="#B1B0B6"/>
      <stop offset="0.25" stop-color="#828186"/>
      <stop offset="0.36" stop-color="#5A595C"/>
      <stop offset="0.48" stop-color="#39393B"/>
      <stop offset="0.6" stop-color="#202021"/>
      <stop offset="0.73" stop-color="#0E0E0F"/>
      <stop offset="0.86" stop-color="#030304"/>
      <stop offset="1"/>
    </radialGradient>
    <radialGradient id="paint2_radial_225_2" cx="0" cy="0" r="1" gradientUnits="userSpaceOnUse" gradientTransform="matrix(46.142879, -171.780579, 185.275223, 49.767746, 2967.810913, 944.254761)">
      <stop stop-color="#F0EEF7"/>
      <stop offset="0.02" stop-color="#E6E4ED"/>
      <stop offset="0.13" stop-color="#B1B0B6"/>
      <stop offset="0.25" stop-color="#828186"/>
      <stop offset="0.36" stop-color="#5A595C"/>
      <stop offset="0.48" stop-color="#39393B"/>
      <stop offset="0.6" stop-color="#202021"/>
      <stop offset="0.73" stop-color="#0E0E0F"/>
      <stop offset="0.86" stop-color="#030304"/>
      <stop offset="1"/>
    </radialGradient>
  </defs>
</svg>