<svg width="69" height="80" viewBox="0 0 69 80" fill="none" xmlns="http://www.w3.org/2000/svg">
<path d="M0 0.732483H68.5859V1.72136C68.5859 12.5623 68.6958 23.391 68.5859 34.2197C68.354 52.5321 60.1378 65.9611 44.084 74.7389C41.2517 76.2771 38.3827 77.7299 35.5382 79.2437C35.167 79.458 34.746 79.5708 34.3174 79.5708C33.8888 79.5708 33.4677 79.458 33.0965 79.2437C29.8369 77.5101 26.5285 75.8742 23.33 74.0674C17.4182 70.9126 12.3091 66.4436 8.39567 61.0042C4.48228 55.5648 1.869 49.3001 0.756912 42.6922C0.291069 40.0566 0.0622659 37.3845 0.0732488 34.708C-6.50353e-07 23.7206 0.0732488 12.7332 0.0732488 1.74577L0 0.732483ZM3.57702 4.27288V5.07862C3.57702 14.9551 3.57702 24.8316 3.57702 34.708C3.58238 36.8126 3.74151 38.9139 4.05314 40.9953C4.8521 46.8043 6.92285 52.3654 10.1177 57.2823C13.3126 62.1991 17.553 66.3505 22.5364 69.4405C26.1989 71.7722 30.0933 73.5913 33.9023 75.6178C34.0432 75.678 34.1947 75.7089 34.3479 75.7089C34.5011 75.7089 34.6526 75.678 34.7935 75.6178C36.5515 74.7266 38.2606 73.7622 40.0308 72.8832C45.2845 70.4639 50.035 67.0759 54.0337 62.8969C60.984 55.5428 64.8884 45.8276 64.9601 35.7091C65.1066 25.503 64.9601 15.2969 64.9601 5.09083C64.9601 4.83445 64.9601 4.56587 64.9601 4.27288H3.57702Z" fill="white"/>
<path d="M38.92 22.976H28.0669V50.2614H38.92V22.976Z" fill="white"/>
<path d="M27.8926 33.0364L20.4888 30.3913L14.2785 47.7741L21.6823 50.4192L27.8926 33.0364Z" fill="white"/>
<path d="M42.3413 17.0035L37.5298 18.7757L49.0785 50.1304L53.89 48.3583L42.3413 17.0035Z" fill="white"/>
</svg>
