<?xml version="1.0" encoding="utf-8"?>
<svg width="161" viewBox="19.224 -7.915 141.776 188.506" fill="none" height="236" xmlns="http://www.w3.org/2000/svg">
  <path d="M 120.804 121.772 C 125.529 124.616 128.42 130.21 127.664 135.649 C 127.282 138.267 126.169 140.732 124.451 142.77 C 122.613 144.943 120.353 146.268 117.729 147.35 C 114.736 148.575 111.964 150.266 111.077 153.547 C 110.3 156.416 111.132 159.511 112.593 162.034 C 115.564 167.136 121.406 170.288 127.027 171.783 C 132.802 173.324 138.916 173.42 144.859 172.928 C 151.313 172.399 158.666 170.58 164.729 173.715 C 167.158 174.964 169.047 176.877 169.773 179.52 C 170.623 182.619 170.074 185.963 169.773 189.099 C 169.183 195.371 169.837 201.771 172.295 207.63 C 174.707 213.366 178.612 218.379 184.021 221.681 C 189.198 224.892 195.354 226.233 201.429 225.471 C 202.887 225.274 204.322 224.931 205.709 224.447 C 206.286 224.276 206.775 223.894 207.073 223.378 C 207.371 222.864 207.456 222.256 207.309 221.681 C 206.998 220.578 205.661 219.703 204.49 220.112 C 199.281 221.939 193.519 221.415 188.573 219.029 C 183.206 216.442 179.232 212.045 176.825 206.714 C 174.345 201.247 173.777 195.199 174.321 189.295 C 174.622 185.997 175.017 182.719 174.418 179.425 C 173.861 176.356 172.202 173.584 169.74 171.612 C 164.219 167.273 157.189 167.152 150.472 167.864 C 144.418 168.498 138.308 169.168 132.241 168.28 C 126.887 167.498 121.368 165.557 117.725 161.447 C 116.26 159.781 115.008 157.249 115.428 155.042 C 115.929 152.368 119.156 151.669 121.326 150.716 C 124.105 149.461 126.533 147.564 128.4 145.186 C 130.268 142.809 131.519 140.023 132.047 137.067 C 132.576 134.111 132.364 131.074 131.432 128.215 C 130.5 125.357 128.875 122.763 126.696 120.657 C 125.617 119.606 124.415 118.684 123.118 117.908 C 120.595 116.392 118.29 120.277 120.804 121.789 L 120.804 121.772 Z" fill="white" style=""/>
  <path d="M 198.053 226.167 C 193 226.136 188.055 224.72 183.779 222.077 C 178.574 218.895 174.439 213.965 171.87 207.813 C 169.531 202.242 168.669 195.933 169.323 189.073 C 169.365 188.612 169.417 188.149 169.463 187.679 C 169.747 184.993 170.036 182.215 169.332 179.645 C 168.695 177.33 167.03 175.419 164.517 174.12 C 159.779 171.671 154.212 172.329 148.808 172.965 C 147.505 173.12 146.159 173.282 144.876 173.383 C 137.858 173.956 131.974 173.579 126.883 172.22 C 120.171 170.434 114.813 166.807 112.18 162.259 C 111.179 160.523 109.633 157.07 110.623 153.435 C 111.611 149.799 114.839 148.041 117.538 146.938 C 120.485 145.73 122.501 144.36 124.085 142.494 C 125.754 140.521 126.831 138.132 127.198 135.595 C 127.91 130.468 125.176 124.946 120.549 122.164 C 120.233 121.981 119.958 121.736 119.743 121.445 C 119.527 121.154 119.374 120.822 119.295 120.47 C 119.215 120.119 119.21 119.756 119.279 119.402 C 119.35 119.048 119.492 118.713 119.699 118.416 C 119.87 118.113 120.101 117.848 120.379 117.636 C 120.659 117.424 120.978 117.272 121.321 117.187 C 121.662 117.101 122.018 117.086 122.365 117.141 C 122.713 117.196 123.045 117.321 123.342 117.508 C 126.755 119.532 129.455 122.533 131.077 126.106 C 132.7 129.679 133.168 133.655 132.42 137.497 C 131.806 140.446 130.499 143.212 128.603 145.578 C 126.708 147.943 124.275 149.842 121.5 151.123 C 121.1 151.302 120.676 151.465 120.226 151.64 C 118.26 152.394 116.231 153.176 115.865 155.121 C 115.441 157.286 116.791 159.723 118.061 161.155 C 121.168 164.662 125.958 166.91 132.293 167.819 C 138.177 168.676 144.18 168.048 150.022 167.44 L 150.408 167.397 C 156.832 166.727 164.186 166.661 170.01 171.255 C 172.574 173.285 174.301 176.159 174.872 179.341 C 175.432 182.415 175.14 185.51 174.872 188.504 L 174.795 189.336 C 174.197 195.824 175.029 201.609 177.266 206.536 C 179.75 212.003 183.737 216.188 188.798 218.613 C 193.769 221.015 199.442 221.403 204.358 219.679 C 204.681 219.571 205.022 219.531 205.361 219.559 C 205.7 219.588 206.029 219.685 206.328 219.845 C 206.674 220.019 206.98 220.26 207.228 220.553 C 207.476 220.848 207.661 221.187 207.771 221.553 C 207.953 222.236 207.859 222.961 207.507 223.577 C 207.156 224.193 206.575 224.653 205.887 224.859 C 204.468 225.352 203.004 225.702 201.514 225.904 C 200.368 226.071 199.212 226.159 198.053 226.167 Z M 156.255 171.466 C 159.265 171.466 162.199 171.904 164.937 173.312 C 167.676 174.719 169.501 176.834 170.206 179.4 C 170.957 182.128 170.656 184.993 170.368 187.758 C 170.32 188.224 170.27 188.687 170.227 189.14 C 169.599 195.858 170.436 202.021 172.72 207.464 C 175.228 213.44 179.22 218.225 184.263 221.303 C 189.346 224.479 195.405 225.806 201.382 225.051 C 202.81 224.86 204.215 224.524 205.573 224.047 C 206.04 223.914 206.437 223.608 206.682 223.195 C 206.926 222.781 206.998 222.292 206.884 221.827 C 206.806 221.582 206.679 221.354 206.51 221.157 C 206.341 220.96 206.133 220.799 205.9 220.682 C 205.713 220.579 205.507 220.515 205.294 220.494 C 205.081 220.473 204.867 220.496 204.664 220.561 C 199.514 222.365 193.583 221.965 188.391 219.458 C 183.134 216.926 178.999 212.591 176.426 206.923 C 174.125 201.859 173.267 195.92 173.879 189.282 L 173.959 188.449 C 174.248 185.385 174.519 182.49 173.981 179.533 C 173.443 176.559 171.837 173.872 169.455 171.958 C 163.888 167.573 156.76 167.644 150.523 168.297 L 150.136 168.339 C 144.257 168.952 138.172 169.588 132.177 168.709 C 125.618 167.752 120.642 165.403 117.386 161.726 C 115.985 160.148 114.512 157.42 114.978 154.942 C 115.445 152.465 117.916 151.552 119.908 150.778 C 120.332 150.607 120.757 150.449 121.144 150.278 C 124.182 148.883 126.779 146.705 128.654 143.976 C 130.53 141.246 131.615 138.069 131.793 134.782 C 131.972 131.496 131.237 128.223 129.667 125.314 C 128.097 122.406 125.75 119.969 122.879 118.266 C 122.686 118.14 122.468 118.055 122.238 118.018 C 122.009 117.98 121.775 117.991 121.551 118.048 C 121.325 118.105 121.116 118.209 120.934 118.351 C 120.753 118.493 120.604 118.671 120.498 118.874 C 120.357 119.071 120.26 119.293 120.211 119.528 C 120.162 119.763 120.163 120.006 120.215 120.24 C 120.266 120.475 120.366 120.697 120.51 120.892 C 120.652 121.086 120.835 121.25 121.045 121.372 C 126.047 124.379 128.892 130.118 128.123 135.69 C 127.733 138.394 126.586 140.939 124.807 143.04 C 123.109 145.027 120.986 146.475 117.908 147.742 C 115.403 148.771 112.414 150.365 111.539 153.643 C 110.665 156.92 112.074 160.173 113.008 161.788 C 115.522 166.128 120.676 169.605 127.15 171.33 C 132.139 172.657 137.922 173.028 144.83 172.462 C 146.104 172.358 147.377 172.207 148.727 172.045 C 151.222 171.707 153.736 171.514 156.255 171.466 Z" fill="#241337" style=""/>
  <path d="M 130.267 80.653 C 130.267 80.653 143.056 88.423 135.952 103.557 C 128.849 118.69 127.46 126.853 109.79 121.714 C 99.219 118.636 98.56 94.412 107.829 83.576 C 114.04 76.334 130.267 80.653 130.267 80.653 Z" fill="white" style=""/>
  <path d="M 118.735 124.138 C 116.218 124.138 113.216 123.638 109.544 122.568 C 105.969 121.531 103.273 118.337 101.74 113.339 C 100.361 108.833 100.084 103.099 100.98 97.606 C 101.936 91.776 104.131 86.591 107.158 83.051 C 113.654 75.46 129.812 79.653 130.51 79.836 C 130.591 79.858 130.669 79.89 130.743 79.932 C 133.111 81.51 135.093 83.586 136.542 86.008 C 138.758 89.685 140.592 95.782 136.763 103.948 C 136.037 105.497 135.379 106.955 134.738 108.371 C 130.394 117.912 127.601 124.138 118.735 124.138 Z M 120.068 80.257 C 115.764 80.257 111.123 81.09 108.504 84.159 C 102.195 91.534 100.955 104.79 103.409 112.844 C 104.356 115.922 106.27 119.823 110.028 120.919 C 117.373 123.055 121.915 122.934 125.185 120.502 C 128.36 118.162 130.352 113.756 133.108 107.659 C 133.749 106.239 134.411 104.773 135.141 103.216 C 137.948 97.232 137.913 91.751 135.039 86.933 C 133.74 84.768 131.986 82.9 129.893 81.452 C 126.676 80.687 123.38 80.282 120.068 80.244 L 120.068 80.257 Z" fill="#241337" style=""/>
  <path d="M 81.794 64.694 C 93.878 68.101 100.785 65.148 102.475 70.466 C 104.597 77.184 98.731 81.502 93.028 80.619 C 87.326 79.736 77.6 76.792 76.449 76.18 C 70.862 73.219 62.493 68.03 62.014 65.182 L 67.393 56.557 C 70.238 57.373 79.977 64.17 81.794 64.694 Z" fill="white" style=""/>
  <path d="M 94.535 81.598 C 93.986 81.598 93.436 81.555 92.892 81.469 C 87.246 80.59 77.307 77.617 76.033 76.942 C 72.7 75.172 61.785 69.117 61.148 65.323 C 61.114 65.119 61.155 64.91 61.262 64.732 L 66.642 56.107 C 66.743 55.946 66.895 55.821 67.075 55.753 C 67.256 55.684 67.454 55.676 67.639 55.728 C 69.338 56.216 72.934 58.452 76.419 60.613 C 78.729 62.046 81.349 63.674 82.036 63.866 C 85.944 64.927 89.954 65.587 94.001 65.835 C 98.722 66.227 102.131 66.51 103.316 70.229 C 104.305 73.34 103.778 76.272 101.834 78.479 C 100.914 79.479 99.788 80.275 98.529 80.813 C 97.27 81.351 95.908 81.619 94.535 81.598 Z M 62.961 65.319 C 63.742 67.331 69.439 71.482 76.865 75.422 C 77.888 75.963 87.53 78.891 93.169 79.77 C 95.941 80.186 98.824 79.245 100.505 77.334 C 102.038 75.597 102.436 73.248 101.634 70.725 C 100.832 68.201 98.798 67.947 93.852 67.535 C 89.688 67.287 85.561 66.613 81.54 65.523 C 80.652 65.273 78.653 64.049 75.464 62.071 C 72.768 60.405 69.49 58.36 67.75 57.611 L 62.961 65.319 Z" fill="#241337" style=""/>
  <path d="M 62.014 65.182 L 58.63 62.421 L 63.988 53.784 L 67.389 56.557 L 62.014 65.182 Z" fill="white" style=""/>
  <path d="M 62.014 66.044 C 61.809 66.043 61.611 65.973 61.453 65.844 L 58.057 63.083 C 57.894 62.951 57.786 62.765 57.751 62.561 C 57.717 62.357 57.759 62.147 57.87 61.971 L 63.237 53.342 C 63.299 53.232 63.386 53.138 63.491 53.066 C 63.597 52.993 63.717 52.946 63.844 52.926 C 63.968 52.905 64.095 52.911 64.216 52.942 C 64.338 52.974 64.451 53.031 64.548 53.109 L 67.945 55.882 C 68.107 56.016 68.215 56.202 68.25 56.406 C 68.284 56.611 68.242 56.821 68.132 56.999 L 62.757 65.623 C 62.692 65.731 62.604 65.824 62.499 65.896 C 62.394 65.968 62.275 66.017 62.15 66.04 C 62.105 66.044 62.059 66.046 62.014 66.044 Z M 59.772 62.233 L 61.793 63.899 L 66.247 56.757 L 64.209 55.091 L 59.772 62.233 Z" fill="#241337" style=""/>
  <path d="M 59.22 61.733 C 59.22 61.733 57.946 60.976 54.401 59.06 C 50.856 57.144 49.022 54.479 50.296 50.61 C 51.569 46.741 53.59 45.979 56.452 48.528 C 57.505 49.473 58.532 51.414 58.532 51.414 C 58.532 51.414 57.174 48.557 58.753 47.837 C 60.927 46.846 61.903 53.18 63.198 55.333 L 59.22 61.733 Z" fill="white" style=""/>
  <path d="M 59.22 62.596 C 59.058 62.598 58.899 62.554 58.762 62.471 C 58.762 62.471 57.467 61.696 53.977 59.814 C 49.68 57.498 48.16 54.312 49.459 50.348 C 50.232 47.978 51.293 46.65 52.703 46.279 C 53.998 45.938 55.458 46.479 57.042 47.887 C 57.131 47.97 57.225 48.057 57.314 48.149 C 57.514 47.662 57.897 47.268 58.384 47.05 C 58.623 46.934 58.886 46.872 59.153 46.866 C 59.42 46.86 59.685 46.912 59.929 47.016 C 61.305 47.595 62.052 49.769 62.833 52.064 C 63.122 53.034 63.497 53.977 63.954 54.883 C 64.035 55.017 64.078 55.17 64.078 55.326 C 64.078 55.482 64.035 55.636 63.954 55.77 L 59.976 62.183 C 59.853 62.378 59.656 62.518 59.428 62.571 C 59.36 62.587 59.29 62.596 59.22 62.596 Z M 53.476 47.903 C 53.368 47.903 53.261 47.917 53.157 47.945 C 52.393 48.145 51.693 49.157 51.132 50.86 C 50.1 54.017 51.272 56.378 54.826 58.289 C 56.902 59.41 58.197 60.134 58.919 60.547 L 62.188 55.279 C 61.795 54.406 61.454 53.512 61.165 52.601 C 60.689 51.202 59.891 48.853 59.233 48.586 C 59.233 48.586 59.195 48.586 59.127 48.586 C 59.079 48.605 59.036 48.635 59.002 48.672 C 58.967 48.709 58.941 48.754 58.927 48.803 C 58.715 49.378 59.114 50.564 59.352 51.018 C 59.455 51.224 59.47 51.461 59.395 51.678 C 59.32 51.894 59.16 52.073 58.951 52.174 C 58.741 52.275 58.499 52.29 58.278 52.217 C 58.057 52.143 57.875 51.986 57.772 51.78 C 57.271 50.815 56.634 49.923 55.879 49.132 C 55.191 48.566 54.265 47.903 53.476 47.903 Z" fill="#241337" style=""/>
  <path d="M 56.944 54.562 C 56.818 54.563 56.693 54.536 56.578 54.485 C 56.463 54.434 56.361 54.36 56.278 54.267 C 56.134 54.1 52.707 50.21 51.761 47.516 C 51.695 47.303 51.717 47.073 51.82 46.875 C 51.924 46.677 52.101 46.526 52.315 46.454 C 52.53 46.381 52.765 46.393 52.971 46.486 C 53.176 46.579 53.338 46.747 53.421 46.954 C 54.27 49.332 57.573 53.096 57.607 53.138 C 57.718 53.262 57.791 53.415 57.815 53.579 C 57.84 53.743 57.816 53.91 57.746 54.06 C 57.676 54.211 57.563 54.338 57.421 54.428 C 57.278 54.517 57.113 54.563 56.944 54.562 Z" fill="#241337" style=""/>
  <path d="M 55.671 56.132 C 55.473 56.135 55.281 56.07 55.127 55.949 C 50.538 52.401 50.033 49.469 49.994 49.344 C 49.976 49.233 49.979 49.118 50.006 49.008 C 50.032 48.898 50.081 48.794 50.148 48.703 C 50.215 48.611 50.301 48.533 50.399 48.474 C 50.497 48.415 50.606 48.375 50.72 48.357 C 50.949 48.322 51.183 48.377 51.371 48.509 C 51.559 48.642 51.687 48.841 51.727 49.065 C 51.727 49.128 52.261 51.564 56.214 54.596 C 56.359 54.705 56.465 54.857 56.518 55.03 C 56.57 55.202 56.566 55.386 56.506 55.556 C 56.446 55.725 56.333 55.872 56.183 55.976 C 56.033 56.079 55.854 56.134 55.671 56.132 Z" fill="#241337" style=""/>
  <path d="M 54.885 57.765 C 54.748 57.765 54.613 57.733 54.49 57.673 C 52.213 56.484 50.357 54.646 49.166 52.401 C 49.109 52.298 49.073 52.185 49.061 52.068 C 49.05 51.951 49.063 51.833 49.099 51.721 C 49.136 51.609 49.196 51.506 49.274 51.418 C 49.353 51.329 49.45 51.258 49.558 51.207 C 49.666 51.156 49.783 51.128 49.903 51.124 C 50.022 51.119 50.142 51.139 50.253 51.181 C 50.365 51.223 50.467 51.288 50.552 51.37 C 50.638 51.452 50.705 51.551 50.75 51.66 C 51.781 53.555 53.358 55.111 55.284 56.132 C 55.462 56.22 55.604 56.363 55.687 56.539 C 55.771 56.716 55.791 56.915 55.745 57.104 C 55.699 57.293 55.588 57.461 55.432 57.581 C 55.276 57.701 55.084 57.766 54.885 57.765 Z" fill="#241337" style=""/>
  <path d="M 71.38 102.811 C 90.061 90.447 85.815 69.08 98.501 65.702 C 109.29 62.837 125.202 74.864 125.202 74.864 C 126.237 76.524 127.363 78.128 128.573 79.67 C 130.594 82.323 128.645 105.348 110.168 124.717 C 108.326 126.645 106.266 128.598 104.369 132.121 C 100.33 139.617 100.662 147.53 101.485 152.806 L 93.639 152.506 C 92.438 151.423 86.244 145.618 85.921 136.185 C 85.778 130.835 87.505 125.598 90.816 121.344 C 90.137 121.21 89.178 121.04 88.014 120.898 C 84.291 120.448 80.58 119.998 78.143 121.169 C 73.379 123.463 73.473 131.976 73.511 132.571 L 62.502 131.022 C 60.651 125.362 59.072 117.237 62.986 110.466 C 65.389 106.309 68.777 104.536 71.38 102.811 Z" fill="white" style=""/>
  <path d="M 101.485 153.668 L 101.452 153.668 L 93.606 153.372 C 93.396 153.366 93.197 153.284 93.046 153.143 C 91.249 151.524 85.361 145.514 85.042 136.219 C 84.889 131.142 86.375 126.149 89.288 121.951 C 88.829 121.88 88.371 121.814 87.908 121.76 C 84.38 121.344 80.733 120.889 78.529 121.947 C 74.224 124.03 74.381 132.204 74.39 132.554 C 74.392 132.679 74.367 132.804 74.317 132.918 C 74.266 133.033 74.191 133.136 74.097 133.221 C 74.001 133.303 73.888 133.365 73.766 133.401 C 73.643 133.437 73.514 133.446 73.388 133.428 L 62.379 131.875 C 62.216 131.853 62.062 131.786 61.936 131.682 C 61.81 131.579 61.716 131.442 61.666 131.289 C 58.851 122.697 59.038 115.55 62.222 110.05 C 64.417 106.247 67.427 104.323 69.864 102.774 C 70.221 102.545 70.569 102.324 70.904 102.104 C 80.478 95.765 83.836 87.112 86.804 79.503 C 89.5 72.578 91.827 66.593 98.268 64.874 C 109.349 61.929 125.07 73.685 125.733 74.189 C 125.824 74.259 125.901 74.345 125.958 74.443 C 126.979 76.071 128.084 77.646 129.269 79.162 C 130.581 80.882 130.424 87.716 127.894 96.174 C 124.592 107.064 118.74 117.047 110.805 125.325 C 110.61 125.533 110.41 125.741 110.21 125.945 C 108.512 127.69 106.78 129.497 105.141 132.541 C 102.093 138.21 101.151 144.989 102.348 152.693 C 102.367 152.814 102.36 152.938 102.326 153.057 C 102.293 153.175 102.233 153.284 102.154 153.378 C 102.073 153.473 101.972 153.549 101.86 153.601 C 101.747 153.654 101.624 153.682 101.498 153.684 L 101.485 153.668 Z M 94.001 151.66 L 100.466 151.906 C 99.448 144.252 100.501 137.464 103.591 131.722 C 105.345 128.469 107.256 126.49 108.937 124.741 L 109.527 124.129 C 117.272 116.053 122.986 106.312 126.212 95.686 C 128.879 86.77 128.475 80.986 127.868 80.186 C 125.848 77.538 124.833 75.938 124.531 75.451 C 122.998 74.331 108.47 63.945 98.731 66.535 C 93.13 68.022 91.058 73.361 88.43 80.115 C 85.522 87.586 81.905 96.885 71.872 103.528 L 71.38 102.811 L 71.872 103.528 L 70.807 104.215 C 68.429 105.735 65.712 107.459 63.75 110.878 C 60.88 115.842 60.689 122.352 63.173 130.23 L 72.641 131.563 C 72.721 128.96 73.379 122.492 77.757 120.385 C 80.427 119.099 84.342 119.573 88.125 120.032 C 89.084 120.148 90.044 120.302 90.986 120.485 C 91.133 120.514 91.269 120.578 91.383 120.673 C 91.497 120.768 91.584 120.889 91.636 121.027 C 91.689 121.165 91.705 121.313 91.683 121.459 C 91.662 121.604 91.603 121.743 91.513 121.859 C 88.316 125.95 86.652 130.996 86.8 136.148 C 87.089 144.418 92.111 149.891 94.001 151.66 Z" fill="#241337" style=""/>
  <path d="M 64.48 142.357 L 61.564 128.922 C 61.564 128.922 62.876 130.143 67.864 129.514 C 70.913 129.131 74.636 127.286 74.636 127.286 C 74.636 127.286 75.349 138.176 75.617 139.496 C 76.695 144.877 76.861 144.235 77.625 150.044 L 54.537 152.96 C 51.527 147.651 54.66 141.416 64.48 142.357 Z" fill="white" style=""/>
  <path d="M 54.537 153.822 C 54.381 153.822 54.227 153.781 54.092 153.704 C 53.957 153.625 53.845 153.514 53.769 153.381 C 52.181 150.574 52.16 147.513 53.713 145.189 C 54.758 143.627 57.369 141.158 63.377 141.416 L 60.702 129.102 C 60.655 128.916 60.671 128.72 60.748 128.543 C 60.825 128.366 60.957 128.219 61.126 128.123 C 61.29 128.037 61.478 128.006 61.661 128.035 C 61.844 128.064 62.013 128.149 62.141 128.282 C 62.302 128.385 63.674 129.172 67.737 128.661 C 70.599 128.298 74.195 126.533 74.229 126.516 C 74.358 126.451 74.502 126.419 74.647 126.423 C 74.792 126.427 74.934 126.465 75.06 126.536 C 75.187 126.607 75.293 126.706 75.37 126.827 C 75.447 126.948 75.493 127.085 75.502 127.228 C 75.787 131.584 76.279 138.401 76.466 139.33 C 76.84 141.195 77.107 142.345 77.315 143.265 C 77.839 145.461 78.228 147.687 78.478 149.928 C 78.493 150.04 78.485 150.155 78.455 150.264 C 78.425 150.374 78.373 150.476 78.303 150.565 C 78.232 150.655 78.144 150.731 78.044 150.787 C 77.944 150.844 77.833 150.88 77.719 150.895 L 54.635 153.809 L 54.537 153.822 Z M 62.604 143.128 C 59.139 143.128 56.486 144.185 55.182 146.134 C 54.083 147.776 54.04 149.945 55.038 152.031 L 76.64 149.303 C 76.411 147.401 76.071 145.513 75.621 143.648 C 75.405 142.716 75.133 141.566 74.772 139.662 C 74.547 138.555 74.063 131.588 73.863 128.598 C 71.991 129.441 70.014 130.042 67.983 130.384 C 65.512 130.697 63.856 130.576 62.774 130.339 L 65.347 142.191 C 65.375 142.323 65.372 142.46 65.336 142.591 C 65.301 142.721 65.235 142.842 65.143 142.943 C 65.051 143.044 64.936 143.122 64.808 143.172 C 64.68 143.221 64.541 143.24 64.404 143.227 C 63.776 143.157 63.181 143.128 62.604 143.128 Z" fill="#241337" style=""/>
  <path d="M 54.707 154.475 C 55.238 154.409 55.297 154.893 55.824 154.809 C 56.35 154.725 56.286 154.279 56.813 154.214 C 57.339 154.147 57.403 154.609 57.925 154.542 C 58.447 154.475 58.392 154.014 58.914 153.947 C 59.437 153.88 59.5 154.342 60.027 154.276 C 60.553 154.21 60.49 153.747 61.016 153.68 C 61.543 153.614 61.602 154.076 62.128 154.014 C 62.655 153.951 62.595 153.48 63.118 153.413 C 63.64 153.347 63.704 153.831 64.23 153.747 C 64.756 153.663 64.693 153.218 65.219 153.152 C 65.746 153.085 65.805 153.547 66.332 153.48 C 66.858 153.413 66.794 152.952 67.321 152.885 C 67.847 152.818 67.907 153.301 68.429 153.214 C 68.951 153.126 68.896 152.685 69.418 152.618 C 69.94 152.552 70.008 153.034 70.531 152.952 C 71.053 152.868 70.998 152.422 71.52 152.356 C 72.042 152.289 72.106 152.752 72.632 152.685 C 73.159 152.618 73.099 152.156 73.621 152.09 C 74.144 152.023 74.207 152.485 74.734 152.418 C 75.26 152.351 75.197 151.89 75.723 151.823 C 76.249 151.756 76.309 152.239 76.835 152.156 C 77.362 152.073 77.298 151.623 77.825 151.561 L 77.625 150.044 L 54.512 152.96 L 54.707 154.475 Z" fill="white" style=""/>
  <path d="M 55.726 155.675 C 55.38 155.67 55.044 155.557 54.766 155.354 L 54.745 155.354 C 54.526 155.363 54.311 155.291 54.143 155.152 C 53.975 155.013 53.866 154.818 53.837 154.605 L 53.637 153.093 C 53.608 152.866 53.672 152.637 53.814 152.456 C 53.957 152.275 54.166 152.157 54.397 152.127 L 77.515 149.212 C 77.745 149.185 77.977 149.247 78.161 149.387 C 78.345 149.527 78.465 149.731 78.495 149.958 L 78.695 151.468 C 78.723 151.683 78.669 151.899 78.542 152.076 C 78.416 152.253 78.226 152.377 78.011 152.422 C 77.755 152.747 77.378 152.96 76.963 153.014 C 76.574 153.065 76.18 152.97 75.859 152.747 C 75.606 153.042 75.25 153.232 74.861 153.28 C 74.473 153.33 74.08 153.233 73.762 153.01 C 73.508 153.303 73.152 153.494 72.764 153.543 C 72.375 153.592 71.981 153.497 71.66 153.277 C 71.406 153.575 71.046 153.769 70.652 153.819 C 70.258 153.869 69.86 153.77 69.537 153.543 C 69.284 153.837 68.928 154.026 68.538 154.075 C 68.149 154.124 67.756 154.027 67.435 153.805 C 67.182 154.098 66.826 154.289 66.437 154.339 C 66.049 154.387 65.655 154.292 65.334 154.072 C 65.081 154.365 64.726 154.555 64.338 154.605 C 63.95 154.654 63.557 154.559 63.237 154.339 C 62.983 154.634 62.625 154.824 62.235 154.871 C 61.846 154.922 61.453 154.825 61.135 154.6 C 60.88 154.895 60.523 155.086 60.133 155.138 C 59.745 155.188 59.351 155.092 59.033 154.867 C 58.779 155.167 58.419 155.36 58.025 155.41 C 57.632 155.459 57.233 155.36 56.91 155.134 C 56.656 155.428 56.299 155.619 55.908 155.666 L 55.726 155.675 Z M 55.501 153.777 C 55.571 153.808 55.638 153.848 55.7 153.893 C 55.779 153.803 55.867 153.723 55.964 153.652 L 55.492 153.71 L 55.501 153.777 Z M 57.492 153.46 C 57.603 153.502 57.709 153.558 57.806 153.626 C 57.884 153.537 57.971 153.457 58.065 153.385 L 57.492 153.46 Z M 59.615 153.193 C 59.726 153.237 59.831 153.292 59.929 153.359 C 60.006 153.27 60.093 153.189 60.188 153.118 L 59.615 153.193 Z M 61.717 152.926 C 61.826 152.973 61.931 153.029 62.031 153.093 C 62.109 153.006 62.196 152.926 62.29 152.855 L 61.717 152.926 Z M 63.818 152.66 C 63.928 152.706 64.033 152.762 64.132 152.827 C 64.211 152.74 64.298 152.66 64.391 152.59 L 63.818 152.66 Z M 65.941 152.398 C 66.051 152.44 66.155 152.497 66.251 152.564 C 66.329 152.475 66.416 152.395 66.51 152.323 L 65.941 152.398 Z M 68.038 152.131 C 68.148 152.178 68.253 152.233 68.353 152.297 C 68.431 152.211 68.518 152.131 68.612 152.06 L 68.038 152.131 Z M 70.14 151.864 C 70.25 151.911 70.356 151.968 70.454 152.035 C 70.532 151.947 70.619 151.866 70.713 151.794 L 70.14 151.864 Z M 72.263 151.602 C 72.374 151.645 72.479 151.701 72.577 151.769 C 72.655 151.68 72.742 151.6 72.836 151.528 L 72.263 151.602 Z M 74.364 151.336 C 74.473 151.383 74.578 151.439 74.679 151.502 C 74.754 151.414 74.84 151.334 74.933 151.265 L 74.364 151.336 Z M 76.487 151.069 C 76.595 151.116 76.699 151.171 76.797 151.236 C 76.84 151.19 76.895 151.136 76.959 151.078 L 76.959 151.011 L 76.487 151.069 Z" fill="#241337" style=""/>
  <path d="M 94.867 161.426 L 89.81 148.616 C 89.81 148.616 91.305 149.616 96.127 148.22 C 99.074 147.363 102.454 144.96 102.454 144.96 C 102.454 144.96 104.92 155.604 105.4 156.866 C 107.336 162.009 107.395 161.351 109.09 166.969 L 86.766 173.445 C 82.936 168.668 85.017 162.034 94.867 161.426 Z" fill="white" style=""/>
  <path d="M 86.766 174.307 C 86.633 174.306 86.502 174.276 86.382 174.219 C 86.262 174.162 86.157 174.079 86.074 173.978 C 84.053 171.455 83.527 168.435 84.694 165.898 C 85.471 164.196 87.666 161.351 93.61 160.668 L 88.974 148.929 C 88.898 148.751 88.883 148.553 88.932 148.365 C 88.981 148.178 89.091 148.012 89.246 147.892 C 89.393 147.782 89.574 147.722 89.759 147.722 C 89.945 147.722 90.125 147.782 90.273 147.892 C 90.451 147.97 91.928 148.533 95.861 147.392 C 98.628 146.589 101.889 144.285 101.918 144.26 C 102.038 144.178 102.175 144.125 102.319 144.106 C 102.463 144.088 102.61 144.103 102.746 144.152 C 102.882 144.203 103.003 144.286 103.099 144.393 C 103.194 144.501 103.261 144.63 103.295 144.769 C 104.279 149.025 105.871 155.679 106.207 156.566 C 106.874 158.344 107.324 159.44 107.684 160.314 C 108.559 162.407 109.302 164.547 109.913 166.727 C 109.948 166.835 109.96 166.949 109.948 167.061 C 109.936 167.174 109.902 167.282 109.845 167.382 C 109.79 167.481 109.716 167.569 109.626 167.641 C 109.537 167.712 109.434 167.766 109.323 167.798 L 86.999 174.269 C 86.924 174.292 86.845 174.305 86.766 174.307 Z M 91.224 149.812 L 95.686 161.114 C 95.735 161.24 95.755 161.376 95.741 161.511 C 95.727 161.645 95.68 161.774 95.606 161.889 C 95.531 162.003 95.431 162.097 95.312 162.166 C 95.194 162.235 95.06 162.275 94.922 162.284 C 90.57 162.55 87.428 164.125 86.299 166.602 C 85.48 168.394 85.785 170.542 87.11 172.433 L 107.994 166.378 C 107.458 164.539 106.816 162.732 106.071 160.963 C 105.706 160.077 105.251 158.969 104.573 157.17 C 104.173 156.108 102.564 149.303 101.885 146.384 C 100.173 147.508 98.317 148.404 96.366 149.049 C 93.984 149.741 92.332 149.878 91.224 149.812 Z" fill="#241337" style=""/>
  <path d="M 87.182 174.91 C 87.692 174.765 87.823 175.214 88.333 175.069 C 88.842 174.923 88.706 174.473 89.216 174.324 C 89.725 174.174 89.861 174.624 90.366 174.477 C 90.872 174.331 90.74 173.882 91.249 173.732 C 91.759 173.582 91.891 174.036 92.4 173.891 C 92.91 173.745 92.774 173.291 93.279 173.144 C 93.784 172.999 93.924 173.445 94.429 173.299 C 94.935 173.153 94.803 172.704 95.312 172.554 C 95.822 172.403 95.953 172.858 96.463 172.707 C 96.972 172.558 96.836 172.112 97.342 171.966 C 97.847 171.821 97.987 172.267 98.492 172.121 C 98.997 171.974 98.866 171.525 99.375 171.379 C 99.885 171.233 100.016 171.679 100.526 171.529 C 101.035 171.379 100.896 170.934 101.406 170.788 C 101.915 170.643 102.046 171.087 102.555 170.942 C 103.065 170.796 102.93 170.346 103.435 170.197 C 103.94 170.047 104.08 170.501 104.59 170.35 C 105.099 170.201 104.959 169.755 105.468 169.609 C 105.978 169.463 106.11 169.913 106.619 169.764 C 107.129 169.613 106.993 169.168 107.498 169.022 C 108.003 168.877 108.139 169.322 108.648 169.176 C 109.158 169.03 109.022 168.577 109.527 168.431 L 109.103 166.969 L 86.753 173.449 L 87.182 174.91 Z" fill="white" style=""/>
  <path d="M 88.137 175.96 C 87.872 175.954 87.612 175.889 87.377 175.768 L 87.356 175.768 C 87.141 175.81 86.917 175.773 86.728 175.662 C 86.54 175.551 86.401 175.375 86.337 175.169 L 85.913 173.707 C 85.849 173.489 85.875 173.253 85.985 173.053 C 86.04 172.954 86.114 172.866 86.204 172.794 C 86.293 172.723 86.396 172.669 86.507 172.637 L 108.857 166.157 C 109.08 166.092 109.32 166.117 109.525 166.227 C 109.73 166.337 109.881 166.521 109.947 166.74 L 110.372 168.198 C 110.434 168.404 110.414 168.628 110.318 168.822 C 110.221 169.015 110.055 169.168 109.85 169.247 C 109.658 169.598 109.335 169.862 108.948 169.985 C 108.563 170.108 108.143 170.079 107.777 169.905 C 107.577 170.234 107.257 170.477 106.882 170.588 C 106.506 170.698 106.1 170.664 105.748 170.492 C 105.547 170.822 105.227 171.065 104.851 171.175 C 104.475 171.284 104.072 171.251 103.719 171.083 C 103.517 171.413 103.195 171.657 102.819 171.766 C 102.442 171.875 102.038 171.84 101.685 171.671 C 101.483 172 101.163 172.242 100.787 172.352 C 100.411 172.462 100.009 172.43 99.656 172.262 C 99.452 172.591 99.131 172.833 98.755 172.941 C 98.379 173.05 97.975 173.017 97.622 172.849 C 97.421 173.179 97.101 173.424 96.724 173.533 C 96.349 173.641 95.944 173.607 95.593 173.437 C 95.391 173.767 95.071 174.012 94.694 174.121 C 94.317 174.231 93.912 174.197 93.559 174.027 C 93.359 174.358 93.038 174.602 92.661 174.711 C 92.286 174.819 91.881 174.785 91.53 174.615 C 91.327 174.945 91.006 175.189 90.63 175.298 C 90.254 175.408 89.849 175.375 89.496 175.206 C 89.295 175.537 88.973 175.782 88.596 175.89 C 88.447 175.934 88.293 175.959 88.137 175.96 Z M 87.853 174.111 C 87.926 174.133 87.997 174.161 88.065 174.195 C 88.128 174.094 88.2 174.001 88.282 173.915 L 87.832 174.044 L 87.853 174.111 Z M 89.763 173.486 C 89.88 173.512 89.992 173.551 90.099 173.603 C 90.162 173.504 90.235 173.41 90.315 173.324 L 89.763 173.486 Z M 91.797 172.895 C 91.912 172.924 92.024 172.963 92.132 173.012 C 92.195 172.913 92.267 172.82 92.349 172.737 L 91.797 172.895 Z M 93.83 172.308 C 93.947 172.333 94.059 172.373 94.166 172.424 C 94.229 172.325 94.299 172.232 94.379 172.145 L 93.83 172.308 Z M 95.861 171.716 C 95.975 171.746 96.087 171.785 96.195 171.833 C 96.258 171.735 96.329 171.643 96.408 171.558 L 95.861 171.716 Z M 97.894 171.13 C 98.009 171.154 98.12 171.193 98.225 171.246 C 98.288 171.148 98.361 171.055 98.442 170.971 L 97.894 171.13 Z M 99.924 170.538 C 100.038 170.567 100.15 170.607 100.259 170.654 C 100.322 170.558 100.393 170.466 100.471 170.38 L 99.924 170.538 Z M 101.948 169.947 C 102.062 169.977 102.173 170.015 102.28 170.063 C 102.342 169.965 102.415 169.873 102.496 169.788 L 101.948 169.947 Z M 103.978 169.355 C 104.093 169.385 104.206 169.424 104.313 169.472 C 104.375 169.374 104.446 169.282 104.526 169.197 L 103.978 169.355 Z M 106.011 168.769 C 106.125 168.797 106.236 168.836 106.343 168.885 C 106.405 168.787 106.476 168.694 106.555 168.61 L 106.011 168.769 Z M 108.041 168.181 C 108.155 168.206 108.266 168.244 108.372 168.293 C 108.407 168.239 108.453 168.177 108.504 168.11 L 108.504 168.052 L 108.041 168.181 Z" fill="#241337" style=""/>
  <path d="M 131.757 104.181 C 124.714 93.966 119.67 86.741 119.67 86.741 C 122.422 80.249 129.757 80.632 133.554 84.896 C 137.349 89.16 142.894 97.544 143.374 98.731 C 145.717 104.519 148.748 113.768 147.254 116.254 L 137.489 119.486 C 135.838 117.058 132.818 105.719 131.757 104.181 Z" fill="white" style=""/>
  <path d="M 137.485 120.348 C 137.342 120.347 137.203 120.313 137.077 120.248 C 136.951 120.182 136.844 120.088 136.763 119.974 C 135.782 118.533 134.479 114.559 133.222 110.703 C 132.373 108.146 131.443 105.252 131.04 104.669 C 124.069 94.57 118.994 87.299 118.931 87.228 C 118.847 87.108 118.794 86.968 118.78 86.823 C 118.765 86.677 118.787 86.53 118.847 86.395 C 120.12 83.38 122.442 81.465 125.376 80.982 C 128.547 80.478 131.931 81.748 134.203 84.313 C 137.956 88.536 143.636 97.073 144.176 98.397 C 145.577 101.85 149.989 113.368 147.997 116.675 C 147.89 116.853 147.722 116.988 147.521 117.054 L 137.757 120.29 C 137.669 120.323 137.578 120.343 137.485 120.348 Z M 132.487 103.69 C 133.001 104.44 133.736 106.639 134.887 110.166 C 135.862 113.144 137.048 116.767 137.893 118.436 L 146.618 115.547 C 147.33 113.514 145.678 106.742 142.554 99.043 C 142.129 97.985 136.64 89.669 132.891 85.454 C 131.044 83.372 128.22 82.298 125.673 82.706 C 123.496 83.055 121.733 84.446 120.672 86.641 C 121.823 88.307 126.446 94.924 132.487 103.69 Z" fill="#241337" style=""/>
  <path d="M 147.254 116.254 L 148.043 120.502 L 138.282 123.759 L 137.485 119.486 L 147.254 116.254 Z" fill="white" style=""/>
  <path d="M 138.282 124.621 C 138.133 124.618 137.987 124.576 137.858 124.5 C 137.748 124.438 137.653 124.354 137.58 124.252 C 137.507 124.15 137.457 124.035 137.434 123.913 L 136.635 119.644 C 136.596 119.44 136.634 119.229 136.741 119.05 C 136.848 118.871 137.017 118.736 137.217 118.67 L 146.982 115.438 C 147.101 115.393 147.23 115.376 147.356 115.387 C 147.483 115.398 147.606 115.436 147.715 115.5 C 147.825 115.564 147.919 115.651 147.99 115.754 C 148.061 115.858 148.106 115.977 148.124 116.101 L 148.918 120.348 C 148.956 120.552 148.918 120.761 148.811 120.939 C 148.704 121.117 148.536 121.252 148.337 121.318 L 138.572 124.575 C 138.479 124.605 138.381 124.621 138.282 124.621 Z M 138.486 120.065 L 138.967 122.622 L 147.033 119.927 L 146.561 117.387 L 138.486 120.065 Z" fill="#241337" style=""/>
  <path d="M 147.143 120.657 C 147.143 120.657 147.615 122.031 149.088 125.741 C 150.562 129.452 150.226 132.625 146.715 134.803 C 143.203 136.98 141.157 136.282 140.627 132.534 C 140.432 131.147 140.915 129.01 140.915 129.01 C 140.915 129.01 140.087 132.058 138.407 131.617 C 136.092 131.005 139.485 125.537 139.896 123.072 L 147.143 120.657 Z" fill="white" style=""/>
  <path d="M 143.39 136.898 C 142.922 136.902 142.458 136.804 142.032 136.61 C 140.814 136.056 140.049 134.724 139.756 132.65 C 139.756 132.529 139.727 132.404 139.718 132.28 C 139.247 132.527 138.697 132.589 138.181 132.45 C 137.922 132.388 137.68 132.27 137.471 132.107 C 137.262 131.944 137.092 131.739 136.971 131.505 C 136.296 130.189 137.145 128.052 138.049 125.795 C 138.459 124.869 138.788 123.911 139.03 122.93 C 139.057 122.776 139.126 122.633 139.229 122.515 C 139.333 122.396 139.465 122.306 139.617 122.255 L 146.859 119.84 C 146.968 119.802 147.084 119.787 147.199 119.795 C 147.315 119.803 147.427 119.834 147.53 119.886 C 147.634 119.936 147.727 120.004 147.804 120.089 C 147.88 120.175 147.939 120.274 147.975 120.381 C 147.975 120.381 148.46 121.789 149.908 125.428 C 151.691 129.906 150.757 133.308 147.182 135.532 C 145.713 136.444 144.46 136.898 143.39 136.898 Z M 140.915 128.153 C 140.986 128.153 141.058 128.161 141.128 128.177 C 141.35 128.231 141.542 128.367 141.662 128.558 C 141.783 128.749 141.823 128.978 141.773 129.198 C 141.53 130.253 141.438 131.336 141.497 132.416 C 141.637 133.42 141.976 134.69 142.771 135.052 C 143.488 135.382 144.69 135.052 146.243 134.083 C 149.101 132.308 149.742 129.76 148.269 126.057 C 147.42 123.892 146.889 122.522 146.605 121.751 L 140.66 123.733 C 140.392 124.649 140.068 125.549 139.692 126.428 C 139.145 127.802 138.223 130.105 138.55 130.73 C 138.55 130.751 138.55 130.768 138.644 130.789 C 139.187 130.93 139.858 129.585 140.079 128.79 C 140.127 128.608 140.235 128.446 140.386 128.33 C 140.537 128.214 140.723 128.15 140.915 128.148 L 140.915 128.153 Z" fill="#241337" style=""/>
  <path d="M 142.749 136.814 C 142.642 136.814 142.535 136.796 142.435 136.76 C 142.218 136.678 142.043 136.515 141.948 136.307 C 141.853 136.098 141.847 135.861 141.93 135.649 C 142.839 133.295 142.758 128.319 142.758 128.269 C 142.755 128.156 142.777 128.043 142.819 127.938 C 142.861 127.833 142.925 127.736 143.005 127.655 C 143.085 127.573 143.181 127.509 143.287 127.463 C 143.392 127.419 143.507 127.394 143.622 127.392 C 143.738 127.39 143.852 127.41 143.959 127.453 C 144.067 127.494 144.164 127.555 144.247 127.635 C 144.33 127.713 144.397 127.807 144.443 127.911 C 144.489 128.015 144.514 128.126 144.516 128.239 C 144.516 128.456 144.604 133.6 143.568 136.26 C 143.507 136.424 143.394 136.564 143.248 136.664 C 143.101 136.762 142.927 136.815 142.749 136.814 Z" fill="#241337" style=""/>
  <path d="M 145.369 136.394 C 145.215 136.393 145.064 136.352 144.93 136.275 C 144.798 136.199 144.688 136.09 144.611 135.96 C 144.534 135.829 144.493 135.68 144.493 135.529 C 144.492 135.379 144.532 135.229 144.609 135.099 C 144.643 135.04 145.819 132.858 144.783 128.019 C 144.756 127.907 144.751 127.79 144.771 127.677 C 144.79 127.563 144.832 127.454 144.895 127.356 C 144.957 127.259 145.039 127.175 145.137 127.11 C 145.233 127.044 145.342 126.997 145.457 126.974 C 145.572 126.95 145.69 126.949 145.806 126.971 C 145.921 126.993 146.031 127.038 146.129 127.102 C 146.226 127.167 146.31 127.25 146.374 127.347 C 146.438 127.443 146.482 127.551 146.502 127.665 C 147.705 133.275 146.188 135.856 146.124 135.965 C 146.048 136.094 145.938 136.202 145.805 136.277 C 145.672 136.353 145.522 136.393 145.369 136.394 Z" fill="#241337" style=""/>
  <path d="M 147.903 134.79 C 147.829 134.791 147.754 134.781 147.683 134.761 C 147.571 134.734 147.466 134.684 147.374 134.617 C 147.281 134.55 147.204 134.465 147.145 134.367 C 147.086 134.27 147.048 134.163 147.031 134.051 C 147.015 133.94 147.021 133.825 147.05 133.716 C 147.501 131.614 147.308 129.427 146.498 127.432 C 146.412 127.223 146.414 126.99 146.501 126.781 C 146.587 126.574 146.755 126.407 146.965 126.318 C 147.176 126.229 147.413 126.223 147.628 126.305 C 147.842 126.385 148.015 126.544 148.111 126.749 C 149.079 129.091 149.302 131.664 148.753 134.132 C 148.706 134.32 148.597 134.486 148.444 134.605 C 148.29 134.724 148.1 134.789 147.903 134.79 Z" fill="#241337" style=""/>
  <path d="M 138.321 69.738 C 138.321 69.738 134.338 76.138 130.679 77.937 C 127.019 79.736 133.01 81.835 132.118 83.53 C 130.802 86.029 118.604 87.79 110.465 84.696 C 94.149 78.491 92.723 68.038 92.723 68.038 C 93.465 65.894 96.65 65.956 96.65 65.956 C 96.65 65.956 96.828 62.945 98.472 61.825 L 138.321 69.738 Z" fill="white" style=""/>
  <path d="M 120.799 87.207 C 117.143 87.207 113.284 86.687 110.185 85.5 C 93.576 79.183 91.928 68.617 91.886 68.168 C 91.868 68.036 91.883 67.901 91.928 67.776 C 92.608 65.815 94.722 65.277 95.898 65.157 C 96.072 64.061 96.577 62.108 98.022 61.134 C 98.12 61.068 98.23 61.022 98.347 60.998 C 98.463 60.974 98.584 60.974 98.701 60.996 L 138.534 68.909 C 138.672 68.937 138.802 68.997 138.911 69.084 C 139.021 69.171 139.107 69.283 139.163 69.41 C 139.219 69.537 139.244 69.676 139.234 69.814 C 139.224 69.952 139.18 70.086 139.107 70.204 C 138.941 70.475 134.95 76.838 131.125 78.724 C 130.573 78.995 130.429 79.208 130.42 79.266 C 130.374 79.549 131.146 80.294 131.562 80.698 C 132.475 81.585 133.613 82.689 132.95 83.943 C 131.867 85.912 126.573 87.207 120.799 87.207 Z M 93.648 68.147 C 94.149 70.134 95.044 72.004 96.281 73.652 C 98.404 76.613 102.649 80.79 110.801 83.893 C 118.838 86.953 130.33 84.934 131.345 83.151 C 131.303 82.889 130.645 82.252 130.288 81.902 C 129.439 81.069 128.459 80.132 128.645 78.987 C 128.764 78.258 129.303 77.662 130.297 77.175 C 132.844 75.926 135.612 72.178 136.878 70.341 L 98.726 62.775 C 97.877 63.607 97.584 65.373 97.541 66.031 C 97.534 66.257 97.436 66.471 97.269 66.626 C 97.102 66.782 96.88 66.868 96.65 66.864 C 96.625 66.831 94.306 66.818 93.648 68.147 Z" fill="#241337" style=""/>
  <path d="M 99.554 42.764 C 97.509 46.994 96.789 51.723 97.485 56.354 C 98.18 60.985 100.26 65.309 103.462 68.78 C 106.662 72.252 110.842 74.714 115.469 75.856 C 120.097 76.998 124.966 76.768 129.46 75.195 C 133.956 73.623 137.874 70.779 140.721 67.022 C 143.567 63.265 145.214 58.765 145.453 54.09 C 145.693 49.415 144.513 44.775 142.064 40.758 C 139.614 36.741 136.006 33.526 131.694 31.52 C 128.831 30.188 125.728 29.422 122.563 29.266 C 119.398 29.11 116.233 29.567 113.249 30.612 C 110.264 31.656 107.518 33.267 105.169 35.352 C 102.82 37.437 100.911 39.956 99.554 42.764 Z" fill="white" style=""/>
  <path d="M 121.335 77.446 C 117.117 77.44 112.969 76.389 109.278 74.39 C 105.585 72.391 102.468 69.509 100.216 66.011 C 97.963 62.514 96.649 58.515 96.395 54.386 C 96.14 50.257 96.954 46.132 98.76 42.394 C 100.682 38.437 103.652 35.059 107.358 32.61 C 111.065 30.162 115.373 28.733 119.833 28.473 C 124.294 28.214 128.745 29.132 132.72 31.133 C 136.697 33.134 140.053 36.144 142.439 39.849 C 144.826 43.555 146.156 47.821 146.289 52.202 C 146.423 56.583 145.358 60.919 143.202 64.759 C 141.047 68.599 137.881 71.801 134.035 74.032 C 130.189 76.264 125.802 77.442 121.335 77.446 Z M 121.39 30.104 C 116.985 30.101 112.67 31.324 108.946 33.63 C 105.221 35.935 102.24 39.23 100.348 43.131 C 98.187 47.595 97.562 52.627 98.567 57.47 C 99.573 62.313 102.155 66.704 105.924 69.984 C 109.693 73.263 114.447 75.254 119.468 75.655 C 124.491 76.056 129.509 74.847 133.77 72.209 C 138.031 69.571 141.304 65.647 143.095 61.028 C 144.886 56.409 145.1 51.344 143.703 46.595 C 142.308 41.847 139.377 37.671 135.352 34.697 C 131.328 31.723 126.428 30.111 121.39 30.104 Z" fill="#241337" style=""/>
  <path d="M 128.145 40.199 C 135.956 53.846 129.355 64.957 129.355 64.957 C 129.355 64.957 108.407 76.151 97.278 54.625 C 97.278 54.625 95.865 45.829 101.524 38.383 C 107.184 30.937 115.959 29.351 115.959 29.351 C 115.959 29.351 123.058 31.316 128.145 40.199 Z" fill="#241337" style=""/>
  <path d="M 116.766 71.632 C 110.711 71.632 103.418 69.467 97.818 61.109 C 97.698 60.918 97.659 60.688 97.709 60.47 C 97.758 60.251 97.893 60.06 98.084 59.937 C 98.275 59.814 98.507 59.769 98.732 59.811 C 98.956 59.853 99.155 59.98 99.287 60.163 C 104.288 67.626 111.264 70.833 120.013 69.692 C 124.109 69.103 128.059 67.782 131.668 65.794 C 133.026 61.524 133.653 57.063 133.523 52.592 C 133.18 42.731 128.917 35.102 120.85 29.963 C 120.754 29.901 120.67 29.821 120.605 29.728 C 120.539 29.634 120.494 29.529 120.47 29.419 C 120.446 29.308 120.444 29.193 120.466 29.082 C 120.487 28.971 120.53 28.865 120.593 28.77 C 120.657 28.675 120.738 28.593 120.833 28.529 C 120.928 28.465 121.036 28.42 121.148 28.397 C 121.261 28.373 121.378 28.372 121.491 28.393 C 121.604 28.414 121.714 28.456 121.81 28.518 C 132.513 35.352 135.043 45.384 135.282 52.592 C 135.434 57.366 134.738 62.129 133.222 66.668 C 133.153 66.848 133.027 67.002 132.862 67.106 C 128.996 69.312 124.734 70.769 120.307 71.395 C 119.133 71.551 117.951 71.631 116.766 71.632 Z" fill="#241337" style=""/>
  <path d="M 128.522 50.506 C 129.601 54.721 127.703 61.046 125.644 61.196 C 123.584 61.346 126.175 54.362 124.594 50.927 C 122.934 47.32 127.422 46.263 128.522 50.506 Z" fill="white" style=""/>
  <path d="M 127.392 43.198 C 127.717 43.573 127.877 44.059 127.839 44.55 C 127.801 45.041 127.567 45.498 127.189 45.821 L 127.036 45.95 C 126.847 46.11 126.628 46.231 126.392 46.307 C 126.154 46.384 125.905 46.413 125.656 46.395 C 125.407 46.377 125.164 46.311 124.942 46.2 C 124.72 46.09 124.522 45.938 124.359 45.752 C 124.197 45.567 124.073 45.352 123.995 45.12 C 123.918 44.887 123.887 44.642 123.906 44.399 C 123.924 44.155 123.992 43.917 124.104 43.699 C 124.217 43.481 124.372 43.286 124.561 43.127 L 124.718 42.998 C 125.101 42.68 125.596 42.522 126.097 42.56 C 126.598 42.597 127.063 42.826 127.392 43.198 Z" fill="white" style=""/>
  <path d="M 101.338 53.405 C 101.442 53.316 101.565 53.252 101.699 53.217 C 101.833 53.182 101.972 53.177 102.108 53.202 C 102.244 53.228 102.373 53.282 102.484 53.363 C 102.595 53.443 102.686 53.547 102.75 53.667 C 103.536 55.137 107.379 59.276 105.128 60.846 C 103.409 62.046 101.974 60.43 101.215 58.477 C 100.119 56.786 99.686 54.662 101.338 53.405 Z" fill="white" style=""/>
  <path d="M 136.36 67.36 C 139.281 67.326 143.598 65.198 146.155 61.4 C 147.997 58.66 147.602 55.22 145.386 55.016 C 145.386 55.016 144.405 63.637 135.557 63.824 L 136.36 67.36 Z" fill="white" style=""/>
  <path d="M 136.36 68.222 C 136.161 68.219 135.97 68.151 135.816 68.029 C 135.662 67.906 135.555 67.737 135.51 67.547 L 134.708 64.011 C 134.679 63.887 134.679 63.758 134.707 63.633 C 134.737 63.508 134.793 63.391 134.874 63.291 C 134.952 63.189 135.054 63.107 135.17 63.05 C 135.286 62.993 135.414 62.963 135.544 62.962 C 143.501 62.791 144.486 55.237 144.524 54.916 C 144.549 54.692 144.664 54.487 144.843 54.345 C 145.022 54.203 145.25 54.136 145.479 54.158 C 145.979 54.203 146.456 54.379 146.863 54.667 C 147.268 54.955 147.589 55.344 147.789 55.795 C 148.596 57.461 148.235 59.884 146.897 61.875 C 144.125 65.994 139.51 68.184 136.38 68.222 L 136.36 68.222 Z M 136.64 64.619 L 137.065 66.448 C 139.65 66.115 143.234 64.195 145.432 60.926 C 146.545 59.26 146.664 57.469 146.21 56.54 C 146.163 56.441 146.105 56.347 146.036 56.261 C 145.399 58.648 143.263 63.97 136.64 64.619 Z" fill="#241337" style=""/>
  <path d="M 128.951 64.195 C 128.512 64.862 128.285 65.641 128.298 66.435 C 128.31 67.229 128.562 68.001 129.023 68.654 C 129.483 69.308 130.131 69.812 130.883 70.104 C 131.635 70.397 132.46 70.463 133.251 70.296 C 134.042 70.129 134.766 69.736 135.329 69.166 C 135.893 68.595 136.27 67.874 136.416 67.093 C 136.562 66.312 136.468 65.506 136.146 64.778 C 135.825 64.049 135.29 63.43 134.61 62.999 C 134.159 62.713 133.654 62.516 133.125 62.421 C 132.596 62.326 132.053 62.334 131.527 62.445 C 131.002 62.556 130.504 62.768 130.062 63.068 C 129.619 63.368 129.242 63.751 128.951 64.195 Z" fill="white" style=""/>
  <path d="M 132.386 71.249 C 131.492 71.248 130.615 71.01 129.848 70.562 C 129.08 70.113 128.45 69.471 128.024 68.701 C 127.596 67.931 127.389 67.063 127.422 66.187 C 127.455 65.311 127.728 64.461 128.213 63.724 C 128.655 63.049 129.261 62.491 129.976 62.101 C 130.692 61.71 131.494 61.499 132.313 61.485 C 133.131 61.472 133.941 61.656 134.67 62.023 C 135.397 62.39 136.022 62.927 136.488 63.587 C 136.954 64.248 137.246 65.011 137.34 65.808 C 137.434 66.606 137.325 67.414 137.024 68.161 C 136.723 68.908 136.238 69.57 135.613 70.089 C 134.989 70.608 134.243 70.968 133.442 71.137 C 133.096 71.211 132.741 71.249 132.386 71.249 Z M 132.386 63.212 C 132.156 63.212 131.927 63.237 131.702 63.287 C 131.289 63.372 130.897 63.537 130.55 63.772 C 130.202 64.007 129.905 64.308 129.677 64.657 C 129.292 65.244 129.118 65.94 129.181 66.636 C 129.245 67.331 129.542 67.986 130.026 68.497 C 130.511 69.008 131.155 69.347 131.858 69.459 C 132.56 69.572 133.28 69.452 133.905 69.118 C 134.53 68.785 135.025 68.256 135.311 67.617 C 135.596 66.978 135.656 66.263 135.482 65.587 C 135.308 64.91 134.909 64.309 134.348 63.879 C 133.788 63.449 133.097 63.214 132.386 63.212 Z" fill="#241337" style=""/>
  <path d="M 130.929 65.444 C 130.742 65.728 130.643 66.061 130.649 66.4 C 130.653 66.738 130.76 67.068 130.956 67.347 C 131.153 67.626 131.428 67.842 131.75 67.967 C 132.07 68.092 132.422 68.12 132.76 68.049 C 133.098 67.978 133.407 67.81 133.646 67.566 C 133.887 67.323 134.048 67.015 134.11 66.682 C 134.172 66.348 134.131 66.004 133.994 65.694 C 133.856 65.383 133.627 65.119 133.337 64.936 C 132.948 64.691 132.477 64.607 132.026 64.702 C 131.575 64.798 131.181 65.064 130.929 65.444 Z" fill="white" style=""/>
  <path d="M 132.386 68.946 C 131.915 68.945 131.453 68.819 131.049 68.582 C 130.646 68.345 130.314 68.006 130.09 67.6 C 129.865 67.194 129.756 66.737 129.773 66.275 C 129.792 65.814 129.935 65.366 130.191 64.978 C 130.425 64.623 130.745 64.331 131.122 64.127 C 131.498 63.923 131.92 63.813 132.351 63.807 C 132.782 63.801 133.206 63.9 133.589 64.093 C 133.971 64.287 134.299 64.57 134.544 64.917 C 134.788 65.265 134.942 65.666 134.99 66.085 C 135.04 66.505 134.982 66.93 134.824 67.322 C 134.665 67.715 134.411 68.063 134.082 68.336 C 133.754 68.609 133.362 68.799 132.941 68.888 C 132.759 68.926 132.572 68.946 132.386 68.946 Z M 131.668 65.915 C 131.606 66.008 131.563 66.112 131.543 66.221 C 131.522 66.331 131.524 66.443 131.549 66.552 C 131.572 66.661 131.617 66.764 131.681 66.855 C 131.746 66.947 131.828 67.025 131.923 67.085 C 132.116 67.205 132.349 67.247 132.572 67.201 C 132.684 67.178 132.789 67.134 132.882 67.07 C 132.976 67.007 133.055 66.925 133.116 66.831 C 133.179 66.738 133.222 66.634 133.244 66.524 C 133.264 66.415 133.263 66.302 133.239 66.194 C 133.217 66.084 133.172 65.98 133.109 65.887 C 133.044 65.794 132.962 65.715 132.866 65.655 C 132.77 65.594 132.663 65.553 132.551 65.534 C 132.437 65.515 132.323 65.518 132.212 65.544 C 132.101 65.567 131.995 65.612 131.902 65.675 C 131.808 65.739 131.729 65.82 131.668 65.915 Z" fill="#241337" style=""/>
  <path d="M 118.273 81.944 C 114.665 81.953 111.1 81.179 107.833 79.678 C 107.725 79.632 107.627 79.566 107.546 79.483 C 107.465 79.399 107.402 79.301 107.36 79.193 C 107.317 79.085 107.299 78.97 107.303 78.855 C 107.308 78.74 107.335 78.627 107.384 78.522 C 107.434 78.418 107.505 78.324 107.593 78.247 C 107.68 78.169 107.782 78.11 107.893 78.072 C 108.004 78.034 108.122 78.019 108.239 78.026 C 108.356 78.034 108.471 78.065 108.576 78.116 C 119.339 83.055 129.546 77.638 129.647 77.583 C 129.749 77.523 129.861 77.482 129.979 77.465 C 130.096 77.448 130.216 77.455 130.33 77.485 C 130.446 77.514 130.553 77.567 130.647 77.638 C 130.741 77.71 130.818 77.799 130.876 77.901 C 130.934 78.003 130.969 78.116 130.981 78.232 C 130.993 78.348 130.981 78.465 130.946 78.576 C 130.91 78.687 130.852 78.79 130.775 78.878 C 130.697 78.967 130.602 79.039 130.497 79.091 C 126.705 80.963 122.519 81.94 118.273 81.944 Z" fill="#241337" style=""/>
  <path d="M 102.118 75.609 C 101.907 75.611 101.702 75.535 101.545 75.397 C 98.059 72.44 95.924 66.506 95.835 66.235 C 95.796 66.128 95.779 66.014 95.784 65.9 C 95.789 65.787 95.819 65.675 95.868 65.572 C 95.919 65.469 95.989 65.377 96.075 65.301 C 96.162 65.225 96.263 65.167 96.373 65.129 C 96.482 65.092 96.599 65.076 96.714 65.083 C 96.831 65.09 96.944 65.119 97.049 65.17 C 97.153 65.22 97.247 65.29 97.323 65.375 C 97.399 65.461 97.458 65.561 97.495 65.669 C 97.516 65.723 99.566 71.42 102.695 74.077 C 102.83 74.192 102.926 74.345 102.97 74.515 C 103.014 74.685 103.004 74.865 102.942 75.029 C 102.878 75.193 102.766 75.335 102.619 75.435 C 102.472 75.535 102.297 75.589 102.118 75.589 L 102.118 75.609 Z" fill="#241337" style=""/>
  <path d="M 90.528 78.841 C 90.528 78.841 92.451 77.879 94.96 79.424 L 110.5 89.002 C 110.767 89.116 111.01 89.28 111.213 89.485 C 111.417 89.69 111.577 89.933 111.685 90.199 C 111.792 90.465 111.846 90.75 111.84 91.036 C 111.836 91.322 111.774 91.605 111.659 91.867 L 103.646 110.083 C 103.412 110.613 102.974 111.03 102.426 111.243 C 101.878 111.457 101.267 111.449 100.726 111.22 L 83.403 100.538 C 82.843 100.301 81.93 97.548 81.93 97.548 L 90.528 78.841 Z" fill="white" style=""/>
  <path d="M 101.592 112.261 C 101.17 112.26 100.753 112.175 100.365 112.011 C 100.323 111.994 100.283 111.974 100.246 111.948 L 82.97 101.296 C 82.677 101.158 82.036 100.683 81.085 97.814 C 81.018 97.611 81.03 97.389 81.119 97.193 L 89.73 78.487 C 89.81 78.308 89.951 78.161 90.129 78.071 C 90.226 78.025 92.527 76.909 95.427 78.695 L 110.915 88.248 C 111.65 88.581 112.223 89.182 112.513 89.924 C 112.803 90.665 112.786 91.488 112.465 92.217 L 104.441 110.425 C 104.2 110.97 103.803 111.434 103.297 111.761 C 102.79 112.087 102.198 112.261 101.592 112.261 Z M 101.099 110.449 C 101.421 110.567 101.777 110.559 102.092 110.427 C 102.408 110.296 102.661 110.05 102.798 109.741 L 110.864 91.534 C 110.935 91.375 110.972 91.205 110.974 91.031 C 110.978 90.858 110.945 90.686 110.881 90.525 C 110.816 90.365 110.719 90.218 110.596 90.094 C 110.473 89.969 110.326 89.87 110.164 89.802 C 110.122 89.785 110.082 89.764 110.045 89.739 L 94.506 80.161 C 92.952 79.208 91.712 79.382 91.194 79.528 L 82.843 97.594 C 83.087 98.365 83.42 99.108 83.836 99.805 L 101.099 110.449 Z" fill="#241337" style=""/>
  <path d="M 81.994 96.153 C 81.786 96.624 81.778 97.157 81.971 97.635 C 82.163 98.113 82.541 98.497 83.021 98.701 L 98.42 108.192 C 98.9 108.395 99.443 108.404 99.93 108.215 C 100.417 108.026 100.806 107.655 101.015 107.184 L 108.148 91.001 C 108.355 90.53 108.362 89.997 108.168 89.519 C 107.975 89.042 107.596 88.66 107.116 88.457 L 91.721 78.962 C 91.239 78.758 90.695 78.751 90.208 78.941 C 89.721 79.13 89.33 79.502 89.122 79.974 L 81.994 96.153 Z" fill="white" style=""/>
  <path d="M 99.18 109.212 C 98.792 109.212 98.408 109.134 98.051 108.984 C 98.01 108.967 97.97 108.946 97.932 108.921 L 82.584 99.463 C 81.909 99.155 81.384 98.602 81.119 97.92 C 80.854 97.238 80.871 96.481 81.166 95.811 L 88.294 79.628 C 88.597 78.948 89.161 78.413 89.864 78.14 C 90.568 77.866 91.353 77.878 92.047 78.17 C 92.089 78.187 92.129 78.208 92.167 78.233 L 107.511 87.695 C 108.186 88 108.713 88.553 108.979 89.234 C 109.245 89.916 109.228 90.673 108.932 91.343 L 101.8 107.526 C 101.578 108.027 101.212 108.453 100.747 108.753 C 100.282 109.053 99.737 109.212 99.18 109.212 Z M 98.798 107.422 C 99.061 107.517 99.351 107.51 99.609 107.403 C 99.867 107.295 100.074 107.095 100.187 106.843 L 107.32 90.66 C 107.376 90.53 107.406 90.391 107.408 90.25 C 107.41 90.109 107.384 89.968 107.33 89.837 C 107.278 89.706 107.199 89.587 107.098 89.486 C 106.998 89.385 106.878 89.304 106.746 89.248 L 106.628 89.185 L 91.296 79.732 C 91.033 79.636 90.742 79.643 90.483 79.752 C 90.225 79.86 90.019 80.062 89.908 80.315 L 82.779 96.495 C 82.724 96.626 82.695 96.768 82.695 96.911 C 82.695 97.054 82.724 97.194 82.779 97.327 C 82.886 97.591 83.095 97.804 83.361 97.919 L 83.48 97.977 L 98.798 107.422 Z" fill="#241337" style=""/>
  <path d="M 102.021 111.748 C 101.882 111.748 101.744 111.716 101.62 111.654 C 101.496 111.591 101.389 111.501 101.307 111.39 L 99.307 108.671 C 99.171 108.485 99.116 108.254 99.153 108.029 C 99.191 107.803 99.318 107.601 99.507 107.468 C 99.697 107.334 99.932 107.279 100.162 107.316 C 100.392 107.353 100.598 107.477 100.734 107.663 L 102.734 110.382 C 102.801 110.474 102.85 110.578 102.877 110.688 C 102.903 110.798 102.907 110.913 102.889 111.025 C 102.87 111.136 102.829 111.244 102.768 111.341 C 102.707 111.436 102.629 111.519 102.535 111.586 C 102.385 111.691 102.205 111.748 102.021 111.748 Z" fill="#241337" style=""/>
  <path d="M 111.714 91.118 L 111.662 91.118 L 108.24 90.93 C 108.122 90.929 108.005 90.904 107.897 90.857 C 107.788 90.81 107.691 90.741 107.61 90.656 C 107.529 90.572 107.466 90.471 107.426 90.362 C 107.387 90.253 107.368 90.137 107.376 90.021 C 107.382 89.904 107.412 89.791 107.465 89.687 C 107.517 89.583 107.591 89.49 107.68 89.414 C 107.771 89.338 107.876 89.281 107.988 89.246 C 108.101 89.211 108.22 89.199 108.339 89.21 L 111.76 89.398 C 111.993 89.404 112.215 89.501 112.374 89.667 C 112.535 89.833 112.622 90.054 112.616 90.283 C 112.61 90.511 112.51 90.728 112.342 90.886 C 112.173 91.043 111.947 91.128 111.714 91.122 L 111.714 91.118 Z" fill="#241337" style=""/>
  <path d="M 45.133 71.641 C 48.322 64.819 53.586 59.052 58.252 53.184 L 73.367 34.186 L 82.045 23.275 C 82.941 22.146 81.332 20.547 80.427 21.684 C 70.259 34.465 59.989 47.17 49.935 60.034 C 47.362 63.324 44.921 66.722 43.142 70.504 C 42.535 71.811 44.505 72.953 45.12 71.641 L 45.133 71.641 Z" fill="#241337" style=""/>
  <path d="M 79.175 24.737 C 79.175 24.737 65.198 1.807 39.079 2.032 C 32.893 11.918 23.404 26.86 23.404 26.86 C 23.404 26.86 46.241 31.183 60.94 48.349 C 78.173 26.948 79.175 24.737 79.175 24.737 Z" fill="#241337" style=""/>
  <path d="M 81.807 24.836 C 83.577 24.836 85.013 23.429 85.013 21.692 C 85.013 19.956 83.577 18.548 81.807 18.548 C 80.037 18.548 78.602 19.956 78.602 21.692 C 78.602 23.429 80.037 24.836 81.807 24.836 Z" fill="#241337" style=""/>
  <path d="M 60.842 45.513 C 60.705 45.512 60.573 45.464 60.469 45.376 C 60.366 45.288 60.298 45.167 60.277 45.034 C 54.342 5.593 40.089 3.952 39.962 3.939 C 39.813 3.923 39.677 3.851 39.582 3.738 C 39.487 3.625 39.441 3.481 39.453 3.335 C 39.465 3.189 39.535 3.053 39.647 2.957 C 39.76 2.861 39.906 2.811 40.055 2.819 C 40.216 2.819 44.046 3.211 48.602 8.683 C 54.575 15.866 58.889 28.039 61.424 44.872 C 61.445 45.019 61.407 45.169 61.316 45.288 C 61.225 45.408 61.09 45.487 60.94 45.509 L 60.842 45.513 Z" fill="white" style=""/>
  <path d="M 62.791 43.381 C 62.708 43.381 62.629 43.352 62.567 43.299 C 62.504 43.246 62.463 43.173 62.451 43.093 C 59.479 23.15 54.24 13.376 50.385 8.687 C 46.233 3.639 42.743 3.273 42.713 3.273 C 42.627 3.26 42.549 3.215 42.496 3.148 C 42.442 3.08 42.416 2.996 42.424 2.911 C 42.431 2.825 42.472 2.746 42.536 2.689 C 42.601 2.632 42.685 2.601 42.772 2.603 C 42.925 2.603 46.521 2.973 50.839 8.187 C 54.771 12.93 60.095 22.821 63.122 43.002 C 63.135 43.09 63.112 43.18 63.058 43.252 C 63.004 43.324 62.923 43.372 62.833 43.385 L 62.791 43.381 Z" fill="#D4145A" style=""/>
  <path d="M 26.248 26.64 C 26.112 26.64 25.981 26.592 25.877 26.506 C 25.773 26.42 25.704 26.3 25.682 26.168 C 25.66 26.037 25.687 25.902 25.757 25.787 C 25.827 25.673 25.937 25.587 26.066 25.545 C 44.106 19.531 57.169 19.639 64.952 20.789 C 73.443 22.038 77.6 24.707 77.774 24.82 C 77.836 24.861 77.89 24.914 77.932 24.975 C 77.974 25.037 78.003 25.105 78.018 25.178 C 78.033 25.25 78.033 25.325 78.018 25.398 C 78.004 25.47 77.975 25.539 77.933 25.601 C 77.891 25.662 77.837 25.715 77.775 25.756 C 77.712 25.797 77.642 25.826 77.568 25.841 C 77.494 25.855 77.418 25.855 77.344 25.841 C 77.27 25.826 77.2 25.798 77.137 25.757 C 77.065 25.711 72.934 23.087 64.693 21.884 C 57.051 20.768 44.203 20.685 26.435 26.606 C 26.375 26.628 26.312 26.639 26.248 26.64 Z" fill="white" style=""/>
  <path d="M 26.821 24.054 C 26.75 24.054 26.68 24.031 26.622 23.99 C 26.564 23.949 26.521 23.891 26.499 23.825 C 26.473 23.742 26.48 23.652 26.52 23.575 C 26.559 23.497 26.628 23.437 26.711 23.408 C 44.224 17.499 56.855 17.507 64.396 18.557 C 72.586 19.698 76.564 22.217 76.708 22.305 C 76.778 22.356 76.825 22.432 76.84 22.517 C 76.855 22.601 76.837 22.688 76.789 22.76 C 76.74 22.832 76.666 22.883 76.581 22.902 C 76.496 22.922 76.406 22.909 76.33 22.867 C 76.288 22.842 72.28 20.31 64.226 19.198 C 56.783 18.165 44.271 18.169 26.911 24.029 C 26.882 24.041 26.852 24.05 26.821 24.054 Z" fill="#D4145A" style=""/>
  <path d="M 32.32 15.067 L 34.26 11.981 C 34.313 11.893 34.389 11.82 34.48 11.77 C 34.571 11.72 34.674 11.693 34.778 11.693 C 41.337 11.694 47.793 13.289 53.569 16.337 L 58.503 8.366 C 58.523 8.331 58.55 8.3 58.583 8.276 C 58.615 8.252 58.653 8.234 58.693 8.225 C 58.732 8.216 58.774 8.214 58.814 8.221 C 58.855 8.229 58.893 8.244 58.927 8.266 L 62.748 10.59 C 62.784 10.61 62.815 10.637 62.839 10.669 C 62.863 10.701 62.881 10.738 62.89 10.777 C 62.899 10.816 62.9 10.857 62.892 10.896 C 62.885 10.936 62.869 10.973 62.846 11.006 L 57.9 18.919 C 63.333 22.579 68.005 27.222 71.664 32.599 C 71.727 32.694 71.76 32.805 71.76 32.918 C 71.76 33.031 71.727 33.141 71.664 33.236 C 71.397 33.653 70.781 34.56 69.384 36.439 C 69.328 36.518 69.253 36.582 69.166 36.627 C 69.079 36.671 68.982 36.695 68.883 36.695 C 68.785 36.695 68.688 36.671 68.601 36.627 C 68.514 36.582 68.439 36.518 68.382 36.439 C 64.806 31.329 60.317 26.896 55.132 23.354 L 47.914 34.873 C 47.873 34.936 47.809 34.982 47.735 35.001 C 47.661 35.02 47.583 35.012 47.515 34.977 L 43.694 33.007 C 43.657 32.988 43.625 32.962 43.6 32.93 C 43.574 32.899 43.555 32.863 43.544 32.824 C 43.533 32.785 43.53 32.744 43.535 32.704 C 43.54 32.664 43.554 32.625 43.575 32.591 L 50.848 20.789 C 45.308 17.819 39.127 16.185 32.816 16.02 C 32.703 16.021 32.592 15.991 32.495 15.933 C 32.399 15.875 32.32 15.792 32.269 15.694 C 32.217 15.595 32.195 15.484 32.204 15.373 C 32.213 15.262 32.253 15.156 32.32 15.067 Z" fill="#D4145A" style=""/>
  <path d="M 126.336 127.19 C 126.912 126.816 127.52 126.491 128.153 126.22 C 128.23 126.174 128.286 126.1 128.309 126.013 C 128.331 125.927 128.319 125.836 128.276 125.758 C 128.228 125.682 128.152 125.628 128.065 125.606 C 127.977 125.584 127.884 125.595 127.805 125.637 C 127.172 125.91 126.564 126.234 125.988 126.607 C 125.908 126.652 125.851 126.726 125.828 126.813 C 125.806 126.9 125.818 126.992 125.864 127.069 C 125.91 127.147 125.986 127.203 126.074 127.226 C 126.163 127.248 126.257 127.236 126.336 127.19 Z" fill="#241337" style=""/>
  <path d="M 129.265 129.939 L 131.43 129.863 C 131.521 129.861 131.606 129.825 131.67 129.763 C 131.733 129.699 131.769 129.615 131.77 129.527 C 131.77 129.482 131.762 129.439 131.746 129.398 C 131.728 129.357 131.703 129.319 131.672 129.289 C 131.641 129.257 131.603 129.232 131.561 129.214 C 131.52 129.198 131.476 129.189 131.43 129.189 L 129.265 129.264 C 129.174 129.265 129.087 129.301 129.023 129.364 C 128.958 129.427 128.922 129.512 128.921 129.602 C 128.923 129.69 128.961 129.775 129.024 129.838 C 129.088 129.901 129.174 129.937 129.265 129.939 Z" fill="#241337" style=""/>
  <path d="M 128.064 133.758 L 130.165 134.47 C 130.208 134.482 130.255 134.485 130.3 134.48 C 130.344 134.474 130.389 134.46 130.428 134.438 C 130.467 134.416 130.502 134.386 130.53 134.35 C 130.557 134.316 130.578 134.275 130.589 134.232 C 130.613 134.146 130.601 134.054 130.557 133.977 C 130.513 133.898 130.439 133.841 130.352 133.816 L 128.272 133.108 C 128.228 133.096 128.182 133.093 128.137 133.098 C 128.092 133.103 128.049 133.118 128.009 133.139 C 127.97 133.162 127.935 133.191 127.907 133.227 C 127.879 133.262 127.859 133.302 127.847 133.346 C 127.824 133.431 127.837 133.523 127.881 133.6 C 127.925 133.678 127.998 133.735 128.085 133.762 L 128.064 133.758 Z" fill="#241337" style=""/>
  <path d="M 127.495 137.135 C 127.954 137.579 128.507 137.917 129.116 138.126 C 129.16 138.14 129.208 138.145 129.254 138.142 C 129.301 138.138 129.345 138.124 129.386 138.103 C 129.427 138.082 129.464 138.052 129.493 138.016 C 129.521 137.98 129.542 137.94 129.555 137.895 C 129.567 137.851 129.571 137.805 129.564 137.76 C 129.558 137.714 129.542 137.671 129.519 137.632 C 129.495 137.592 129.463 137.559 129.425 137.532 C 129.387 137.506 129.345 137.487 129.3 137.476 L 129.104 137.402 L 129.061 137.402 L 128.973 137.359 C 128.843 137.298 128.717 137.23 128.595 137.156 C 128.535 137.118 128.475 137.081 128.42 137.039 L 128.34 136.985 C 128.34 136.985 128.31 136.956 128.301 136.956 C 128.188 136.868 128.08 136.774 127.978 136.672 C 127.914 136.613 127.827 136.58 127.738 136.582 C 127.648 136.583 127.563 136.619 127.499 136.682 C 127.437 136.744 127.401 136.828 127.4 136.916 C 127.399 137.004 127.433 137.088 127.495 137.152 L 127.495 137.135 Z" fill="#241337" style=""/>
  <path d="M 127.673 141.033 C 128.365 141.615 129.139 142.095 129.97 142.462 C 130.049 142.505 130.143 142.516 130.23 142.493 C 130.317 142.471 130.393 142.416 130.442 142.341 C 130.486 142.263 130.499 142.172 130.476 142.085 C 130.452 141.998 130.396 141.924 130.319 141.878 C 129.921 141.708 129.536 141.51 129.168 141.286 C 128.814 141.071 128.476 140.832 128.156 140.571 C 128.093 140.508 128.005 140.473 127.915 140.473 C 127.824 140.473 127.738 140.508 127.673 140.571 C 127.609 140.634 127.574 140.719 127.574 140.808 C 127.574 140.897 127.609 140.983 127.673 141.045 L 127.673 141.033 Z" fill="#241337" style=""/>
  <path d="M 124.526 142.165 C 124.493 142.615 124.952 142.915 125.287 143.132 C 125.624 143.343 125.986 143.512 126.366 143.636 C 126.41 143.65 126.456 143.655 126.503 143.651 C 126.549 143.647 126.594 143.634 126.635 143.613 C 126.676 143.59 126.712 143.562 126.741 143.526 C 126.771 143.49 126.791 143.448 126.804 143.405 C 126.816 143.361 126.819 143.315 126.813 143.269 C 126.807 143.224 126.791 143.181 126.767 143.141 C 126.744 143.102 126.711 143.068 126.673 143.042 C 126.636 143.015 126.594 142.996 126.548 142.986 C 126.472 142.957 126.391 142.932 126.314 142.899 L 126.263 142.899 C 126.179 142.865 126.302 142.899 126.263 142.899 L 126.149 142.848 C 126.003 142.777 125.861 142.698 125.725 142.611 C 125.657 142.574 125.593 142.528 125.529 142.486 L 125.427 142.415 C 125.427 142.415 125.354 142.361 125.398 142.391 C 125.44 142.419 125.398 142.391 125.398 142.391 C 125.367 142.367 125.338 142.343 125.312 142.316 L 125.27 142.27 C 125.24 142.24 125.299 142.32 125.27 142.27 C 125.24 142.22 125.24 142.22 125.24 142.216 C 125.24 142.212 125.24 142.286 125.24 142.216 C 125.24 142.145 125.24 142.182 125.24 142.174 C 125.24 142.165 125.24 142.232 125.24 142.203 L 125.24 142.169 C 125.24 142.08 125.204 141.995 125.14 141.931 C 125.075 141.868 124.987 141.833 124.897 141.833 C 124.806 141.835 124.72 141.871 124.656 141.933 C 124.591 141.997 124.555 142.08 124.552 142.169 L 124.526 142.165 Z" fill="#241337" style=""/>
  <path d="M 121.419 146.501 C 121.62 146.981 121.867 147.442 122.158 147.875 L 122.986 149.232 C 123.031 149.31 123.107 149.366 123.196 149.389 C 123.284 149.411 123.378 149.399 123.457 149.353 C 123.536 149.309 123.593 149.235 123.617 149.148 C 123.639 149.061 123.626 148.969 123.58 148.891 L 122.778 147.58 C 122.505 147.186 122.272 146.768 122.082 146.33 C 122.056 146.245 121.997 146.172 121.918 146.127 C 121.839 146.084 121.745 146.071 121.657 146.093 C 121.569 146.118 121.494 146.175 121.449 146.252 C 121.404 146.33 121.392 146.422 121.415 146.509 L 121.419 146.501 Z" fill="#241337" style=""/>
  <path d="M 116.693 148.084 C 116.816 148.688 117.077 149.258 117.457 149.749 C 117.844 150.299 118.248 150.836 118.647 151.382 C 118.695 151.457 118.771 151.511 118.858 151.533 C 118.946 151.555 119.039 151.545 119.118 151.502 C 119.195 151.456 119.251 151.382 119.274 151.296 C 119.297 151.209 119.285 151.118 119.241 151.04 C 118.855 150.511 118.46 149.986 118.082 149.454 C 117.723 149.001 117.475 148.474 117.356 147.912 C 117.331 147.826 117.273 147.753 117.193 147.709 C 117.114 147.664 117.02 147.652 116.932 147.675 C 116.844 147.701 116.772 147.76 116.728 147.837 C 116.683 147.914 116.672 148.005 116.693 148.092 L 116.693 148.084 Z" fill="#241337" style=""/>
  <path d="M 113.038 152.405 C 113.209 152.554 113.371 152.71 113.522 152.877 C 113.716 153.052 113.932 153.205 114.163 153.331 C 114.621 153.56 115.103 153.735 115.603 153.855 C 115.688 153.874 115.779 153.86 115.854 153.816 C 115.931 153.771 115.986 153.699 116.01 153.616 C 116.033 153.532 116.023 153.443 115.981 153.367 C 115.94 153.291 115.87 153.232 115.785 153.206 C 115.331 153.1 114.892 152.939 114.477 152.726 C 114.283 152.627 114.105 152.498 113.95 152.343 C 113.777 152.157 113.588 151.982 113.386 151.823 C 113.307 151.778 113.213 151.765 113.125 151.787 C 113.037 151.81 112.962 151.867 112.915 151.944 C 112.869 152.021 112.856 152.113 112.879 152.2 C 112.902 152.287 112.96 152.361 113.038 152.405 Z" fill="#241337" style=""/>
  <path d="M 111.073 157.715 C 111.985 157.765 112.893 157.562 113.692 157.129 C 113.731 157.106 113.765 157.077 113.793 157.041 C 113.82 157.006 113.839 156.966 113.851 156.922 C 113.863 156.88 113.865 156.834 113.859 156.791 C 113.853 156.746 113.838 156.704 113.815 156.666 C 113.792 156.628 113.762 156.594 113.726 156.567 C 113.69 156.541 113.649 156.521 113.605 156.51 C 113.561 156.499 113.515 156.497 113.471 156.502 C 113.426 156.508 113.383 156.523 113.344 156.545 C 112.651 156.92 111.862 157.092 111.073 157.041 C 110.981 157.041 110.894 157.077 110.829 157.14 C 110.765 157.203 110.728 157.288 110.728 157.378 C 110.731 157.467 110.767 157.552 110.832 157.615 C 110.896 157.677 110.982 157.713 111.073 157.715 Z" fill="#241337" style=""/>
  <path d="M 114.783 161.905 C 115.526 161.728 116.196 161.331 116.702 160.769 C 116.757 160.703 116.784 160.621 116.78 160.538 C 116.775 160.454 116.74 160.375 116.679 160.315 C 116.619 160.256 116.539 160.221 116.454 160.217 C 116.368 160.213 116.284 160.24 116.218 160.293 C 116.105 160.418 115.983 160.536 115.853 160.644 L 115.81 160.681 L 115.777 160.706 L 115.755 160.706 L 115.7 160.747 L 115.483 160.885 C 115.416 160.926 115.347 160.963 115.276 160.997 L 115.162 161.056 L 115.094 161.085 C 115.05 161.105 115.149 161.064 115.094 161.085 C 114.933 161.152 114.766 161.205 114.596 161.243 C 114.551 161.252 114.508 161.272 114.471 161.299 C 114.433 161.326 114.401 161.359 114.377 161.399 C 114.353 161.438 114.338 161.481 114.331 161.527 C 114.325 161.571 114.328 161.618 114.34 161.661 C 114.353 161.706 114.374 161.747 114.403 161.783 C 114.432 161.818 114.469 161.847 114.51 161.87 C 114.551 161.891 114.595 161.904 114.641 161.908 C 114.688 161.912 114.735 161.907 114.779 161.893 L 114.783 161.905 Z" fill="#241337" style=""/>
  <path d="M 116.605 166.615 C 117.878 166.24 118.489 165.075 119.241 164.116 C 119.286 164.039 119.299 163.948 119.275 163.862 C 119.252 163.777 119.195 163.703 119.118 163.658 C 119.039 163.615 118.946 163.604 118.857 163.626 C 118.77 163.648 118.694 163.703 118.647 163.779 C 118.298 164.224 117.993 164.711 117.611 165.133 C 117.301 165.513 116.89 165.801 116.422 165.965 C 116.334 165.989 116.259 166.048 116.214 166.125 C 116.169 166.203 116.157 166.295 116.18 166.382 C 116.205 166.468 116.265 166.54 116.343 166.584 C 116.422 166.629 116.516 166.642 116.605 166.619 L 116.605 166.615 Z" fill="#241337" style=""/>
  <path d="M 119.827 168.793 C 120.88 168.377 121.432 167.39 121.895 166.432 C 121.938 166.354 121.949 166.263 121.926 166.177 C 121.903 166.091 121.848 166.017 121.772 165.969 C 121.733 165.947 121.69 165.932 121.644 165.926 C 121.6 165.921 121.554 165.923 121.511 165.934 C 121.466 165.945 121.425 165.965 121.39 165.991 C 121.353 166.019 121.323 166.052 121.3 166.09 C 121.098 166.525 120.86 166.943 120.587 167.339 L 120.536 167.402 C 120.472 167.49 120.578 167.356 120.511 167.44 L 120.404 167.565 C 120.325 167.652 120.24 167.734 120.149 167.81 L 120.09 167.864 L 120.068 167.864 C 120.018 167.901 119.967 167.94 119.912 167.972 L 119.772 168.052 L 119.683 168.093 C 119.683 168.093 119.585 168.135 119.644 168.114 C 119.557 168.14 119.483 168.197 119.438 168.275 C 119.393 168.352 119.38 168.445 119.403 168.53 C 119.427 168.617 119.486 168.69 119.565 168.735 C 119.644 168.779 119.738 168.791 119.827 168.769 L 119.827 168.793 Z" fill="#241337" style=""/>
  <path d="M 124.111 166.473 C 123.837 167.219 123.403 167.898 122.837 168.464 C 122.772 168.527 122.736 168.614 122.736 168.704 C 122.736 168.793 122.772 168.88 122.837 168.943 C 122.902 169.007 122.989 169.042 123.081 169.042 C 123.173 169.042 123.26 169.007 123.325 168.943 C 123.967 168.291 124.457 167.509 124.761 166.652 C 124.784 166.566 124.773 166.474 124.728 166.397 C 124.684 166.319 124.61 166.261 124.523 166.236 C 124.435 166.215 124.342 166.229 124.262 166.272 C 124.183 166.316 124.125 166.388 124.098 166.473 L 124.111 166.473 Z" fill="#241337" style=""/>
  <path d="M 127.397 167.864 C 127.49 168.666 127.294 169.474 126.841 170.146 C 126.801 170.223 126.793 170.312 126.818 170.395 C 126.843 170.477 126.899 170.547 126.976 170.591 C 127.051 170.634 127.142 170.647 127.227 170.627 C 127.312 170.607 127.387 170.556 127.435 170.484 C 127.949 169.709 128.178 168.784 128.085 167.864 C 128.083 167.775 128.045 167.691 127.982 167.628 C 127.918 167.566 127.832 167.529 127.741 167.527 C 127.65 167.528 127.563 167.564 127.499 167.627 C 127.434 167.69 127.398 167.775 127.397 167.864 Z" fill="#241337" style=""/>
  <path d="M 132.131 168.552 C 132.271 169.9 131.779 171.188 131.281 172.424 C 131.258 172.51 131.269 172.602 131.314 172.681 C 131.359 172.758 131.432 172.816 131.52 172.841 C 131.607 172.862 131.701 172.849 131.78 172.805 C 131.859 172.761 131.917 172.689 131.944 172.603 C 132.445 171.313 132.946 169.959 132.794 168.552 C 132.794 168.463 132.757 168.376 132.692 168.313 C 132.628 168.25 132.541 168.214 132.449 168.214 C 132.359 168.214 132.271 168.25 132.206 168.313 C 132.142 168.376 132.105 168.463 132.105 168.552 L 132.131 168.552 Z" fill="#241337" style=""/>
  <path d="M 135.655 173.021 C 135.937 172.195 136.06 171.324 136.02 170.455 C 136.02 170.365 135.983 170.279 135.92 170.216 C 135.855 170.153 135.767 170.117 135.676 170.117 C 135.585 170.117 135.498 170.153 135.433 170.216 C 135.368 170.279 135.332 170.365 135.332 170.455 C 135.37 171.264 135.256 172.073 134.992 172.841 C 134.978 172.884 134.973 172.931 134.977 172.976 C 134.98 173.021 134.995 173.065 135.016 173.105 C 135.039 173.145 135.068 173.181 135.105 173.21 C 135.141 173.238 135.183 173.259 135.228 173.271 C 135.273 173.283 135.319 173.286 135.366 173.28 C 135.412 173.274 135.457 173.259 135.496 173.235 C 135.536 173.212 135.571 173.18 135.598 173.143 C 135.625 173.106 135.644 173.065 135.655 173.021 Z" fill="#241337" style=""/>
  <path d="M 139.281 173.232 C 139.479 172.311 139.417 171.355 139.098 170.467 C 139.07 170.383 139.011 170.312 138.932 170.269 C 138.853 170.225 138.762 170.213 138.673 170.234 C 138.586 170.259 138.512 170.316 138.467 170.395 C 138.422 170.472 138.409 170.564 138.431 170.65 C 138.72 171.419 138.784 172.251 138.618 173.053 C 138.597 173.14 138.611 173.231 138.655 173.309 C 138.7 173.386 138.774 173.444 138.86 173.469 C 138.904 173.482 138.949 173.485 138.995 173.48 C 139.04 173.474 139.083 173.46 139.123 173.438 C 139.162 173.415 139.197 173.386 139.225 173.351 C 139.253 173.316 139.273 173.276 139.285 173.232 L 139.281 173.232 Z" fill="#241337" style=""/>
  <path d="M 141.382 168.881 C 141.584 169.602 141.727 170.339 141.807 171.083 C 141.808 171.172 141.843 171.257 141.907 171.319 C 141.971 171.383 142.056 171.419 142.147 171.421 C 142.237 171.421 142.325 171.386 142.39 171.322 C 142.454 171.259 142.49 171.173 142.49 171.083 C 142.417 170.279 142.275 169.482 142.066 168.702 C 142.039 168.619 141.979 168.55 141.902 168.509 C 141.824 168.468 141.733 168.458 141.648 168.482 C 141.563 168.504 141.489 168.559 141.444 168.633 C 141.399 168.707 141.384 168.796 141.403 168.881 L 141.382 168.881 Z" fill="#241337" style=""/>
  <path d="M 145.45 168.647 C 145.621 169.834 145.664 171.033 145.581 172.229 C 145.551 172.645 146.24 172.645 146.269 172.229 C 146.349 170.977 146.298 169.721 146.116 168.481 C 146.091 168.395 146.033 168.321 145.954 168.276 C 145.874 168.232 145.78 168.22 145.691 168.243 C 145.604 168.269 145.531 168.326 145.485 168.403 C 145.44 168.482 145.427 168.573 145.45 168.66 L 145.45 168.647 Z" fill="#241337" style=""/>
  <path d="M 149.075 168.444 C 149.424 169.061 149.629 169.746 149.679 170.451 C 149.68 170.54 149.715 170.625 149.78 170.688 C 149.845 170.751 149.931 170.787 150.022 170.788 C 150.114 170.788 150.201 170.753 150.265 170.689 C 150.33 170.626 150.366 170.54 150.366 170.451 C 150.318 169.627 150.079 168.826 149.67 168.106 C 149.622 168.034 149.547 167.983 149.462 167.963 C 149.377 167.943 149.286 167.955 149.21 167.999 C 149.134 168.042 149.078 168.112 149.053 168.195 C 149.028 168.277 149.035 168.366 149.075 168.444 Z" fill="#241337" style=""/>
  <path d="M 153.321 167.923 C 153.678 168.596 153.843 169.352 153.797 170.109 C 153.797 170.199 153.832 170.285 153.897 170.347 C 153.962 170.411 154.049 170.447 154.14 170.447 C 154.232 170.447 154.319 170.411 154.384 170.347 C 154.448 170.285 154.484 170.199 154.484 170.109 C 154.53 169.233 154.333 168.361 153.915 167.585 C 153.893 167.547 153.863 167.514 153.826 167.486 C 153.79 167.46 153.749 167.44 153.705 167.429 C 153.662 167.418 153.616 167.415 153.571 167.421 C 153.526 167.427 153.484 167.442 153.444 167.464 C 153.367 167.511 153.311 167.584 153.288 167.67 C 153.266 167.754 153.278 167.845 153.321 167.923 Z" fill="#241337" style=""/>
  <path d="M 157.44 171.634 C 157.62 170.79 157.742 169.935 157.805 169.077 C 157.805 168.987 157.768 168.901 157.704 168.837 C 157.639 168.775 157.552 168.739 157.46 168.739 C 157.37 168.739 157.282 168.775 157.217 168.837 C 157.153 168.901 157.117 168.987 157.117 169.077 C 157.059 169.876 156.945 170.67 156.777 171.455 C 156.758 171.538 156.773 171.627 156.818 171.701 C 156.863 171.777 156.936 171.831 157.021 171.854 C 157.106 171.876 157.197 171.867 157.276 171.825 C 157.353 171.785 157.412 171.716 157.44 171.634 Z" fill="#241337" style=""/>
</svg>