<svg xmlns:xlink="http://www.w3.org/1999/xlink" xmlns="http://www.w3.org/2000/svg" width="1630" height="431" viewBox="0 0 1630 431" fill="none">
  <path d="M1497.37 338.267C607.033 564.344 -321.183 319.86 -674 169.359L-674 -241L5032.19 -198.772C5035.82 -144.635 5040.9 14.5282 5032.19 218.084C4747.15 97.8992 2610.28 55.6719 1497.37 338.267Z" fill="#2D224C"/>
  <path style="mix-blend-mode:color-dodge" d="M550.446 356.529C702.536 356.529 825.83 243.587 825.83 104.265C825.83 -35.0572 702.536 -148 550.446 -148C398.356 -148 275.062 -35.0572 275.062 104.265C275.062 243.587 398.356 356.529 550.446 356.529Z" fill="url(#paint0_radial_225_2)"/>
  <path style="mix-blend-mode:color-dodge" d="M 1360.149 366.695 C 1466.599 345.386 1552.54 333.751 1552.54 236.234 C 1552.54 138.717 1466.24 59.664 1359.79 59.664 C 1253.33 59.664 1167.03 138.717 1167.03 236.234 C 1167.03 333.751 1255.76 387.592 1360.149 366.695 Z" fill="url(#paint2_radial_225_2)"/>
  <defs>
    <radialGradient id="paint0_radial_225_2" cx="0" cy="0" r="1" gradientUnits="userSpaceOnUse" gradientTransform="translate(509.724 128.702) rotate(-74.9644) scale(254.122 274.086)">
      <stop stop-color="#F0EEF7"/>
      <stop offset="0.02" stop-color="#E6E4ED"/>
      <stop offset="0.13" stop-color="#B1B0B6"/>
      <stop offset="0.25" stop-color="#828186"/>
      <stop offset="0.36" stop-color="#5A595C"/>
      <stop offset="0.48" stop-color="#39393B"/>
      <stop offset="0.6" stop-color="#202021"/>
      <stop offset="0.73" stop-color="#0E0E0F"/>
      <stop offset="0.86" stop-color="#030304"/>
      <stop offset="1"/>
    </radialGradient>
    <radialGradient id="paint2_radial_225_2" cx="0" cy="0" r="1" gradientUnits="userSpaceOnUse" gradientTransform="translate(1331.28 253.338) rotate(-74.9644) scale(177.87 191.843)">
      <stop stop-color="#F0EEF7"/>
      <stop offset="0.02" stop-color="#E6E4ED"/>
      <stop offset="0.13" stop-color="#B1B0B6"/>
      <stop offset="0.25" stop-color="#828186"/>
      <stop offset="0.36" stop-color="#5A595C"/>
      <stop offset="0.48" stop-color="#39393B"/>
      <stop offset="0.6" stop-color="#202021"/>
      <stop offset="0.73" stop-color="#0E0E0F"/>
      <stop offset="0.86" stop-color="#030304"/>
      <stop offset="1"/>
    </radialGradient>
  </defs>
</svg>