<?xml version="1.0" encoding="utf-8"?>
<svg width="1440" height="431" viewBox="0 0 1440 431" fill="none" xmlns="http://www.w3.org/2000/svg">
  <path d="M 1497.37 338.267 C 607.033 564.344 -329.226 321.871 -682.043 171.37 L -674 -241 L 5032.19 -198.772 C 5035.82 -144.635 5040.9 14.528 5032.19 218.084 C 4747.15 97.899 2610.28 55.674 1497.37 338.267 Z" fill="#2D224C"/>
  <path d="M723.202 107.405V110.384H703.547C704.304 109.7 704.682 108.675 704.682 106.722V86.3705C704.682 84.4294 704.304 83.4039 703.547 82.708H722.787V85.7234C722.103 85.0032 721.224 84.6613 719.246 84.6613H712.825V94.2814H717.269C718.497 94.3991 719.726 94.0744 720.736 93.3658V97.1015C719.726 96.393 718.497 96.0683 717.269 96.1859H712.825V108.467H719.637C721.566 108.467 722.482 108.126 723.165 107.405H723.202Z" fill="#D9DAF3"/>
  <path d="M739.073 110.384L738.768 107.112C738.117 108.247 737.164 109.178 736.015 109.803C734.866 110.428 733.566 110.722 732.261 110.653C728.146 110.653 724.838 107.491 724.838 100.605C724.838 93.7199 728.72 90.5336 732.566 90.5336C733.82 90.5149 735.057 90.8323 736.147 91.4526C737.238 92.073 738.143 92.9739 738.768 94.0617V86.1752C738.886 84.9625 738.561 83.7478 737.852 82.7569C739.671 82.647 744.127 82.3418 746.825 82V106.954C746.727 108.176 747.069 109.392 747.789 110.384H739.073ZM738.768 104.756V96.4545C738.589 95.9094 738.243 95.4349 737.778 95.0992C737.312 94.7636 736.753 94.5841 736.179 94.5867C734.385 94.5867 733.481 95.8808 733.445 100.691C733.408 105.501 734.385 106.795 736.179 106.795C736.772 106.788 737.345 106.587 737.813 106.224C738.28 105.86 738.615 105.353 738.768 104.781V104.756Z" fill="#D9DAF3"/>
  <path d="M763.147 110.384L762.952 107.112C762.37 108.246 761.469 109.185 760.361 109.813C759.253 110.442 757.985 110.734 756.714 110.653C752.416 110.653 750.609 108.211 750.609 103.657V94.3181C750.681 93.8224 750.635 93.317 750.476 92.8422C750.317 92.3674 750.049 91.9363 749.694 91.5834C752.465 91.4614 755.7 91.1195 758.667 90.8265V103.902C758.667 105.428 759.045 106.685 760.608 106.685C761.03 106.672 761.438 106.535 761.783 106.292C762.128 106.049 762.394 105.71 762.549 105.318V94.3303C762.62 93.8346 762.575 93.3292 762.416 92.8544C762.257 92.3796 761.989 91.9485 761.634 91.5957C764.417 91.4736 767.652 91.1317 770.619 90.8387V106.954C770.504 108.176 770.824 109.399 771.522 110.409L763.147 110.384Z" fill="#D9DAF3"/>
  <path d="M719.71 116.354L718.831 118.637C717.435 117.547 715.719 116.946 713.948 116.928C711.702 116.928 710.676 117.502 710.676 118.832C710.676 121.372 720.687 122.397 720.687 128.416C720.687 132.982 716.683 135.069 710.298 135.069C707.717 135.216 705.144 134.676 702.839 133.507L703.681 131.26C705.29 132.412 707.221 133.027 709.199 133.018C711.641 133.018 712.727 132.335 712.727 130.882C712.727 127.5 702.961 128.037 702.839 121.494C702.839 117.831 705.695 114.913 713.033 114.913C715.341 114.855 717.631 115.348 719.71 116.354V116.354Z" fill="#D9DAF3"/>
  <path d="M744.127 125.034C744.127 130.479 740.062 135.118 733.14 135.118C725.815 135.118 722.152 130.821 722.152 125.034C722.152 119.601 726.266 114.962 733.14 114.962C740.367 114.913 744.127 119.211 744.127 125.034ZM730.698 125.034C730.698 132.078 731.345 133.58 733.14 133.58C734.934 133.58 735.581 132.103 735.581 125.034C735.581 117.965 734.971 116.561 733.14 116.561C731.308 116.561 730.698 117.953 730.698 125.034Z" fill="#D9DAF3"/>
  <path d="M779.616 134.801H789.541C788.833 133.796 788.508 132.57 788.626 131.346V122.8C788.626 118.197 787.075 114.889 781.972 114.889C780.779 114.84 779.594 115.119 778.548 115.695C777.502 116.272 776.634 117.125 776.039 118.161V115.17C773.829 115.451 770.716 115.976 768.592 116.293C765.805 116.664 762.989 116.782 760.181 116.647C758.542 115.631 756.62 115.169 754.699 115.329C749.572 115.329 746.153 118.405 746.153 122.177C746.158 123.305 746.464 124.411 747.039 125.381C747.614 126.351 748.438 127.15 749.425 127.695C748.594 128.176 747.912 128.878 747.455 129.723C746.999 130.568 746.785 131.522 746.837 132.481C746.82 133.113 746.929 133.741 747.158 134.33C747.386 134.919 747.729 135.457 748.168 135.912C747.557 136.122 747.026 136.514 746.646 137.036C746.266 137.558 746.056 138.184 746.043 138.829C746.043 141.271 750.219 142.492 755.053 142.492C760.803 142.492 765.247 140.282 765.247 136.388C765.247 132.957 762.39 130.87 755.09 130.76L751.427 130.686C750.292 130.686 749.938 130.186 749.938 129.649C749.968 129.377 750.073 129.119 750.241 128.904C750.409 128.688 750.634 128.523 750.89 128.428C752.144 128.833 753.455 129.035 754.772 129.026C759.985 129.026 763.404 125.95 763.404 122.226C763.46 120.599 762.872 119.015 761.768 117.819L768.311 118.136C768.396 118.538 768.437 118.947 768.433 119.357V131.382C768.551 132.606 768.226 133.832 767.518 134.837H777.406C776.698 133.832 776.373 132.606 776.491 131.382V119.931C776.727 119.583 777.055 119.306 777.439 119.132C777.822 118.957 778.246 118.892 778.664 118.942C780.227 118.942 780.605 120.163 780.605 121.677V131.346C780.702 132.579 780.351 133.806 779.616 134.801V134.801ZM750.023 136.742L757.348 137.084C759.79 137.193 760.73 137.657 760.73 138.536C760.73 139.415 759.448 140.978 755.029 140.978C752.868 140.978 749.779 140.136 749.779 138.28C749.749 137.756 749.833 137.231 750.023 136.742ZM754.699 127.61C753.332 127.61 752.795 126.621 752.843 122.177C752.892 117.734 753.332 116.696 754.699 116.696C756.066 116.696 756.604 117.648 756.604 122.177C756.604 126.707 756.152 127.61 754.699 127.61Z" fill="#D9DAF3"/>
  <path d="M813.433 125.034C813.433 130.479 809.356 135.118 802.446 135.118C795.121 135.118 791.458 130.821 791.458 125.034C791.458 119.601 795.56 114.962 802.446 114.962C809.661 114.913 813.433 119.211 813.433 125.034ZM800.004 125.034C800.004 132.078 800.651 133.58 802.446 133.58C804.241 133.58 804.888 132.103 804.888 125.034C804.888 117.965 804.277 116.561 802.446 116.561C800.615 116.561 800.041 117.953 800.004 125.034Z" fill="#D9DAF3"/>
  <path d="M626 82.7324H694.586V83.7213C694.586 94.5622 694.696 105.391 694.586 116.22C694.354 134.532 686.138 147.961 670.084 156.739C667.252 158.277 664.383 159.73 661.538 161.244C661.167 161.458 660.746 161.571 660.317 161.571C659.889 161.571 659.468 161.458 659.097 161.244C655.837 159.51 652.529 157.874 649.33 156.067C643.418 152.913 638.309 148.444 634.396 143.004C630.482 137.565 627.869 131.3 626.757 124.692C626.291 122.057 626.062 119.384 626.073 116.708C626 105.721 626.073 94.7331 626.073 83.7457L626 82.7324ZM629.577 86.2728V87.0786C629.577 96.955 629.577 106.831 629.577 116.708C629.582 118.813 629.742 120.914 630.053 122.995C630.852 128.804 632.923 134.365 636.118 139.282C639.313 144.199 643.553 148.35 648.536 151.44C652.199 153.772 656.093 155.591 659.902 157.618C660.043 157.678 660.195 157.709 660.348 157.709C660.501 157.709 660.653 157.678 660.793 157.618C662.551 156.727 664.261 155.762 666.031 154.883C671.284 152.464 676.035 149.076 680.034 144.897C686.984 137.543 690.888 127.828 690.96 117.709C691.107 107.503 690.96 97.2969 690.96 87.0908C690.96 86.8344 690.96 86.5658 690.96 86.2728H629.577Z" fill="#D9DAF3"/>
  <path d="M664.92 104.976H654.067V132.261H664.92V104.976Z" fill="#D9DAF3"/>
  <path d="M653.893 115.036L646.489 112.391L640.279 129.774L647.682 132.419L653.893 115.036Z" fill="#D9DAF3"/>
  <path d="M668.341 99.0035L663.53 100.776L675.079 132.13L679.89 130.358L668.341 99.0035Z" fill="#D9DAF3"/>
  <path d="M322.276 280.864C317.524 280.864 313.372 279.784 309.82 277.624C306.268 275.464 303.508 272.464 301.54 268.624C299.572 264.736 298.588 260.224 298.588 255.088C298.588 249.904 299.596 245.344 301.612 241.408C303.676 237.424 306.58 234.328 310.324 232.12C314.116 229.864 318.604 228.736 323.788 228.736C329.692 228.736 334.588 230.152 338.476 232.984C342.364 235.816 344.884 239.728 346.036 244.72H335.74C334.972 242.368 333.58 240.544 331.564 239.248C329.548 237.904 326.956 237.232 323.788 237.232C318.748 237.232 314.86 238.84 312.124 242.056C309.388 245.224 308.02 249.592 308.02 255.16C308.02 260.728 309.364 265.048 312.052 268.12C314.788 271.144 318.484 272.656 323.14 272.656C327.7 272.656 331.132 271.432 333.436 268.984C335.788 266.488 337.204 263.224 337.684 259.192H324.94V252.28H346.972V280H338.476L337.756 273.376C336.124 275.776 334.084 277.624 331.636 278.92C329.188 280.216 326.068 280.864 322.276 280.864ZM355.715 280V244.288H363.923L364.787 250.984C366.083 248.68 367.835 246.856 370.043 245.512C372.299 244.12 374.939 243.424 377.963 243.424V253.144H375.371C373.355 253.144 371.555 253.456 369.971 254.08C368.387 254.704 367.139 255.784 366.227 257.32C365.363 258.856 364.931 260.992 364.931 263.728V280H355.715ZM396.574 280.864C393.502 280.864 390.982 280.384 389.014 279.424C387.046 278.416 385.582 277.096 384.622 275.464C383.662 273.832 383.182 272.032 383.182 270.064C383.182 266.752 384.478 264.064 387.07 262C389.662 259.936 393.55 258.904 398.734 258.904H407.806V258.04C407.806 255.592 407.11 253.792 405.718 252.64C404.326 251.488 402.598 250.912 400.534 250.912C398.662 250.912 397.03 251.368 395.638 252.28C394.246 253.144 393.382 254.44 393.046 256.168H384.046C384.286 253.576 385.15 251.32 386.638 249.4C388.174 247.48 390.142 246.016 392.542 245.008C394.942 243.952 397.63 243.424 400.606 243.424C405.694 243.424 409.702 244.696 412.63 247.24C415.558 249.784 417.022 253.384 417.022 258.04V280H409.174L408.31 274.24C407.254 276.16 405.766 277.744 403.846 278.992C401.974 280.24 399.55 280.864 396.574 280.864ZM398.662 273.664C401.302 273.664 403.342 272.8 404.782 271.072C406.27 269.344 407.206 267.208 407.59 264.664H399.742C397.294 264.664 395.542 265.12 394.486 266.032C393.43 266.896 392.902 267.976 392.902 269.272C392.902 270.664 393.43 271.744 394.486 272.512C395.542 273.28 396.934 273.664 398.662 273.664ZM423.513 280V272.584L441.729 251.92H423.729V244.288H452.241V251.704L433.737 272.368H452.601V280H423.513ZM465.238 238.744C463.558 238.744 462.166 238.24 461.062 237.232C460.006 236.224 459.478 234.952 459.478 233.416C459.478 231.88 460.006 230.632 461.062 229.672C462.166 228.664 463.558 228.16 465.238 228.16C466.918 228.16 468.286 228.664 469.342 229.672C470.446 230.632 470.998 231.88 470.998 233.416C470.998 234.952 470.446 236.224 469.342 237.232C468.286 238.24 466.918 238.744 465.238 238.744ZM460.63 280V244.288H469.846V280H460.63ZM496.817 280.864C493.217 280.864 490.025 280.096 487.241 278.56C484.457 277.024 482.273 274.864 480.689 272.08C479.105 269.296 478.313 266.08 478.313 262.432C478.313 258.736 479.081 255.448 480.617 252.568C482.201 249.688 484.361 247.456 487.097 245.872C489.881 244.24 493.145 243.424 496.889 243.424C500.393 243.424 503.489 244.192 506.177 245.728C508.865 247.264 510.953 249.376 512.441 252.064C513.977 254.704 514.745 257.656 514.745 260.92C514.745 261.448 514.721 262 514.673 262.576C514.673 263.152 514.649 263.752 514.601 264.376H487.457C487.649 267.16 488.609 269.344 490.337 270.928C492.113 272.512 494.249 273.304 496.745 273.304C498.617 273.304 500.177 272.896 501.425 272.08C502.721 271.216 503.681 270.112 504.305 268.768H513.665C512.993 271.024 511.865 273.088 510.281 274.96C508.745 276.784 506.825 278.224 504.521 279.28C502.265 280.336 499.697 280.864 496.817 280.864ZM496.889 250.912C494.633 250.912 492.641 251.56 490.913 252.856C489.185 254.104 488.081 256.024 487.601 258.616H505.385C505.241 256.264 504.377 254.392 502.793 253C501.209 251.608 499.241 250.912 496.889 250.912Z" fill="#74DFAC"/>
  <path d="M539.653 295.84V244.288H547.861L548.869 249.4C550.021 247.816 551.533 246.424 553.405 245.224C555.325 244.024 557.797 243.424 560.821 243.424C564.181 243.424 567.181 244.24 569.821 245.872C572.461 247.504 574.549 249.736 576.085 252.568C577.621 255.4 578.389 258.616 578.389 262.216C578.389 265.816 577.621 269.032 576.085 271.864C574.549 274.648 572.461 276.856 569.821 278.488C567.181 280.072 564.181 280.864 560.821 280.864C558.133 280.864 555.781 280.36 553.765 279.352C551.749 278.344 550.117 276.928 548.869 275.104V295.84H539.653ZM558.877 272.8C561.805 272.8 564.229 271.816 566.149 269.848C568.069 267.88 569.029 265.336 569.029 262.216C569.029 259.096 568.069 256.528 566.149 254.512C564.229 252.496 561.805 251.488 558.877 251.488C555.901 251.488 553.453 252.496 551.533 254.512C549.661 256.48 548.725 259.024 548.725 262.144C548.725 265.264 549.661 267.832 551.533 269.848C553.453 271.816 555.901 272.8 558.877 272.8ZM603.973 280.864C600.373 280.864 597.181 280.096 594.397 278.56C591.613 277.024 589.429 274.864 587.845 272.08C586.261 269.296 585.469 266.08 585.469 262.432C585.469 258.736 586.237 255.448 587.773 252.568C589.357 249.688 591.517 247.456 594.253 245.872C597.037 244.24 600.301 243.424 604.045 243.424C607.549 243.424 610.645 244.192 613.333 245.728C616.021 247.264 618.109 249.376 619.597 252.064C621.133 254.704 621.901 257.656 621.901 260.92C621.901 261.448 621.877 262 621.829 262.576C621.829 263.152 621.805 263.752 621.757 264.376H594.613C594.805 267.16 595.765 269.344 597.493 270.928C599.269 272.512 601.405 273.304 603.901 273.304C605.773 273.304 607.333 272.896 608.581 272.08C609.877 271.216 610.837 270.112 611.461 268.768H620.821C620.149 271.024 619.021 273.088 617.437 274.96C615.901 276.784 613.981 278.224 611.677 279.28C609.421 280.336 606.853 280.864 603.973 280.864ZM604.045 250.912C601.789 250.912 599.797 251.56 598.069 252.856C596.341 254.104 595.237 256.024 594.757 258.616H612.541C612.397 256.264 611.533 254.392 609.949 253C608.365 251.608 606.397 250.912 604.045 250.912ZM629.653 280V244.288H637.861L638.725 250.984C640.021 248.68 641.773 246.856 643.981 245.512C646.237 244.12 648.877 243.424 651.901 243.424V253.144H649.309C647.293 253.144 645.493 253.456 643.909 254.08C642.325 254.704 641.077 255.784 640.165 257.32C639.301 258.856 638.869 260.992 638.869 263.728V280H629.653ZM687.668 280.864C684.596 280.864 682.076 280.384 680.108 279.424C678.14 278.416 676.676 277.096 675.716 275.464C674.756 273.832 674.276 272.032 674.276 270.064C674.276 266.752 675.572 264.064 678.164 262C680.756 259.936 684.644 258.904 689.828 258.904H698.9V258.04C698.9 255.592 698.204 253.792 696.812 252.64C695.42 251.488 693.692 250.912 691.628 250.912C689.756 250.912 688.124 251.368 686.732 252.28C685.34 253.144 684.476 254.44 684.14 256.168H675.14C675.38 253.576 676.244 251.32 677.732 249.4C679.268 247.48 681.236 246.016 683.636 245.008C686.036 243.952 688.724 243.424 691.7 243.424C696.788 243.424 700.796 244.696 703.724 247.24C706.652 249.784 708.116 253.384 708.116 258.04V280H700.268L699.404 274.24C698.348 276.16 696.86 277.744 694.94 278.992C693.068 280.24 690.644 280.864 687.668 280.864ZM689.756 273.664C692.396 273.664 694.436 272.8 695.876 271.072C697.364 269.344 698.3 267.208 698.684 264.664H690.836C688.388 264.664 686.636 265.12 685.58 266.032C684.524 266.896 683.996 267.976 683.996 269.272C683.996 270.664 684.524 271.744 685.58 272.512C686.636 273.28 688.028 273.664 689.756 273.664ZM725.504 280L712.4 244.288H722.048L731.12 271.288L740.192 244.288H749.84L736.664 280H725.504ZM771.247 280.864C767.647 280.864 764.455 280.096 761.671 278.56C758.887 277.024 756.703 274.864 755.119 272.08C753.535 269.296 752.743 266.08 752.743 262.432C752.743 258.736 753.511 255.448 755.047 252.568C756.631 249.688 758.791 247.456 761.527 245.872C764.311 244.24 767.575 243.424 771.319 243.424C774.823 243.424 777.919 244.192 780.607 245.728C783.295 247.264 785.383 249.376 786.871 252.064C788.407 254.704 789.175 257.656 789.175 260.92C789.175 261.448 789.151 262 789.103 262.576C789.103 263.152 789.079 263.752 789.031 264.376H761.887C762.079 267.16 763.039 269.344 764.767 270.928C766.543 272.512 768.679 273.304 771.175 273.304C773.047 273.304 774.607 272.896 775.855 272.08C777.151 271.216 778.111 270.112 778.735 268.768H788.095C787.423 271.024 786.295 273.088 784.711 274.96C783.175 276.784 781.255 278.224 778.951 279.28C776.695 280.336 774.127 280.864 771.247 280.864ZM771.319 250.912C769.063 250.912 767.071 251.56 765.343 252.856C763.615 254.104 762.511 256.024 762.031 258.616H779.815C779.671 256.264 778.807 254.392 777.223 253C775.639 251.608 773.671 250.912 771.319 250.912ZM796.926 280V244.288H805.134L805.998 250.984C807.294 248.68 809.046 246.856 811.254 245.512C813.51 244.12 816.15 243.424 819.174 243.424V253.144H816.582C814.566 253.144 812.766 253.456 811.182 254.08C809.598 254.704 808.35 255.784 807.438 257.32C806.574 258.856 806.142 260.992 806.142 263.728V280H796.926ZM842.629 280V244.288H850.837L851.701 250.984C852.997 248.68 854.749 246.856 856.957 245.512C859.213 244.12 861.853 243.424 864.877 243.424V253.144H862.285C860.269 253.144 858.469 253.456 856.885 254.08C855.301 254.704 854.053 255.784 853.141 257.32C852.277 258.856 851.845 260.992 851.845 263.728V280H842.629ZM876.144 238.744C874.464 238.744 873.072 238.24 871.968 237.232C870.912 236.224 870.384 234.952 870.384 233.416C870.384 231.88 870.912 230.632 871.968 229.672C873.072 228.664 874.464 228.16 876.144 228.16C877.824 228.16 879.192 228.664 880.248 229.672C881.352 230.632 881.904 231.88 881.904 233.416C881.904 234.952 881.352 236.224 880.248 237.232C879.192 238.24 877.824 238.744 876.144 238.744ZM871.536 280V244.288H880.752V280H871.536ZM907.867 280.864C904.219 280.864 901.003 280.072 898.219 278.488C895.435 276.904 893.227 274.696 891.595 271.864C890.011 269.032 889.219 265.792 889.219 262.144C889.219 258.496 890.011 255.256 891.595 252.424C893.227 249.592 895.435 247.384 898.219 245.8C901.003 244.216 904.219 243.424 907.867 243.424C912.427 243.424 916.267 244.624 919.387 247.024C922.507 249.376 924.499 252.64 925.363 256.816H915.643C915.163 255.088 914.203 253.744 912.763 252.784C911.371 251.776 909.715 251.272 907.795 251.272C905.251 251.272 903.091 252.232 901.315 254.152C899.539 256.072 898.651 258.736 898.651 262.144C898.651 265.552 899.539 268.216 901.315 270.136C903.091 272.056 905.251 273.016 907.795 273.016C909.715 273.016 911.371 272.536 912.763 271.576C914.203 270.616 915.163 269.248 915.643 267.472H925.363C924.499 271.504 922.507 274.744 919.387 277.192C916.267 279.64 912.427 280.864 907.867 280.864ZM933.543 280V228.16H942.759V249.76C943.959 247.792 945.567 246.256 947.583 245.152C949.647 244 951.999 243.424 954.639 243.424C959.055 243.424 962.463 244.816 964.863 247.6C967.311 250.384 968.535 254.464 968.535 259.84V280H959.391V260.704C959.391 257.632 958.767 255.28 957.519 253.648C956.319 252.016 954.399 251.2 951.759 251.2C949.167 251.2 947.007 252.112 945.279 253.936C943.599 255.76 942.759 258.304 942.759 261.568V280H933.543ZM982.316 238.744C980.636 238.744 979.244 238.24 978.14 237.232C977.084 236.224 976.556 234.952 976.556 233.416C976.556 231.88 977.084 230.632 978.14 229.672C979.244 228.664 980.636 228.16 982.316 228.16C983.996 228.16 985.364 228.664 986.42 229.672C987.524 230.632 988.076 231.88 988.076 233.416C988.076 234.952 987.524 236.224 986.42 237.232C985.364 238.24 983.996 238.744 982.316 238.744ZM977.708 280V244.288H986.924V280H977.708ZM1013.9 280.864C1010.3 280.864 1007.1 280.096 1004.32 278.56C1001.54 277.024 999.351 274.864 997.767 272.08C996.183 269.296 995.391 266.08 995.391 262.432C995.391 258.736 996.159 255.448 997.695 252.568C999.279 249.688 1001.44 247.456 1004.18 245.872C1006.96 244.24 1010.22 243.424 1013.97 243.424C1017.47 243.424 1020.57 244.192 1023.26 245.728C1025.94 247.264 1028.03 249.376 1029.52 252.064C1031.06 254.704 1031.82 257.656 1031.82 260.92C1031.82 261.448 1031.8 262 1031.75 262.576C1031.75 263.152 1031.73 263.752 1031.68 264.376H1004.54C1004.73 267.16 1005.69 269.344 1007.42 270.928C1009.19 272.512 1011.33 273.304 1013.82 273.304C1015.7 273.304 1017.26 272.896 1018.5 272.08C1019.8 271.216 1020.76 270.112 1021.38 268.768H1030.74C1030.07 271.024 1028.94 273.088 1027.36 274.96C1025.82 276.784 1023.9 278.224 1021.6 279.28C1019.34 280.336 1016.78 280.864 1013.9 280.864ZM1013.97 250.912C1011.71 250.912 1009.72 251.56 1007.99 252.856C1006.26 254.104 1005.16 256.024 1004.68 258.616H1022.46C1022.32 256.264 1021.46 254.392 1019.87 253C1018.29 251.608 1016.32 250.912 1013.97 250.912ZM1054.33 280.864C1051.17 280.864 1048.38 280.36 1045.98 279.352C1043.58 278.296 1041.66 276.856 1040.22 275.032C1038.78 273.208 1037.92 271.096 1037.63 268.696H1046.92C1047.21 270.088 1047.97 271.288 1049.22 272.296C1050.52 273.256 1052.17 273.736 1054.19 273.736C1056.21 273.736 1057.67 273.328 1058.58 272.512C1059.54 271.696 1060.02 270.76 1060.02 269.704C1060.02 268.168 1059.35 267.136 1058.01 266.608C1056.66 266.032 1054.79 265.48 1052.39 264.952C1050.85 264.616 1049.29 264.208 1047.71 263.728C1046.13 263.248 1044.66 262.648 1043.32 261.928C1042.02 261.16 1040.97 260.2 1040.15 259.048C1039.33 257.848 1038.93 256.384 1038.93 254.656C1038.93 251.488 1040.17 248.824 1042.67 246.664C1045.21 244.504 1048.77 243.424 1053.33 243.424C1057.55 243.424 1060.91 244.408 1063.41 246.376C1065.95 248.344 1067.46 251.056 1067.94 254.512H1059.23C1058.7 251.872 1056.71 250.552 1053.25 250.552C1051.53 250.552 1050.18 250.888 1049.22 251.56C1048.31 252.232 1047.85 253.072 1047.85 254.08C1047.85 255.136 1048.55 255.976 1049.94 256.6C1051.33 257.224 1053.18 257.8 1055.49 258.328C1057.98 258.904 1060.26 259.552 1062.33 260.272C1064.44 260.944 1066.12 261.976 1067.37 263.368C1068.61 264.712 1069.24 266.656 1069.24 269.2C1069.29 271.408 1068.71 273.4 1067.51 275.176C1066.31 276.952 1064.58 278.344 1062.33 279.352C1060.07 280.36 1057.41 280.864 1054.33 280.864ZM1092.19 280C1088.45 280 1085.45 279.088 1083.19 277.264C1080.93 275.44 1079.81 272.2 1079.81 267.544V251.992H1073.69V244.288H1079.81L1080.89 234.712H1089.02V244.288H1098.67V251.992H1089.02V267.616C1089.02 269.344 1089.38 270.544 1090.1 271.216C1090.87 271.84 1092.17 272.152 1093.99 272.152H1098.45V280H1092.19ZM1122.8 280.864C1119.35 280.864 1116.23 280.072 1113.44 278.488C1110.71 276.904 1108.52 274.72 1106.89 271.936C1105.31 269.104 1104.52 265.84 1104.52 262.144C1104.52 258.448 1105.33 255.208 1106.96 252.424C1108.6 249.592 1110.78 247.384 1113.52 245.8C1116.3 244.216 1119.42 243.424 1122.88 243.424C1126.28 243.424 1129.36 244.216 1132.09 245.8C1134.88 247.384 1137.06 249.592 1138.64 252.424C1140.28 255.208 1141.09 258.448 1141.09 262.144C1141.09 265.84 1140.28 269.104 1138.64 271.936C1137.06 274.72 1134.88 276.904 1132.09 278.488C1129.31 280.072 1126.21 280.864 1122.8 280.864ZM1122.8 272.872C1125.2 272.872 1127.29 271.984 1129.07 270.208C1130.84 268.384 1131.73 265.696 1131.73 262.144C1131.73 258.592 1130.84 255.928 1129.07 254.152C1127.29 252.328 1125.23 251.416 1122.88 251.416C1120.43 251.416 1118.32 252.328 1116.54 254.152C1114.81 255.928 1113.95 258.592 1113.95 262.144C1113.95 265.696 1114.81 268.384 1116.54 270.208C1118.32 271.984 1120.4 272.872 1122.8 272.872ZM251.699 310.744C250.019 310.744 248.627 310.24 247.523 309.232C246.467 308.224 245.939 306.952 245.939 305.416C245.939 303.88 246.467 302.632 247.523 301.672C248.627 300.664 250.019 300.16 251.699 300.16C253.379 300.16 254.747 300.664 255.803 301.672C256.907 302.632 257.459 303.88 257.459 305.416C257.459 306.952 256.907 308.224 255.803 309.232C254.747 310.24 253.379 310.744 251.699 310.744ZM247.091 352V316.288H256.307V352H247.091ZM265.926 352V316.288H274.062L274.782 322.336C275.886 320.224 277.47 318.544 279.534 317.296C281.646 316.048 284.118 315.424 286.95 315.424C291.366 315.424 294.798 316.816 297.246 319.6C299.694 322.384 300.918 326.464 300.918 331.84V352H291.702V332.704C291.702 329.632 291.078 327.28 289.83 325.648C288.582 324.016 286.638 323.2 283.998 323.2C281.406 323.2 279.27 324.112 277.59 325.936C275.958 327.76 275.142 330.304 275.142 333.568V352H265.926ZM311.387 352V323.992H306.491V316.288H311.387V312.112C311.387 307.792 312.467 304.72 314.627 302.896C316.835 301.072 319.811 300.16 323.555 300.16H327.515V308.008H324.995C323.411 308.008 322.283 308.32 321.611 308.944C320.939 309.568 320.603 310.624 320.603 312.112V316.288H328.307V323.992H320.603V352H311.387ZM351.336 352.864C347.88 352.864 344.76 352.072 341.976 350.488C339.24 348.904 337.056 346.72 335.424 343.936C333.84 341.104 333.048 337.84 333.048 334.144C333.048 330.448 333.864 327.208 335.496 324.424C337.128 321.592 339.312 319.384 342.048 317.8C344.832 316.216 347.952 315.424 351.408 315.424C354.816 315.424 357.888 316.216 360.624 317.8C363.408 319.384 365.592 321.592 367.176 324.424C368.808 327.208 369.624 330.448 369.624 334.144C369.624 337.84 368.808 341.104 367.176 343.936C365.592 346.72 363.408 348.904 360.624 350.488C357.84 352.072 354.744 352.864 351.336 352.864ZM351.336 344.872C353.736 344.872 355.824 343.984 357.6 342.208C359.376 340.384 360.264 337.696 360.264 334.144C360.264 330.592 359.376 327.928 357.6 326.152C355.824 324.328 353.76 323.416 351.408 323.416C348.96 323.416 346.848 324.328 345.072 326.152C343.344 327.928 342.48 330.592 342.48 334.144C342.48 337.696 343.344 340.384 345.072 342.208C346.848 343.984 348.936 344.872 351.336 344.872ZM377.864 352V316.288H386.072L386.936 322.984C388.232 320.68 389.984 318.856 392.192 317.512C394.448 316.12 397.088 315.424 400.112 315.424V325.144H397.52C395.504 325.144 393.704 325.456 392.12 326.08C390.536 326.704 389.288 327.784 388.376 329.32C387.512 330.856 387.08 332.992 387.08 335.728V352H377.864ZM406.41 352V316.288H414.546L415.338 321.112C416.49 319.384 418.002 318.016 419.874 317.008C421.794 315.952 424.002 315.424 426.498 315.424C432.018 315.424 435.93 317.56 438.234 321.832C439.53 319.864 441.258 318.304 443.418 317.152C445.626 316 448.026 315.424 450.618 315.424C455.274 315.424 458.85 316.816 461.346 319.6C463.842 322.384 465.09 326.464 465.09 331.84V352H455.874V332.704C455.874 329.632 455.274 327.28 454.074 325.648C452.922 324.016 451.122 323.2 448.674 323.2C446.178 323.2 444.162 324.112 442.626 325.936C441.138 327.76 440.394 330.304 440.394 333.568V352H431.178V332.704C431.178 329.632 430.578 327.28 429.378 325.648C428.178 324.016 426.33 323.2 423.834 323.2C421.386 323.2 419.394 324.112 417.858 325.936C416.37 327.76 415.626 330.304 415.626 333.568V352H406.41ZM486.152 352.864C483.08 352.864 480.56 352.384 478.592 351.424C476.624 350.416 475.16 349.096 474.2 347.464C473.24 345.832 472.76 344.032 472.76 342.064C472.76 338.752 474.056 336.064 476.648 334C479.24 331.936 483.128 330.904 488.312 330.904H497.384V330.04C497.384 327.592 496.688 325.792 495.296 324.64C493.904 323.488 492.176 322.912 490.112 322.912C488.24 322.912 486.608 323.368 485.216 324.28C483.824 325.144 482.96 326.44 482.624 328.168H473.624C473.864 325.576 474.728 323.32 476.216 321.4C477.752 319.48 479.72 318.016 482.12 317.008C484.52 315.952 487.208 315.424 490.184 315.424C495.272 315.424 499.28 316.696 502.208 319.24C505.136 321.784 506.6 325.384 506.6 330.04V352H498.752L497.888 346.24C496.832 348.16 495.344 349.744 493.424 350.992C491.552 352.24 489.128 352.864 486.152 352.864ZM488.24 345.664C490.88 345.664 492.92 344.8 494.36 343.072C495.848 341.344 496.784 339.208 497.168 336.664H489.32C486.872 336.664 485.12 337.12 484.064 338.032C483.008 338.896 482.48 339.976 482.48 341.272C482.48 342.664 483.008 343.744 484.064 344.512C485.12 345.28 486.512 345.664 488.24 345.664ZM513.091 352V344.584L531.307 323.92H513.307V316.288H541.819V323.704L523.315 344.368H542.179V352H513.091ZM554.816 310.744C553.136 310.744 551.744 310.24 550.64 309.232C549.584 308.224 549.056 306.952 549.056 305.416C549.056 303.88 549.584 302.632 550.64 301.672C551.744 300.664 553.136 300.16 554.816 300.16C556.496 300.16 557.864 300.664 558.92 301.672C560.024 302.632 560.576 303.88 560.576 305.416C560.576 306.952 560.024 308.224 558.92 309.232C557.864 310.24 556.496 310.744 554.816 310.744ZM550.208 352V316.288H559.424V352H550.208ZM586.179 352.864C582.723 352.864 579.603 352.072 576.819 350.488C574.083 348.904 571.899 346.72 570.267 343.936C568.683 341.104 567.891 337.84 567.891 334.144C567.891 330.448 568.707 327.208 570.339 324.424C571.971 321.592 574.155 319.384 576.891 317.8C579.675 316.216 582.795 315.424 586.251 315.424C589.659 315.424 592.731 316.216 595.467 317.8C598.251 319.384 600.435 321.592 602.019 324.424C603.651 327.208 604.467 330.448 604.467 334.144C604.467 337.84 603.651 341.104 602.019 343.936C600.435 346.72 598.251 348.904 595.467 350.488C592.683 352.072 589.587 352.864 586.179 352.864ZM586.179 344.872C588.579 344.872 590.667 343.984 592.443 342.208C594.219 340.384 595.107 337.696 595.107 334.144C595.107 330.592 594.219 327.928 592.443 326.152C590.667 324.328 588.603 323.416 586.251 323.416C583.803 323.416 581.691 324.328 579.915 326.152C578.187 327.928 577.323 330.592 577.323 334.144C577.323 337.696 578.187 340.384 579.915 342.208C581.691 343.984 583.779 344.872 586.179 344.872ZM612.707 352V316.288H620.843L621.563 322.336C622.667 320.224 624.251 318.544 626.315 317.296C628.427 316.048 630.899 315.424 633.731 315.424C638.147 315.424 641.579 316.816 644.027 319.6C646.475 322.384 647.699 326.464 647.699 331.84V352H638.483V332.704C638.483 329.632 637.859 327.28 636.611 325.648C635.363 324.016 633.419 323.2 630.779 323.2C628.187 323.2 626.051 324.112 624.371 325.936C622.739 327.76 621.923 330.304 621.923 333.568V352H612.707ZM661.48 310.744C659.8 310.744 658.408 310.24 657.304 309.232C656.248 308.224 655.72 306.952 655.72 305.416C655.72 303.88 656.248 302.632 657.304 301.672C658.408 300.664 659.8 300.16 661.48 300.16C663.16 300.16 664.528 300.664 665.584 301.672C666.688 302.632 667.24 303.88 667.24 305.416C667.24 306.952 666.688 308.224 665.584 309.232C664.528 310.24 663.16 310.744 661.48 310.744ZM656.872 352V316.288H666.088V352H656.872ZM707.624 352.864C704.456 352.864 701.672 352.36 699.272 351.352C696.872 350.296 694.952 348.856 693.512 347.032C692.072 345.208 691.208 343.096 690.92 340.696H700.208C700.496 342.088 701.264 343.288 702.512 344.296C703.808 345.256 705.464 345.736 707.48 345.736C709.496 345.736 710.96 345.328 711.872 344.512C712.832 343.696 713.312 342.76 713.312 341.704C713.312 340.168 712.64 339.136 711.296 338.608C709.952 338.032 708.08 337.48 705.68 336.952C704.144 336.616 702.584 336.208 701 335.728C699.416 335.248 697.952 334.648 696.608 333.928C695.312 333.16 694.256 332.2 693.44 331.048C692.624 329.848 692.216 328.384 692.216 326.656C692.216 323.488 693.464 320.824 695.96 318.664C698.504 316.504 702.056 315.424 706.616 315.424C710.84 315.424 714.2 316.408 716.696 318.376C719.24 320.344 720.752 323.056 721.232 326.512H712.52C711.992 323.872 710 322.552 706.544 322.552C704.816 322.552 703.472 322.888 702.512 323.56C701.6 324.232 701.144 325.072 701.144 326.08C701.144 327.136 701.84 327.976 703.232 328.6C704.624 329.224 706.472 329.8 708.776 330.328C711.272 330.904 713.552 331.552 715.616 332.272C717.728 332.944 719.408 333.976 720.656 335.368C721.904 336.712 722.528 338.656 722.528 341.2C722.576 343.408 722 345.4 720.8 347.176C719.6 348.952 717.872 350.344 715.616 351.352C713.36 352.36 710.696 352.864 707.624 352.864ZM744.084 352.864C739.62 352.864 736.164 351.472 733.716 348.688C731.316 345.904 730.116 341.824 730.116 336.448V316.288H739.26V335.584C739.26 338.656 739.884 341.008 741.132 342.64C742.38 344.272 744.348 345.088 747.036 345.088C749.58 345.088 751.668 344.176 753.3 342.352C754.98 340.528 755.82 337.984 755.82 334.72V316.288H765.036V352H756.9L756.18 345.952C755.076 348.064 753.468 349.744 751.356 350.992C749.292 352.24 746.868 352.864 744.084 352.864ZM779.464 310.744C777.784 310.744 776.392 310.24 775.288 309.232C774.232 308.224 773.704 306.952 773.704 305.416C773.704 303.88 774.232 302.632 775.288 301.672C776.392 300.664 777.784 300.16 779.464 300.16C781.144 300.16 782.512 300.664 783.568 301.672C784.672 302.632 785.224 303.88 785.224 305.416C785.224 306.952 784.672 308.224 783.568 309.232C782.512 310.24 781.144 310.744 779.464 310.744ZM774.856 352V316.288H784.072V352H774.856ZM810.848 352V316.288H818.984L819.704 322.336C820.808 320.224 822.392 318.544 824.456 317.296C826.568 316.048 829.04 315.424 831.872 315.424C836.288 315.424 839.72 316.816 842.168 319.6C844.616 322.384 845.84 326.464 845.84 331.84V352H836.624V332.704C836.624 329.632 836 327.28 834.752 325.648C833.504 324.016 831.56 323.2 828.92 323.2C826.328 323.2 824.192 324.112 822.512 325.936C820.88 327.76 820.064 330.304 820.064 333.568V352H810.848ZM871.789 352.864C868.333 352.864 865.213 352.072 862.429 350.488C859.693 348.904 857.509 346.72 855.877 343.936C854.293 341.104 853.501 337.84 853.501 334.144C853.501 330.448 854.317 327.208 855.949 324.424C857.581 321.592 859.765 319.384 862.501 317.8C865.285 316.216 868.405 315.424 871.861 315.424C875.269 315.424 878.341 316.216 881.077 317.8C883.861 319.384 886.045 321.592 887.629 324.424C889.261 327.208 890.077 330.448 890.077 334.144C890.077 337.84 889.261 341.104 887.629 343.936C886.045 346.72 883.861 348.904 881.077 350.488C878.293 352.072 875.197 352.864 871.789 352.864ZM871.789 344.872C874.189 344.872 876.277 343.984 878.053 342.208C879.829 340.384 880.717 337.696 880.717 334.144C880.717 330.592 879.829 327.928 878.053 326.152C876.277 324.328 874.213 323.416 871.861 323.416C869.413 323.416 867.301 324.328 865.525 326.152C863.797 327.928 862.933 330.592 862.933 334.144C862.933 337.696 863.797 340.384 865.525 342.208C867.301 343.984 869.389 344.872 871.789 344.872ZM913.077 352.864C909.909 352.864 907.125 352.36 904.725 351.352C902.325 350.296 900.405 348.856 898.965 347.032C897.525 345.208 896.661 343.096 896.373 340.696H905.661C905.949 342.088 906.717 343.288 907.965 344.296C909.261 345.256 910.917 345.736 912.933 345.736C914.949 345.736 916.413 345.328 917.325 344.512C918.285 343.696 918.765 342.76 918.765 341.704C918.765 340.168 918.093 339.136 916.749 338.608C915.405 338.032 913.533 337.48 911.133 336.952C909.597 336.616 908.037 336.208 906.453 335.728C904.869 335.248 903.405 334.648 902.061 333.928C900.765 333.16 899.709 332.2 898.893 331.048C898.077 329.848 897.669 328.384 897.669 326.656C897.669 323.488 898.917 320.824 901.413 318.664C903.957 316.504 907.509 315.424 912.069 315.424C916.293 315.424 919.653 316.408 922.149 318.376C924.693 320.344 926.205 323.056 926.685 326.512H917.973C917.445 323.872 915.453 322.552 911.997 322.552C910.269 322.552 908.925 322.888 907.965 323.56C907.053 324.232 906.597 325.072 906.597 326.08C906.597 327.136 907.293 327.976 908.685 328.6C910.077 329.224 911.925 329.8 914.229 330.328C916.725 330.904 919.005 331.552 921.069 332.272C923.181 332.944 924.861 333.976 926.109 335.368C927.357 336.712 927.981 338.656 927.981 341.2C928.029 343.408 927.453 345.4 926.253 347.176C925.053 348.952 923.325 350.344 921.069 351.352C918.813 352.36 916.149 352.864 913.077 352.864ZM950.932 352C947.188 352 944.188 351.088 941.932 349.264C939.676 347.44 938.548 344.2 938.548 339.544V323.992H932.428V316.288H938.548L939.628 306.712H947.764V316.288H957.412V323.992H947.764V339.616C947.764 341.344 948.124 342.544 948.844 343.216C949.612 343.84 950.908 344.152 952.732 344.152H957.196V352H950.932ZM965.325 352V316.288H973.533L974.397 322.984C975.693 320.68 977.445 318.856 979.653 317.512C981.909 316.12 984.549 315.424 987.573 315.424V325.144H984.981C982.965 325.144 981.165 325.456 979.581 326.08C977.997 326.704 976.749 327.784 975.837 329.32C974.973 330.856 974.541 332.992 974.541 335.728V352H965.325ZM998.839 310.744C997.159 310.744 995.767 310.24 994.663 309.232C993.607 308.224 993.079 306.952 993.079 305.416C993.079 303.88 993.607 302.632 994.663 301.672C995.767 300.664 997.159 300.16 998.839 300.16C1000.52 300.16 1001.89 300.664 1002.94 301.672C1004.05 302.632 1004.6 303.88 1004.6 305.416C1004.6 306.952 1004.05 308.224 1002.94 309.232C1001.89 310.24 1000.52 310.744 998.839 310.744ZM994.231 352V316.288H1003.45V352H994.231ZM1047.72 352.864C1044.07 352.864 1040.85 352.072 1038.07 350.488C1035.29 348.904 1033.08 346.696 1031.45 343.864C1029.86 341.032 1029.07 337.792 1029.07 334.144C1029.07 330.496 1029.86 327.256 1031.45 324.424C1033.08 321.592 1035.29 319.384 1038.07 317.8C1040.85 316.216 1044.07 315.424 1047.72 315.424C1052.28 315.424 1056.12 316.624 1059.24 319.024C1062.36 321.376 1064.35 324.64 1065.21 328.816H1055.49C1055.01 327.088 1054.05 325.744 1052.61 324.784C1051.22 323.776 1049.57 323.272 1047.65 323.272C1045.1 323.272 1042.94 324.232 1041.17 326.152C1039.39 328.072 1038.5 330.736 1038.5 334.144C1038.5 337.552 1039.39 340.216 1041.17 342.136C1042.94 344.056 1045.1 345.016 1047.65 345.016C1049.57 345.016 1051.22 344.536 1052.61 343.576C1054.05 342.616 1055.01 341.248 1055.49 339.472H1065.21C1064.35 343.504 1062.36 346.744 1059.24 349.192C1056.12 351.64 1052.28 352.864 1047.72 352.864ZM1090.53 352.864C1087.07 352.864 1083.95 352.072 1081.17 350.488C1078.43 348.904 1076.25 346.72 1074.62 343.936C1073.03 341.104 1072.24 337.84 1072.24 334.144C1072.24 330.448 1073.06 327.208 1074.69 324.424C1076.32 321.592 1078.51 319.384 1081.24 317.8C1084.03 316.216 1087.15 315.424 1090.6 315.424C1094.01 315.424 1097.08 316.216 1099.82 317.8C1102.6 319.384 1104.79 321.592 1106.37 324.424C1108 327.208 1108.82 330.448 1108.82 334.144C1108.82 337.84 1108 341.104 1106.37 343.936C1104.79 346.72 1102.6 348.904 1099.82 350.488C1097.03 352.072 1093.94 352.864 1090.53 352.864ZM1090.53 344.872C1092.93 344.872 1095.02 343.984 1096.79 342.208C1098.57 340.384 1099.46 337.696 1099.46 334.144C1099.46 330.592 1098.57 327.928 1096.79 326.152C1095.02 324.328 1092.95 323.416 1090.6 323.416C1088.15 323.416 1086.04 324.328 1084.27 326.152C1082.54 327.928 1081.67 330.592 1081.67 334.144C1081.67 337.696 1082.54 340.384 1084.27 342.208C1086.04 343.984 1088.13 344.872 1090.53 344.872ZM1117.06 352V316.288H1125.27L1126.13 322.984C1127.43 320.68 1129.18 318.856 1131.39 317.512C1133.64 316.12 1136.28 315.424 1139.31 315.424V325.144H1136.71C1134.7 325.144 1132.9 325.456 1131.31 326.08C1129.73 326.704 1128.48 327.784 1127.57 329.32C1126.71 330.856 1126.27 332.992 1126.27 335.728V352H1117.06ZM1160.37 352.864C1157.2 352.864 1154.41 352.36 1152.01 351.352C1149.61 350.296 1147.69 348.856 1146.25 347.032C1144.81 345.208 1143.95 343.096 1143.66 340.696H1152.95C1153.24 342.088 1154.01 343.288 1155.25 344.296C1156.55 345.256 1158.21 345.736 1160.22 345.736C1162.24 345.736 1163.7 345.328 1164.61 344.512C1165.57 343.696 1166.05 342.76 1166.05 341.704C1166.05 340.168 1165.38 339.136 1164.04 338.608C1162.69 338.032 1160.82 337.48 1158.42 336.952C1156.89 336.616 1155.33 336.208 1153.74 335.728C1152.16 335.248 1150.69 334.648 1149.35 333.928C1148.05 333.16 1147 332.2 1146.18 331.048C1145.37 329.848 1144.96 328.384 1144.96 326.656C1144.96 323.488 1146.21 320.824 1148.7 318.664C1151.25 316.504 1154.8 315.424 1159.36 315.424C1163.58 315.424 1166.94 316.408 1169.44 318.376C1171.98 320.344 1173.49 323.056 1173.97 326.512H1165.26C1164.73 323.872 1162.74 322.552 1159.29 322.552C1157.56 322.552 1156.21 322.888 1155.25 323.56C1154.34 324.232 1153.89 325.072 1153.89 326.08C1153.89 327.136 1154.58 327.976 1155.97 328.6C1157.37 329.224 1159.21 329.8 1161.52 330.328C1164.01 330.904 1166.29 331.552 1168.36 332.272C1170.47 332.944 1172.15 333.976 1173.4 335.368C1174.65 336.712 1175.27 338.656 1175.27 341.2C1175.32 343.408 1174.74 345.4 1173.54 347.176C1172.34 348.952 1170.61 350.344 1168.36 351.352C1166.1 352.36 1163.44 352.864 1160.37 352.864ZM1188.4 310.744C1186.72 310.744 1185.33 310.24 1184.23 309.232C1183.17 308.224 1182.64 306.952 1182.64 305.416C1182.64 303.88 1183.17 302.632 1184.23 301.672C1185.33 300.664 1186.72 300.16 1188.4 300.16C1190.08 300.16 1191.45 300.664 1192.51 301.672C1193.61 302.632 1194.16 303.88 1194.16 305.416C1194.16 306.952 1193.61 308.224 1192.51 309.232C1191.45 310.24 1190.08 310.744 1188.4 310.744ZM1183.79 352V316.288H1193.01V352H1183.79Z" fill="white"/>
  <path style="mix-blend-mode:color-dodge" d="M 1211.847 388.153 C 1311.847 374.151 1371.57 335.255 1371.57 243.726 C 1371.57 152.198 1295.33 78 1201.28 78 C 1107.24 78 1031 152.198 1031 243.726 C 1031 335.255 1118.716 401.193 1211.847 388.153 Z" fill="url(#paint0_radial_231_1055)"/>
  <path style="mix-blend-mode:color-dodge" d="M447.284 337.546C581.646 337.546 690.568 231.539 690.568 100.773C690.568 -29.9932 581.646 -136 447.284 -136C312.922 -136 204 -29.9932 204 100.773C204 231.539 312.922 337.546 447.284 337.546Z" fill="url(#paint2_radial_231_1055)"/>
  <defs>
    <radialGradient id="paint0_radial_231_1055" cx="0" cy="0" r="1" gradientUnits="userSpaceOnUse" gradientTransform="translate(1176.1 259.781) rotate(-75.8112) scale(166.305 170.136)">
      <stop stop-color="#F0EEF7"/>
      <stop offset="0.02" stop-color="#E6E4ED"/>
      <stop offset="0.13" stop-color="#B1B0B6"/>
      <stop offset="0.25" stop-color="#828186"/>
      <stop offset="0.36" stop-color="#5A595C"/>
      <stop offset="0.48" stop-color="#39393B"/>
      <stop offset="0.6" stop-color="#202021"/>
      <stop offset="0.73" stop-color="#0E0E0F"/>
      <stop offset="0.86" stop-color="#030304"/>
      <stop offset="1"/>
    </radialGradient>
    <radialGradient id="paint2_radial_231_1055" cx="0" cy="0" r="1" gradientUnits="userSpaceOnUse" gradientTransform="translate(411.308 123.709) rotate(-75.8112) scale(237.599 243.072)">
      <stop stop-color="#F0EEF7"/>
      <stop offset="0.02" stop-color="#E6E4ED"/>
      <stop offset="0.13" stop-color="#B1B0B6"/>
      <stop offset="0.25" stop-color="#828186"/>
      <stop offset="0.36" stop-color="#5A595C"/>
      <stop offset="0.48" stop-color="#39393B"/>
      <stop offset="0.6" stop-color="#202021"/>
      <stop offset="0.73" stop-color="#0E0E0F"/>
      <stop offset="0.86" stop-color="#030304"/>
      <stop offset="1"/>
    </radialGradient>
    <radialGradient id="gradient-1" cx="0" cy="0" r="1" gradientUnits="userSpaceOnUse" gradientTransform="matrix(40.764303, -161.231619, 164.945745, 41.703351, -4535.443861, 202.892824)">
      <stop stop-color="#F0EEF7"/>
      <stop offset="0.02" stop-color="#E6E4ED"/>
      <stop offset="0.13" stop-color="#B1B0B6"/>
      <stop offset="0.25" stop-color="#828186"/>
      <stop offset="0.36" stop-color="#5A595C"/>
      <stop offset="0.48" stop-color="#39393B"/>
      <stop offset="0.6" stop-color="#202021"/>
      <stop offset="0.73" stop-color="#0E0E0F"/>
      <stop offset="0.86" stop-color="#030304"/>
      <stop offset="1"/>
    </radialGradient>
    <radialGradient id="paint1_radial_231_1055" cx="0" cy="0" r="1" gradientUnits="userSpaceOnUse" gradientTransform="translate(1202.6 221.403) rotate(163.119) scale(38.1052 37.2894)">
      <stop stop-color="#8173B0"/>
      <stop offset="0.12" stop-color="#615785"/>
      <stop offset="0.26" stop-color="#443C5C"/>
      <stop offset="0.39" stop-color="#2B263B"/>
      <stop offset="0.54" stop-color="#181621"/>
      <stop offset="0.68" stop-color="#0B0A0F"/>
      <stop offset="0.83" stop-color="#030204"/>
      <stop offset="1"/>
    </radialGradient>
    <radialGradient id="gradient-2" cx="0" cy="0" r="1" gradientUnits="userSpaceOnUse" gradientTransform="matrix(58.239731, -230.350694, 235.656739, 59.581265, -5300.074675, 65.971987)">
      <stop stop-color="#F0EEF7"/>
      <stop offset="0.02" stop-color="#E6E4ED"/>
      <stop offset="0.13" stop-color="#B1B0B6"/>
      <stop offset="0.25" stop-color="#828186"/>
      <stop offset="0.36" stop-color="#5A595C"/>
      <stop offset="0.48" stop-color="#39393B"/>
      <stop offset="0.6" stop-color="#202021"/>
      <stop offset="0.73" stop-color="#0E0E0F"/>
      <stop offset="0.86" stop-color="#030304"/>
      <stop offset="1"/>
    </radialGradient>
    <radialGradient id="paint3_radial_231_1055" cx="0" cy="0" r="1" gradientUnits="userSpaceOnUse" gradientTransform="translate(449.168 68.8788) rotate(163.119) scale(54.4407 53.2752)">
      <stop stop-color="#8173B0"/>
      <stop offset="0.12" stop-color="#615785"/>
      <stop offset="0.26" stop-color="#443C5C"/>
      <stop offset="0.39" stop-color="#2B263B"/>
      <stop offset="0.54" stop-color="#181621"/>
      <stop offset="0.68" stop-color="#0B0A0F"/>
      <stop offset="0.83" stop-color="#030204"/>
      <stop offset="1"/>
    </radialGradient>
  </defs>
  <path d="M -4214.288 282.482 C -5104.619 508.559 -6032.835 264.075 -6385.651 113.574 L -6385.651 -296.785 L -674.607 -244.216 C -670.977 -190.079 -665.14 -33.137 -673.85 170.419 C -958.888 50.234 -3101.378 -0.113 -4214.288 282.482 Z" fill="#2D224C" transform="matrix(0.999999, 0.001126, -0.001126, 0.999999, 0.041356, 3.974822)"/>
  <path d="M -4988.17 49.967 L -4988.17 52.946 L -5007.825 52.946 C -5007.068 52.262 -5006.69 51.237 -5006.69 49.284 L -5006.69 28.933 C -5006.69 26.991 -5007.068 25.966 -5007.825 25.27 L -4988.585 25.27 L -4988.585 28.285 C -4989.269 27.565 -4990.148 27.223 -4992.126 27.223 L -4998.547 27.223 L -4998.547 36.843 L -4994.103 36.843 C -4992.875 36.961 -4991.646 36.636 -4990.636 35.928 L -4990.636 39.664 C -4991.646 38.955 -4992.875 38.63 -4994.103 38.748 L -4998.547 38.748 L -4998.547 51.029 L -4991.735 51.029 C -4989.806 51.029 -4988.89 50.688 -4988.207 49.967 L -4988.17 49.967 Z" fill="#D9DAF3" transform="matrix(0.999999, 0.001126, -0.001126, 0.999999, 0.040867, 5.627773)"/>
  <path d="M -4972.299 52.972 L -4972.604 49.7 C -4973.255 50.835 -4974.208 51.766 -4975.357 52.391 C -4976.506 53.016 -4977.806 53.31 -4979.111 53.241 C -4983.226 53.241 -4986.534 50.079 -4986.534 43.193 C -4986.534 36.308 -4982.652 33.122 -4978.806 33.122 C -4977.552 33.103 -4976.315 33.42 -4975.225 34.041 C -4974.134 34.661 -4973.229 35.562 -4972.604 36.65 L -4972.604 28.763 C -4972.486 27.551 -4972.811 26.336 -4973.52 25.345 C -4971.701 25.235 -4967.245 24.93 -4964.547 24.588 L -4964.547 49.542 C -4964.645 50.764 -4964.303 51.98 -4963.583 52.972 L -4972.299 52.972 Z M -4972.604 47.344 L -4972.604 39.042 C -4972.783 38.497 -4973.129 38.023 -4973.594 37.687 C -4974.06 37.352 -4974.619 37.172 -4975.193 37.175 C -4976.987 37.175 -4977.891 38.469 -4977.927 43.279 C -4977.964 48.089 -4976.987 49.383 -4975.193 49.383 C -4974.6 49.376 -4974.027 49.175 -4973.559 48.812 C -4973.092 48.448 -4972.757 47.941 -4972.604 47.369 L -4972.604 47.344 Z" fill="#D9DAF3" transform="matrix(0.999999, 0.001126, -0.001126, 0.999999, 0.040669, 5.601944)"/>
  <path d="M -4948.23 52.999 L -4948.425 49.727 C -4949.007 50.861 -4949.908 51.8 -4951.016 52.428 C -4952.124 53.057 -4953.392 53.349 -4954.663 53.268 C -4958.961 53.268 -4960.768 50.826 -4960.768 46.272 L -4960.768 36.933 C -4960.696 36.437 -4960.742 35.932 -4960.901 35.457 C -4961.06 34.982 -4961.328 34.551 -4961.683 34.198 C -4958.912 34.076 -4955.677 33.735 -4952.71 33.441 L -4952.71 46.517 C -4952.71 48.043 -4952.332 49.3 -4950.769 49.3 C -4950.347 49.287 -4949.939 49.15 -4949.594 48.907 C -4949.249 48.664 -4948.983 48.325 -4948.828 47.933 L -4948.828 36.945 C -4948.757 36.45 -4948.802 35.944 -4948.961 35.469 C -4949.12 34.995 -4949.388 34.563 -4949.743 34.211 C -4946.96 34.089 -4943.725 33.747 -4940.758 33.454 L -4940.758 49.569 C -4940.873 50.791 -4940.553 52.014 -4939.855 53.024 L -4948.23 52.999 Z" fill="#D9DAF3" transform="matrix(0.999999, 0.001126, -0.001126, 0.999999, 0.045686, 5.574597)"/>
  <path d="M -4991.694 58.914 L -4992.573 61.197 C -4993.969 60.107 -4995.685 59.506 -4997.456 59.488 C -4999.702 59.488 -5000.728 60.062 -5000.728 61.392 C -5000.728 63.932 -4990.717 64.957 -4990.717 70.976 C -4990.717 75.542 -4994.721 77.629 -5001.106 77.629 C -5003.687 77.776 -5006.26 77.236 -5008.565 76.067 L -5007.723 73.82 C -5006.114 74.972 -5004.183 75.587 -5002.205 75.578 C -4999.763 75.578 -4998.677 74.895 -4998.677 73.442 C -4998.677 70.06 -5008.443 70.597 -5008.565 64.054 C -5008.565 60.391 -5005.709 57.473 -4998.371 57.473 C -4996.063 57.415 -4993.773 57.908 -4991.694 58.914 Z" fill="#D9DAF3" transform="matrix(0.999999, 0.001126, -0.001126, 0.999999, 0.072904, 5.629642)"/>
  <path d="M -4967.277 67.618 C -4967.277 73.063 -4971.342 77.702 -4978.264 77.702 C -4985.589 77.702 -4989.252 73.405 -4989.252 67.618 C -4989.252 62.185 -4985.138 57.546 -4978.264 57.546 C -4971.037 57.497 -4967.277 61.795 -4967.277 67.618 Z M -4980.706 67.618 C -4980.706 74.662 -4980.059 76.164 -4978.264 76.164 C -4976.47 76.164 -4975.823 74.687 -4975.823 67.618 C -4975.823 60.549 -4976.433 59.145 -4978.264 59.145 C -4980.096 59.145 -4980.706 60.537 -4980.706 67.618 Z" fill="#D9DAF3" transform="matrix(0.999999, 0.001126, -0.001126, 0.999999, 0.072989, 5.605572)"/>
  <path d="M -4931.792 77.424 L -4921.867 77.424 C -4922.575 76.419 -4922.9 75.193 -4922.782 73.969 L -4922.782 65.423 C -4922.782 60.82 -4924.333 57.512 -4929.436 57.512 C -4930.629 57.463 -4931.814 57.742 -4932.86 58.318 C -4933.906 58.895 -4934.774 59.748 -4935.369 60.784 L -4935.369 57.793 C -4937.579 58.074 -4940.692 58.599 -4942.816 58.916 C -4945.603 59.287 -4948.419 59.405 -4951.227 59.27 C -4952.866 58.254 -4954.788 57.792 -4956.709 57.952 C -4961.836 57.952 -4965.255 61.028 -4965.255 64.8 C -4965.25 65.928 -4964.944 67.034 -4964.369 68.004 C -4963.794 68.974 -4962.97 69.773 -4961.983 70.318 C -4962.814 70.799 -4963.496 71.501 -4963.953 72.346 C -4964.409 73.191 -4964.623 74.145 -4964.571 75.104 C -4964.588 75.736 -4964.479 76.364 -4964.25 76.953 C -4964.022 77.542 -4963.679 78.08 -4963.24 78.535 C -4963.851 78.745 -4964.382 79.137 -4964.762 79.659 C -4965.142 80.181 -4965.352 80.807 -4965.365 81.452 C -4965.365 83.894 -4961.189 85.115 -4956.355 85.115 C -4950.605 85.115 -4946.161 82.905 -4946.161 79.011 C -4946.161 75.58 -4949.018 73.493 -4956.318 73.383 L -4959.981 73.309 C -4961.116 73.309 -4961.47 72.809 -4961.47 72.272 C -4961.44 72 -4961.335 71.742 -4961.167 71.527 C -4960.999 71.311 -4960.774 71.146 -4960.518 71.051 C -4959.264 71.456 -4957.953 71.658 -4956.636 71.649 C -4951.423 71.649 -4948.004 68.573 -4948.004 64.849 C -4947.948 63.222 -4948.536 61.638 -4949.64 60.442 L -4943.097 60.759 C -4943.012 61.161 -4942.971 61.57 -4942.975 61.98 L -4942.975 74.005 C -4942.857 75.229 -4943.182 76.455 -4943.89 77.46 L -4934.002 77.46 C -4934.71 76.455 -4935.035 75.229 -4934.917 74.005 L -4934.917 62.554 C -4934.681 62.206 -4934.353 61.929 -4933.969 61.755 C -4933.586 61.58 -4933.162 61.515 -4932.744 61.565 C -4931.181 61.565 -4930.803 62.786 -4930.803 64.3 L -4930.803 73.969 C -4930.706 75.202 -4931.057 76.429 -4931.792 77.424 Z M -4961.385 79.365 L -4954.06 79.707 C -4951.618 79.816 -4950.678 80.28 -4950.678 81.159 C -4950.678 82.038 -4951.96 83.601 -4956.379 83.601 C -4958.54 83.601 -4961.629 82.759 -4961.629 80.903 C -4961.659 80.379 -4961.575 79.854 -4961.385 79.365 Z M -4956.709 70.233 C -4958.076 70.233 -4958.613 69.244 -4958.565 64.8 C -4958.516 60.357 -4958.076 59.319 -4956.709 59.319 C -4955.342 59.319 -4954.804 60.271 -4954.804 64.8 C -4954.804 69.33 -4955.256 70.233 -4956.709 70.233 Z" fill="#D9DAF3" transform="matrix(0.999999, 0.001126, -0.001126, 0.999999, 0.077162, 5.56656)"/>
  <path d="M -4897.972 67.696 C -4897.972 73.141 -4902.048 77.78 -4908.958 77.78 C -4916.283 77.78 -4919.946 73.483 -4919.946 67.696 C -4919.946 62.263 -4915.844 57.624 -4908.958 57.624 C -4901.743 57.575 -4897.972 61.873 -4897.972 67.696 Z M -4911.4 67.696 C -4911.4 74.74 -4910.753 76.242 -4908.958 76.242 C -4907.163 76.242 -4906.516 74.765 -4906.516 67.696 C -4906.516 60.627 -4907.127 59.223 -4908.958 59.223 C -4910.789 59.223 -4911.363 60.615 -4911.4 67.696 Z" fill="#D9DAF3" transform="matrix(0.999999, 0.001126, -0.001126, 0.999999, 0.07312, 5.527534)"/>
  <path d="M -5085.401 25.234 L -5016.815 25.234 L -5016.815 26.223 C -5016.815 37.064 -5016.705 47.893 -5016.815 58.722 C -5017.047 77.034 -5025.263 90.463 -5041.317 99.241 C -5044.149 100.779 -5047.018 102.232 -5049.863 103.746 C -5050.234 103.96 -5050.655 104.073 -5051.084 104.073 C -5051.512 104.073 -5051.933 103.96 -5052.304 103.746 C -5055.564 102.012 -5058.872 100.376 -5062.071 98.569 C -5067.983 95.415 -5073.092 90.946 -5077.005 85.506 C -5080.919 80.067 -5083.532 73.802 -5084.644 67.194 C -5085.11 64.559 -5085.339 61.886 -5085.328 59.21 C -5085.401 48.223 -5085.328 37.235 -5085.328 26.248 L -5085.401 25.234 Z M -5081.824 28.775 L -5081.824 29.581 C -5081.824 39.457 -5081.824 49.333 -5081.824 59.21 C -5081.819 61.315 -5081.659 63.416 -5081.348 65.497 C -5080.549 71.306 -5078.478 76.867 -5075.283 81.784 C -5072.088 86.701 -5067.848 90.852 -5062.865 93.942 C -5059.202 96.274 -5055.308 98.093 -5051.499 100.12 C -5051.358 100.18 -5051.206 100.211 -5051.053 100.211 C -5050.9 100.211 -5050.748 100.18 -5050.608 100.12 C -5048.85 99.229 -5047.14 98.264 -5045.37 97.385 C -5040.117 94.966 -5035.366 91.578 -5031.367 87.399 C -5024.417 80.045 -5020.513 70.33 -5020.441 60.211 C -5020.294 50.005 -5020.441 39.799 -5020.441 29.593 C -5020.441 29.336 -5020.441 29.068 -5020.441 28.775 L -5081.824 28.775 Z" fill="#D9DAF3" transform="matrix(0.999999, 0.001126, -0.001126, 0.999999, 0.069598, 5.687564)"/>
  <path d="M -5046.477 47.477 L -5057.33 47.477 L -5057.33 74.762 L -5046.477 74.762 L -5046.477 47.477 Z" fill="#D9DAF3" transform="matrix(0.999999, 0.001126, -0.001126, 0.999999, 0.065618, 5.688486)"/>
  <path d="M -5057.508 57.523 L -5064.912 54.878 L -5071.122 72.261 L -5063.719 74.906 L -5057.508 57.523 Z" fill="#D9DAF3" transform="matrix(0.999999, 0.001126, -0.001126, 0.999999, 0.069858, 5.702463)"/>
  <path d="M -5043.052 41.519 L -5047.863 43.291 L -5036.314 74.645 L -5031.503 72.873 L -5043.052 41.519 Z" fill="#D9DAF3" transform="matrix(0.999999, 0.001126, -0.001126, 0.999999, 0.062206, 5.674723)"/>
  <path d="M -5389.274 223.081 C -5394.026 223.081 -5398.178 222.001 -5401.73 219.841 C -5405.282 217.681 -5408.042 214.681 -5410.01 210.841 C -5411.978 206.953 -5412.962 202.441 -5412.962 197.305 C -5412.962 192.121 -5411.954 187.561 -5409.938 183.625 C -5407.874 179.641 -5404.97 176.545 -5401.226 174.337 C -5397.434 172.081 -5392.946 170.953 -5387.762 170.953 C -5381.858 170.953 -5376.962 172.369 -5373.074 175.201 C -5369.186 178.033 -5366.666 181.945 -5365.514 186.937 L -5375.81 186.937 C -5376.578 184.585 -5377.97 182.761 -5379.986 181.465 C -5382.002 180.121 -5384.594 179.449 -5387.762 179.449 C -5392.802 179.449 -5396.69 181.057 -5399.426 184.273 C -5402.162 187.441 -5403.53 191.809 -5403.53 197.377 C -5403.53 202.945 -5402.186 207.265 -5399.498 210.337 C -5396.762 213.361 -5393.066 214.873 -5388.41 214.873 C -5383.85 214.873 -5380.418 213.649 -5378.114 211.201 C -5375.762 208.705 -5374.346 205.441 -5373.866 201.409 L -5386.61 201.409 L -5386.61 194.497 L -5364.578 194.497 L -5364.578 222.217 L -5373.074 222.217 L -5373.794 215.593 C -5375.426 217.993 -5377.466 219.841 -5379.914 221.137 C -5382.362 222.433 -5385.482 223.081 -5389.274 223.081 Z M -5355.835 222.217 L -5355.835 186.505 L -5347.627 186.505 L -5346.763 193.201 C -5345.467 190.897 -5343.715 189.073 -5341.507 187.729 C -5339.251 186.337 -5336.611 185.641 -5333.587 185.641 L -5333.587 195.361 L -5336.179 195.361 C -5338.195 195.361 -5339.995 195.673 -5341.579 196.297 C -5343.163 196.921 -5344.411 198.001 -5345.323 199.537 C -5346.187 201.073 -5346.619 203.209 -5346.619 205.945 L -5346.619 222.217 L -5355.835 222.217 Z M -5314.976 223.081 C -5318.048 223.081 -5320.568 222.601 -5322.536 221.641 C -5324.504 220.633 -5325.968 219.313 -5326.928 217.681 C -5327.888 216.049 -5328.368 214.249 -5328.368 212.281 C -5328.368 208.969 -5327.072 206.281 -5324.48 204.217 C -5321.888 202.153 -5318 201.121 -5312.816 201.121 L -5303.744 201.121 L -5303.744 200.257 C -5303.744 197.809 -5304.44 196.009 -5305.832 194.857 C -5307.224 193.705 -5308.952 193.129 -5311.016 193.129 C -5312.888 193.129 -5314.52 193.585 -5315.912 194.497 C -5317.304 195.361 -5318.168 196.657 -5318.504 198.385 L -5327.504 198.385 C -5327.264 195.793 -5326.4 193.537 -5324.912 191.617 C -5323.376 189.697 -5321.408 188.233 -5319.008 187.225 C -5316.608 186.169 -5313.92 185.641 -5310.944 185.641 C -5305.856 185.641 -5301.848 186.913 -5298.92 189.457 C -5295.992 192.001 -5294.528 195.601 -5294.528 200.257 L -5294.528 222.217 L -5302.376 222.217 L -5303.24 216.457 C -5304.296 218.377 -5305.784 219.961 -5307.704 221.209 C -5309.576 222.457 -5312 223.081 -5314.976 223.081 Z M -5312.888 215.881 C -5310.248 215.881 -5308.208 215.017 -5306.768 213.289 C -5305.28 211.561 -5304.344 209.425 -5303.96 206.881 L -5311.808 206.881 C -5314.256 206.881 -5316.008 207.337 -5317.064 208.249 C -5318.12 209.113 -5318.648 210.193 -5318.648 211.489 C -5318.648 212.881 -5318.12 213.961 -5317.064 214.729 C -5316.008 215.497 -5314.616 215.881 -5312.888 215.881 Z M -5288.037 222.217 L -5288.037 214.801 L -5269.821 194.137 L -5287.821 194.137 L -5287.821 186.505 L -5259.309 186.505 L -5259.309 193.921 L -5277.813 214.585 L -5258.949 214.585 L -5258.949 222.217 L -5288.037 222.217 Z M -5246.312 180.961 C -5247.992 180.961 -5249.384 180.457 -5250.488 179.449 C -5251.544 178.441 -5252.072 177.169 -5252.072 175.633 C -5252.072 174.097 -5251.544 172.849 -5250.488 171.889 C -5249.384 170.881 -5247.992 170.377 -5246.312 170.377 C -5244.632 170.377 -5243.264 170.881 -5242.208 171.889 C -5241.104 172.849 -5240.552 174.097 -5240.552 175.633 C -5240.552 177.169 -5241.104 178.441 -5242.208 179.449 C -5243.264 180.457 -5244.632 180.961 -5246.312 180.961 Z M -5250.92 222.217 L -5250.92 186.505 L -5241.704 186.505 L -5241.704 222.217 L -5250.92 222.217 Z M -5214.733 223.081 C -5218.333 223.081 -5221.525 222.313 -5224.309 220.777 C -5227.093 219.241 -5229.277 217.081 -5230.861 214.297 C -5232.445 211.513 -5233.237 208.297 -5233.237 204.649 C -5233.237 200.953 -5232.469 197.665 -5230.933 194.785 C -5229.349 191.905 -5227.189 189.673 -5224.453 188.089 C -5221.669 186.457 -5218.405 185.641 -5214.661 185.641 C -5211.157 185.641 -5208.061 186.409 -5205.373 187.945 C -5202.685 189.481 -5200.597 191.593 -5199.109 194.281 C -5197.573 196.921 -5196.805 199.873 -5196.805 203.137 C -5196.805 203.665 -5196.829 204.217 -5196.877 204.793 C -5196.877 205.369 -5196.901 205.969 -5196.949 206.593 L -5224.093 206.593 C -5223.901 209.377 -5222.941 211.561 -5221.213 213.145 C -5219.437 214.729 -5217.301 215.521 -5214.805 215.521 C -5212.933 215.521 -5211.373 215.113 -5210.125 214.297 C -5208.829 213.433 -5207.869 212.329 -5207.245 210.985 L -5197.885 210.985 C -5198.557 213.241 -5199.685 215.305 -5201.269 217.177 C -5202.805 219.001 -5204.725 220.441 -5207.029 221.497 C -5209.285 222.553 -5211.853 223.081 -5214.733 223.081 Z M -5214.661 193.129 C -5216.917 193.129 -5218.909 193.777 -5220.637 195.073 C -5222.365 196.321 -5223.469 198.241 -5223.949 200.833 L -5206.165 200.833 C -5206.309 198.481 -5207.173 196.609 -5208.757 195.217 C -5210.341 193.825 -5212.309 193.129 -5214.661 193.129 Z" fill="#74DFAC" transform="matrix(0.999999, 0.001126, -0.001126, 0.999999, 0.218154, 5.973427)"/>
  <path d="M -5171.937 238.409 L -5171.937 186.857 L -5163.729 186.857 L -5162.721 191.969 C -5161.569 190.385 -5160.057 188.993 -5158.185 187.793 C -5156.265 186.593 -5153.793 185.993 -5150.769 185.993 C -5147.409 185.993 -5144.409 186.809 -5141.769 188.441 C -5139.129 190.073 -5137.041 192.305 -5135.505 195.137 C -5133.969 197.969 -5133.201 201.185 -5133.201 204.785 C -5133.201 208.385 -5133.969 211.601 -5135.505 214.433 C -5137.041 217.217 -5139.129 219.425 -5141.769 221.057 C -5144.409 222.641 -5147.409 223.433 -5150.769 223.433 C -5153.457 223.433 -5155.809 222.929 -5157.825 221.921 C -5159.841 220.913 -5161.473 219.497 -5162.721 217.673 L -5162.721 238.409 L -5171.937 238.409 Z M -5152.713 215.369 C -5149.785 215.369 -5147.361 214.385 -5145.441 212.417 C -5143.521 210.449 -5142.561 207.905 -5142.561 204.785 C -5142.561 201.665 -5143.521 199.097 -5145.441 197.081 C -5147.361 195.065 -5149.785 194.057 -5152.713 194.057 C -5155.689 194.057 -5158.137 195.065 -5160.057 197.081 C -5161.929 199.049 -5162.865 201.593 -5162.865 204.713 C -5162.865 207.833 -5161.929 210.401 -5160.057 212.417 C -5158.137 214.385 -5155.689 215.369 -5152.713 215.369 Z M -5107.617 223.433 C -5111.217 223.433 -5114.409 222.665 -5117.193 221.129 C -5119.977 219.593 -5122.161 217.433 -5123.745 214.649 C -5125.329 211.865 -5126.121 208.649 -5126.121 205.001 C -5126.121 201.305 -5125.353 198.017 -5123.817 195.137 C -5122.233 192.257 -5120.073 190.025 -5117.337 188.441 C -5114.553 186.809 -5111.289 185.993 -5107.545 185.993 C -5104.041 185.993 -5100.945 186.761 -5098.257 188.297 C -5095.569 189.833 -5093.481 191.945 -5091.993 194.633 C -5090.457 197.273 -5089.689 200.225 -5089.689 203.489 C -5089.689 204.017 -5089.713 204.569 -5089.761 205.145 C -5089.761 205.721 -5089.785 206.321 -5089.833 206.945 L -5116.977 206.945 C -5116.785 209.729 -5115.825 211.913 -5114.097 213.497 C -5112.321 215.081 -5110.185 215.873 -5107.689 215.873 C -5105.817 215.873 -5104.257 215.465 -5103.009 214.649 C -5101.713 213.785 -5100.753 212.681 -5100.129 211.337 L -5090.769 211.337 C -5091.441 213.593 -5092.569 215.657 -5094.153 217.529 C -5095.689 219.353 -5097.609 220.793 -5099.913 221.849 C -5102.169 222.905 -5104.737 223.433 -5107.617 223.433 Z M -5107.545 193.481 C -5109.801 193.481 -5111.793 194.129 -5113.521 195.425 C -5115.249 196.673 -5116.353 198.593 -5116.833 201.185 L -5099.049 201.185 C -5099.193 198.833 -5100.057 196.961 -5101.641 195.569 C -5103.225 194.177 -5105.193 193.481 -5107.545 193.481 Z M -5081.937 222.569 L -5081.937 186.857 L -5073.729 186.857 L -5072.865 193.553 C -5071.569 191.249 -5069.817 189.425 -5067.609 188.081 C -5065.353 186.689 -5062.713 185.993 -5059.689 185.993 L -5059.689 195.713 L -5062.281 195.713 C -5064.297 195.713 -5066.097 196.025 -5067.681 196.649 C -5069.265 197.273 -5070.513 198.353 -5071.425 199.889 C -5072.289 201.425 -5072.721 203.561 -5072.721 206.297 L -5072.721 222.569 L -5081.937 222.569 Z M -5023.922 223.433 C -5026.994 223.433 -5029.514 222.953 -5031.482 221.993 C -5033.45 220.985 -5034.914 219.665 -5035.874 218.033 C -5036.834 216.401 -5037.314 214.601 -5037.314 212.633 C -5037.314 209.321 -5036.018 206.633 -5033.426 204.569 C -5030.834 202.505 -5026.946 201.473 -5021.762 201.473 L -5012.69 201.473 L -5012.69 200.609 C -5012.69 198.161 -5013.386 196.361 -5014.778 195.209 C -5016.17 194.057 -5017.898 193.481 -5019.962 193.481 C -5021.834 193.481 -5023.466 193.937 -5024.858 194.849 C -5026.25 195.713 -5027.114 197.009 -5027.45 198.737 L -5036.45 198.737 C -5036.21 196.145 -5035.346 193.889 -5033.858 191.969 C -5032.322 190.049 -5030.354 188.585 -5027.954 187.577 C -5025.554 186.521 -5022.866 185.993 -5019.89 185.993 C -5014.802 185.993 -5010.794 187.265 -5007.866 189.809 C -5004.938 192.353 -5003.474 195.953 -5003.474 200.609 L -5003.474 222.569 L -5011.322 222.569 L -5012.186 216.809 C -5013.242 218.729 -5014.73 220.313 -5016.65 221.561 C -5018.522 222.809 -5020.946 223.433 -5023.922 223.433 Z M -5021.834 216.233 C -5019.194 216.233 -5017.154 215.369 -5015.714 213.641 C -5014.226 211.913 -5013.29 209.777 -5012.906 207.233 L -5020.754 207.233 C -5023.202 207.233 -5024.954 207.689 -5026.01 208.601 C -5027.066 209.465 -5027.594 210.545 -5027.594 211.841 C -5027.594 213.233 -5027.066 214.313 -5026.01 215.081 C -5024.954 215.849 -5023.562 216.233 -5021.834 216.233 Z M -4986.086 222.569 L -4999.19 186.857 L -4989.542 186.857 L -4980.47 213.857 L -4971.398 186.857 L -4961.75 186.857 L -4974.926 222.569 L -4986.086 222.569 Z M -4940.343 223.433 C -4943.943 223.433 -4947.135 222.665 -4949.919 221.129 C -4952.703 219.593 -4954.887 217.433 -4956.471 214.649 C -4958.055 211.865 -4958.847 208.649 -4958.847 205.001 C -4958.847 201.305 -4958.079 198.017 -4956.543 195.137 C -4954.959 192.257 -4952.799 190.025 -4950.063 188.441 C -4947.279 186.809 -4944.015 185.993 -4940.271 185.993 C -4936.767 185.993 -4933.671 186.761 -4930.983 188.297 C -4928.295 189.833 -4926.207 191.945 -4924.719 194.633 C -4923.183 197.273 -4922.415 200.225 -4922.415 203.489 C -4922.415 204.017 -4922.439 204.569 -4922.487 205.145 C -4922.487 205.721 -4922.511 206.321 -4922.559 206.945 L -4949.703 206.945 C -4949.511 209.729 -4948.551 211.913 -4946.823 213.497 C -4945.047 215.081 -4942.911 215.873 -4940.415 215.873 C -4938.543 215.873 -4936.983 215.465 -4935.735 214.649 C -4934.439 213.785 -4933.479 212.681 -4932.855 211.337 L -4923.495 211.337 C -4924.167 213.593 -4925.295 215.657 -4926.879 217.529 C -4928.415 219.353 -4930.335 220.793 -4932.639 221.849 C -4934.895 222.905 -4937.463 223.433 -4940.343 223.433 Z M -4940.271 193.481 C -4942.527 193.481 -4944.519 194.129 -4946.247 195.425 C -4947.975 196.673 -4949.079 198.593 -4949.559 201.185 L -4931.775 201.185 C -4931.919 198.833 -4932.783 196.961 -4934.367 195.569 C -4935.951 194.177 -4937.919 193.481 -4940.271 193.481 Z M -4914.664 222.569 L -4914.664 186.857 L -4906.456 186.857 L -4905.592 193.553 C -4904.296 191.249 -4902.544 189.425 -4900.336 188.081 C -4898.081 186.689 -4895.441 185.993 -4892.417 185.993 L -4892.417 195.713 L -4895.009 195.713 C -4897.025 195.713 -4898.824 196.025 -4900.408 196.649 C -4901.992 197.273 -4903.24 198.353 -4904.152 199.889 C -4905.016 201.425 -4905.448 203.561 -4905.448 206.297 L -4905.448 222.569 L -4914.664 222.569 Z M -4868.962 222.569 L -4868.962 186.857 L -4860.754 186.857 L -4859.89 193.553 C -4858.594 191.249 -4856.842 189.425 -4854.634 188.081 C -4852.378 186.689 -4849.738 185.993 -4846.714 185.993 L -4846.714 195.713 L -4849.306 195.713 C -4851.322 195.713 -4853.122 196.025 -4854.706 196.649 C -4856.29 197.273 -4857.538 198.353 -4858.45 199.889 C -4859.314 201.425 -4859.746 203.561 -4859.746 206.297 L -4859.746 222.569 L -4868.962 222.569 Z M -4835.447 181.313 C -4837.127 181.313 -4838.519 180.809 -4839.623 179.801 C -4840.679 178.793 -4841.207 177.521 -4841.207 175.985 C -4841.207 174.449 -4840.679 173.201 -4839.623 172.241 C -4838.519 171.233 -4837.127 170.729 -4835.447 170.729 C -4833.767 170.729 -4832.399 171.233 -4831.343 172.241 C -4830.239 173.201 -4829.687 174.449 -4829.687 175.985 C -4829.687 177.521 -4830.239 178.793 -4831.343 179.801 C -4832.399 180.809 -4833.767 181.313 -4835.447 181.313 Z M -4840.055 222.569 L -4840.055 186.857 L -4830.839 186.857 L -4830.839 222.569 L -4840.055 222.569 Z M -4803.724 223.433 C -4807.372 223.433 -4810.588 222.641 -4813.372 221.057 C -4816.156 219.473 -4818.364 217.265 -4819.996 214.433 C -4821.58 211.601 -4822.372 208.361 -4822.372 204.713 C -4822.372 201.065 -4821.58 197.825 -4819.996 194.993 C -4818.364 192.161 -4816.156 189.953 -4813.372 188.369 C -4810.588 186.785 -4807.372 185.993 -4803.724 185.993 C -4799.164 185.993 -4795.324 187.193 -4792.204 189.593 C -4789.084 191.945 -4787.092 195.209 -4786.228 199.385 L -4795.948 199.385 C -4796.428 197.657 -4797.388 196.313 -4798.828 195.353 C -4800.22 194.345 -4801.876 193.841 -4803.796 193.841 C -4806.34 193.841 -4808.5 194.801 -4810.276 196.721 C -4812.052 198.641 -4812.94 201.305 -4812.94 204.713 C -4812.94 208.121 -4812.052 210.785 -4810.276 212.705 C -4808.5 214.625 -4806.34 215.585 -4803.796 215.585 C -4801.876 215.585 -4800.22 215.105 -4798.828 214.145 C -4797.388 213.185 -4796.428 211.817 -4795.948 210.041 L -4786.228 210.041 C -4787.092 214.073 -4789.084 217.313 -4792.204 219.761 C -4795.324 222.209 -4799.164 223.433 -4803.724 223.433 Z M -4778.048 222.569 L -4778.048 170.729 L -4768.832 170.729 L -4768.832 192.329 C -4767.632 190.361 -4766.024 188.825 -4764.008 187.721 C -4761.944 186.569 -4759.592 185.993 -4756.952 185.993 C -4752.536 185.993 -4749.128 187.385 -4746.728 190.169 C -4744.28 192.953 -4743.056 197.033 -4743.056 202.409 L -4743.056 222.569 L -4752.2 222.569 L -4752.2 203.273 C -4752.2 200.201 -4752.824 197.849 -4754.072 196.217 C -4755.272 194.585 -4757.192 193.769 -4759.832 193.769 C -4762.424 193.769 -4764.584 194.681 -4766.312 196.505 C -4767.992 198.329 -4768.832 200.873 -4768.832 204.137 L -4768.832 222.569 L -4778.048 222.569 Z M -4729.275 181.313 C -4730.955 181.313 -4732.347 180.809 -4733.451 179.801 C -4734.507 178.793 -4735.035 177.521 -4735.035 175.985 C -4735.035 174.449 -4734.507 173.201 -4733.451 172.241 C -4732.347 171.233 -4730.955 170.729 -4729.275 170.729 C -4727.595 170.729 -4726.227 171.233 -4725.171 172.241 C -4724.067 173.201 -4723.515 174.449 -4723.515 175.985 C -4723.515 177.521 -4724.067 178.793 -4725.171 179.801 C -4726.227 180.809 -4727.595 181.313 -4729.275 181.313 Z M -4733.883 222.569 L -4733.883 186.857 L -4724.667 186.857 L -4724.667 222.569 L -4733.883 222.569 Z M -4697.691 223.433 C -4701.291 223.433 -4704.491 222.665 -4707.271 221.129 C -4710.051 219.593 -4712.24 217.433 -4713.824 214.649 C -4715.408 211.865 -4716.2 208.649 -4716.2 205.001 C -4716.2 201.305 -4715.432 198.017 -4713.896 195.137 C -4712.312 192.257 -4710.151 190.025 -4707.411 188.441 C -4704.631 186.809 -4701.371 185.993 -4697.621 185.993 C -4694.121 185.993 -4691.021 186.761 -4688.331 188.297 C -4685.651 189.833 -4683.561 191.945 -4682.071 194.633 C -4680.531 197.273 -4679.771 200.225 -4679.771 203.489 C -4679.771 204.017 -4679.791 204.569 -4679.841 205.145 C -4679.841 205.721 -4679.861 206.321 -4679.911 206.945 L -4707.051 206.945 C -4706.861 209.729 -4705.901 211.913 -4704.171 213.497 C -4702.401 215.081 -4700.261 215.873 -4697.771 215.873 C -4695.891 215.873 -4694.331 215.465 -4693.091 214.649 C -4691.791 213.785 -4690.831 212.681 -4690.211 211.337 L -4680.851 211.337 C -4681.521 213.593 -4682.651 215.657 -4684.231 217.529 C -4685.771 219.353 -4687.691 220.793 -4689.991 221.849 C -4692.251 222.905 -4694.811 223.433 -4697.691 223.433 Z M -4697.621 193.481 C -4699.881 193.481 -4701.871 194.129 -4703.601 195.425 C -4705.331 196.673 -4706.431 198.593 -4706.911 201.185 L -4689.131 201.185 C -4689.271 198.833 -4690.131 196.961 -4691.721 195.569 C -4693.301 194.177 -4695.271 193.481 -4697.621 193.481 Z M -4657.261 223.433 C -4660.421 223.433 -4663.211 222.929 -4665.611 221.921 C -4668.011 220.865 -4669.931 219.425 -4671.371 217.601 C -4672.811 215.777 -4673.671 213.665 -4673.961 211.265 L -4664.671 211.265 C -4664.381 212.657 -4663.621 213.857 -4662.371 214.865 C -4661.071 215.825 -4659.421 216.305 -4657.401 216.305 C -4655.381 216.305 -4653.921 215.897 -4653.011 215.081 C -4652.051 214.265 -4651.571 213.329 -4651.571 212.273 C -4651.571 210.737 -4652.241 209.705 -4653.581 209.177 C -4654.931 208.601 -4656.801 208.049 -4659.201 207.521 C -4660.741 207.185 -4662.301 206.777 -4663.881 206.297 C -4665.461 205.817 -4666.931 205.217 -4668.271 204.497 C -4669.571 203.729 -4670.621 202.769 -4671.441 201.617 C -4672.261 200.417 -4672.661 198.953 -4672.661 197.225 C -4672.661 194.057 -4671.421 191.393 -4668.921 189.233 C -4666.381 187.073 -4662.821 185.993 -4658.261 185.993 C -4654.041 185.993 -4650.681 186.977 -4648.181 188.945 C -4645.641 190.913 -4644.131 193.625 -4643.651 197.081 L -4652.361 197.081 C -4652.891 194.441 -4654.881 193.121 -4658.341 193.121 C -4660.061 193.121 -4661.411 193.457 -4662.371 194.129 C -4663.281 194.801 -4663.741 195.641 -4663.741 196.649 C -4663.741 197.705 -4663.041 198.545 -4661.651 199.169 C -4660.261 199.793 -4658.411 200.369 -4656.101 200.897 C -4653.611 201.473 -4651.331 202.121 -4649.261 202.841 C -4647.151 203.513 -4645.471 204.545 -4644.221 205.937 C -4642.981 207.281 -4642.351 209.225 -4642.351 211.769 C -4642.301 213.977 -4642.881 215.969 -4644.081 217.745 C -4645.281 219.521 -4647.011 220.913 -4649.261 221.921 C -4651.521 222.929 -4654.181 223.433 -4657.261 223.433 Z M -4619.401 222.569 C -4623.141 222.569 -4626.141 221.657 -4628.401 219.833 C -4630.661 218.009 -4631.781 214.769 -4631.781 210.113 L -4631.781 194.561 L -4637.901 194.561 L -4637.901 186.857 L -4631.781 186.857 L -4630.701 177.281 L -4622.571 177.281 L -4622.571 186.857 L -4612.922 186.857 L -4612.922 194.561 L -4622.571 194.561 L -4622.571 210.185 C -4622.571 211.913 -4622.211 213.113 -4621.491 213.785 C -4620.721 214.409 -4619.421 214.721 -4617.601 214.721 L -4613.142 214.721 L -4613.142 222.569 L -4619.401 222.569 Z M -4588.792 223.433 C -4592.242 223.433 -4595.362 222.641 -4598.152 221.057 C -4600.882 219.473 -4603.072 217.289 -4604.702 214.505 C -4606.282 211.673 -4607.072 208.409 -4607.072 204.713 C -4607.072 201.017 -4606.262 197.777 -4604.632 194.993 C -4602.992 192.161 -4600.812 189.953 -4598.072 188.369 C -4595.292 186.785 -4592.172 185.993 -4588.712 185.993 C -4585.312 185.993 -4582.232 186.785 -4579.502 188.369 C -4576.712 189.953 -4574.532 192.161 -4572.952 194.993 C -4571.312 197.777 -4570.502 201.017 -4570.502 204.713 C -4570.502 208.409 -4571.312 211.673 -4572.952 214.505 C -4574.532 217.289 -4576.712 219.473 -4579.502 221.057 C -4582.282 222.641 -4585.382 223.433 -4588.792 223.433 Z M -4588.792 215.441 C -4586.392 215.441 -4584.302 214.553 -4582.522 212.777 C -4580.752 210.953 -4579.862 208.265 -4579.862 204.713 C -4579.862 201.161 -4580.752 198.497 -4582.522 196.721 C -4584.302 194.897 -4586.362 193.985 -4588.712 193.985 C -4591.162 193.985 -4593.272 194.897 -4595.052 196.721 C -4596.782 198.497 -4597.642 201.161 -4597.642 204.713 C -4597.642 208.265 -4596.782 210.953 -4595.052 212.777 C -4593.272 214.553 -4591.192 215.441 -4588.792 215.441 Z M -5459.891 253.313 C -5461.571 253.313 -5462.963 252.809 -5464.067 251.801 C -5465.123 250.793 -5465.651 249.521 -5465.651 247.985 C -5465.651 246.449 -5465.123 245.201 -5464.067 244.241 C -5462.963 243.233 -5461.571 242.729 -5459.891 242.729 C -5458.211 242.729 -5456.843 243.233 -5455.787 244.241 C -5454.683 245.201 -5454.131 246.449 -5454.131 247.985 C -5454.131 249.521 -5454.683 250.793 -5455.787 251.801 C -5456.843 252.809 -5458.211 253.313 -5459.891 253.313 Z M -5464.499 294.569 L -5464.499 258.857 L -5455.283 258.857 L -5455.283 294.569 L -5464.499 294.569 Z M -5445.664 294.569 L -5445.664 258.857 L -5437.528 258.857 L -5436.808 264.905 C -5435.704 262.793 -5434.12 261.113 -5432.056 259.865 C -5429.944 258.617 -5427.472 257.993 -5424.64 257.993 C -5420.224 257.993 -5416.792 259.385 -5414.344 262.169 C -5411.896 264.953 -5410.672 269.033 -5410.672 274.409 L -5410.672 294.569 L -5419.888 294.569 L -5419.888 275.273 C -5419.888 272.201 -5420.512 269.849 -5421.76 268.217 C -5423.008 266.585 -5424.952 265.769 -5427.592 265.769 C -5430.184 265.769 -5432.32 266.681 -5434 268.505 C -5435.632 270.329 -5436.448 272.873 -5436.448 276.137 L -5436.448 294.569 L -5445.664 294.569 Z M -5400.203 294.569 L -5400.203 266.561 L -5405.099 266.561 L -5405.099 258.857 L -5400.203 258.857 L -5400.203 254.681 C -5400.203 250.361 -5399.123 247.289 -5396.963 245.465 C -5394.755 243.641 -5391.779 242.729 -5388.035 242.729 L -5384.075 242.729 L -5384.075 250.577 L -5386.595 250.577 C -5388.179 250.577 -5389.307 250.889 -5389.979 251.513 C -5390.651 252.137 -5390.987 253.193 -5390.987 254.681 L -5390.987 258.857 L -5383.283 258.857 L -5383.283 266.561 L -5390.987 266.561 L -5390.987 294.569 L -5400.203 294.569 Z M -5360.254 295.433 C -5363.71 295.433 -5366.83 294.641 -5369.614 293.057 C -5372.35 291.473 -5374.534 289.289 -5376.166 286.505 C -5377.75 283.673 -5378.542 280.409 -5378.542 276.713 C -5378.542 273.017 -5377.726 269.777 -5376.094 266.993 C -5374.462 264.161 -5372.278 261.953 -5369.542 260.369 C -5366.758 258.785 -5363.638 257.993 -5360.182 257.993 C -5356.774 257.993 -5353.702 258.785 -5350.966 260.369 C -5348.182 261.953 -5345.998 264.161 -5344.414 266.993 C -5342.782 269.777 -5341.966 273.017 -5341.966 276.713 C -5341.966 280.409 -5342.782 283.673 -5344.414 286.505 C -5345.998 289.289 -5348.182 291.473 -5350.966 293.057 C -5353.75 294.641 -5356.846 295.433 -5360.254 295.433 Z M -5360.254 287.441 C -5357.854 287.441 -5355.766 286.553 -5353.99 284.777 C -5352.214 282.953 -5351.326 280.265 -5351.326 276.713 C -5351.326 273.161 -5352.214 270.497 -5353.99 268.721 C -5355.766 266.897 -5357.83 265.985 -5360.182 265.985 C -5362.63 265.985 -5364.742 266.897 -5366.518 268.721 C -5368.246 270.497 -5369.11 273.161 -5369.11 276.713 C -5369.11 280.265 -5368.246 282.953 -5366.518 284.777 C -5364.742 286.553 -5362.654 287.441 -5360.254 287.441 Z M -5333.726 294.569 L -5333.726 258.857 L -5325.518 258.857 L -5324.654 265.553 C -5323.358 263.249 -5321.606 261.425 -5319.398 260.081 C -5317.142 258.689 -5314.502 257.993 -5311.478 257.993 L -5311.478 267.713 L -5314.07 267.713 C -5316.086 267.713 -5317.886 268.025 -5319.47 268.649 C -5321.054 269.273 -5322.302 270.353 -5323.214 271.889 C -5324.078 273.425 -5324.51 275.561 -5324.51 278.297 L -5324.51 294.569 L -5333.726 294.569 Z M -5305.18 294.569 L -5305.18 258.857 L -5297.044 258.857 L -5296.252 263.681 C -5295.1 261.953 -5293.588 260.585 -5291.716 259.577 C -5289.796 258.521 -5287.588 257.993 -5285.092 257.993 C -5279.572 257.993 -5275.66 260.129 -5273.356 264.401 C -5272.06 262.433 -5270.332 260.873 -5268.172 259.721 C -5265.964 258.569 -5263.564 257.993 -5260.972 257.993 C -5256.316 257.993 -5252.74 259.385 -5250.244 262.169 C -5247.748 264.953 -5246.5 269.033 -5246.5 274.409 L -5246.5 294.569 L -5255.716 294.569 L -5255.716 275.273 C -5255.716 272.201 -5256.316 269.849 -5257.516 268.217 C -5258.668 266.585 -5260.468 265.769 -5262.916 265.769 C -5265.412 265.769 -5267.428 266.681 -5268.964 268.505 C -5270.452 270.329 -5271.196 272.873 -5271.196 276.137 L -5271.196 294.569 L -5280.412 294.569 L -5280.412 275.273 C -5280.412 272.201 -5281.012 269.849 -5282.212 268.217 C -5283.412 266.585 -5285.26 265.769 -5287.756 265.769 C -5290.204 265.769 -5292.196 266.681 -5293.732 268.505 C -5295.22 270.329 -5295.964 272.873 -5295.964 276.137 L -5295.964 294.569 L -5305.18 294.569 Z M -5225.438 295.433 C -5228.51 295.433 -5231.03 294.953 -5232.998 293.993 C -5234.966 292.985 -5236.43 291.665 -5237.39 290.033 C -5238.35 288.401 -5238.83 286.601 -5238.83 284.633 C -5238.83 281.321 -5237.534 278.633 -5234.942 276.569 C -5232.35 274.505 -5228.462 273.473 -5223.278 273.473 L -5214.206 273.473 L -5214.206 272.609 C -5214.206 270.161 -5214.902 268.361 -5216.294 267.209 C -5217.686 266.057 -5219.414 265.481 -5221.478 265.481 C -5223.35 265.481 -5224.982 265.937 -5226.374 266.849 C -5227.766 267.713 -5228.63 269.009 -5228.966 270.737 L -5237.966 270.737 C -5237.726 268.145 -5236.862 265.889 -5235.374 263.969 C -5233.838 262.049 -5231.87 260.585 -5229.47 259.577 C -5227.07 258.521 -5224.382 257.993 -5221.406 257.993 C -5216.318 257.993 -5212.31 259.265 -5209.382 261.809 C -5206.454 264.353 -5204.99 267.953 -5204.99 272.609 L -5204.99 294.569 L -5212.838 294.569 L -5213.702 288.809 C -5214.758 290.729 -5216.246 292.313 -5218.166 293.561 C -5220.038 294.809 -5222.462 295.433 -5225.438 295.433 Z M -5223.35 288.233 C -5220.71 288.233 -5218.67 287.369 -5217.23 285.641 C -5215.742 283.913 -5214.806 281.777 -5214.422 279.233 L -5222.27 279.233 C -5224.718 279.233 -5226.47 279.689 -5227.526 280.601 C -5228.582 281.465 -5229.11 282.545 -5229.11 283.841 C -5229.11 285.233 -5228.582 286.313 -5227.526 287.081 C -5226.47 287.849 -5225.078 288.233 -5223.35 288.233 Z M -5198.499 294.569 L -5198.499 287.153 L -5180.283 266.489 L -5198.283 266.489 L -5198.283 258.857 L -5169.771 258.857 L -5169.771 266.273 L -5188.275 286.937 L -5169.411 286.937 L -5169.411 294.569 L -5198.499 294.569 Z M -5156.774 253.313 C -5158.454 253.313 -5159.846 252.809 -5160.95 251.801 C -5162.006 250.793 -5162.534 249.521 -5162.534 247.985 C -5162.534 246.449 -5162.006 245.201 -5160.95 244.241 C -5159.846 243.233 -5158.454 242.729 -5156.774 242.729 C -5155.094 242.729 -5153.726 243.233 -5152.67 244.241 C -5151.566 245.201 -5151.014 246.449 -5151.014 247.985 C -5151.014 249.521 -5151.566 250.793 -5152.67 251.801 C -5153.726 252.809 -5155.094 253.313 -5156.774 253.313 Z M -5161.382 294.569 L -5161.382 258.857 L -5152.166 258.857 L -5152.166 294.569 L -5161.382 294.569 Z M -5125.411 295.433 C -5128.867 295.433 -5131.987 294.641 -5134.771 293.057 C -5137.507 291.473 -5139.691 289.289 -5141.323 286.505 C -5142.907 283.673 -5143.699 280.409 -5143.699 276.713 C -5143.699 273.017 -5142.883 269.777 -5141.251 266.993 C -5139.619 264.161 -5137.435 261.953 -5134.699 260.369 C -5131.915 258.785 -5128.795 257.993 -5125.339 257.993 C -5121.931 257.993 -5118.859 258.785 -5116.123 260.369 C -5113.339 261.953 -5111.155 264.161 -5109.571 266.993 C -5107.939 269.777 -5107.123 273.017 -5107.123 276.713 C -5107.123 280.409 -5107.939 283.673 -5109.571 286.505 C -5111.155 289.289 -5113.339 291.473 -5116.123 293.057 C -5118.907 294.641 -5122.003 295.433 -5125.411 295.433 Z M -5125.411 287.441 C -5123.011 287.441 -5120.923 286.553 -5119.147 284.777 C -5117.371 282.953 -5116.483 280.265 -5116.483 276.713 C -5116.483 273.161 -5117.371 270.497 -5119.147 268.721 C -5120.923 266.897 -5122.987 265.985 -5125.339 265.985 C -5127.787 265.985 -5129.899 266.897 -5131.675 268.721 C -5133.403 270.497 -5134.267 273.161 -5134.267 276.713 C -5134.267 280.265 -5133.403 282.953 -5131.675 284.777 C -5129.899 286.553 -5127.811 287.441 -5125.411 287.441 Z M -5098.883 294.569 L -5098.883 258.857 L -5090.747 258.857 L -5090.027 264.905 C -5088.923 262.793 -5087.339 261.113 -5085.275 259.865 C -5083.163 258.617 -5080.691 257.993 -5077.859 257.993 C -5073.443 257.993 -5070.011 259.385 -5067.563 262.169 C -5065.115 264.953 -5063.891 269.033 -5063.891 274.409 L -5063.891 294.569 L -5073.107 294.569 L -5073.107 275.273 C -5073.107 272.201 -5073.731 269.849 -5074.979 268.217 C -5076.227 266.585 -5078.171 265.769 -5080.811 265.769 C -5083.403 265.769 -5085.539 266.681 -5087.219 268.505 C -5088.851 270.329 -5089.667 272.873 -5089.667 276.137 L -5089.667 294.569 L -5098.883 294.569 Z M -5050.11 253.313 C -5051.79 253.313 -5053.182 252.809 -5054.286 251.801 C -5055.342 250.793 -5055.87 249.521 -5055.87 247.985 C -5055.87 246.449 -5055.342 245.201 -5054.286 244.241 C -5053.182 243.233 -5051.79 242.729 -5050.11 242.729 C -5048.43 242.729 -5047.062 243.233 -5046.006 244.241 C -5044.902 245.201 -5044.35 246.449 -5044.35 247.985 C -5044.35 249.521 -5044.902 250.793 -5046.006 251.801 C -5047.062 252.809 -5048.43 253.313 -5050.11 253.313 Z M -5054.718 294.569 L -5054.718 258.857 L -5045.502 258.857 L -5045.502 294.569 L -5054.718 294.569 Z M -5003.966 295.433 C -5007.134 295.433 -5009.918 294.929 -5012.318 293.921 C -5014.718 292.865 -5016.638 291.425 -5018.078 289.601 C -5019.518 287.777 -5020.382 285.665 -5020.67 283.265 L -5011.382 283.265 C -5011.094 284.657 -5010.326 285.857 -5009.078 286.865 C -5007.782 287.825 -5006.126 288.305 -5004.11 288.305 C -5002.094 288.305 -5000.63 287.897 -4999.718 287.081 C -4998.758 286.265 -4998.278 285.329 -4998.278 284.273 C -4998.278 282.737 -4998.95 281.705 -5000.294 281.177 C -5001.638 280.601 -5003.51 280.049 -5005.91 279.521 C -5007.446 279.185 -5009.006 278.777 -5010.59 278.297 C -5012.174 277.817 -5013.638 277.217 -5014.982 276.497 C -5016.278 275.729 -5017.334 274.769 -5018.15 273.617 C -5018.966 272.417 -5019.374 270.953 -5019.374 269.225 C -5019.374 266.057 -5018.126 263.393 -5015.63 261.233 C -5013.086 259.073 -5009.534 257.993 -5004.974 257.993 C -5000.75 257.993 -4997.39 258.977 -4994.894 260.945 C -4992.35 262.913 -4990.838 265.625 -4990.358 269.081 L -4999.07 269.081 C -4999.598 266.441 -5001.59 265.121 -5005.046 265.121 C -5006.774 265.121 -5008.118 265.457 -5009.078 266.129 C -5009.99 266.801 -5010.446 267.641 -5010.446 268.649 C -5010.446 269.705 -5009.75 270.545 -5008.358 271.169 C -5006.966 271.793 -5005.118 272.369 -5002.814 272.897 C -5000.318 273.473 -4998.038 274.121 -4995.974 274.841 C -4993.862 275.513 -4992.182 276.545 -4990.934 277.937 C -4989.686 279.281 -4989.062 281.225 -4989.062 283.769 C -4989.014 285.977 -4989.59 287.969 -4990.79 289.745 C -4991.99 291.521 -4993.718 292.913 -4995.974 293.921 C -4998.23 294.929 -5000.894 295.433 -5003.966 295.433 Z M -4967.506 295.433 C -4971.97 295.433 -4975.426 294.041 -4977.874 291.257 C -4980.274 288.473 -4981.474 284.393 -4981.474 279.017 L -4981.474 258.857 L -4972.33 258.857 L -4972.33 278.153 C -4972.33 281.225 -4971.706 283.577 -4970.458 285.209 C -4969.21 286.841 -4967.242 287.657 -4964.554 287.657 C -4962.01 287.657 -4959.922 286.745 -4958.29 284.921 C -4956.61 283.097 -4955.77 280.553 -4955.77 277.289 L -4955.77 258.857 L -4946.554 258.857 L -4946.554 294.569 L -4954.69 294.569 L -4955.41 288.521 C -4956.514 290.633 -4958.122 292.313 -4960.234 293.561 C -4962.298 294.809 -4964.722 295.433 -4967.506 295.433 Z M -4932.126 253.313 C -4933.806 253.313 -4935.198 252.809 -4936.302 251.801 C -4937.358 250.793 -4937.886 249.521 -4937.886 247.985 C -4937.886 246.449 -4937.358 245.201 -4936.302 244.241 C -4935.198 243.233 -4933.806 242.729 -4932.126 242.729 C -4930.446 242.729 -4929.078 243.233 -4928.022 244.241 C -4926.918 245.201 -4926.366 246.449 -4926.366 247.985 C -4926.366 249.521 -4926.918 250.793 -4928.022 251.801 C -4929.078 252.809 -4930.446 253.313 -4932.126 253.313 Z M -4936.734 294.569 L -4936.734 258.857 L -4927.518 258.857 L -4927.518 294.569 L -4936.734 294.569 Z M -4900.742 294.569 L -4900.742 258.857 L -4892.607 258.857 L -4891.887 264.905 C -4890.783 262.793 -4889.199 261.113 -4887.135 259.865 C -4885.023 258.617 -4882.551 257.993 -4879.719 257.993 C -4875.303 257.993 -4871.871 259.385 -4869.423 262.169 C -4866.975 264.953 -4865.751 269.033 -4865.751 274.409 L -4865.751 294.569 L -4874.967 294.569 L -4874.967 275.273 C -4874.967 272.201 -4875.591 269.849 -4876.839 268.217 C -4878.087 266.585 -4880.031 265.769 -4882.671 265.769 C -4885.263 265.769 -4887.399 266.681 -4889.079 268.505 C -4890.711 270.329 -4891.527 272.873 -4891.527 276.137 L -4891.527 294.569 L -4900.742 294.569 Z M -4839.802 295.433 C -4843.258 295.433 -4846.378 294.641 -4849.162 293.057 C -4851.898 291.473 -4854.082 289.289 -4855.714 286.505 C -4857.298 283.673 -4858.09 280.409 -4858.09 276.713 C -4858.09 273.017 -4857.274 269.777 -4855.642 266.993 C -4854.01 264.161 -4851.826 261.953 -4849.09 260.369 C -4846.306 258.785 -4843.186 257.993 -4839.73 257.993 C -4836.322 257.993 -4833.25 258.785 -4830.514 260.369 C -4827.73 261.953 -4825.546 264.161 -4823.962 266.993 C -4822.33 269.777 -4821.514 273.017 -4821.514 276.713 C -4821.514 280.409 -4822.33 283.673 -4823.962 286.505 C -4825.546 289.289 -4827.73 291.473 -4830.514 293.057 C -4833.298 294.641 -4836.394 295.433 -4839.802 295.433 Z M -4839.802 287.441 C -4837.402 287.441 -4835.314 286.553 -4833.538 284.777 C -4831.762 282.953 -4830.874 280.265 -4830.874 276.713 C -4830.874 273.161 -4831.762 270.497 -4833.538 268.721 C -4835.314 266.897 -4837.378 265.985 -4839.73 265.985 C -4842.178 265.985 -4844.29 266.897 -4846.066 268.721 C -4847.794 270.497 -4848.658 273.161 -4848.658 276.713 C -4848.658 280.265 -4847.794 282.953 -4846.066 284.777 C -4844.29 286.553 -4842.202 287.441 -4839.802 287.441 Z M -4798.514 295.433 C -4801.682 295.433 -4804.466 294.929 -4806.866 293.921 C -4809.266 292.865 -4811.186 291.425 -4812.626 289.601 C -4814.066 287.777 -4814.93 285.665 -4815.218 283.265 L -4805.93 283.265 C -4805.642 284.657 -4804.874 285.857 -4803.626 286.865 C -4802.33 287.825 -4800.674 288.305 -4798.658 288.305 C -4796.642 288.305 -4795.178 287.897 -4794.266 287.081 C -4793.306 286.265 -4792.826 285.329 -4792.826 284.273 C -4792.826 282.737 -4793.498 281.705 -4794.842 281.177 C -4796.186 280.601 -4798.058 280.049 -4800.458 279.521 C -4801.994 279.185 -4803.554 278.777 -4805.138 278.297 C -4806.722 277.817 -4808.186 277.217 -4809.53 276.497 C -4810.826 275.729 -4811.882 274.769 -4812.698 273.617 C -4813.514 272.417 -4813.922 270.953 -4813.922 269.225 C -4813.922 266.057 -4812.674 263.393 -4810.178 261.233 C -4807.634 259.073 -4804.082 257.993 -4799.522 257.993 C -4795.298 257.993 -4791.938 258.977 -4789.442 260.945 C -4786.898 262.913 -4785.386 265.625 -4784.906 269.081 L -4793.618 269.081 C -4794.146 266.441 -4796.138 265.121 -4799.594 265.121 C -4801.322 265.121 -4802.666 265.457 -4803.626 266.129 C -4804.538 266.801 -4804.994 267.641 -4804.994 268.649 C -4804.994 269.705 -4804.298 270.545 -4802.906 271.169 C -4801.514 271.793 -4799.666 272.369 -4797.362 272.897 C -4794.866 273.473 -4792.586 274.121 -4790.522 274.841 C -4788.41 275.513 -4786.73 276.545 -4785.482 277.937 C -4784.234 279.281 -4783.61 281.225 -4783.61 283.769 C -4783.562 285.977 -4784.138 287.969 -4785.338 289.745 C -4786.538 291.521 -4788.266 292.913 -4790.522 293.921 C -4792.778 294.929 -4795.442 295.433 -4798.514 295.433 Z M -4760.659 294.569 C -4764.403 294.569 -4767.403 293.657 -4769.659 291.833 C -4771.915 290.009 -4773.043 286.769 -4773.043 282.113 L -4773.043 266.561 L -4779.163 266.561 L -4779.163 258.857 L -4773.043 258.857 L -4771.963 249.281 L -4763.827 249.281 L -4763.827 258.857 L -4754.179 258.857 L -4754.179 266.561 L -4763.827 266.561 L -4763.827 282.185 C -4763.827 283.913 -4763.467 285.113 -4762.747 285.785 C -4761.979 286.409 -4760.683 286.721 -4758.859 286.721 L -4754.395 286.721 L -4754.395 294.569 L -4760.659 294.569 Z M -4746.266 294.569 L -4746.266 258.857 L -4738.058 258.857 L -4737.194 265.553 C -4735.898 263.249 -4734.146 261.425 -4731.938 260.081 C -4729.682 258.689 -4727.042 257.993 -4724.018 257.993 L -4724.018 267.713 L -4726.61 267.713 C -4728.626 267.713 -4730.426 268.025 -4732.01 268.649 C -4733.594 269.273 -4734.842 270.353 -4735.754 271.889 C -4736.618 273.425 -4737.05 275.561 -4737.05 278.297 L -4737.05 294.569 L -4746.266 294.569 Z M -4712.752 253.313 C -4714.432 253.313 -4715.824 252.809 -4716.928 251.801 C -4717.984 250.793 -4718.512 249.521 -4718.512 247.985 C -4718.512 246.449 -4717.984 245.201 -4716.928 244.241 C -4715.824 243.233 -4714.432 242.729 -4712.752 242.729 C -4711.071 242.729 -4709.701 243.233 -4708.651 244.241 C -4707.541 245.201 -4706.991 246.449 -4706.991 247.985 C -4706.991 249.521 -4707.541 250.793 -4708.651 251.801 C -4709.701 252.809 -4711.071 253.313 -4712.752 253.313 Z M -4717.36 294.569 L -4717.36 258.857 L -4708.141 258.857 L -4708.141 294.569 L -4717.36 294.569 Z M -4663.871 295.433 C -4667.521 295.433 -4670.741 294.641 -4673.521 293.057 C -4676.301 291.473 -4678.511 289.265 -4680.141 286.433 C -4681.731 283.601 -4682.521 280.361 -4682.521 276.713 C -4682.521 273.065 -4681.731 269.825 -4680.141 266.993 C -4678.511 264.161 -4676.301 261.953 -4673.521 260.369 C -4670.741 258.785 -4667.521 257.993 -4663.871 257.993 C -4659.311 257.993 -4655.471 259.193 -4652.351 261.593 C -4649.231 263.945 -4647.241 267.209 -4646.381 271.385 L -4656.101 271.385 C -4656.581 269.657 -4657.541 268.313 -4658.981 267.353 C -4660.371 266.345 -4662.021 265.841 -4663.941 265.841 C -4666.491 265.841 -4668.651 266.801 -4670.421 268.721 C -4672.201 270.641 -4673.091 273.305 -4673.091 276.713 C -4673.091 280.121 -4672.201 282.785 -4670.421 284.705 C -4668.651 286.625 -4666.491 287.585 -4663.941 287.585 C -4662.021 287.585 -4660.371 287.105 -4658.981 286.145 C -4657.541 285.185 -4656.581 283.817 -4656.101 282.041 L -4646.381 282.041 C -4647.241 286.073 -4649.231 289.313 -4652.351 291.761 C -4655.471 294.209 -4659.311 295.433 -4663.871 295.433 Z M -4621.061 295.433 C -4624.521 295.433 -4627.641 294.641 -4630.421 293.057 C -4633.161 291.473 -4635.341 289.289 -4636.971 286.505 C -4638.561 283.673 -4639.351 280.409 -4639.351 276.713 C -4639.351 273.017 -4638.531 269.777 -4636.901 266.993 C -4635.271 264.161 -4633.081 261.953 -4630.351 260.369 C -4627.561 258.785 -4624.441 257.993 -4620.991 257.993 C -4617.581 257.993 -4614.512 258.785 -4611.772 260.369 C -4608.992 261.953 -4606.802 264.161 -4605.222 266.993 C -4603.592 269.777 -4602.772 273.017 -4602.772 276.713 C -4602.772 280.409 -4603.592 283.673 -4605.222 286.505 C -4606.802 289.289 -4608.992 291.473 -4611.772 293.057 C -4614.562 294.641 -4617.651 295.433 -4621.061 295.433 Z M -4621.061 287.441 C -4618.661 287.441 -4616.571 286.553 -4614.802 284.777 C -4613.022 282.953 -4612.132 280.265 -4612.132 276.713 C -4612.132 273.161 -4613.022 270.497 -4614.802 268.721 C -4616.571 266.897 -4618.641 265.985 -4620.991 265.985 C -4623.441 265.985 -4625.551 266.897 -4627.321 268.721 C -4629.051 270.497 -4629.921 273.161 -4629.921 276.713 C -4629.921 280.265 -4629.051 282.953 -4627.321 284.777 C -4625.551 286.553 -4623.461 287.441 -4621.061 287.441 Z M -4594.532 294.569 L -4594.532 258.857 L -4586.322 258.857 L -4585.462 265.553 C -4584.162 263.249 -4582.412 261.425 -4580.202 260.081 C -4577.952 258.689 -4575.312 257.993 -4572.282 257.993 L -4572.282 267.713 L -4574.882 267.713 C -4576.892 267.713 -4578.692 268.025 -4580.282 268.649 C -4581.862 269.273 -4583.112 270.353 -4584.022 271.889 C -4584.882 273.425 -4585.322 275.561 -4585.322 278.297 L -4585.322 294.569 L -4594.532 294.569 Z M -4551.222 295.433 C -4554.392 295.433 -4557.182 294.929 -4559.582 293.921 C -4561.982 292.865 -4563.902 291.425 -4565.342 289.601 C -4566.782 287.777 -4567.642 285.665 -4567.932 283.265 L -4558.642 283.265 C -4558.352 284.657 -4557.582 285.857 -4556.342 286.865 C -4555.042 287.825 -4553.382 288.305 -4551.372 288.305 C -4549.352 288.305 -4547.892 287.897 -4546.982 287.081 C -4546.022 286.265 -4545.542 285.329 -4545.542 284.273 C -4545.542 282.737 -4546.212 281.705 -4547.552 281.177 C -4548.902 280.601 -4550.772 280.049 -4553.172 279.521 C -4554.702 279.185 -4556.262 278.777 -4557.852 278.297 C -4559.432 277.817 -4560.902 277.217 -4562.242 276.497 C -4563.542 275.729 -4564.592 274.769 -4565.412 273.617 C -4566.222 272.417 -4566.632 270.953 -4566.632 269.225 C -4566.632 266.057 -4565.382 263.393 -4562.892 261.233 C -4560.342 259.073 -4556.792 257.993 -4552.232 257.993 C -4548.012 257.993 -4544.652 258.977 -4542.152 260.945 C -4539.612 262.913 -4538.102 265.625 -4537.622 269.081 L -4546.332 269.081 C -4546.862 266.441 -4548.852 265.121 -4552.302 265.121 C -4554.032 265.121 -4555.382 265.457 -4556.342 266.129 C -4557.252 266.801 -4557.702 267.641 -4557.702 268.649 C -4557.702 269.705 -4557.012 270.545 -4555.622 271.169 C -4554.222 271.793 -4552.382 272.369 -4550.072 272.897 C -4547.582 273.473 -4545.302 274.121 -4543.232 274.841 C -4541.122 275.513 -4539.442 276.545 -4538.192 277.937 C -4536.942 279.281 -4536.322 281.225 -4536.322 283.769 C -4536.272 285.977 -4536.852 287.969 -4538.052 289.745 C -4539.252 291.521 -4540.982 292.913 -4543.232 293.921 C -4545.492 294.929 -4548.152 295.433 -4551.222 295.433 Z M -4523.192 253.313 C -4524.872 253.313 -4526.262 252.809 -4527.362 251.801 C -4528.422 250.793 -4528.952 249.521 -4528.952 247.985 C -4528.952 246.449 -4528.422 245.201 -4527.362 244.241 C -4526.262 243.233 -4524.872 242.729 -4523.192 242.729 C -4521.512 242.729 -4520.142 243.233 -4519.082 244.241 C -4517.982 245.201 -4517.432 246.449 -4517.432 247.985 C -4517.432 249.521 -4517.982 250.793 -4519.082 251.801 C -4520.142 252.809 -4521.512 253.313 -4523.192 253.313 Z M -4527.802 294.569 L -4527.802 258.857 L -4518.582 258.857 L -4518.582 294.569 L -4527.802 294.569 Z" fill="white" transform="matrix(0.999999, 0.001126, -0.001126, 0.999999, 0.259285, 5.620627)"/>
  <path style="mix-blend-mode:color-dodge" d="M -4510.26 352.564 C -4416.21 352.564 -4339.97 278.366 -4339.97 186.837 C -4339.97 95.309 -4416.21 21.111 -4510.26 21.111 C -4604.3 21.111 -4680.539 95.309 -4680.539 186.837 C -4680.539 278.366 -4604.3 352.564 -4510.26 352.564 Z" fill="url(#gradient-1)" transform="matrix(0.999999, 0.001126, -0.001126, 0.999999, 0.20752, 5.078668)"/>
  <g opacity="0.49" transform="matrix(0.999999, 0.001126, -0.001126, 0.999999, -5711.267578, -58.240551)">
    <path style="mix-blend-mode:color-dodge" d="M1199.48 270.815C1220.58 270.815 1237.68 254.166 1237.68 233.629C1237.68 213.092 1220.58 196.444 1199.48 196.444C1178.38 196.444 1161.27 213.092 1161.27 233.629C1161.27 254.166 1178.38 270.815 1199.48 270.815Z" fill="url(#paint1_radial_231_1055)"/>
  </g>
  <path style="mix-blend-mode:color-dodge" d="M -5264.093 279.808 C -5129.731 279.808 -5020.809 173.801 -5020.809 43.036 C -5020.809 -87.73 -5129.731 -193.737 -5264.093 -193.737 C -5398.455 -193.737 -5507.377 -87.73 -5507.377 43.036 C -5507.377 173.801 -5398.455 279.808 -5264.093 279.808 Z" fill="url(#gradient-2)" transform="matrix(0.999999, 0.001126, -0.001126, 0.999999, 0.045121, 5.9274)"/>
  <g opacity="0.49" transform="matrix(0.999999, 0.001126, -0.001126, 0.999999, -5711.267578, -58.240551)">
    <path style="mix-blend-mode:color-dodge" d="M444.705 139.474C474.85 139.474 499.287 115.688 499.287 86.3468C499.287 57.0057 474.85 33.22 444.705 33.22C414.56 33.22 390.123 57.0057 390.123 86.3468C390.123 115.688 414.56 139.474 444.705 139.474Z" fill="url(#paint3_radial_231_1055)"/>
  </g>
</svg>