<?xml version="1.0" encoding="utf-8"?>
<svg width="" height="" viewBox="0 6.726 687.067 835.192" fill="none" xmlns="http://www.w3.org/2000/svg">
  <rect y="5" width="700" height="837" fill="#2D224C"/>
  <path style="mix-blend-mode:color-dodge" d="M 237.055 126.179 C 270.599 126.179 297.791 99.715 297.791 67.069 C 297.791 34.423 275.478 16.09 241.934 16.09 C 208.391 16.09 187.703 34.423 187.703 67.069 C 187.703 99.715 203.512 126.179 237.055 126.179 Z" fill="url(#paint0_radial_219_46)"/>
  <path style="mix-blend-mode:color-dodge" d="M 353.39 805.045 C 396.58 805.045 431.593 770.97 431.593 728.935 C 431.593 686.9 396.58 652.824 353.39 652.824 C 310.199 652.824 275.186 686.9 275.186 728.935 C 275.186 770.97 310.199 805.045 353.39 805.045 Z" fill="url(#paint2_radial_219_46)"/>
  <path d="M 734.961 855.021 C 734.414 854.105 733.687 853.353 732.839 852.825 C 731.991 852.298 731.046 852.01 730.081 851.986 C 729.277 851.984 728.48 852.17 727.739 852.535 C 727.339 851.424 726.67 850.469 725.811 849.786 C 724.952 849.102 723.941 848.719 722.898 848.682 C 722.165 848.682 721.44 848.858 720.771 849.201 C 720.101 849.544 719.502 850.045 719.011 850.673 C 718.155 849.206 717.005 847.997 715.659 847.149 C 714.314 846.301 712.811 845.837 711.278 845.797 C 710.187 845.804 709.104 846.038 708.085 846.484 C 706.68 841.862 703.145 838.576 698.957 838.517 C 697.316 838.526 695.705 839.017 694.274 839.942 C 692.843 840.866 691.639 842.195 690.777 843.803 C 688.259 841.512 685.154 840.248 681.946 840.208 C 680.129 840.197 678.326 840.584 676.635 841.348 C 675.09 835.795 670.929 831.772 665.953 831.726 C 664.212 831.722 662.497 832.21 660.958 833.149 C 660.229 826.181 655.537 820.765 649.757 820.708 C 647.376 820.699 645.059 821.6 643.17 823.27 C 640.374 813.102 632.722 805.756 623.636 805.674 C 620.152 805.64 616.725 806.686 613.71 808.7 C 609.199 799.573 601.173 793.442 591.951 793.355 C 585.049 793.293 578.771 796.641 574.092 802.108 C 571.926 800.498 569.411 799.626 566.834 799.589 C 564.257 799.553 561.723 800.354 559.523 801.901 C 557.47 790.973 549.679 782.789 540.305 782.699 C 537.404 782.678 534.541 783.443 531.942 784.93 C 528.679 774.863 520.826 767.722 511.595 767.636 C 507.708 767.609 503.893 768.842 500.585 771.197 C 493.11 757.197 480.406 747.927 465.921 747.793 C 449.377 747.618 435.022 759.468 428.005 776.757 C 425.987 776 423.881 775.602 421.758 775.575 C 412.578 775.49 404.652 782.274 401.066 792.1 C 395.976 788.57 388.771 787.447 381.297 789.678 C 374.509 791.7 368.912 796.073 365.477 801.381 C 361.442 799.045 356.931 798.016 352.427 798.402 C 347.923 798.787 343.595 800.575 339.902 803.572 C 339.892 803.412 339.883 803.247 339.84 803.089 C 337.374 787.548 325.31 777.077 312.887 779.699 C 304.635 781.444 298.327 788.546 295.74 797.655 C 291.444 782.867 279.117 773.407 266.434 776.082 C 259.596 777.527 253.938 782.237 250.245 788.71 C 245.216 784.749 239.042 783.216 233.043 784.44 C 230.867 784.908 228.761 785.742 226.794 786.917 C 220.988 775.92 208.657 767.602 194.093 766.253 C 181.882 765.12 170.881 769.143 163.764 776.264 C 155.837 762.056 141.838 753.927 127.512 756.95 C 124.199 757.66 120.999 758.947 118.023 760.768 C 102.986 735.932 77.726 721.962 51.906 727.413 C 29.299 732.188 11.635 750.697 3.28 774.911 C -2.447 772.273 -8.701 771.545 -14.769 772.808 C -20.477 774.026 -25.802 776.965 -30.204 781.328 L -31.585 974.795 C -28.145 971.212 -25.321 966.914 -23.261 962.127 C -17.804 966.736 -11.018 968.87 -4.129 967.417 C 1.133 966.283 5.924 963.181 9.502 958.589 C 19.052 965.821 30.548 969.043 42.223 966.582 C 56.603 963.545 68.13 952.598 74.545 937.907 C 80.461 940.525 86.923 941.041 93.095 939.385 C 99.268 937.73 104.87 933.979 109.177 928.62 C 116.404 931.925 124.292 932.831 131.944 931.236 C 143.078 928.905 152.374 921.518 158.749 911.337 C 168.799 922.405 182.534 928.023 196.524 925.06 C 207.129 922.824 216.103 916.061 222.439 906.611 C 224.785 905.497 227.035 904.137 229.163 902.545 C 231.179 902.832 233.222 902.765 235.22 902.347 C 238.754 901.599 242.055 899.791 244.79 897.104 C 248.793 898.969 253.172 899.49 257.421 898.603 C 267.036 896.575 274.171 887.771 276.423 876.78 C 282.645 881.861 290.302 884.202 298.081 882.556 C 305.443 881.007 311.604 876.166 315.846 869.465 C 319.068 872.894 323.277 874.826 327.661 874.887 C 330.068 874.889 332.451 874.332 334.668 873.251 C 336.885 872.168 338.891 870.583 340.564 868.588 C 342.995 875.132 348.255 879.698 354.412 879.764 C 357.132 879.781 359.801 878.91 362.111 877.252 C 363.634 878.295 365.329 878.961 367.088 879.206 C 368.846 879.451 370.63 879.27 372.325 878.676 C 373.798 879.398 375.326 879.961 376.889 880.36 C 381.741 885.555 388.096 888.483 394.719 888.572 C 403.683 888.654 411.685 883.455 416.885 875.327 C 421.795 880.853 428.262 884.261 435.392 884.33 C 440.294 884.364 445.105 882.815 449.282 879.858 C 452.46 882.651 456.292 884.283 460.282 884.54 C 464.272 884.797 468.239 883.668 471.668 881.3 C 477.029 889.615 485.217 894.973 494.426 895.055 C 501.909 895.126 508.745 891.687 513.994 886.004 C 516.646 888.407 519.911 889.733 523.284 889.778 C 525.417 889.782 527.528 889.281 529.486 888.304 C 531.444 887.329 533.207 885.899 534.665 884.106 C 538.751 890.49 545.012 894.604 552.067 894.668 C 560.112 894.749 567.208 889.519 571.247 881.603 C 573.775 886.474 578.142 889.72 583.15 889.769 C 586.067 889.781 588.909 888.704 591.252 886.699 C 597.994 891.345 607.009 894.252 616.967 894.345 C 631.296 894.483 643.794 888.802 650.322 880.307 C 653.127 884.846 657.476 887.8 662.409 887.845 C 668.404 887.904 673.591 883.671 676.215 877.452 C 677.946 878.306 679.806 878.757 681.688 878.782 C 686.558 878.827 690.914 876.039 693.769 871.665 C 694.62 873.195 695.784 874.46 697.159 875.35 C 698.535 876.24 700.078 876.726 701.654 876.768 C 705.393 876.803 708.623 874.21 710.334 870.399 C 710.598 870.427 710.852 870.499 711.118 870.504 C 712.457 870.505 713.78 870.179 715.001 869.549 C 716.223 868.918 717.314 867.997 718.204 866.844 C 719.285 868.043 720.718 868.728 722.218 868.761 C 723.064 868.762 723.901 868.557 724.675 868.161 C 725.447 867.766 726.139 867.186 726.705 866.46 C 727.668 867.235 728.812 867.655 729.987 867.668 C 730.83 867.667 731.663 867.462 732.432 867.066 C 733.202 866.67 733.89 866.092 734.453 865.369 C 734.605 865.357 734.746 865.385 734.877 865.385 C 741.813 865.454 747.443 863.176 747.47 860.301 C 747.496 857.426 741.892 855.091 734.961 855.021 Z" fill="white" style=""/>
  <defs>
    <radialGradient id="paint0_radial_219_46" cx="0" cy="0" r="1" gradientUnits="userSpaceOnUse" gradientTransform="matrix(14.539654, -57.507435, 58.832054, 14.874559, 228.073975, 72.793942)">
      <stop stop-color="#F0EEF7"/>
      <stop offset="0.02" stop-color="#E6E4ED"/>
      <stop offset="0.13" stop-color="#B1B0B6"/>
      <stop offset="0.25" stop-color="#828186"/>
      <stop offset="0.36" stop-color="#5A595C"/>
      <stop offset="0.48" stop-color="#39393B"/>
      <stop offset="0.6" stop-color="#202021"/>
      <stop offset="0.73" stop-color="#0E0E0F"/>
      <stop offset="0.86" stop-color="#030304"/>
      <stop offset="1"/>
    </radialGradient>
    <radialGradient id="paint2_radial_219_46" cx="0" cy="0" r="1" gradientUnits="userSpaceOnUse" gradientTransform="matrix(18.721191, -74.04631, 75.751938, 19.152428, 341.824738, 736.307814)">
      <stop stop-color="#F0EEF7"/>
      <stop offset="0.02" stop-color="#E6E4ED"/>
      <stop offset="0.13" stop-color="#B1B0B6"/>
      <stop offset="0.25" stop-color="#828186"/>
      <stop offset="0.36" stop-color="#5A595C"/>
      <stop offset="0.48" stop-color="#39393B"/>
      <stop offset="0.6" stop-color="#202021"/>
      <stop offset="0.73" stop-color="#0E0E0F"/>
      <stop offset="0.86" stop-color="#030304"/>
      <stop offset="1"/>
    </radialGradient>
  </defs>
</svg>