<?xml version="1.0" encoding="utf-8"?>
<svg width="3000" height="513" viewBox="-9.72 19.44 3009.72 493.56" fill="none" xmlns="http://www.w3.org/2000/svg">
  <path d="M2048.66 420.267C1119.66 646.344 151.138 401.861 -217 251.359L-217 -159L5736.98 -116.772C5740.77 -62.6349 5746.07 96.5282 5736.98 300.084C5439.56 179.899 3209.9 137.672 2048.66 420.267Z" fill="#2D224C"/>
  <path d="M1244.47 199.295V202.854H1221.12C1222.02 202.037 1222.47 200.812 1222.47 198.478V174.167C1222.47 171.849 1222.02 170.624 1221.12 169.792H1243.97V173.395C1243.16 172.534 1242.12 172.126 1239.77 172.126H1232.14V183.618H1237.42C1238.88 183.758 1240.34 183.37 1241.54 182.524V186.987C1240.34 186.14 1238.88 185.752 1237.42 185.893H1232.14V200.564H1240.23C1242.52 200.564 1243.61 200.156 1244.42 199.295H1244.47Z" fill="#D9DAF3"/>
  <path d="M1263.32 202.854L1262.96 198.945C1262.18 200.3 1261.05 201.413 1259.69 202.16C1258.32 202.906 1256.78 203.258 1255.23 203.174C1250.34 203.174 1246.41 199.397 1246.41 191.172C1246.41 182.947 1251.02 179.141 1255.59 179.141C1257.08 179.118 1258.55 179.497 1259.84 180.238C1261.14 180.98 1262.21 182.056 1262.96 183.355V173.934C1263.1 172.486 1262.71 171.034 1261.87 169.851C1264.03 169.72 1269.32 169.355 1272.53 168.947V198.756C1272.41 200.215 1272.82 201.669 1273.67 202.854H1263.32ZM1262.96 196.131V186.214C1262.74 185.562 1262.33 184.996 1261.78 184.595C1261.23 184.194 1260.56 183.979 1259.88 183.982C1257.75 183.982 1256.68 185.528 1256.63 191.274C1256.59 197.02 1257.75 198.566 1259.88 198.566C1260.59 198.558 1261.27 198.318 1261.82 197.884C1262.38 197.449 1262.78 196.844 1262.96 196.16V196.131Z" fill="#D9DAF3"/>
  <path d="M1291.92 202.854L1291.69 198.945C1290.99 200.299 1289.92 201.421 1288.61 202.172C1287.29 202.923 1285.79 203.272 1284.28 203.175C1279.17 203.175 1277.02 200.258 1277.02 194.818V183.662C1277.11 183.069 1277.05 182.466 1276.87 181.899C1276.68 181.331 1276.36 180.816 1275.94 180.395C1279.23 180.249 1283.07 179.841 1286.6 179.491V195.11C1286.6 196.933 1287.05 198.435 1288.9 198.435C1289.4 198.419 1289.89 198.255 1290.3 197.965C1290.71 197.675 1291.02 197.27 1291.21 196.801V183.676C1291.29 183.084 1291.24 182.48 1291.05 181.913C1290.86 181.346 1290.54 180.831 1290.12 180.409C1293.43 180.264 1297.27 179.855 1300.79 179.505V198.756C1300.66 200.216 1301.04 201.677 1301.87 202.883L1291.92 202.854Z" fill="#D9DAF3"/>
  <path d="M1240.32 209.985L1239.27 212.712C1237.62 211.41 1235.58 210.692 1233.47 210.67C1230.81 210.67 1229.59 211.356 1229.59 212.945C1229.59 215.979 1241.48 217.204 1241.48 224.394C1241.48 229.848 1236.72 232.342 1229.14 232.342C1226.07 232.517 1223.01 231.873 1220.28 230.475L1221.28 227.792C1223.19 229.167 1225.48 229.902 1227.83 229.892C1230.73 229.892 1232.02 229.075 1232.02 227.34C1232.02 223.3 1220.42 223.942 1220.28 216.125C1220.28 211.75 1223.67 208.264 1232.39 208.264C1235.13 208.194 1237.85 208.784 1240.32 209.985V209.985Z" fill="#D9DAF3"/>
  <path d="M1269.32 220.354C1269.32 226.858 1264.49 232.4 1256.27 232.4C1247.57 232.4 1243.22 227.267 1243.22 220.354C1243.22 213.864 1248.11 208.322 1256.27 208.322C1264.86 208.264 1269.32 213.398 1269.32 220.354ZM1253.37 220.354C1253.37 228.769 1254.14 230.563 1256.27 230.563C1258.4 230.563 1259.17 228.798 1259.17 220.354C1259.17 211.91 1258.45 210.233 1256.27 210.233C1254.1 210.233 1253.37 211.895 1253.37 220.354Z" fill="#D9DAF3"/>
  <path d="M1311.48 232.021H1323.27C1322.43 230.82 1322.04 229.356 1322.18 227.894V217.685C1322.18 212.187 1320.34 208.235 1314.28 208.235C1312.86 208.176 1311.46 208.509 1310.21 209.198C1308.97 209.887 1307.94 210.906 1307.23 212.143V208.57C1304.61 208.906 1300.91 209.533 1298.39 209.912C1295.07 210.355 1291.73 210.496 1288.39 210.335C1286.45 209.121 1284.16 208.569 1281.88 208.76C1275.79 208.76 1271.73 212.435 1271.73 216.941C1271.74 218.289 1272.1 219.61 1272.78 220.769C1273.47 221.927 1274.44 222.882 1275.62 223.533C1274.63 224.108 1273.82 224.946 1273.28 225.955C1272.73 226.964 1272.48 228.105 1272.54 229.25C1272.52 230.004 1272.65 230.755 1272.92 231.459C1273.19 232.162 1273.6 232.805 1274.12 233.348C1273.4 233.599 1272.77 234.068 1272.32 234.691C1271.86 235.315 1271.61 236.063 1271.6 236.834C1271.6 239.75 1276.56 241.209 1282.3 241.209C1289.13 241.209 1294.41 238.569 1294.41 233.917C1294.41 229.819 1291.02 227.325 1282.35 227.194L1278 227.106C1276.65 227.106 1276.23 226.508 1276.23 225.867C1276.26 225.542 1276.39 225.234 1276.59 224.976C1276.79 224.719 1277.05 224.522 1277.36 224.408C1278.85 224.893 1280.4 225.134 1281.97 225.123C1288.16 225.123 1292.22 221.448 1292.22 217C1292.29 215.056 1291.59 213.164 1290.28 211.735L1298.05 212.114C1298.15 212.594 1298.2 213.083 1298.2 213.573V227.938C1298.34 229.4 1297.95 230.864 1297.11 232.065H1308.86C1308.01 230.864 1307.63 229.4 1307.77 227.938V214.258C1308.05 213.842 1308.44 213.512 1308.89 213.303C1309.35 213.095 1309.85 213.017 1310.35 213.077C1312.21 213.077 1312.66 214.535 1312.66 216.344V227.894C1312.77 229.367 1312.35 230.832 1311.48 232.021V232.021ZM1276.33 234.34L1285.03 234.748C1287.93 234.879 1289.05 235.434 1289.05 236.484C1289.05 237.534 1287.52 239.4 1282.27 239.4C1279.71 239.4 1276.04 238.394 1276.04 236.177C1276 235.551 1276.1 234.924 1276.33 234.34ZM1281.88 223.431C1280.26 223.431 1279.62 222.25 1279.68 216.941C1279.74 211.633 1280.26 210.393 1281.88 210.393C1283.51 210.393 1284.14 211.531 1284.14 216.941C1284.14 222.352 1283.61 223.431 1281.88 223.431Z" fill="#D9DAF3"/>
  <path d="M1351.65 220.354C1351.65 226.858 1346.81 232.4 1338.6 232.4C1329.9 232.4 1325.55 227.267 1325.55 220.354C1325.55 213.864 1330.42 208.322 1338.6 208.322C1347.17 208.264 1351.65 213.398 1351.65 220.354ZM1335.7 220.354C1335.7 228.769 1336.47 230.563 1338.6 230.563C1340.73 230.563 1341.5 228.798 1341.5 220.354C1341.5 211.91 1340.78 210.233 1338.6 210.233C1336.42 210.233 1335.74 211.895 1335.7 220.354Z" fill="#D9DAF3"/>
  <path d="M1129 169.822H1210.47V171.003C1210.47 183.953 1210.6 196.889 1210.47 209.825C1210.2 231.7 1200.44 247.742 1181.37 258.228C1178 260.065 1174.59 261.801 1171.22 263.609C1170.77 263.865 1170.27 264 1169.77 264C1169.26 264 1168.76 263.865 1168.32 263.609C1164.44 261.538 1160.51 259.584 1156.71 257.426C1149.69 253.657 1143.62 248.319 1138.97 241.821C1134.32 235.323 1131.22 227.839 1129.9 219.946C1129.35 216.797 1129.07 213.605 1129.09 210.408C1129 197.283 1129.09 184.157 1129.09 171.032L1129 169.822ZM1133.25 174.051V175.013C1133.25 186.812 1133.25 198.61 1133.25 210.408C1133.26 212.922 1133.44 215.432 1133.81 217.919C1134.76 224.858 1137.22 231.501 1141.02 237.375C1144.81 243.248 1149.85 248.207 1155.77 251.899C1160.12 254.684 1164.75 256.857 1169.27 259.278C1169.44 259.35 1169.62 259.387 1169.8 259.387C1169.98 259.387 1170.16 259.35 1170.33 259.278C1172.42 258.213 1174.45 257.061 1176.55 256.011C1182.79 253.121 1188.44 249.074 1193.19 244.082C1201.44 235.297 1206.08 223.691 1206.17 211.604C1206.34 199.412 1206.17 187.22 1206.17 175.028C1206.17 174.722 1206.17 174.401 1206.17 174.051H1133.25Z" fill="#D9DAF3"/>
  <path d="M1175.23 196.393H1162.34V228.988H1175.23V196.393Z" fill="#D9DAF3"/>
  <path d="M1162.13 208.411L1153.34 205.251L1145.96 226.016L1154.76 229.176L1162.13 208.411Z" fill="#D9DAF3"/>
  <path d="M1179.3 189.259L1173.58 191.376L1187.3 228.831L1193.02 226.714L1179.3 189.259Z" fill="#D9DAF3"/>
  <path d="M888.276 339.865C883.524 339.865 879.372 338.785 875.82 336.625C872.268 334.465 869.508 331.465 867.54 327.625C865.572 323.737 864.588 319.225 864.588 314.089C864.588 308.905 865.596 304.345 867.612 300.409C869.676 296.425 872.58 293.329 876.324 291.121C880.116 288.865 884.604 287.737 889.788 287.737C895.692 287.737 900.588 289.153 904.476 291.985C908.364 294.817 910.884 298.729 912.036 303.721H901.74C900.972 301.369 899.58 299.545 897.564 298.249C895.548 296.905 892.956 296.233 889.788 296.233C884.748 296.233 880.86 297.841 878.124 301.057C875.388 304.225 874.02 308.593 874.02 314.161C874.02 319.729 875.364 324.049 878.052 327.121C880.788 330.145 884.484 331.657 889.14 331.657C893.7 331.657 897.132 330.433 899.436 327.985C901.788 325.489 903.204 322.225 903.684 318.193H890.94V311.281H912.972V339.001H904.476L903.756 332.377C902.124 334.777 900.084 336.625 897.636 337.921C895.188 339.217 892.068 339.865 888.276 339.865ZM921.715 339.001V303.289H929.923L930.787 309.985C932.083 307.681 933.835 305.857 936.043 304.513C938.299 303.121 940.939 302.425 943.963 302.425V312.145H941.371C939.355 312.145 937.555 312.457 935.971 313.081C934.387 313.705 933.139 314.785 932.227 316.321C931.363 317.857 930.931 319.993 930.931 322.729V339.001H921.715ZM962.574 339.865C959.502 339.865 956.982 339.385 955.014 338.425C953.046 337.417 951.582 336.097 950.622 334.465C949.662 332.833 949.182 331.033 949.182 329.065C949.182 325.753 950.478 323.065 953.07 321.001C955.662 318.937 959.55 317.905 964.734 317.905H973.806V317.041C973.806 314.593 973.11 312.793 971.718 311.641C970.326 310.489 968.598 309.913 966.534 309.913C964.662 309.913 963.03 310.369 961.638 311.281C960.246 312.145 959.382 313.441 959.046 315.169H950.046C950.286 312.577 951.15 310.321 952.638 308.401C954.174 306.481 956.142 305.017 958.542 304.009C960.942 302.953 963.63 302.425 966.606 302.425C971.694 302.425 975.702 303.697 978.63 306.241C981.558 308.785 983.022 312.385 983.022 317.041V339.001H975.174L974.31 333.241C973.254 335.161 971.766 336.745 969.846 337.993C967.974 339.241 965.55 339.865 962.574 339.865ZM964.662 332.665C967.302 332.665 969.342 331.801 970.782 330.073C972.27 328.345 973.206 326.209 973.59 323.665H965.742C963.294 323.665 961.542 324.121 960.486 325.033C959.43 325.897 958.902 326.977 958.902 328.273C958.902 329.665 959.43 330.745 960.486 331.513C961.542 332.281 962.934 332.665 964.662 332.665ZM989.513 339.001V331.585L1007.73 310.921H989.729V303.289H1018.24V310.705L999.737 331.369H1018.6V339.001H989.513ZM1031.24 297.745C1029.56 297.745 1028.17 297.241 1027.06 296.233C1026.01 295.225 1025.48 293.953 1025.48 292.417C1025.48 290.881 1026.01 289.633 1027.06 288.673C1028.17 287.665 1029.56 287.161 1031.24 287.161C1032.92 287.161 1034.29 287.665 1035.34 288.673C1036.45 289.633 1037 290.881 1037 292.417C1037 293.953 1036.45 295.225 1035.34 296.233C1034.29 297.241 1032.92 297.745 1031.24 297.745ZM1026.63 339.001V303.289H1035.85V339.001H1026.63ZM1062.82 339.865C1059.22 339.865 1056.03 339.097 1053.24 337.561C1050.46 336.025 1048.27 333.865 1046.69 331.081C1045.11 328.297 1044.31 325.081 1044.31 321.433C1044.31 317.737 1045.08 314.449 1046.62 311.569C1048.2 308.689 1050.36 306.457 1053.1 304.873C1055.88 303.241 1059.15 302.425 1062.89 302.425C1066.39 302.425 1069.49 303.193 1072.18 304.729C1074.87 306.265 1076.95 308.377 1078.44 311.065C1079.98 313.705 1080.75 316.657 1080.75 319.921C1080.75 320.449 1080.72 321.001 1080.67 321.577C1080.67 322.153 1080.65 322.753 1080.6 323.377H1053.46C1053.65 326.161 1054.61 328.345 1056.34 329.929C1058.11 331.513 1060.25 332.305 1062.75 332.305C1064.62 332.305 1066.18 331.897 1067.43 331.081C1068.72 330.217 1069.68 329.113 1070.31 327.769H1079.67C1078.99 330.025 1077.87 332.089 1076.28 333.961C1074.75 335.785 1072.83 337.225 1070.52 338.281C1068.27 339.337 1065.7 339.865 1062.82 339.865ZM1062.89 309.913C1060.63 309.913 1058.64 310.561 1056.91 311.857C1055.19 313.105 1054.08 315.025 1053.6 317.617H1071.39C1071.24 315.265 1070.38 313.393 1068.79 312.001C1067.21 310.609 1065.24 309.913 1062.89 309.913Z" fill="#74DFAC"/>
  <path d="M1105.65 354.841V303.289H1113.86L1114.87 308.401C1116.02 306.817 1117.53 305.425 1119.4 304.225C1121.32 303.025 1123.8 302.425 1126.82 302.425C1130.18 302.425 1133.18 303.241 1135.82 304.873C1138.46 306.505 1140.55 308.737 1142.08 311.569C1143.62 314.401 1144.39 317.617 1144.39 321.217C1144.39 324.817 1143.62 328.033 1142.08 330.865C1140.55 333.649 1138.46 335.857 1135.82 337.489C1133.18 339.073 1130.18 339.865 1126.82 339.865C1124.13 339.865 1121.78 339.361 1119.76 338.353C1117.75 337.345 1116.12 335.929 1114.87 334.105V354.841H1105.65ZM1124.88 331.801C1127.8 331.801 1130.23 330.817 1132.15 328.849C1134.07 326.881 1135.03 324.337 1135.03 321.217C1135.03 318.097 1134.07 315.529 1132.15 313.513C1130.23 311.497 1127.8 310.489 1124.88 310.489C1121.9 310.489 1119.45 311.497 1117.53 313.513C1115.66 315.481 1114.72 318.025 1114.72 321.145C1114.72 324.265 1115.66 326.833 1117.53 328.849C1119.45 330.817 1121.9 331.801 1124.88 331.801ZM1169.97 339.865C1166.37 339.865 1163.18 339.097 1160.4 337.561C1157.61 336.025 1155.43 333.865 1153.85 331.081C1152.26 328.297 1151.47 325.081 1151.47 321.433C1151.47 317.737 1152.24 314.449 1153.77 311.569C1155.36 308.689 1157.52 306.457 1160.25 304.873C1163.04 303.241 1166.3 302.425 1170.05 302.425C1173.55 302.425 1176.65 303.193 1179.33 304.729C1182.02 306.265 1184.11 308.377 1185.6 311.065C1187.13 313.705 1187.9 316.657 1187.9 319.921C1187.9 320.449 1187.88 321.001 1187.83 321.577C1187.83 322.153 1187.81 322.753 1187.76 323.377H1160.61C1160.81 326.161 1161.77 328.345 1163.49 329.929C1165.27 331.513 1167.41 332.305 1169.9 332.305C1171.77 332.305 1173.33 331.897 1174.58 331.081C1175.88 330.217 1176.84 329.113 1177.46 327.769H1186.82C1186.15 330.025 1185.02 332.089 1183.44 333.961C1181.9 335.785 1179.98 337.225 1177.68 338.281C1175.42 339.337 1172.85 339.865 1169.97 339.865ZM1170.05 309.913C1167.79 309.913 1165.8 310.561 1164.07 311.857C1162.34 313.105 1161.24 315.025 1160.76 317.617H1178.54C1178.4 315.265 1177.53 313.393 1175.95 312.001C1174.37 310.609 1172.4 309.913 1170.05 309.913ZM1195.65 339.001V303.289H1203.86L1204.72 309.985C1206.02 307.681 1207.77 305.857 1209.98 304.513C1212.24 303.121 1214.88 302.425 1217.9 302.425V312.145H1215.31C1213.29 312.145 1211.49 312.457 1209.91 313.081C1208.32 313.705 1207.08 314.785 1206.16 316.321C1205.3 317.857 1204.87 319.993 1204.87 322.729V339.001H1195.65ZM1253.67 339.865C1250.6 339.865 1248.08 339.385 1246.11 338.425C1244.14 337.417 1242.68 336.097 1241.72 334.465C1240.76 332.833 1240.28 331.033 1240.28 329.065C1240.28 325.753 1241.57 323.065 1244.16 321.001C1246.76 318.937 1250.64 317.905 1255.83 317.905H1264.9V317.041C1264.9 314.593 1264.2 312.793 1262.81 311.641C1261.42 310.489 1259.69 309.913 1257.63 309.913C1255.76 309.913 1254.12 310.369 1252.73 311.281C1251.34 312.145 1250.48 313.441 1250.14 315.169H1241.14C1241.38 312.577 1242.24 310.321 1243.73 308.401C1245.27 306.481 1247.24 305.017 1249.64 304.009C1252.04 302.953 1254.72 302.425 1257.7 302.425C1262.79 302.425 1266.8 303.697 1269.72 306.241C1272.65 308.785 1274.12 312.385 1274.12 317.041V339.001H1266.27L1265.4 333.241C1264.35 335.161 1262.86 336.745 1260.94 337.993C1259.07 339.241 1256.64 339.865 1253.67 339.865ZM1255.76 332.665C1258.4 332.665 1260.44 331.801 1261.88 330.073C1263.36 328.345 1264.3 326.209 1264.68 323.665H1256.84C1254.39 323.665 1252.64 324.121 1251.58 325.033C1250.52 325.897 1250 326.977 1250 328.273C1250 329.665 1250.52 330.745 1251.58 331.513C1252.64 332.281 1254.03 332.665 1255.76 332.665ZM1291.5 339.001L1278.4 303.289H1288.05L1297.12 330.289L1306.19 303.289H1315.84L1302.66 339.001H1291.5ZM1337.25 339.865C1333.65 339.865 1330.45 339.097 1327.67 337.561C1324.89 336.025 1322.7 333.865 1321.12 331.081C1319.53 328.297 1318.74 325.081 1318.74 321.433C1318.74 317.737 1319.51 314.449 1321.05 311.569C1322.63 308.689 1324.79 306.457 1327.53 304.873C1330.31 303.241 1333.57 302.425 1337.32 302.425C1340.82 302.425 1343.92 303.193 1346.61 304.729C1349.29 306.265 1351.38 308.377 1352.87 311.065C1354.41 313.705 1355.17 316.657 1355.17 319.921C1355.17 320.449 1355.15 321.001 1355.1 321.577C1355.1 322.153 1355.08 322.753 1355.03 323.377H1327.89C1328.08 326.161 1329.04 328.345 1330.77 329.929C1332.54 331.513 1334.68 332.305 1337.17 332.305C1339.05 332.305 1340.61 331.897 1341.85 331.081C1343.15 330.217 1344.11 329.113 1344.73 327.769H1354.09C1353.42 330.025 1352.29 332.089 1350.71 333.961C1349.17 335.785 1347.25 337.225 1344.95 338.281C1342.69 339.337 1340.13 339.865 1337.25 339.865ZM1337.32 309.913C1335.06 309.913 1333.07 310.561 1331.34 311.857C1329.61 313.105 1328.51 315.025 1328.03 317.617H1345.81C1345.67 315.265 1344.81 313.393 1343.22 312.001C1341.64 310.609 1339.67 309.913 1337.32 309.913ZM1362.93 339.001V303.289H1371.13L1372 309.985C1373.29 307.681 1375.05 305.857 1377.25 304.513C1379.51 303.121 1382.15 302.425 1385.17 302.425V312.145H1382.58C1380.57 312.145 1378.77 312.457 1377.18 313.081C1375.6 313.705 1374.35 314.785 1373.44 316.321C1372.57 317.857 1372.14 319.993 1372.14 322.729V339.001H1362.93ZM1408.63 339.001V303.289H1416.84L1417.7 309.985C1419 307.681 1420.75 305.857 1422.96 304.513C1425.21 303.121 1427.85 302.425 1430.88 302.425V312.145H1428.29C1426.27 312.145 1424.47 312.457 1422.89 313.081C1421.3 313.705 1420.05 314.785 1419.14 316.321C1418.28 317.857 1417.85 319.993 1417.85 322.729V339.001H1408.63ZM1442.14 297.745C1440.46 297.745 1439.07 297.241 1437.97 296.233C1436.91 295.225 1436.38 293.953 1436.38 292.417C1436.38 290.881 1436.91 289.633 1437.97 288.673C1439.07 287.665 1440.46 287.161 1442.14 287.161C1443.82 287.161 1445.19 287.665 1446.25 288.673C1447.35 289.633 1447.9 290.881 1447.9 292.417C1447.9 293.953 1447.35 295.225 1446.25 296.233C1445.19 297.241 1443.82 297.745 1442.14 297.745ZM1437.54 339.001V303.289H1446.75V339.001H1437.54ZM1473.87 339.865C1470.22 339.865 1467 339.073 1464.22 337.489C1461.44 335.905 1459.23 333.697 1457.6 330.865C1456.01 328.033 1455.22 324.793 1455.22 321.145C1455.22 317.497 1456.01 314.257 1457.6 311.425C1459.23 308.593 1461.44 306.385 1464.22 304.801C1467 303.217 1470.22 302.425 1473.87 302.425C1478.43 302.425 1482.27 303.625 1485.39 306.025C1488.51 308.377 1490.5 311.641 1491.36 315.817H1481.64C1481.16 314.089 1480.2 312.745 1478.76 311.785C1477.37 310.777 1475.72 310.273 1473.8 310.273C1471.25 310.273 1469.09 311.233 1467.32 313.153C1465.54 315.073 1464.65 317.737 1464.65 321.145C1464.65 324.553 1465.54 327.217 1467.32 329.137C1469.09 331.057 1471.25 332.017 1473.8 332.017C1475.72 332.017 1477.37 331.537 1478.76 330.577C1480.2 329.617 1481.16 328.249 1481.64 326.473H1491.36C1490.5 330.505 1488.51 333.745 1485.39 336.193C1482.27 338.641 1478.43 339.865 1473.87 339.865ZM1499.54 339.001V287.161H1508.76V308.761C1509.96 306.793 1511.57 305.257 1513.58 304.153C1515.65 303.001 1518 302.425 1520.64 302.425C1525.06 302.425 1528.46 303.817 1530.86 306.601C1533.31 309.385 1534.54 313.465 1534.54 318.841V339.001H1525.39V319.705C1525.39 316.633 1524.77 314.281 1523.52 312.649C1522.32 311.017 1520.4 310.201 1517.76 310.201C1515.17 310.201 1513.01 311.113 1511.28 312.937C1509.6 314.761 1508.76 317.305 1508.76 320.569V339.001H1499.54ZM1548.32 297.745C1546.64 297.745 1545.24 297.241 1544.14 296.233C1543.08 295.225 1542.56 293.953 1542.56 292.417C1542.56 290.881 1543.08 289.633 1544.14 288.673C1545.24 287.665 1546.64 287.161 1548.32 287.161C1550 287.161 1551.36 287.665 1552.42 288.673C1553.52 289.633 1554.08 290.881 1554.08 292.417C1554.08 293.953 1553.52 295.225 1552.42 296.233C1551.36 297.241 1550 297.745 1548.32 297.745ZM1543.71 339.001V303.289H1552.92V339.001H1543.71ZM1579.9 339.865C1576.3 339.865 1573.1 339.097 1570.32 337.561C1567.54 336.025 1565.35 333.865 1563.77 331.081C1562.18 328.297 1561.39 325.081 1561.39 321.433C1561.39 317.737 1562.16 314.449 1563.7 311.569C1565.28 308.689 1567.44 306.457 1570.18 304.873C1572.96 303.241 1576.22 302.425 1579.97 302.425C1583.47 302.425 1586.57 303.193 1589.26 304.729C1591.94 306.265 1594.03 308.377 1595.52 311.065C1597.06 313.705 1597.82 316.657 1597.82 319.921C1597.82 320.449 1597.8 321.001 1597.75 321.577C1597.75 322.153 1597.73 322.753 1597.68 323.377H1570.54C1570.73 326.161 1571.69 328.345 1573.42 329.929C1575.19 331.513 1577.33 332.305 1579.82 332.305C1581.7 332.305 1583.26 331.897 1584.5 331.081C1585.8 330.217 1586.76 329.113 1587.38 327.769H1596.74C1596.07 330.025 1594.94 332.089 1593.36 333.961C1591.82 335.785 1589.9 337.225 1587.6 338.281C1585.34 339.337 1582.78 339.865 1579.9 339.865ZM1579.97 309.913C1577.71 309.913 1575.72 310.561 1573.99 311.857C1572.26 313.105 1571.16 315.025 1570.68 317.617H1588.46C1588.32 315.265 1587.46 313.393 1585.87 312.001C1584.29 310.609 1582.32 309.913 1579.97 309.913ZM1620.33 339.865C1617.17 339.865 1614.38 339.361 1611.98 338.353C1609.58 337.297 1607.66 335.857 1606.22 334.033C1604.78 332.209 1603.92 330.097 1603.63 327.697H1612.92C1613.21 329.089 1613.97 330.289 1615.22 331.297C1616.52 332.257 1618.17 332.737 1620.19 332.737C1622.21 332.737 1623.67 332.329 1624.58 331.513C1625.54 330.697 1626.02 329.761 1626.02 328.705C1626.02 327.169 1625.35 326.137 1624.01 325.609C1622.66 325.033 1620.79 324.481 1618.39 323.953C1616.85 323.617 1615.29 323.209 1613.71 322.729C1612.13 322.249 1610.66 321.649 1609.32 320.929C1608.02 320.161 1606.97 319.201 1606.15 318.049C1605.33 316.849 1604.93 315.385 1604.93 313.657C1604.93 310.489 1606.17 307.825 1608.67 305.665C1611.21 303.505 1614.77 302.425 1619.33 302.425C1623.55 302.425 1626.91 303.409 1629.41 305.377C1631.95 307.345 1633.46 310.057 1633.94 313.513H1625.23C1624.7 310.873 1622.71 309.553 1619.25 309.553C1617.53 309.553 1616.18 309.889 1615.22 310.561C1614.31 311.233 1613.85 312.073 1613.85 313.081C1613.85 314.137 1614.55 314.977 1615.94 315.601C1617.33 316.225 1619.18 316.801 1621.49 317.329C1623.98 317.905 1626.26 318.553 1628.33 319.273C1630.44 319.945 1632.12 320.977 1633.37 322.369C1634.61 323.713 1635.24 325.657 1635.24 328.201C1635.29 330.409 1634.71 332.401 1633.51 334.177C1632.31 335.953 1630.58 337.345 1628.33 338.353C1626.07 339.361 1623.41 339.865 1620.33 339.865ZM1658.19 339.001C1654.45 339.001 1651.45 338.089 1649.19 336.265C1646.93 334.441 1645.81 331.201 1645.81 326.545V310.993H1639.69V303.289H1645.81L1646.89 293.713H1655.02V303.289H1664.67V310.993H1655.02V326.617C1655.02 328.345 1655.38 329.545 1656.1 330.217C1656.87 330.841 1658.17 331.153 1659.99 331.153H1664.45V339.001H1658.19ZM1688.8 339.865C1685.35 339.865 1682.23 339.073 1679.44 337.489C1676.71 335.905 1674.52 333.721 1672.89 330.937C1671.31 328.105 1670.52 324.841 1670.52 321.145C1670.52 317.449 1671.33 314.209 1672.96 311.425C1674.6 308.593 1676.78 306.385 1679.52 304.801C1682.3 303.217 1685.42 302.425 1688.88 302.425C1692.28 302.425 1695.36 303.217 1698.09 304.801C1700.88 306.385 1703.06 308.593 1704.64 311.425C1706.28 314.209 1707.09 317.449 1707.09 321.145C1707.09 324.841 1706.28 328.105 1704.64 330.937C1703.06 333.721 1700.88 335.905 1698.09 337.489C1695.31 339.073 1692.21 339.865 1688.8 339.865ZM1688.8 331.873C1691.2 331.873 1693.29 330.985 1695.07 329.209C1696.84 327.385 1697.73 324.697 1697.73 321.145C1697.73 317.593 1696.84 314.929 1695.07 313.153C1693.29 311.329 1691.23 310.417 1688.88 310.417C1686.43 310.417 1684.32 311.329 1682.54 313.153C1680.81 314.929 1679.95 317.593 1679.95 321.145C1679.95 324.697 1680.81 327.385 1682.54 329.209C1684.32 330.985 1686.4 331.873 1688.8 331.873ZM817.699 369.745C816.019 369.745 814.627 369.241 813.523 368.233C812.467 367.225 811.939 365.953 811.939 364.417C811.939 362.881 812.467 361.633 813.523 360.673C814.627 359.665 816.019 359.161 817.699 359.161C819.379 359.161 820.747 359.665 821.803 360.673C822.907 361.633 823.459 362.881 823.459 364.417C823.459 365.953 822.907 367.225 821.803 368.233C820.747 369.241 819.379 369.745 817.699 369.745ZM813.091 411.001V375.289H822.307V411.001H813.091ZM831.926 411.001V375.289H840.062L840.782 381.337C841.886 379.225 843.47 377.545 845.534 376.297C847.646 375.049 850.118 374.425 852.95 374.425C857.366 374.425 860.798 375.817 863.246 378.601C865.694 381.385 866.918 385.465 866.918 390.841V411.001H857.702V391.705C857.702 388.633 857.078 386.281 855.83 384.649C854.582 383.017 852.638 382.201 849.998 382.201C847.406 382.201 845.27 383.113 843.59 384.937C841.958 386.761 841.142 389.305 841.142 392.569V411.001H831.926ZM877.387 411.001V382.993H872.491V375.289H877.387V371.113C877.387 366.793 878.467 363.721 880.627 361.897C882.835 360.073 885.811 359.161 889.555 359.161H893.515V367.009H890.995C889.411 367.009 888.283 367.321 887.611 367.945C886.939 368.569 886.603 369.625 886.603 371.113V375.289H894.307V382.993H886.603V411.001H877.387ZM917.336 411.865C913.88 411.865 910.76 411.073 907.976 409.489C905.24 407.905 903.056 405.721 901.424 402.937C899.84 400.105 899.048 396.841 899.048 393.145C899.048 389.449 899.864 386.209 901.496 383.425C903.128 380.593 905.312 378.385 908.048 376.801C910.832 375.217 913.952 374.425 917.408 374.425C920.816 374.425 923.888 375.217 926.624 376.801C929.408 378.385 931.592 380.593 933.176 383.425C934.808 386.209 935.624 389.449 935.624 393.145C935.624 396.841 934.808 400.105 933.176 402.937C931.592 405.721 929.408 407.905 926.624 409.489C923.84 411.073 920.744 411.865 917.336 411.865ZM917.336 403.873C919.736 403.873 921.824 402.985 923.6 401.209C925.376 399.385 926.264 396.697 926.264 393.145C926.264 389.593 925.376 386.929 923.6 385.153C921.824 383.329 919.76 382.417 917.408 382.417C914.96 382.417 912.848 383.329 911.072 385.153C909.344 386.929 908.48 389.593 908.48 393.145C908.48 396.697 909.344 399.385 911.072 401.209C912.848 402.985 914.936 403.873 917.336 403.873ZM943.864 411.001V375.289H952.072L952.936 381.985C954.232 379.681 955.984 377.857 958.192 376.513C960.448 375.121 963.088 374.425 966.112 374.425V384.145H963.52C961.504 384.145 959.704 384.457 958.12 385.081C956.536 385.705 955.288 386.785 954.376 388.321C953.512 389.857 953.08 391.993 953.08 394.729V411.001H943.864ZM972.41 411.001V375.289H980.546L981.338 380.113C982.49 378.385 984.002 377.017 985.874 376.009C987.794 374.953 990.002 374.425 992.498 374.425C998.018 374.425 1001.93 376.561 1004.23 380.833C1005.53 378.865 1007.26 377.305 1009.42 376.153C1011.63 375.001 1014.03 374.425 1016.62 374.425C1021.27 374.425 1024.85 375.817 1027.35 378.601C1029.84 381.385 1031.09 385.465 1031.09 390.841V411.001H1021.87V391.705C1021.87 388.633 1021.27 386.281 1020.07 384.649C1018.92 383.017 1017.12 382.201 1014.67 382.201C1012.18 382.201 1010.16 383.113 1008.63 384.937C1007.14 386.761 1006.39 389.305 1006.39 392.569V411.001H997.178V391.705C997.178 388.633 996.578 386.281 995.378 384.649C994.178 383.017 992.33 382.201 989.834 382.201C987.386 382.201 985.394 383.113 983.858 384.937C982.37 386.761 981.626 389.305 981.626 392.569V411.001H972.41ZM1052.15 411.865C1049.08 411.865 1046.56 411.385 1044.59 410.425C1042.62 409.417 1041.16 408.097 1040.2 406.465C1039.24 404.833 1038.76 403.033 1038.76 401.065C1038.76 397.753 1040.06 395.065 1042.65 393.001C1045.24 390.937 1049.13 389.905 1054.31 389.905H1063.38V389.041C1063.38 386.593 1062.69 384.793 1061.3 383.641C1059.9 382.489 1058.18 381.913 1056.11 381.913C1054.24 381.913 1052.61 382.369 1051.22 383.281C1049.82 384.145 1048.96 385.441 1048.62 387.169H1039.62C1039.86 384.577 1040.73 382.321 1042.22 380.401C1043.75 378.481 1045.72 377.017 1048.12 376.009C1050.52 374.953 1053.21 374.425 1056.18 374.425C1061.27 374.425 1065.28 375.697 1068.21 378.241C1071.14 380.785 1072.6 384.385 1072.6 389.041V411.001H1064.75L1063.89 405.241C1062.83 407.161 1061.34 408.745 1059.42 409.993C1057.55 411.241 1055.13 411.865 1052.15 411.865ZM1054.24 404.665C1056.88 404.665 1058.92 403.801 1060.36 402.073C1061.85 400.345 1062.78 398.209 1063.17 395.665H1055.32C1052.87 395.665 1051.12 396.121 1050.06 397.033C1049.01 397.897 1048.48 398.977 1048.48 400.273C1048.48 401.665 1049.01 402.745 1050.06 403.513C1051.12 404.281 1052.51 404.665 1054.24 404.665ZM1079.09 411.001V403.585L1097.31 382.921H1079.31V375.289H1107.82V382.705L1089.31 403.369H1108.18V411.001H1079.09ZM1120.82 369.745C1119.14 369.745 1117.74 369.241 1116.64 368.233C1115.58 367.225 1115.06 365.953 1115.06 364.417C1115.06 362.881 1115.58 361.633 1116.64 360.673C1117.74 359.665 1119.14 359.161 1120.82 359.161C1122.5 359.161 1123.86 359.665 1124.92 360.673C1126.02 361.633 1126.58 362.881 1126.58 364.417C1126.58 365.953 1126.02 367.225 1124.92 368.233C1123.86 369.241 1122.5 369.745 1120.82 369.745ZM1116.21 411.001V375.289H1125.42V411.001H1116.21ZM1152.18 411.865C1148.72 411.865 1145.6 411.073 1142.82 409.489C1140.08 407.905 1137.9 405.721 1136.27 402.937C1134.68 400.105 1133.89 396.841 1133.89 393.145C1133.89 389.449 1134.71 386.209 1136.34 383.425C1137.97 380.593 1140.16 378.385 1142.89 376.801C1145.68 375.217 1148.8 374.425 1152.25 374.425C1155.66 374.425 1158.73 375.217 1161.47 376.801C1164.25 378.385 1166.44 380.593 1168.02 383.425C1169.65 386.209 1170.47 389.449 1170.47 393.145C1170.47 396.841 1169.65 400.105 1168.02 402.937C1166.44 405.721 1164.25 407.905 1161.47 409.489C1158.68 411.073 1155.59 411.865 1152.18 411.865ZM1152.18 403.873C1154.58 403.873 1156.67 402.985 1158.44 401.209C1160.22 399.385 1161.11 396.697 1161.11 393.145C1161.11 389.593 1160.22 386.929 1158.44 385.153C1156.67 383.329 1154.6 382.417 1152.25 382.417C1149.8 382.417 1147.69 383.329 1145.92 385.153C1144.19 386.929 1143.32 389.593 1143.32 393.145C1143.32 396.697 1144.19 399.385 1145.92 401.209C1147.69 402.985 1149.78 403.873 1152.18 403.873ZM1178.71 411.001V375.289H1186.84L1187.56 381.337C1188.67 379.225 1190.25 377.545 1192.32 376.297C1194.43 375.049 1196.9 374.425 1199.73 374.425C1204.15 374.425 1207.58 375.817 1210.03 378.601C1212.48 381.385 1213.7 385.465 1213.7 390.841V411.001H1204.48V391.705C1204.48 388.633 1203.86 386.281 1202.61 384.649C1201.36 383.017 1199.42 382.201 1196.78 382.201C1194.19 382.201 1192.05 383.113 1190.37 384.937C1188.74 386.761 1187.92 389.305 1187.92 392.569V411.001H1178.71ZM1227.48 369.745C1225.8 369.745 1224.41 369.241 1223.3 368.233C1222.25 367.225 1221.72 365.953 1221.72 364.417C1221.72 362.881 1222.25 361.633 1223.3 360.673C1224.41 359.665 1225.8 359.161 1227.48 359.161C1229.16 359.161 1230.53 359.665 1231.58 360.673C1232.69 361.633 1233.24 362.881 1233.24 364.417C1233.24 365.953 1232.69 367.225 1231.58 368.233C1230.53 369.241 1229.16 369.745 1227.48 369.745ZM1222.87 411.001V375.289H1232.09V411.001H1222.87ZM1273.62 411.865C1270.46 411.865 1267.67 411.361 1265.27 410.353C1262.87 409.297 1260.95 407.857 1259.51 406.033C1258.07 404.209 1257.21 402.097 1256.92 399.697H1266.21C1266.5 401.089 1267.26 402.289 1268.51 403.297C1269.81 404.257 1271.46 404.737 1273.48 404.737C1275.5 404.737 1276.96 404.329 1277.87 403.513C1278.83 402.697 1279.31 401.761 1279.31 400.705C1279.31 399.169 1278.64 398.137 1277.3 397.609C1275.95 397.033 1274.08 396.481 1271.68 395.953C1270.14 395.617 1268.58 395.209 1267 394.729C1265.42 394.249 1263.95 393.649 1262.61 392.929C1261.31 392.161 1260.26 391.201 1259.44 390.049C1258.62 388.849 1258.22 387.385 1258.22 385.657C1258.22 382.489 1259.46 379.825 1261.96 377.665C1264.5 375.505 1268.06 374.425 1272.62 374.425C1276.84 374.425 1280.2 375.409 1282.7 377.377C1285.24 379.345 1286.75 382.057 1287.23 385.513H1278.52C1277.99 382.873 1276 381.553 1272.54 381.553C1270.82 381.553 1269.47 381.889 1268.51 382.561C1267.6 383.233 1267.14 384.073 1267.14 385.081C1267.14 386.137 1267.84 386.977 1269.23 387.601C1270.62 388.225 1272.47 388.801 1274.78 389.329C1277.27 389.905 1279.55 390.553 1281.62 391.273C1283.73 391.945 1285.41 392.977 1286.66 394.369C1287.9 395.713 1288.53 397.657 1288.53 400.201C1288.58 402.409 1288 404.401 1286.8 406.177C1285.6 407.953 1283.87 409.345 1281.62 410.353C1279.36 411.361 1276.7 411.865 1273.62 411.865ZM1310.08 411.865C1305.62 411.865 1302.16 410.473 1299.72 407.689C1297.32 404.905 1296.12 400.825 1296.12 395.449V375.289H1305.26V394.585C1305.26 397.657 1305.88 400.009 1307.13 401.641C1308.38 403.273 1310.35 404.089 1313.04 404.089C1315.58 404.089 1317.67 403.177 1319.3 401.353C1320.98 399.529 1321.82 396.985 1321.82 393.721V375.289H1331.04V411.001H1322.9L1322.18 404.953C1321.08 407.065 1319.47 408.745 1317.36 409.993C1315.29 411.241 1312.87 411.865 1310.08 411.865ZM1345.46 369.745C1343.78 369.745 1342.39 369.241 1341.29 368.233C1340.23 367.225 1339.7 365.953 1339.7 364.417C1339.7 362.881 1340.23 361.633 1341.29 360.673C1342.39 359.665 1343.78 359.161 1345.46 359.161C1347.14 359.161 1348.51 359.665 1349.57 360.673C1350.67 361.633 1351.22 362.881 1351.22 364.417C1351.22 365.953 1350.67 367.225 1349.57 368.233C1348.51 369.241 1347.14 369.745 1345.46 369.745ZM1340.86 411.001V375.289H1350.07V411.001H1340.86ZM1376.85 411.001V375.289H1384.98L1385.7 381.337C1386.81 379.225 1388.39 377.545 1390.46 376.297C1392.57 375.049 1395.04 374.425 1397.87 374.425C1402.29 374.425 1405.72 375.817 1408.17 378.601C1410.62 381.385 1411.84 385.465 1411.84 390.841V411.001H1402.62V391.705C1402.62 388.633 1402 386.281 1400.75 384.649C1399.5 383.017 1397.56 382.201 1394.92 382.201C1392.33 382.201 1390.19 383.113 1388.51 384.937C1386.88 386.761 1386.06 389.305 1386.06 392.569V411.001H1376.85ZM1437.79 411.865C1434.33 411.865 1431.21 411.073 1428.43 409.489C1425.69 407.905 1423.51 405.721 1421.88 402.937C1420.29 400.105 1419.5 396.841 1419.5 393.145C1419.5 389.449 1420.32 386.209 1421.95 383.425C1423.58 380.593 1425.76 378.385 1428.5 376.801C1431.28 375.217 1434.4 374.425 1437.86 374.425C1441.27 374.425 1444.34 375.217 1447.08 376.801C1449.86 378.385 1452.04 380.593 1453.63 383.425C1455.26 386.209 1456.08 389.449 1456.08 393.145C1456.08 396.841 1455.26 400.105 1453.63 402.937C1452.04 405.721 1449.86 407.905 1447.08 409.489C1444.29 411.073 1441.2 411.865 1437.79 411.865ZM1437.79 403.873C1440.19 403.873 1442.28 402.985 1444.05 401.209C1445.83 399.385 1446.72 396.697 1446.72 393.145C1446.72 389.593 1445.83 386.929 1444.05 385.153C1442.28 383.329 1440.21 382.417 1437.86 382.417C1435.41 382.417 1433.3 383.329 1431.52 385.153C1429.8 386.929 1428.93 389.593 1428.93 393.145C1428.93 396.697 1429.8 399.385 1431.52 401.209C1433.3 402.985 1435.39 403.873 1437.79 403.873ZM1479.08 411.865C1475.91 411.865 1473.12 411.361 1470.72 410.353C1468.32 409.297 1466.4 407.857 1464.96 406.033C1463.52 404.209 1462.66 402.097 1462.37 399.697H1471.66C1471.95 401.089 1472.72 402.289 1473.96 403.297C1475.26 404.257 1476.92 404.737 1478.93 404.737C1480.95 404.737 1482.41 404.329 1483.32 403.513C1484.28 402.697 1484.76 401.761 1484.76 400.705C1484.76 399.169 1484.09 398.137 1482.75 397.609C1481.4 397.033 1479.53 396.481 1477.13 395.953C1475.6 395.617 1474.04 395.209 1472.45 394.729C1470.87 394.249 1469.4 393.649 1468.06 392.929C1466.76 392.161 1465.71 391.201 1464.89 390.049C1464.08 388.849 1463.67 387.385 1463.67 385.657C1463.67 382.489 1464.92 379.825 1467.41 377.665C1469.96 375.505 1473.51 374.425 1478.07 374.425C1482.29 374.425 1485.65 375.409 1488.15 377.377C1490.69 379.345 1492.2 382.057 1492.68 385.513H1483.97C1483.44 382.873 1481.45 381.553 1478 381.553C1476.27 381.553 1474.92 381.889 1473.96 382.561C1473.05 383.233 1472.6 384.073 1472.6 385.081C1472.6 386.137 1473.29 386.977 1474.68 387.601C1476.08 388.225 1477.92 388.801 1480.23 389.329C1482.72 389.905 1485 390.553 1487.07 391.273C1489.18 391.945 1490.86 392.977 1492.11 394.369C1493.36 395.713 1493.98 397.657 1493.98 400.201C1494.03 402.409 1493.45 404.401 1492.25 406.177C1491.05 407.953 1489.32 409.345 1487.07 410.353C1484.81 411.361 1482.15 411.865 1479.08 411.865ZM1516.93 411.001C1513.19 411.001 1510.19 410.089 1507.93 408.265C1505.68 406.441 1504.55 403.201 1504.55 398.545V382.993H1498.43V375.289H1504.55L1505.63 365.713H1513.76V375.289H1523.41V382.993H1513.76V398.617C1513.76 400.345 1514.12 401.545 1514.84 402.217C1515.61 402.841 1516.91 403.153 1518.73 403.153H1523.2V411.001H1516.93ZM1531.32 411.001V375.289H1539.53L1540.4 381.985C1541.69 379.681 1543.44 377.857 1545.65 376.513C1547.91 375.121 1550.55 374.425 1553.57 374.425V384.145H1550.98C1548.96 384.145 1547.16 384.457 1545.58 385.081C1544 385.705 1542.75 386.785 1541.84 388.321C1540.97 389.857 1540.54 391.993 1540.54 394.729V411.001H1531.32ZM1564.84 369.745C1563.16 369.745 1561.77 369.241 1560.66 368.233C1559.61 367.225 1559.08 365.953 1559.08 364.417C1559.08 362.881 1559.61 361.633 1560.66 360.673C1561.77 359.665 1563.16 359.161 1564.84 359.161C1566.52 359.161 1567.89 359.665 1568.94 360.673C1570.05 361.633 1570.6 362.881 1570.6 364.417C1570.6 365.953 1570.05 367.225 1568.94 368.233C1567.89 369.241 1566.52 369.745 1564.84 369.745ZM1560.23 411.001V375.289H1569.45V411.001H1560.23ZM1613.72 411.865C1610.07 411.865 1606.85 411.073 1604.07 409.489C1601.29 407.905 1599.08 405.697 1597.45 402.865C1595.86 400.033 1595.07 396.793 1595.07 393.145C1595.07 389.497 1595.86 386.257 1597.45 383.425C1599.08 380.593 1601.29 378.385 1604.07 376.801C1606.85 375.217 1610.07 374.425 1613.72 374.425C1618.28 374.425 1622.12 375.625 1625.24 378.025C1628.36 380.377 1630.35 383.641 1631.21 387.817H1621.49C1621.01 386.089 1620.05 384.745 1618.61 383.785C1617.22 382.777 1615.57 382.273 1613.65 382.273C1611.1 382.273 1608.94 383.233 1607.17 385.153C1605.39 387.073 1604.5 389.737 1604.5 393.145C1604.5 396.553 1605.39 399.217 1607.17 401.137C1608.94 403.057 1611.1 404.017 1613.65 404.017C1615.57 404.017 1617.22 403.537 1618.61 402.577C1620.05 401.617 1621.01 400.249 1621.49 398.473H1631.21C1630.35 402.505 1628.36 405.745 1625.24 408.193C1622.12 410.641 1618.28 411.865 1613.72 411.865ZM1656.53 411.865C1653.07 411.865 1649.95 411.073 1647.17 409.489C1644.43 407.905 1642.25 405.721 1640.62 402.937C1639.03 400.105 1638.24 396.841 1638.24 393.145C1638.24 389.449 1639.06 386.209 1640.69 383.425C1642.32 380.593 1644.51 378.385 1647.24 376.801C1650.03 375.217 1653.15 374.425 1656.6 374.425C1660.01 374.425 1663.08 375.217 1665.82 376.801C1668.6 378.385 1670.79 380.593 1672.37 383.425C1674 386.209 1674.82 389.449 1674.82 393.145C1674.82 396.841 1674 400.105 1672.37 402.937C1670.79 405.721 1668.6 407.905 1665.82 409.489C1663.03 411.073 1659.94 411.865 1656.53 411.865ZM1656.53 403.873C1658.93 403.873 1661.02 402.985 1662.79 401.209C1664.57 399.385 1665.46 396.697 1665.46 393.145C1665.46 389.593 1664.57 386.929 1662.79 385.153C1661.02 383.329 1658.95 382.417 1656.6 382.417C1654.15 382.417 1652.04 383.329 1650.27 385.153C1648.54 386.929 1647.67 389.593 1647.67 393.145C1647.67 396.697 1648.54 399.385 1650.27 401.209C1652.04 402.985 1654.13 403.873 1656.53 403.873ZM1683.06 411.001V375.289H1691.27L1692.13 381.985C1693.43 379.681 1695.18 377.857 1697.39 376.513C1699.64 375.121 1702.28 374.425 1705.31 374.425V384.145H1702.71C1700.7 384.145 1698.9 384.457 1697.31 385.081C1695.73 385.705 1694.48 386.785 1693.57 388.321C1692.71 389.857 1692.27 391.993 1692.27 394.729V411.001H1683.06ZM1726.37 411.865C1723.2 411.865 1720.41 411.361 1718.01 410.353C1715.61 409.297 1713.69 407.857 1712.25 406.033C1710.81 404.209 1709.95 402.097 1709.66 399.697H1718.95C1719.24 401.089 1720.01 402.289 1721.25 403.297C1722.55 404.257 1724.21 404.737 1726.22 404.737C1728.24 404.737 1729.7 404.329 1730.61 403.513C1731.57 402.697 1732.05 401.761 1732.05 400.705C1732.05 399.169 1731.38 398.137 1730.04 397.609C1728.69 397.033 1726.82 396.481 1724.42 395.953C1722.89 395.617 1721.33 395.209 1719.74 394.729C1718.16 394.249 1716.69 393.649 1715.35 392.929C1714.05 392.161 1713 391.201 1712.18 390.049C1711.37 388.849 1710.96 387.385 1710.96 385.657C1710.96 382.489 1712.21 379.825 1714.7 377.665C1717.25 375.505 1720.8 374.425 1725.36 374.425C1729.58 374.425 1732.94 375.409 1735.44 377.377C1737.98 379.345 1739.49 382.057 1739.97 385.513H1731.26C1730.73 382.873 1728.74 381.553 1725.29 381.553C1723.56 381.553 1722.21 381.889 1721.25 382.561C1720.34 383.233 1719.89 384.073 1719.89 385.081C1719.89 386.137 1720.58 386.977 1721.97 387.601C1723.37 388.225 1725.21 388.801 1727.52 389.329C1730.01 389.905 1732.29 390.553 1734.36 391.273C1736.47 391.945 1738.15 392.977 1739.4 394.369C1740.65 395.713 1741.27 397.657 1741.27 400.201C1741.32 402.409 1740.74 404.401 1739.54 406.177C1738.34 407.953 1736.61 409.345 1734.36 410.353C1732.1 411.361 1729.44 411.865 1726.37 411.865ZM1754.4 369.745C1752.72 369.745 1751.33 369.241 1750.23 368.233C1749.17 367.225 1748.64 365.953 1748.64 364.417C1748.64 362.881 1749.17 361.633 1750.23 360.673C1751.33 359.665 1752.72 359.161 1754.4 359.161C1756.08 359.161 1757.45 359.665 1758.51 360.673C1759.61 361.633 1760.16 362.881 1760.16 364.417C1760.16 365.953 1759.61 367.225 1758.51 368.233C1757.45 369.241 1756.08 369.745 1754.4 369.745ZM1749.79 411.001V375.289H1759.01V411.001H1749.79Z" fill="white"/>
  <path style="mix-blend-mode:color-dodge" d="M 1846.22 460.911 C 1928.07 449.692 1994.43 436.353 1994.43 350.702 C 1994.43 265.05 1928.07 195.615 1846.22 195.615 C 1764.36 195.615 1698 265.05 1698 350.702 C 1698 436.353 1765.118 472.028 1846.22 460.911 Z" fill="url(#paint0_radial_228_836)"/>
  <g opacity="0.49"/>
  <path style="mix-blend-mode:color-dodge" d="M1063.34 454.632C1208.23 454.632 1325.68 341.689 1325.68 202.367C1325.68 63.0454 1208.23 -49.8974 1063.34 -49.8974C918.454 -49.8974 801 63.0454 801 202.367C801 341.689 918.454 454.632 1063.34 454.632Z" fill="url(#paint2_radial_228_836)"/>
  <g opacity="0.49"/>
  <defs>
    <radialGradient id="paint0_radial_228_836" cx="0" cy="0" r="1" gradientUnits="userSpaceOnUse" gradientTransform="translate(1824.3 365.725) rotate(-76.7665) scale(154.995 148.691)">
      <stop stop-color="#F0EEF7"/>
      <stop offset="0.02" stop-color="#E6E4ED"/>
      <stop offset="0.13" stop-color="#B1B0B6"/>
      <stop offset="0.25" stop-color="#828186"/>
      <stop offset="0.36" stop-color="#5A595C"/>
      <stop offset="0.48" stop-color="#39393B"/>
      <stop offset="0.6" stop-color="#202021"/>
      <stop offset="0.73" stop-color="#0E0E0F"/>
      <stop offset="0.86" stop-color="#030304"/>
      <stop offset="1"/>
    </radialGradient>
    <radialGradient id="paint2_radial_228_836" cx="0" cy="0" r="1" gradientUnits="userSpaceOnUse" gradientTransform="translate(1024.55 226.804) rotate(-75.6464) scale(253.33 261.921)">
      <stop stop-color="#F0EEF7"/>
      <stop offset="0.02" stop-color="#E6E4ED"/>
      <stop offset="0.13" stop-color="#B1B0B6"/>
      <stop offset="0.25" stop-color="#828186"/>
      <stop offset="0.36" stop-color="#5A595C"/>
      <stop offset="0.48" stop-color="#39393B"/>
      <stop offset="0.6" stop-color="#202021"/>
      <stop offset="0.73" stop-color="#0E0E0F"/>
      <stop offset="0.86" stop-color="#030304"/>
      <stop offset="1"/>
    </radialGradient>
  </defs>
  <path d="M -3905.472 369.98 C -4834.472 596.057 -5802.994 351.574 -6171.132 201.072 L -6171.132 -209.287 L -217 -159 C -213.21 -104.863 -207.91 47.396 -217 250.952 C -514.42 130.767 -2744.232 87.385 -3905.472 369.98 Z" fill="#2D224C"/>
</svg>