<?xml version="1.0" encoding="UTF-8"?>
<svg id="Livello_1" data-name="Livello 1" xmlns="http://www.w3.org/2000/svg" viewBox="0 0 570.04 925.03">
  <defs>
    <style>
      .cls-1 {
        fill: #fff;
      }

      .cls-2, .cls-3 {
        fill-rule: evenodd;
      }

      .cls-2, .cls-3, .cls-4 {
        fill: #241337;
      }

      .cls-5 {
        stroke: #241337;
        stroke-width: 4px;
      }

      .cls-5, .cls-6 {
        fill: none;
      }

      .cls-7 {
        fill: #c8102e;
      }

      .cls-8 {
        fill: #f39200;
      }

      .cls-3 {
        stroke: #000;
        stroke-miterlimit: 10;
        stroke-width: 6px;
      }

      .cls-9 {
        fill: #012169;
      }

      .cls-10 {
        fill: #9ffcce;
      }

      .cls-11 {
        fill: #fcea10;
      }

      .cls-12 {
        fill: #74dfac;
      }
    </style>
  </defs>
  <g>
    <polygon class="cls-12" points="172.95 24.37 172.96 24.37 172.96 24.37 172.95 24.37"/>
    <path class="cls-12" d="M172.96,24.37s0,0,0,0h0C118.58-1.96,72.25,8.6,34.79,59.98c-18.68,35.05-25.45,70-12.93,104.79,2.77,9.38,4.66,18.68,5.35,27.89-.51,10.76,1.96,19.37,7.22,25.99-11.19,9.37-22.65,18.48-34.45,27.26v158.81c2.31-2.91,4.62-5.78,6.93-8.65,25.49,8.95,38.13-13.15,44.97-49.22,1.65-37.34,7.06-73.46,14.63-108.87,8.31,1.56,17.08-.29,26.35-5.77,8.47-3.7,17.57-6.37,27.16-8.31,36.6-5.2,64.33-27.52,86.58-60.43C253.06,72.91,173.35,24.61,172.96,24.37Z"/>
  </g>
  <path class="cls-8" d="M67.36,669.42s-37.22,123.43,24.26,140.41c0,0,60.67-40.26,28.51-145.57"/>
  <path class="cls-11" d="M77.03,665.36s-29.81,98.86,19.43,112.46c0,0,48.59-32.24,22.83-116.59"/>
  <path class="cls-8" d="M158.89,677.34s-45.94,122.14,14.96,139.19c0,0,63.95-39.66,38.64-144.1"/>
  <path class="cls-11" d="M168.93,673.35s-36.79,97.83,11.98,111.48c0,0,51.22-31.76,30.95-115.42"/>
  <g>
    <g>
      <path class="cls-1" d="M277.52,521.85c-45.52-14.19-77.79-24.39-77.79-24.39-20.99,17.28-11.55,43.48,8.38,52.44,19.93,8.97,57.09,19.78,61.99,20.19,24,2.11,61.59,2.77,69.07-5.45l1.31-39.08c-10.83-3.33-56.14-1.56-62.96-3.71h0Z"/>
      <path class="cls-4" d="M341.65,566.85c-10.07,10.99-57.53,7.75-71.84,6.56-5.41-.45-43.27-11.53-63-20.48-11.89-5.42-20.35-16.2-21.92-28.27-1.54-11.14,3.05-21.76,12.76-29.69,.87-.64,1.99-.85,3.03-.57,.31,.03,32.78,10.35,77.79,24.39h0c2.71,.84,14.41,1.1,24.79,1.25,15.61,.27,31.75,.49,38.16,2.46,1.39,.43,2.33,1.72,2.31,3.18l-1.31,39.08-.02,.2c-.09,.69-.36,1.34-.77,1.89h.02Zm-4.59-38.65c-7.09-1.31-21.89-1.52-34-1.81-14.28-.27-23.21-.5-26.52-1.49h0c-39.11-12.11-68.78-21.48-76.09-23.84-7.02,6.41-10.25,14.37-9.2,22.69,1.25,9.67,8.41,18.81,18.12,23.22,19.73,8.85,56.49,19.53,60.89,19.89,31.97,2.77,58.95,1.22,65.63-3.68l1.17-34.98h0Z"/>
      <polygon class="cls-1" points="339.16 564.69 355.78 562.78 357.09 523.7 340.37 525.59 339.16 564.69"/>
      <path class="cls-4" d="M356.03,565.89l-16.62,1.91c-.95,.14-1.91-.16-2.6-.83-.7-.61-1.09-1.52-1.03-2.45l1.31-39.08c.07-1.63,1.32-2.96,2.94-3.15l16.72-1.9c.95-.14,1.91,.16,2.6,.83s1.06,1.6,1.02,2.55l-1.41,39.08-.02,.2c-.09,1.56-1.35,2.79-2.91,2.84Zm-12.51-37.5l-1.07,32.56,10.07-1.11,1.17-32.51-10.17,1.06Z"/>
      <path class="cls-1" d="M355.35,559.35s5.64,.16,20.97,1.44,26.73-3.53,30.98-18.71-.64-21.86-15.13-19.57c-5.32,.89-12.76,5-12.76,5,0,0,10.41-6.43,6.86-11.98-4.81-7.71-21.36,10.66-29.95,14.99l-.97,28.83h0Z"/>
      <path class="cls-4" d="M410.41,542.96c-4.28,15.49-15.87,22.54-34.37,21.1-15.02-1.25-20.66-1.42-20.76-1.42-.87,.02-1.71-.35-2.28-1.01-.57-.64-.87-1.48-.83-2.33l.98-29.03c0-1.21,.69-2.31,1.78-2.83,2.47-1.23,6-4.13,9.52-6.82,7.37-5.76,14.31-11.25,19.89-10.27,2,.32,3.75,1.52,4.77,3.28,1.07,1.75,1.45,3.84,1.06,5.85,.52-.06,1.05-.22,1.57-.28,7.93-1.29,13.68,0,17.07,3.79,2.55,2.78,3.55,6.78,3.11,11.99-.28,2.7-.77,5.38-1.49,8l-.02-.02Zm-34.27-15.82c.1-1.01,.67-1.92,1.54-2.44,2.61-1.63,7.05-5.58,5.87-7.53-.18-.32-.28-.33-.38-.34-2.73-.54-10.23,5.42-14.74,8.95-2.86,2.36-5.86,4.55-8.98,6.55l-.86,23.9c3.06,.26,8.8,.53,17.79,1.28,15.43,1.29,24.2-3.95,27.59-16.32,1.9-6.73,1.79-11.58-.19-13.8-2.15-2.55-7.31-2.36-11.17-1.75-3.86,.6-9.65,3.51-11.6,4.59-1.55,.88-3.53,.35-4.43-1.19-.35-.56-.51-1.23-.46-1.89h.02Z"/>
      <path class="cls-4" d="M410.34,526.6c.06-.79-.17-1.58-.64-2.21-1.09-1.43-3.13-1.7-4.56-.61,0,0-.02,0-.02,.02-7.7,5.94-26.24,11.18-26.45,11.27-1.72,.51-2.73,2.29-2.29,4.03,.5,1.73,2.28,2.75,4.03,2.29,.84-.24,19.91-5.64,28.61-12.43,.77-.55,1.25-1.42,1.33-2.36h0Z"/>
      <path class="cls-4" d="M411.66,536.58c.12-1-.26-1.99-1.01-2.66-1.26-1.19-3.26-1.13-4.45,.13-.03,.04-.07,.07-.1,.11-.22,.19-6.96,6.93-26.02,8.53-1.81,.09-3.2,1.63-3.11,3.44s1.63,3.2,3.44,3.11c.08,0,.17,0,.25-.02,22.07-1.86,29.97-10.26,30.21-10.65,.43-.59,.7-1.27,.78-1.99h.01Z"/>
      <path class="cls-4" d="M408.49,547.53c.04-.69-.11-1.39-.45-1.99-.93-1.51-2.91-2-4.44-1.09-.21,.09-11.03,6.49-23.87,5-1.77-.23-3.4,1.03-3.63,2.8v.09c-.2,1.8,1.09,3.42,2.89,3.64,15.18,1.78,27.52-5.62,28.06-5.89,.84-.59,1.37-1.53,1.45-2.55h-.01Z"/>
    </g>
    <path class="cls-1" d="M109.95,523.12s-53.04,6.03-53.58,66.34c-.53,60.31-8.67,89.01,55.94,98.99,38.65,5.96,78.13-72.25,65.08-121.79-8.7-33.09-67.44-43.54-67.44-43.54h0Z"/>
    <path class="cls-4" d="M111.82,691.5c-60.6-9.37-59.92-36.01-58.81-84.5,.09-5.66,.18-11.41,.29-17.54,.39-32.4,15.62-49.55,28.38-58.25,8.41-5.69,17.96-9.47,27.98-11.07l.86,.03c2.48,.46,60.73,11.19,69.86,45.83,4.27,16.16,3.32,36.36-2.63,56.88-5.62,19.29-15.23,37.58-26.68,50.25-11.44,12.67-23.64,19.08-35.52,18.69-1.25-.04-2.49-.18-3.73-.31h0Zm-1.89-165.23c-9,1.5-17.56,4.95-25.08,10.11-16.58,11.45-25.22,29.29-25.43,53.17,0,6.23-.2,12.08-.29,17.64-1.18,47.92-1.71,69.77,53.64,78.29,13.74,2.08,25.96-7.78,33.72-16.45,20.4-22.54,36.84-67.85,27.97-101.52-7.67-29.41-59.11-40.2-64.54-41.24h.01Z"/>
    <path class="cls-1" d="M240.44,697.24c7.48-46.85,23.49-161.13-5.5-174.93-16.52-7.93-99.79-10.46-99.79-10.46-5.88,3.85-11.95,7.39-18.19,10.63-34.55,18.34-16.58,119.82-10.43,175.17,5.63,62.53,2.4,140.59,2.4,140.59l35.11,5.56s-.6-16.9,9.68-43.71c11.01-28.8,18.12-67.12,20.11-84.13,3.99,18.74,15.87,89.43,15.87,89.43l28.62,54.55c-.05-.1,14.63-115.86,22.11-162.71h.01Z"/>
    <path class="cls-4" d="M215.64,861.49l-28.62-54.55c-.16-.27-.28-.57-.36-.87-.17-.58-7.47-44.46-12.51-71.96-3.42,19.45-9.56,46.01-17.64,67.14-9.86,25.86-9.44,42.37-9.45,42.56,.03,.9-.35,1.77-1.04,2.36-.71,.56-1.62,.8-2.52,.68l-35.11-5.56c-1.53-.26-2.63-1.6-2.58-3.15,.03-.77,3.14-78.54-2.42-140.11-.74-6.83-1.73-14.44-2.72-22.53-7.3-58.46-17.33-138.58,14.78-155.66,12.2-6.51,17.8-10.45,17.89-10.44,.55-.36,1.19-.54,1.84-.52,3.45,.11,84.12,2.56,101.03,10.69,21.91,10.4,24.36,70.33,7.22,178.15h0c-7.36,46.28-21.97,161.37-22.1,162.52-.14,1.33-1.16,2.4-2.48,2.6-.22,.06-.45,.09-.67,.07-1.03-.03-1.98-.57-2.54-1.43h0Zm-78.48-346.49c-.31,0-.62-.03-.92-.13-2.06,1.37-7.74,4.93-17.7,10.26-28.4,15.09-18.29,95.98-11.6,149.53,.98,8.09,1.98,15.79,2.71,22.72,5,55.41,2.95,123.82,2.48,138.19l29.01,4.59c.4-6.51,2.03-21.13,9.79-41.3,10.71-28.23,17.89-66.07,19.89-83.37,.15-1.49,1.38-2.63,2.87-2.69,1.47-.04,2.76,.97,3.09,2.4,3.83,17.87,14.74,82.87,15.79,89.14l23.93,45.57c3.72-28.84,14.78-114.7,20.93-153.15,15.94-100.38,14.54-162.95-3.78-171.71-12.37-5.87-67.22-9.1-96.44-10.06h-.05Z"/>
    <path class="cls-1" d="M219.27,860.84l12.7-54.06s-4.19,4.85-22.01,4.27c-10.92-.36-24.65-5.7-24.65-5.7,.78,8.49-.39,17.05-3.41,25.02-5.05,13.74-16.61,26.89-16.61,26.89l61.4,55.24c19.5-9.82,23.19-34.63-7.42-51.65h0Z"/>
    <path class="cls-4" d="M224.41,914.72l-61.4-55.24c-1.22-1.15-1.33-3.05-.24-4.32,.1-.09,11.26-12.87,16.1-25.94,2.83-7.49,3.95-15.51,3.26-23.49-.17-1.09,.27-2.17,1.15-2.84,.82-.73,1.98-.92,2.99-.48,.19,.1,13.45,5.24,23.7,5.57,14.56,.48,19.18-2.83,19.67-3.29,.82-1.13,2.34-1.48,3.58-.84,1.31,.68,1.98,2.17,1.61,3.6l-12.15,51.87c19.57,11.57,22.21,24.7,22.08,31.61-.23,10.06-6.57,19.06-17,24.19-.44,.25-.94,.36-1.45,.34-.69-.06-1.35-.31-1.89-.73h-.01Zm-14.6-100.71c-7.47-.24-16.12-2.64-21.25-4.34,0,7.39-1.32,14.71-3.87,21.64-4,10.8-11.72,21.1-15.32,25.59l57.58,51.85c7.23-4.18,11.67-10.84,11.81-17.93,.32-9.87-7.31-19.8-20.88-27.35-1.21-.67-1.83-2.06-1.52-3.41l11.15-47.78c-3.82,1.12-9.41,1.99-17.7,1.72h0Z"/>
    <path class="cls-1" d="M222.81,916.58c-1.4-1.29-2.49,.01-3.89-1.28s-.3-2.5-1.7-3.8-2.49,.01-3.89-1.28c-1.4-1.29-.3-2.5-1.7-3.8-1.4-1.29-2.49,.01-3.89-1.28-1.4-1.29-.3-2.5-1.7-3.8-1.4-1.29-2.49,.01-3.89-1.28-1.4-1.29-.3-2.5-1.7-3.8-1.4-1.29-2.49,.01-3.89-1.28-1.4-1.29-.3-2.5-1.7-3.8-1.4-1.29-2.49,.01-3.89-1.28s-.3-2.5-1.7-3.8-2.49,.01-3.89-1.28c-1.4-1.29-.3-2.5-1.7-3.8s-2.49,.01-3.89-1.28c-1.4-1.29-.3-2.5-1.7-3.8-1.4-1.29-2.49,.01-3.89-1.28-1.4-1.29-.3-2.5-1.7-3.8-1.4-1.29-2.49,.01-3.89-1.28-1.4-1.29-.3-2.5-1.6-3.79s-2.49,.01-3.89-1.28-.3-2.5-1.7-3.8l3.68-4.1,61.39,55.33-3.7,4.58,.02,.06Z"/>
    <path class="cls-4" d="M220.93,918.34h-.1c-1.46,.12-2.91-.38-3.98-1.38-1.08-.9-1.73-2.21-1.8-3.61-1.4,.08-2.77-.41-3.79-1.37-1.04-.93-1.68-2.22-1.8-3.61-1.4,.1-2.78-.4-3.79-1.37-1.04-.93-1.68-2.22-1.8-3.61-2.89,.1-5.35-2.09-5.59-4.98-1.4,.1-2.78-.4-3.79-1.37-1.04-.93-1.68-2.22-1.8-3.61-2.89,.1-5.35-2.09-5.59-4.98-1.4,.1-2.78-.4-3.79-1.37-1.04-.93-1.68-2.22-1.8-3.61-1.4,.1-2.78-.4-3.79-1.37-1.04-.93-1.68-2.22-1.8-3.61-1.4,.1-2.78-.4-3.79-1.37-1.04-.93-1.68-2.22-1.8-3.61-2.89,.1-5.35-2.09-5.59-4.98-1.4,.1-2.78-.4-3.79-1.37-1.11-.95-1.76-2.34-1.79-3.8v-.1c-1.12-1.14-1.14-2.96-.05-4.13l3.68-4.1c.59-.55,1.34-.9,2.14-.98,.8-.05,1.58,.22,2.18,.74l61.39,55.33s0,.01,.02,.02c1.25,1.13,1.35,3.06,.22,4.31l-3.68,4.1c-.6,.65-1.45,1-2.33,.98-.79,.02-1.51-.47-1.78-1.21l-.02,.02Zm-.16-6.91c.17,.58,.25,1.16,.33,1.55l.86,.03,.2-.28-1.4-1.29h0Zm-5.26-3.54c.51,0,1.02,.06,1.53,.15l-1.86-1.69c.15,.51,.26,1.02,.33,1.55h0Zm-5.59-5.08c.51,0,1.02,.06,1.53,.15l-1.86-1.69c.17,.58,.25,1.16,.33,1.55h0Zm-5.59-4.99c.51,0,1.02,.06,1.53,.15l-1.86-1.69c.15,.51,.26,1.02,.33,1.55h0Zm-5.92-6.63c.17,.58,.25,1.16,.33,1.55,.51,0,1.02,.06,1.53,.15l-1.86-1.69h0Zm-5.59-4.99c.15,.51,.26,1.02,.33,1.55,.51,0,1.02,.06,1.53,.15l-1.86-1.69h0Zm-5.59-5.08c.17,.58,.25,1.16,.33,1.55,.51,0,1.02,.06,1.53,.15l-1.86-1.69h0Zm-5.59-4.99c.15,.51,.26,1.02,.33,1.55,.51,0,1.02,.06,1.53,.15l-1.86-1.69h0Zm-5.59-5.08c.17,.58,.25,1.16,.33,1.55,.51,0,1.02,.06,1.53,.15l-1.86-1.69h0Zm-5.59-4.99c.24,.48,.35,1.01,.33,1.55,.51,0,1.02,.06,1.53,.15l-1.86-1.69h0Zm-5.32-4.4c.1,.28,.16,.57,.16,.87,.51,0,1.02,.06,1.53,.15l-1.49-1.3-.2,.28h0Z"/>
    <path class="cls-1" d="M142.81,858.34l12.7-54.06s-4.19,4.85-22.01,4.27c-10.92-.36-24.65-5.7-24.65-5.7,.78,8.49-.39,17.05-3.41,25.02-5.05,13.74-16.61,26.89-16.61,26.89l61.4,55.24c19.5-9.82,23.19-34.63-7.42-51.65h0Z"/>
    <path class="cls-4" d="M147.95,912.22l-61.4-55.24c-1.22-1.15-1.33-3.05-.24-4.32,.1-.09,11.26-12.87,16.1-25.94,2.83-7.49,3.95-15.51,3.26-23.49-.17-1.09,.27-2.17,1.15-2.84,.82-.73,1.98-.92,2.99-.48,.19,.1,13.45,5.24,23.7,5.57,14.56,.48,19.18-2.83,19.67-3.29,.82-1.13,2.34-1.48,3.58-.84,1.31,.68,1.98,2.17,1.61,3.6l-12.15,51.87c19.57,11.57,22.21,24.7,22.08,31.61-.23,10.06-6.57,19.06-17,24.19-.44,.25-.94,.36-1.45,.34-.69-.06-1.35-.31-1.89-.73h-.01Zm-14.64-100.71c-7.47-.24-16.12-2.64-21.25-4.34,0,7.39-1.32,14.71-3.87,21.64-4,10.8-11.72,21.1-15.32,25.59l57.58,51.85c7.23-4.18,11.67-10.84,11.81-17.93,.23-9.87-7.31-19.8-20.88-27.35-1.21-.67-1.83-2.06-1.52-3.41l11.15-47.78c-3.78,1.12-9.37,2-17.7,1.72h0Z"/>
    <path class="cls-1" d="M146.36,914.08c-1.4-1.29-2.49,.01-3.89-1.28-1.4-1.29-.3-2.5-1.7-3.8-1.4-1.29-2.49,.01-3.89-1.28-1.4-1.29-.3-2.5-1.7-3.8-1.4-1.29-2.49,.01-3.89-1.28-1.4-1.29-.3-2.5-1.7-3.8s-2.49,.01-3.89-1.28c-1.4-1.29-.3-2.5-1.7-3.8-1.4-1.29-2.49,.01-3.89-1.28-1.4-1.29-.3-2.5-1.7-3.8s-2.49,.01-3.89-1.28c-1.4-1.29-.3-2.5-1.7-3.8-1.4-1.29-2.49,.01-3.89-1.28-1.4-1.29-.3-2.5-1.7-3.8-1.4-1.29-2.49,.01-3.89-1.28s-.3-2.5-1.7-3.8-2.49,.01-3.89-1.28-.3-2.5-1.7-3.8-2.49,.01-3.89-1.28c-1.4-1.29-.3-2.5-1.7-3.8-1.4-1.29-2.49,.01-3.89-1.28-1.4-1.29-.3-2.5-1.7-3.8l3.68-4.1,61.39,55.33-3.6,4.58,.02,.07Z"/>
    <path class="cls-4" d="M144.52,915.85h-.13c-1.46,.12-2.91-.38-3.98-1.38-1.04-.93-1.68-2.22-1.8-3.61-1.4,.1-2.78-.4-3.79-1.37-1.04-.93-1.68-2.22-1.8-3.61-2.89,.1-5.35-2.09-5.59-4.98-1.4,.08-2.77-.41-3.79-1.37-1.04-.93-1.68-2.22-1.8-3.61-2.89,.1-5.35-2.09-5.59-4.98-1.4,.1-2.78-.4-3.79-1.37-1.04-.93-1.68-2.22-1.8-3.61-2.89,.1-5.35-2.09-5.59-4.98-2.89,.1-5.35-2.09-5.59-4.98-1.4,.1-2.78-.4-3.79-1.37-1.04-.93-1.68-2.22-1.8-3.61-1.4,.08-2.77-.41-3.79-1.37-1.04-.93-1.68-2.22-1.8-3.61-1.4,.1-2.78-.4-3.79-1.37-1.11-.95-1.76-2.34-1.79-3.8v-.1c-.47-.54-.75-1.23-.8-1.94-.05-.8,.22-1.58,.74-2.18l3.68-4.1s.01-.01,.02-.02c1.13-1.25,3.06-1.35,4.31-.22l61.39,55.33c.55,.59,.9,1.34,.98,2.14,.05,.8-.22,1.58-.74,2.18l-3.68,4.1c-.6,.65-1.45,1-2.33,.98-.78,0-1.47-.48-1.74-1.21l-.03,.02Zm-.29-6.91c.17,.58,.25,1.16,.33,1.55l.96,.03,.2-.28-1.49-1.3Zm-5.16-3.53c.51,0,1.02,.06,1.53,.15l-1.86-1.69c.15,.51,.26,1.02,.33,1.55h0Zm-5.59-5.08c.51,0,1.02,.06,1.53,.15l-1.86-1.69c.17,.58,.25,1.16,.33,1.55h0Zm-5.59-4.99c.51,0,1.02,.06,1.53,.15l-1.86-1.69c.15,.51,.26,1.02,.33,1.55h0Zm-5.92-6.63c.17,.58,.25,1.16,.33,1.55,.51,0,1.02,.06,1.53,.15l-1.86-1.69h0Zm-5.59-4.99c.15,.51,.26,1.02,.33,1.55,.51,0,1.02,.06,1.53,.15l-1.86-1.69h0Zm-5.59-5.08c.17,.58,.25,1.16,.33,1.55,.51,0,1.02,.06,1.53,.15l-1.86-1.69h0Zm-5.59-4.99c.15,.51,.26,1.02,.33,1.55,.51,0,1.02,.06,1.53,.15l-1.86-1.69h0Zm-5.59-5.08c.17,.58,.25,1.16,.33,1.55,.51,0,1.02,.06,1.53,.15l-1.86-1.69h0Zm-5.59-4.99c.24,.48,.35,1.01,.33,1.55,.51,0,1.02,.06,1.53,.15l-1.86-1.69h0Zm-5.32-4.4c.1,.28,.16,.57,.16,.87,.51,0,1.02,.06,1.53,.15l-1.49-1.3-.2,.28h0Z"/>
    <path class="cls-1" d="M110.27,614.05c11.1-43.18,19.1-73.8,19.1-73.8-17.13-18.78-41.15-8.73-48.58,10.3s-15.78,54.25-15.93,58.85c-.83,22.51,.32,57.65,8.35,64.24l36.56-.63c2.6-10.27-1.2-52.5,.49-58.97h.01Z"/>
    <path class="cls-4" d="M71.28,676.07c-10.74-8.89-9.96-53.36-9.52-66.78,.17-5.08,8.72-40.96,16.15-59.8,4.5-11.36,14.17-19.77,25.36-21.81,10.33-1.96,20.47,1.82,28.33,10.52,.64,.78,.89,1.81,.68,2.8,0,.29-8.11,31.1-19.1,73.8h0c-.66,2.57-.35,13.51,0,23.21,.48,14.59,1.04,29.67-.5,35.76-.33,1.32-1.5,2.26-2.86,2.3l-36.56,.63h-.19c-.65-.06-1.27-.28-1.8-.64h.01Zm35.88-6.11c.89-6.68,.38-20.51,.08-31.84-.43-13.35-.63-21.7,.14-24.84h0c9.46-37.1,16.81-65.24,18.67-72.18-6.32-6.25-13.9-8.89-21.62-7.52-8.97,1.62-17.17,8.74-20.83,18.02-7.33,18.85-15.57,53.68-15.7,57.8-1.08,29.98,1.65,55.11,6.54,61.12l32.72-.56h0Z"/>
    <polygon class="cls-1" points="73.18 673.64 75.74 689.07 112.31 688.45 109.75 672.92 73.18 673.64"/>
    <path class="cls-4" d="M72.85,689.46l-2.56-15.43c-.18-.88,.06-1.8,.66-2.47,.54-.69,1.37-1.09,2.24-1.08l36.56-.63c1.52,0,2.83,1.09,3.08,2.59l2.56,15.53c.18,.88-.06,1.8-.66,2.47-.59,.67-1.44,1.06-2.34,1.07l-36.56,.53h-.19c-1.46-.01-2.67-1.14-2.79-2.59h0Zm34.43-13.44l-30.46,.54,1.52,9.35,30.42-.44-1.47-9.45h0Z"/>
    <path class="cls-1" d="M78.93,688.5s.12,5.28-.36,19.65c-.47,14.37,4.56,24.8,18.94,28.05,14.38,3.25,20.39-1.64,17.56-15.06-1.09-4.93-5.28-11.68-5.28-11.68,0,0,6.5,9.42,11.51,5.84,6.97-4.86-10.97-19.44-15.41-27.26l-26.97,.46h.01Z"/>
    <path class="cls-4" d="M96.84,739.15c-14.66-3.26-21.8-13.76-21.33-31.1,.46-14.08,.35-19.36,.35-19.46-.06-.81,.25-1.61,.84-2.18,.57-.56,1.34-.88,2.14-.89l27.16-.45c1.13-.06,2.19,.54,2.73,1.53,1.27,2.25,4.14,5.41,6.82,8.57,5.73,6.61,11.19,12.83,10.53,18.09-.2,1.88-1.25,3.58-2.84,4.61-1.58,1.08-3.51,1.53-5.41,1.26,.08,.48,.26,.97,.34,1.45,1.58,7.34,.64,12.78-2.73,16.12-2.48,2.51-6.16,3.63-11.05,3.48-2.54-.13-5.06-.47-7.54-1.01v-.02Zm13.15-32.75c.95,.04,1.82,.53,2.35,1.32,1.65,2.36,5.55,6.32,7.31,5.13,.29-.18,.3-.28,.3-.37,.37-2.58-5.55-9.29-9.06-13.34-2.34-2.56-4.52-5.26-6.55-8.08l-22.36,.32c-.09,2.87-.08,8.25-.35,16.68-.47,14.47,4.83,22.41,16.54,25,6.38,1.46,10.9,1.12,12.88-.83,2.28-2.13,1.86-6.94,1.11-10.51s-3.74-8.85-4.83-10.61c-.9-1.41-.49-3.28,.9-4.19,.51-.36,1.12-.54,1.74-.52h.02Z"/>
    <path class="cls-4" d="M112.11,738.31c.74,.02,1.46-.23,2.04-.7,1.28-1.09,1.44-3,.35-4.28,0,0-.01-.01-.02-.02-5.91-6.91-11.68-23.98-11.77-24.17-.56-1.58-2.27-2.44-3.87-1.95-1.59,.54-2.46,2.26-1.95,3.87,.26,.78,6.21,18.33,12.96,26.13,.55,.69,1.38,1.1,2.26,1.13h0Z"/>
    <path class="cls-4" d="M102.85,740.02c.94,.06,1.85-.34,2.43-1.07,1.05-1.24,.91-3.09-.33-4.15-.03-.03-.07-.06-.11-.09-.19-.2-6.8-6.17-9.19-23.89-.17-1.69-1.68-2.91-3.36-2.74-1.69,.17-2.91,1.68-2.74,3.36,0,.08,.02,.16,.03,.23,2.78,20.52,10.99,27.5,11.37,27.71,.57,.37,1.22,.59,1.9,.64Z"/>
    <path class="cls-4" d="M92.48,737.57c.65,0,1.29-.17,1.84-.52,1.37-.94,1.73-2.81,.81-4.19-.09-.19-6.58-10-5.8-22.06,.13-1.67-1.12-3.12-2.79-3.25h-.08c-1.69-.1-3.14,1.18-3.26,2.87-.95,14.26,6.55,25.44,6.82,25.93,.59,.75,1.49,1.21,2.45,1.23h.01Z"/>
    <path class="cls-1" d="M70.06,484.6s10.01,25.17,21.72,33.8-10.48,12.51-8.39,19.1c3.04,9.69,44.7,23.23,75.02,17.03,60.83-12.4,80.45-31.8,80.45-31.8,.78-23.76-20.8-26.77-20.8-26.77,0,0,1.22-10.8-3.89-15.86l-144.11,4.49h0Z"/>
    <path class="cls-4" d="M80.39,538.36c-1.57-4.85,3.05-8.15,6.78-10.71,1.67-1.19,4.81-3.39,4.84-4.45,0-.29-.44-1.07-2.13-2.37-12.27-8.94-22.29-34.01-22.73-35.08-.34-.92-.24-1.94,.28-2.77,.55-.82,1.46-1.33,2.44-1.36l144.01-4.5c.85-.07,1.68,.24,2.27,.84,4.46,4.37,4.99,11.58,4.96,15.6,6.37,1.84,21.4,8.47,20.72,29.26-.02,.79-.36,1.54-.93,2.08-.89,.83-20.99,20.13-82.01,32.61-6.87,1.31-13.87,1.82-20.86,1.52-26.44-.86-54.51-10.8-57.64-20.68h0Zm137.19-39.43c-1.61-.25-2.74-1.72-2.58-3.35,.26-2.2,.29-8.81-2.19-12.35l-138.15,4.3c3.31,7.3,10.77,22.51,18.92,28.43,3.19,2.31,4.64,4.66,4.65,7.35-.04,4.22-3.97,6.97-7.5,9.44-1.47,1.01-4.22,3.03-4.44,3.79,2.17,6.98,41.41,21.11,71.44,15,52.04-10.67,73.57-26.56,78-30.25-.13-19.47-17.4-22.24-18.16-22.37h0Z"/>
    <path class="cls-1" d="M209.14,384.61c27.18,38.66,17.88,92.03-20.78,119.21-38.66,27.18-92.03,17.88-119.21-20.78s-17.88-92.03,20.78-119.21c38.6-27.19,91.94-17.94,119.13,20.67,.03,.04,.05,.07,.08,.11Z"/>
    <path class="cls-4" d="M136.35,522.35c-27.88-.86-53.73-14.8-69.77-37.61-28.16-40.05-18.52-95.34,21.53-123.49,40.05-28.16,95.34-18.52,123.49,21.53h0c28.1,40.05,18.49,95.3-21.5,123.5-15.67,11.11-34.56,16.76-53.76,16.08h0Zm-44.83-155.97c-37.34,26.32-46.28,77.92-19.96,115.26s77.92,46.28,115.26,19.96c37.34-26.32,46.28-77.92,19.96-115.26h0c-12.59-17.91-31.8-30.07-53.37-33.78-3.85-.7-7.75-1.11-11.66-1.24-17.93-.56-35.56,4.73-50.23,15.06h0Z"/>
    <path class="cls-4" d="M107.69,392.6c-19.01,53.28,10.9,88.98,10.9,88.98,0,0,80.05,27.36,105.8-56.1,0,0-.48-32.24-24.76-55.38-24.28-23.14-55.91-23.5-55.91-23.5,0,0-23.68,11.31-36.03,46.01h0Z"/>
    <path class="cls-4" d="M118.43,481.96h-.13l-.09-.1c-.27-.39-29.79-36.46-10.98-89.46h0c12.25-34.51,36.04-46.2,36.23-46.29l.1-.09h.1c.29,0,32.01,.67,56.19,23.71,24.18,23.04,24.95,55.39,24.94,55.68v.19c-7.73,25.16-21.26,42.85-40.08,52.4-13.65,6.94-28.09,8.58-40.07,8.18-8.88-.23-17.69-1.64-26.2-4.21h-.01Zm81-111.49c-23.26-22.05-53.43-23.33-55.53-23.4-1.66,.9-24.01,12.74-35.74,45.73h0c-18.17,51.1,9.07,86.23,10.73,88.4,2.28,.75,35.79,11.15,65.45-4,18.53-9.46,31.86-26.87,39.58-51.74,0-1.73-1.23-32.75-24.48-54.99h0Z"/>
    <path class="cls-4" d="M146.7,499c2.4,.08,4.89,.06,7.39-.05,23.33-.87,54.81-10.2,72.23-50.1,.69-1.47,.06-3.21-1.41-3.9-.06-.03-.13-.06-.19-.08-1.52-.67-3.3,.03-3.96,1.55,0,.02,0,.03-.02,.05-12.96,29.6-35.34,45.26-66.74,46.44-14.68,.38-29.31-1.99-43.12-6.97-7.35-14.4-12.25-29.93-14.51-45.94-4.89-35.36,5.39-65.14,30.51-88.29,1.23-1.15,1.29-3.08,.14-4.31s-3.08-1.29-4.31-.14c-33.23,30.76-35.89,67.98-32.32,93.8,2.44,17.09,7.77,33.65,15.76,48.95,.32,.6,.85,1.06,1.49,1.3,12.54,4.59,25.72,7.19,39.07,7.7h-.01Z"/>
    <path class="cls-1" d="M112.62,429.6c-1.18,15.69,9.34,37.04,16.56,36.32s-6.02-24.08-2.62-37.2c3.71-13.88-12.75-15-13.94,.89h0Z"/>
    <path class="cls-4" d="M123.78,463.72c-6.23-6.05-12.53-21.61-11.54-34.14h0c.47-5.64,2.92-9.98,6.61-11.48,2.15-.98,4.68-.64,6.49,.88,2.24,1.99,2.89,5.56,1.79,9.84-1.65,6.37,.74,15.37,2.62,22.62,1.71,6.48,3.07,11.61,1.56,13.86-.43,.66-1.16,1.07-1.95,1.09l-.57-.02c-1.63-.05-3.33-.97-5-2.66h0Zm-2.26-45.24c-.85,0-1.69,.14-2.51,.4-3.3,1.33-5.64,5.38-6.01,10.64h0c-.87,11.96,5.24,27.51,11.28,33.46,1.76,1.78,3.46,2.61,4.91,2.46,.5-.06,.96-.33,1.27-.73,1.31-1.88-.06-7-1.68-13.1-1.87-7.25-4.35-16.45-2.6-23.01,.99-4,.43-7.18-1.53-8.97-.9-.7-1.99-1.11-3.13-1.16h0Z"/>
    <path class="cls-1" d="M112.15,402.82c-1.9,3.17-.87,7.28,2.29,9.19l.66,.41c3.19,1.93,7.35,.91,9.28-2.29,1.93-3.19,.91-7.35-2.29-9.28h0l-.66-.41c-3.23-1.86-7.35-.8-9.29,2.38h.01Z"/>
    <path class="cls-4" d="M114.8,412.79l-.66-.41c-1.58-1.02-2.73-2.6-3.21-4.42-.53-1.84-.25-3.82,.75-5.44h0c1.02-1.58,2.6-2.73,4.42-3.21,1.84-.53,3.82-.25,5.44,.75l.66,.41c1.58,1.02,2.73,2.6,3.21,4.42,.53,1.84,.25,3.82-.75,5.44-1.36,2.23-3.83,3.55-6.44,3.43-1.2-.04-2.38-.38-3.42-.98h0Zm3.43-12.73c-.63-.03-1.26,.05-1.87,.23-1.61,.39-2.99,1.42-3.83,2.85h0c-.83,1.45-1.06,3.16-.64,4.77,.39,1.61,1.42,2.99,2.85,3.83l.66,.41c1.45,.87,3.2,1.11,4.83,.67,3.33-.9,5.31-4.33,4.41-7.66-.39-1.61-1.42-2.99-2.85-3.83l-.66-.41c-.89-.53-1.91-.83-2.94-.86h.04Z"/>
    <path class="cls-1" d="M209.53,423.56c-1.51-.94-3.49-.47-4.42,1.03-.14,.23-.25,.47-.33,.73-1.82,5.7-12.73,22.79-3.95,27.01,6.8,3.29,10.76-3.39,12.25-10.82,2.81-6.62,2.93-14.48-3.54-17.95h-.01Z"/>
    <path class="cls-4" d="M200.58,452.81c-7.36-3.6-2-15.03,1.51-22.59,.93-2.08,1.75-3.78,2.18-5.01,.34-1.01,1.1-1.83,2.09-2.23,1.09-.46,2.33-.39,3.35,.21,6.88,3.68,6.42,12.01,3.71,18.54-1.15,5.72-3.48,9.76-6.51,11.3-.93,.47-1.96,.7-3,.67-1.16-.07-2.29-.37-3.33-.88h0Zm7.29-29.22c-.44-.06-.88,.1-1.17,.44-.72,.31-1.27,.92-1.49,1.68-.42,1.23-1.25,3.03-2.18,5.11-3.3,7.18-8.46,18.14-1.94,21.32,1.72,.92,3.78,.99,5.56,.18,2.73-1.45,4.97-5.3,6.01-10.74v-.1c2.61-6.24,3.05-14.09-3.36-17.47h0c-.43-.27-.92-.42-1.42-.43h0Z"/>
    <path class="cls-1" d="M95.54,494.35c-10.22,1.58-26.65-3.37-37.86-15.34-8.16-8.71-8.8-21.2-1.25-23.25,0,0,8.7,30.11,39.74,25.47l-.62,13.12h0Z"/>
    <path class="cls-4" d="M55.41,480.86c-5.84-6.23-8.63-14.67-6.79-21.03,.87-3.49,3.57-6.23,7.04-7.15,1.62-.41,3.28,.53,3.77,2.14,.35,1.16,8.4,27.51,36.35,23.34,.89-.14,1.8,.14,2.47,.75,.67,.63,1.02,1.52,.98,2.43l-.62,13.12c-.07,1.46-1.15,2.66-2.59,2.89-1.85,.25-3.71,.35-5.57,.3-10.73-.35-24.75-5.61-35.03-16.78h-.01Zm37.57,3.81c-23.65,1.72-34.38-16.18-37.95-24.26-.23,.38-.4,.8-.52,1.23-.98,3.61,.54,9.99,5.45,15.24,9.73,10.39,23.48,15.06,32.7,14.69l.32-6.89h0Z"/>
    <path class="cls-1" d="M119.55,478.64c5.42,5.9,5.03,15.07-.87,20.49-5.9,5.42-15.07,5.03-20.49-.87s-5.03-15.07,.86-20.49c5.84-5.42,14.98-5.08,20.4,.76,.03,.03,.06,.07,.09,.1h.01Z"/>
    <path class="cls-4" d="M108.01,505.98c-4.66-.16-9.06-2.21-12.19-5.67-3.12-3.44-4.77-7.97-4.57-12.62,.16-4.66,2.21-9.06,5.67-12.19,3.39-3.08,7.85-4.72,12.43-4.58h.19c4.66,.16,9.06,2.21,12.19,5.68h0c3.12,3.44,4.77,7.97,4.57,12.62-.16,4.66-2.21,9.06-5.67,12.19-3.39,3.08-7.85,4.72-12.43,4.58h-.19Zm-7.01-26.05c-2.27,2.02-3.62,4.89-3.71,7.93-.16,3.04,.92,6.02,2.99,8.25,2.02,2.27,4.89,3.62,7.93,3.71h.1c3,.11,5.93-.97,8.15-2.99,2.27-2.02,3.62-4.89,3.71-7.93,.16-3.04-.92-6.02-2.99-8.25h0c-2.02-2.27-4.89-3.62-7.93-3.71h-.1c-3-.09-5.92,.98-8.15,2.99Z"/>
    <path class="cls-1" d="M113.33,484.19c2.31,2.51,2.14,6.42-.37,8.72-2.51,2.31-6.42,2.14-8.72-.37-2.31-2.51-2.14-6.42,.37-8.72h0c2.53-2.24,6.39-2.07,8.72,.38h0Z"/>
    <path class="cls-4" d="M101.95,494.75c-.11-.11-.21-.23-.32-.34-3.36-3.83-2.98-9.66,.85-13.01,3.83-3.36,9.66-2.98,13.01,.85h0c1.67,1.78,2.56,4.16,2.46,6.6-.19,5.05-4.44,9-9.49,8.81-2.46-.1-4.8-1.14-6.52-2.9h0Zm4.79-8.68c-.62,.56-.99,1.34-1.03,2.17-.05,.82,.24,1.63,.79,2.23,.02,.03,.05,.05,.07,.08,1.15,1.24,3.09,1.32,4.33,.16,1.24-1.19,1.3-3.14,.14-4.41h0c-.56-.62-1.34-.99-2.17-1.03h0c-.79-.03-1.56,.26-2.14,.79h0Z"/>
    <path class="cls-4" d="M144.74,541.23c8.74,.27,17.47-.77,25.9-3.09,1.63-.45,2.59-2.14,2.14-3.77s-2.14-2.59-3.77-2.14c-40.55,11.24-73.1-14.19-73.38-14.39-1.34-1.05-3.28-.81-4.33,.53h0c-1.04,1.29-.84,3.18,.44,4.23,1.12,.9,22.54,17.62,53,18.61v.02Z"/>
    <path class="cls-4" d="M193.45,527c.58,0,1.14-.14,1.64-.43,13.99-8.46,25-28.34,25.51-29.19,.76-1.51,.15-3.36-1.37-4.12-1.43-.72-3.18-.21-4,1.16-.1,.19-10.7,19.31-23.32,26.86-1.42,.84-1.9,2.67-1.06,4.1,.02,.03,.04,.06,.06,.09,.54,.9,1.49,1.47,2.54,1.52h0Z"/>
    <path class="cls-1" d="M240.24,577.35s-4.7-6-15.09-4.81c-10.4,1.19-64.61,7.86-64.61,7.86-4.33-.12-7.95,3.27-8.11,7.6l-2.34,71.66c-.12,4.33,3.27,7.95,7.6,8.11l72.03-8.77c2.2,.07,9.36-7.56,9.36-7.56l1.18-74.1h-.02Z"/>
    <path class="cls-4" d="M157.36,670.83c-5.96-.32-10.53-5.4-10.21-11.36l2.34-71.66c.16-5.92,5.03-10.63,10.95-10.58l64.42-7.77c12.04-1.43,17.65,5.66,17.93,5.96,.39,.57,.6,1.25,.61,1.94l-1.28,74.19c-.03,.77-.33,1.51-.84,2.08-7.46,8-10.25,8.49-11.41,8.55l-71.83,8.68-.48-.02h-.2Zm71.96-14.82c1.07-.44,4.03-2.94,6.65-5.73l1.19-71.7c-1.49-1.3-5.15-3.72-11.7-2.97-10.4,1.29-64.61,7.86-64.61,7.86l-.48-.02c-2.65-.09-4.86,1.99-4.95,4.63l-2.34,71.66c-.09,2.57,1.87,4.75,4.44,4.94l71.79-8.68h0Z"/>
    <path class="cls-1" d="M240.94,646.9c-.15,3.85-3.37,6.87-7.22,6.77l-64.03,7.78c-3.85-.15-6.87-3.37-6.77-7.22l2.08-63.71c.15-3.85,3.37-6.87,7.22-6.77l64.03-7.78c3.85,.15,6.87,3.37,6.77,7.22l-2.08,63.71Z"/>
    <path class="cls-4" d="M159.85,654.03l2.08-63.71c.15-5.46,4.64-9.79,10.1-9.74l63.84-7.69,.48,.02c5.56,.18,9.91,4.83,9.73,10.39l-2.08,63.71c-.15,5.46-4.64,9.79-10.1,9.74l-63.74,7.7-.48-.02c-5.56-.21-9.93-4.83-9.83-10.39h0Zm12.85-67.3l-.48-.02c-2.17-.06-3.98,1.63-4.06,3.8l-2.08,63.71c-.08,2.1,1.51,3.89,3.61,4.05l63.74-7.7,.48,.02c2.17,.06,3.98-1.63,4.06-3.8l2.08-63.71c.08-2.1-1.51-3.89-3.61-4.05l-63.74,7.7Z"/>
    <line class="cls-6" x1="153.94" y1="664.77" x2="164.59" y2="658.89"/>
    <path class="cls-4" d="M153.84,667.84c.55,.05,1.1-.1,1.55-.43l10.65-5.89c1.45-.89,1.9-2.78,1.01-4.23-.84-1.36-2.57-1.86-4-1.14l-10.65,5.89c-1.47,.84-2,2.7-1.19,4.18,.56,.94,1.54,1.55,2.63,1.62h0Z"/>
    <line class="cls-6" x1="154.71" y1="582.61" x2="165.97" y2="587.19"/>
    <path class="cls-4" d="M165.87,590.26c1.28,.03,2.45-.73,2.94-1.92,.64-1.56-.11-3.34-1.66-3.98,0,0-.02,0-.03-.01l-11.26-4.59c-1.53-.72-3.36-.06-4.08,1.48-.72,1.53-.06,3.36,1.48,4.08,.1,.05,.2,.09,.31,.12l11.26,4.59c.34,.11,.69,.19,1.05,.23h0Z"/>
  </g>
  <g>
    <path class="cls-1" d="M506.59,521.18s51.71,7.6,50.3,66.64c-1.4,59.04,5.63,87.37-57.91,95.07-38.01,4.6-74.14-73.2-59.79-121.25,9.58-32.09,67.39-40.44,67.39-40.44h.01Z"/>
    <path class="cls-4" d="M495.71,686.07c-11.63,0-23.36-6.66-34.16-19.43-10.79-12.76-19.62-30.96-24.49-50.02-5.16-20.27-5.45-40.07-.75-55.74,10.04-33.59,67.39-42.23,69.83-42.61h.84c9.75,1.89,18.98,5.89,27.03,11.73,12.2,8.91,26.56,26.18,25.91,57.91-.09,6.01-.19,11.63-.28,17.18-.46,47.49-.65,73.57-60.25,80.8-1.22,.1-2.44,.19-3.66,.19h-.02Zm10.79-161.8c-5.35,.84-56.03,9.77-64.47,38.29-9.77,32.66,4.88,77.52,24.12,100.23,7.32,8.73,18.96,18.77,32.47,17.18,54.43-6.57,54.62-27.97,54.99-74.89,.09-5.45,.09-11.17,.28-17.27,.56-23.36-7.32-41.11-23.18-52.84-7.19-5.29-15.45-8.95-24.22-10.69h.01Z"/>
    <path class="cls-1" d="M373.33,687.39c-5.82-46.08-17.83-158.41,10.98-170.99,16.43-7.22,97.98-7.04,97.98-7.04,5.63,3.95,11.46,7.61,17.45,10.98,33.22,19.06,12.38,117.78,4.6,171.74-7.51,61-6.85,137.49-6.85,137.49l-34.53,4.32s1.13-16.52-8.08-43.07c-9.85-28.53-15.58-66.26-16.99-82.96-4.51,18.21-18.39,87-18.39,87l-29.75,52.46c.06-.09-10.61-113.84-16.43-159.92h.01Z"/>
    <path class="cls-4" d="M389.8,850.21c-.22,0-.44-.02-.65-.09-1.29-.24-2.25-1.33-2.34-2.63-.09-1.13-10.69-114.22-16.43-159.73h0c-13.32-106.05-9.01-164.61,12.76-174.09,16.8-7.41,95.82-7.22,99.2-7.22,.64,0,1.26,.2,1.78,.56,.09,0,5.45,4.03,17.18,10.79,30.88,17.74,18.49,95.82,9.48,152.78-1.22,7.89-2.44,15.3-3.38,21.96-7.41,60.06-6.85,136.27-6.85,137.02,0,1.51-1.13,2.81-2.63,3l-34.53,4.32c-.88,.09-1.76-.19-2.44-.75-.65-.6-.99-1.46-.94-2.34,0-.19,.94-16.33-7.89-41.95-7.22-20.92-12.38-47.12-15.11-66.26-5.82,26.74-14.36,69.45-14.55,70.01-.09,.3-.21,.59-.38,.84l-29.75,52.46c-.59,.83-1.52,1.31-2.53,1.31h0Zm90.38-337.85c-28.62,0-82.4,1.4-94.7,6.76-18.21,7.98-21.59,69.17-9.2,167.89,4.78,37.83,12.86,122.19,15.58,150.53l24.87-43.82c1.22-6.1,13.99-69.35,18.3-86.72,.36-1.39,1.66-2.33,3.09-2.25,1.46,.1,2.62,1.26,2.72,2.72,1.4,16.99,7.22,54.24,16.8,82.21,6.95,19.98,8.08,34.35,8.26,40.73l28.53-3.57c0-14.07,.19-81.09,6.85-135.14,.94-6.76,2.15-14.26,3.38-22.15,8.26-52.18,20.74-131.01-6.57-146.68-9.58-5.53-15.01-9.2-16.99-10.61-.29,.09-.6,.11-.91,.09h-.02Z"/>
    <path class="cls-1" d="M388.8,848.14l-10.69-53.3s3.94,4.88,21.4,4.88c10.69,0,24.3-4.78,24.3-4.78-1.04,8.29-.17,16.69,2.53,24.59,4.51,13.61,15.39,26.84,15.39,26.84l-61.84,52.09c-18.77-10.23-21.59-34.63,8.91-50.3v-.02Z"/>
    <path class="cls-4" d="M380.18,901.36c-.5,0-.98-.12-1.4-.38-10.04-5.35-15.95-14.36-15.86-24.22,.09-6.76,3.09-19.52,22.61-30.21l-10.23-51.15c-.32-1.41,.39-2.85,1.69-3.47,1.23-.59,2.71-.19,3.47,.94,.46,.46,4.88,3.84,19.14,3.84,10.04,0,23.18-4.6,23.36-4.69,.99-.4,2.13-.18,2.91,.56,.83,.67,1.23,1.76,1.03,2.82-.93,7.78-.09,15.68,2.44,23.09,4.32,12.95,14.83,25.81,14.92,25.91,1.02,1.28,.85,3.14-.38,4.22l-61.84,52.09c-.55,.4-1.2,.63-1.88,.65h.01Zm2.12-100.98l9.39,47.12c.27,1.33-.39,2.67-1.59,3.28-13.51,6.95-21.3,16.43-21.3,26.09-.09,6.95,4.03,13.61,10.98,17.93l58-48.89c-3.38-4.51-10.61-14.83-14.17-25.53-2.28-6.86-3.33-14.07-3.09-21.3-5.07,1.5-13.61,3.57-20.92,3.57-8.13,0-13.57-1.03-17.27-2.25h-.02Z"/>
    <path class="cls-1" d="M383.56,902.58c1.4-1.22,2.44,.09,3.84-1.13s.38-2.44,1.78-3.66,2.44,.09,3.84-1.13c1.4-1.22,.38-2.44,1.78-3.66s2.44,.09,3.84-1.13c1.4-1.22,.38-2.44,1.78-3.66s2.44,.09,3.84-1.13c1.4-1.22,.38-2.44,1.78-3.66s2.44,.09,3.84-1.13c1.4-1.22,.38-2.44,1.78-3.66s2.44,.09,3.84-1.13,.38-2.44,1.78-3.66,2.44,.09,3.84-1.13c1.4-1.22,.38-2.44,1.78-3.66s2.44,.09,3.84-1.13c1.4-1.22,.38-2.44,1.78-3.66s2.44,.09,3.84-1.13c1.4-1.22,.38-2.44,1.78-3.66s2.44,.09,3.84-1.13c1.4-1.22,.38-2.44,1.69-3.66s2.44,.09,3.84-1.13,.38-2.44,1.78-3.66l-3.47-4.13-61.84,52.18,3.47,4.6,.08-.02Z"/>
    <path class="cls-4" d="M383.56,905.49c-.86,0-1.69-.38-2.25-1.03l-3.47-4.13c-1.06-1.26-.91-3.14,.35-4.21,0,0,.01-.01,.02-.02l61.84-52.18c.61-.5,1.38-.73,2.15-.65,.78,.11,1.5,.48,2.07,1.03l3.47,4.13c1.03,1.18,.95,2.96-.19,4.03v.09c-.08,1.44-.76,2.76-1.88,3.66-1.03,.92-2.39,1.36-3.76,1.22-.32,2.82-2.81,4.88-5.63,4.69-.15,1.36-.83,2.6-1.88,3.47-1.03,.92-2.39,1.36-3.76,1.22-.15,1.36-.83,2.6-1.88,3.47-1.03,.92-2.39,1.36-3.76,1.22-.15,1.36-.83,2.6-1.88,3.47-1.03,.92-2.39,1.36-3.76,1.22-.32,2.82-2.81,4.88-5.63,4.69-.15,1.36-.83,2.6-1.88,3.47-1.03,.92-2.39,1.36-3.76,1.22-.32,2.82-2.81,4.88-5.63,4.69-.15,1.36-.83,2.6-1.88,3.47-1.03,.92-2.39,1.36-3.76,1.22-.15,1.36-.83,2.6-1.88,3.47-1.03,.91-2.39,1.35-3.76,1.22-.11,1.37-.8,2.63-1.88,3.47-1.08,.95-2.52,1.39-3.94,1.22h-.09c-.29,.72-1.01,1.17-1.78,1.13l.03,.07Zm.75-6.66l.19,.28h.84c.09-.38,.19-.94,.38-1.5l-1.4,1.22h0Zm7.04-6l-1.88,1.59c.5-.08,.99-.1,1.5-.09,.09-.51,.22-1.01,.38-1.5h0Zm5.63-4.78l-1.88,1.59c.5-.08,.99-.1,1.5-.09,.09-.38,.19-.94,.38-1.5h0Zm5.63-4.69l-1.88,1.59c.5-.08,.99-.1,1.5-.09,.09-.51,.22-1.01,.38-1.5h0Zm5.63-4.78l-1.88,1.59c.5-.08,.99-.1,1.5-.09,.09-.38,.19-.94,.38-1.5h0Zm5.63-4.69l-1.88,1.59c.5-.08,.99-.1,1.5-.09,.09-.51,.22-1.01,.38-1.5h0Zm5.63-4.78l-1.88,1.59c.5-.08,.99-.1,1.5-.09,.09-.38,.19-.94,.38-1.5h0Zm5.63-4.69l-1.88,1.59c.5-.08,.99-.1,1.5-.09,.09-.51,.22-1.01,.38-1.5h0Zm5.63-4.78l-1.88,1.59c.5-.08,.99-.1,1.5-.09,.09-.38,.19-.94,.38-1.5h0Zm5.63-4.69l-1.88,1.59c.5-.08,.99-.1,1.5-.09,0-.52,.13-1.04,.38-1.5h0Zm5.16-4.41l-1.5,1.22c.5-.08,.99-.1,1.5-.09,.02-.29,.08-.57,.19-.84l-.19-.28h0Z"/>
    <path class="cls-1" d="M463.7,848.14l-10.69-53.3s3.94,4.88,21.4,4.88c10.69,0,24.3-4.78,24.3-4.78-1.04,8.29-.17,16.69,2.53,24.59,4.51,13.61,15.39,26.84,15.39,26.84l-61.84,52.09c-18.77-10.23-21.59-34.63,8.91-50.3v-.02Z"/>
    <path class="cls-4" d="M455.07,901.36c-.5,0-.98-.12-1.4-.38-10.04-5.35-15.95-14.36-15.86-24.22,.09-6.76,3.09-19.52,22.61-30.21l-10.23-51.15c-.32-1.41,.39-2.85,1.69-3.47,1.23-.59,2.71-.19,3.47,.94,.46,.46,4.88,3.84,19.14,3.84,10.04,0,23.18-4.6,23.36-4.69,.99-.4,2.13-.18,2.91,.56,.83,.67,1.23,1.76,1.03,2.82-.93,7.78-.09,15.68,2.44,23.09,4.32,12.95,14.83,25.81,14.92,25.91,1.02,1.28,.85,3.14-.38,4.22l-61.84,52.09c-.55,.4-1.2,.63-1.88,.65h.01Zm2.15-100.98l9.39,47.12c.27,1.33-.39,2.67-1.59,3.28-13.51,6.95-21.21,16.43-21.3,26.09-.09,6.95,4.03,13.61,10.98,17.93l58-48.89c-3.38-4.51-10.61-14.83-14.17-25.53-2.28-6.86-3.33-14.07-3.09-21.3-5.07,1.5-13.61,3.57-20.92,3.57-8.16,0-13.61-1.03-17.27-2.25h-.02Z"/>
    <path class="cls-1" d="M458.45,902.58c1.4-1.22,2.44,.09,3.84-1.13s.38-2.44,1.78-3.66,2.44,.09,3.84-1.13,.38-2.44,1.78-3.66,2.44,.09,3.84-1.13c1.4-1.22,.38-2.44,1.78-3.66s2.44,.09,3.84-1.13c1.4-1.22,.38-2.44,1.78-3.66s2.44,.09,3.84-1.13c1.4-1.22,.38-2.44,1.78-3.66s2.44,.09,3.84-1.13,.38-2.44,1.78-3.66,2.44,.09,3.84-1.13,.38-2.44,1.78-3.66,2.44,.09,3.84-1.13,.38-2.44,1.78-3.66,2.44,.09,3.84-1.13,.38-2.44,1.78-3.66,2.44,.09,3.84-1.13,.38-2.44,1.78-3.66,2.44,.09,3.84-1.13c1.4-1.22,.38-2.44,1.78-3.66l-3.47-4.13-61.84,52.18,3.38,4.6,.08-.02Z"/>
    <path class="cls-4" d="M458.45,905.49c-.86,0-1.69-.38-2.25-1.03l-3.47-4.13c-.5-.61-.73-1.38-.65-2.15,.11-.78,.48-1.5,1.03-2.07l61.84-52.18c1.26-1.06,3.14-.91,4.21,.35,0,0,.01,.01,.02,.02l3.47,4.13c.5,.61,.73,1.38,.65,2.15-.07,.71-.36,1.36-.84,1.88v.09c-.08,1.44-.76,2.76-1.88,3.66-1.03,.92-2.39,1.36-3.76,1.22-.15,1.36-.83,2.6-1.88,3.47-1.03,.91-2.39,1.35-3.76,1.22-.15,1.36-.83,2.6-1.88,3.47-1.03,.92-2.39,1.36-3.76,1.22-.32,2.82-2.81,4.88-5.63,4.69-.32,2.82-2.81,4.88-5.63,4.69-.15,1.36-.83,2.6-1.88,3.47-1.03,.92-2.39,1.36-3.76,1.22-.32,2.82-2.81,4.88-5.63,4.69-.15,1.36-.83,2.6-1.88,3.47-1.03,.91-2.39,1.35-3.76,1.22-.32,2.82-2.81,4.88-5.63,4.69-.15,1.36-.83,2.6-1.88,3.47-1.03,.92-2.39,1.36-3.76,1.22-.15,1.36-.83,2.6-1.88,3.47-1.08,.95-2.52,1.39-3.94,1.22h-.13c-.29,.71-.98,1.16-1.75,1.13l.03,.04Zm.75-6.66l.19,.28h.94c.09-.38,.19-.94,.38-1.5l-1.5,1.22h0Zm7.04-6l-1.88,1.59c.5-.08,.99-.1,1.5-.09,.09-.51,.22-1.01,.38-1.5h0Zm5.63-4.78l-1.88,1.59c.5-.08,.99-.1,1.5-.09,.09-.38,.19-.94,.38-1.5h0Zm5.63-4.69l-1.88,1.59c.5-.08,.99-.1,1.5-.09,.09-.51,.22-1.01,.38-1.5h0Zm5.63-4.78l-1.88,1.59c.5-.08,.99-.1,1.5-.09,.09-.38,.19-.94,.38-1.5h0Zm5.63-4.69l-1.88,1.59c.5-.08,.99-.1,1.5-.09,.09-.51,.22-1.01,.38-1.5h0Zm5.63-4.78l-1.88,1.59c.5-.08,.99-.1,1.5-.09,.09-.38,.19-.94,.38-1.5h0Zm5.63-4.69l-1.88,1.59c.5-.08,.99-.1,1.5-.09,.09-.51,.22-1.01,.38-1.5h0Zm5.63-4.78l-1.88,1.59c.5-.08,.99-.1,1.5-.09,.09-.38,.19-.94,.38-1.5h0Zm5.63-4.69l-1.88,1.59c.5-.08,.99-.1,1.5-.09,0-.52,.13-1.04,.38-1.5h0Zm5.16-4.41l-1.5,1.22c.5-.08,.99-.1,1.5-.09,.02-.29,.08-.57,.19-.84l-.19-.28h0Z"/>
    <path class="cls-1" d="M503.36,610.15c-9.48-42.61-16.33-72.82-16.33-72.82,17.37-17.83,40.54-7.22,47.2,11.63,6.66,18.87,13.7,53.59,13.7,58.1,.09,22.05-2.15,56.41-10.23,62.59l-35.76-1.78c-2.21-10.13,2.85-51.34,1.4-57.72h.01Z"/>
    <path class="cls-4" d="M537.74,672.65h-.19l-35.76-1.78c-1.33-.09-2.44-1.05-2.72-2.34-1.31-6.01-.28-20.74,.65-35.01,.65-9.48,1.31-20.17,.75-22.71h0c-9.39-42.13-16.33-72.55-16.33-72.82-.18-.97,.1-1.98,.75-2.72,7.98-8.26,18.02-11.63,28.06-9.39,10.88,2.34,20.08,10.88,24.12,22.15,6.66,18.68,13.89,54.05,13.89,59.04,0,13.13-.65,56.68-11.44,65.03-.53,.34-1.15,.53-1.78,.56h0Zm-33.13-7.71l32,1.59c4.97-5.72,8.45-30.21,8.35-59.6,0-4.03-6.95-38.39-13.51-57.06-3.28-9.2-11.07-16.43-19.81-18.3-7.51-1.59-15.01,.75-21.4,6.66,1.59,6.85,7.89,34.63,15.95,71.23h0c.65,3.09,.19,11.26-.65,24.3-.65,11.07-1.59,24.59-.94,31.15h0v.02Z"/>
    <polygon class="cls-1" points="537.74 669.65 534.75 684.66 498.99 682.88 501.99 667.77 537.74 669.65"/>
    <path class="cls-4" d="M534.75,687.58h-.19l-35.76-1.69c-.87-.04-1.69-.45-2.25-1.13-.56-.68-.76-1.58-.56-2.44l3-15.11c.3-1.46,1.6-2.5,3.09-2.44l35.76,1.78c.85,.02,1.66,.44,2.15,1.13,.56,.68,.76,1.58,.56,2.44l-3,15.01c-.17,1.43-1.39,2.47-2.82,2.44h.01Zm-32.19-7.5l29.75,1.4,1.78-9.1-29.78-1.5-1.75,9.2Z"/>
    <path class="cls-1" d="M531.64,684.01s-.28,5.16-.28,19.24-5.26,24.12-19.43,26.84c-14.17,2.72-19.9-2.25-16.7-15.3,1.22-4.78,5.53-11.26,5.53-11.26,0,0-6.66,9.01-11.44,5.35-6.66-4.97,11.36-18.68,15.95-26.18l26.37,1.31h0Z"/>
    <path class="cls-4" d="M505.09,733.75c-4.78,0-8.35-1.22-10.69-3.76-3.19-3.38-3.94-8.73-2.15-15.86,.09-.46,.28-.94,.38-1.4-1.87,.2-3.74-.3-5.26-1.4-1.52-1.06-2.49-2.75-2.63-4.6-.46-5.16,5.07-11.07,10.88-17.37,2.72-3,5.63-6.01,6.95-8.16,.56-.95,1.62-1.5,2.72-1.4l26.56,1.31c.78,.03,1.52,.36,2.07,.94,.56,.57,.84,1.36,.75,2.15,0,.09-.28,5.26-.28,19.06-.09,16.99-7.41,27.03-21.86,29.75-2.44,.45-4.93,.71-7.41,.75h-.01Zm-4.41-33.23c.61,0,1.2,.2,1.69,.56,1.34,.94,1.68,2.78,.75,4.13-1.13,1.69-4.22,6.76-5.07,10.23-.84,3.47-1.4,8.16,.75,10.32,1.88,1.97,6.29,2.44,12.57,1.22,11.54-2.15,16.99-9.77,16.99-23.93,0-8.26,.19-13.51,.19-16.33l-21.86-1.03c-2.07,2.7-4.3,5.26-6.66,7.7-3.57,3.84-9.58,10.23-9.29,12.76,0,.09,0,.19,.28,.38,1.69,1.22,5.63-2.53,7.32-4.78,.54-.75,1.41-1.2,2.34-1.22h0Z"/>
    <path class="cls-4" d="M497.57,731.69c-.73,0-1.43-.28-1.97-.75-1.22-1.1-1.31-2.98-.21-4.2l.02-.02c6.01-6.57,12.2-23.09,12.3-23.28,.6-1.52,2.3-2.31,3.84-1.78,1.55,.59,2.33,2.3,1.78,3.84-.28,.75-6.66,17.74-13.51,25.15-.56,.66-1.39,1.04-2.25,1.03h0Z"/>
    <path class="cls-4" d="M506.59,733.65c-.92,.03-1.79-.39-2.34-1.13-.99-1.25-.78-3.06,.45-4.05,.03-.03,.07-.06,.11-.08,.19-.19,6.85-5.82,9.77-23.09,.22-1.65,1.73-2.79,3.38-2.57s2.79,1.73,2.57,3.38c0,.08-.02,.15-.04,.23-3.38,19.98-11.63,26.56-12.01,26.74-.56,.34-1.22,.54-1.88,.56h-.01Z"/>
    <path class="cls-4" d="M516.82,731.59c-.64-.01-1.26-.21-1.78-.56-1.3-.97-1.6-2.81-.65-4.13,.09-.19,6.76-9.58,6.39-21.4-.08-1.63,1.19-3.03,2.83-3.09h.08c1.66-.04,3.04,1.26,3.09,2.91,.46,13.99-7.22,24.68-7.51,25.15-.61,.72-1.5,1.13-2.44,1.13h0Z"/>
    <path class="cls-1" d="M546.84,484.76s-10.61,24.3-22.34,32.38c-11.73,8.08,9.85,12.57,7.6,18.96-3.28,9.39-44.49,21.3-73.95,14.26-59.12-14.07-77.7-33.69-77.7-33.69,0-23.28,21.21-25.53,21.21-25.53,0,0-.84-10.61,4.32-15.39l140.86,9.01h0Z"/>
    <path class="cls-4" d="M477.97,555.43c-6.85,.07-13.69-.65-20.36-2.15-59.31-14.17-78.37-33.69-79.21-34.53-.54-.55-.85-1.29-.84-2.07,0-20.36,14.92-26.37,21.21-27.97,.09-3.94,.84-10.98,5.35-15.11,.61-.57,1.43-.84,2.25-.75l140.77,9.01c.96,.07,1.83,.59,2.34,1.4,.48,.83,.55,1.83,.19,2.72-.46,1.03-11.07,25.24-23.36,33.59-1.69,1.22-2.15,1.97-2.15,2.25,0,1.03,3,3.28,4.6,4.51,3.57,2.63,7.98,6.01,6.29,10.69-3.38,9.58-31.15,18.39-57.06,18.39h-.01Zm-94.41-40.06c4.22,3.76,24.78,19.98,75.36,32.09,29.19,6.95,68.04-5.63,70.38-12.38-.19-.75-2.82-2.82-4.22-3.84-3.38-2.53-7.14-5.35-7.04-9.48,.09-2.63,1.59-4.88,4.78-7.04,8.16-5.53,15.95-20.17,19.43-27.22l-135.05-8.64c-2.53,3.38-2.72,9.85-2.53,12.01,.11,1.59-1.04,2.99-2.63,3.19-.75,.09-17.74,2.25-18.49,21.3h0Z"/>
    <path class="cls-1" d="M413.96,382.48c-27.83,36.95-20.44,89.48,16.52,117.31,36.95,27.83,89.48,20.44,117.31-16.52,27.83-36.95,20.44-89.48-16.52-117.31-36.91-27.84-89.39-20.49-117.23,16.42-.02,.03-.06,.07-.08,.11h0Z"/>
    <path class="cls-4" d="M480.78,519.58c-18.8,.06-37.11-6.09-52.09-17.45-38.22-28.88-45.86-83.24-17.08-121.53h0c28.83-38.29,83.24-45.94,121.53-17.11s45.94,83.24,17.11,121.53c-16.43,21.82-42.17,34.62-69.47,34.58h0Zm.19-167.53c-3.83,0-7.66,.29-11.44,.84-21.23,2.94-40.41,14.23-53.3,31.34h0c-26.94,35.69-19.85,86.48,15.84,113.42,35.69,26.94,86.48,19.85,113.42-15.84,26.94-35.69,19.85-86.48-15.84-113.42-14.02-10.58-31.1-16.33-48.67-16.35h0Z"/>
    <path class="cls-4" d="M512.97,393.55c16.89,52.74-13.51,86.72-13.51,86.72,0,0-79.21,24.22-101.73-58.28,0,0,1.5-31.53,25.99-53.4,24.49-21.86,55.47-21.21,55.47-21.21,0,0,22.8,11.82,33.78,46.18h0Z"/>
    <path class="cls-4" d="M473.83,483.92c-11.73,0-25.81-2.07-38.95-9.29-18.12-9.95-30.78-27.68-37.54-52.55v-.19c0-.28,1.78-31.9,26.18-53.68,24.4-21.77,55.47-21.4,55.74-21.4h.09l.09,.09c.19,.09,23.09,12.3,33.97,46.45h0c16.7,52.46-13.32,86.81-13.61,87.18l-.09,.09h-.13c-8.41,2.24-17.07,3.35-25.77,3.28h.02Zm-75.64-61.93c6.76,24.59,19.24,42.05,37.07,51.9,28.53,15.76,61.65,6.66,63.91,6.01,1.69-2.07,29.47-35.57,13.32-86.16h0c-10.42-32.66-31.9-44.95-33.51-45.89-2.07,0-31.63,.28-55.09,21.11-23.46,21.02-25.66,51.34-25.72,53.03h.01Z"/>
    <path class="cls-4" d="M471.39,496.41c-2.34,0-4.78-.09-7.22-.28-22.8-1.59-53.3-11.73-69.08-51.34-.63-1.46,.04-3.15,1.5-3.78,.07-.02,.12-.06,.19-.08,1.51-.61,3.23,.13,3.83,1.65,0,.01,.01,.03,.02,.04,11.73,29.37,33.13,45.43,63.82,47.58,14.35,.84,28.74-1.01,42.42-5.45,7.64-13.85,12.95-28.89,15.68-44.49,5.91-34.44-3.19-63.91-27.03-87.37-1.17-1.17-1.17-3.06,0-4.22,1.17-1.17,3.06-1.17,4.22,0,31.53,31.15,32.94,67.66,28.62,92.82-2.93,16.65-8.67,32.68-16.99,47.39-.33,.57-.87,1.01-1.5,1.22-12.42,4.1-25.4,6.22-38.48,6.29h0Z"/>
    <path class="cls-1" d="M506.96,429.58c.65,15.39-10.32,35.95-17.37,35.01-7.04-.94,6.66-23.36,3.76-36.32-3.19-13.7,12.95-14.26,13.61,1.31Z"/>
    <path class="cls-4" d="M489.97,465.05h-.56c-.77-.04-1.48-.46-1.88-1.13-1.4-2.25,.09-7.22,1.97-13.51,2.07-7.04,4.69-15.76,3.28-22.05-.94-4.22-.19-7.7,2.07-9.58,1.82-1.44,4.31-1.69,6.39-.65,3.57,1.59,5.82,5.91,6.1,11.44h0c.56,12.3-6.1,27.31-12.38,33.03-1.69,1.59-3.38,2.44-4.97,2.44h0Zm8.64-46.64c-1.12,.01-2.2,.38-3.09,1.03-1.97,1.69-2.63,4.78-1.78,8.73,1.5,6.47-1.22,15.39-3.28,22.43-1.78,5.91-3.28,10.88-2.07,12.76,.29,.4,.73,.67,1.22,.75,1.4,.19,3.09-.56,4.88-2.25,6.1-5.63,12.57-20.65,12.11-32.38h0c-.19-5.16-2.34-9.2-5.53-10.61-.78-.28-1.61-.43-2.44-.46h-.01Z"/>
    <path class="cls-1" d="M508.28,403.4c1.76,3.16,.62,7.15-2.53,8.91l-.65,.38c-3.19,1.79-7.22,.65-9.01-2.53-1.79-3.19-.65-7.22,2.53-9.01h0l.65-.38c3.21-1.72,7.22-.55,9.01,2.63h0Z"/>
    <path class="cls-4" d="M501.99,413.92c-2.56,.03-4.94-1.34-6.2-3.57-.93-1.62-1.14-3.57-.56-5.35,.53-1.77,1.7-3.27,3.28-4.22l.65-.38c1.62-.93,3.57-1.14,5.35-.56,1.77,.53,3.27,1.7,4.22,3.28h0c.93,1.62,1.14,3.57,.56,5.35-.53,1.77-1.7,3.27-3.28,4.22l-.65,.38c-1.04,.55-2.2,.84-3.38,.84h.01Zm.46-13.41c-1.02,0-2.02,.27-2.91,.75l-.65,.38c-1.43,.77-2.47,2.1-2.91,3.66-.98,3.24,.84,6.65,4.08,7.63,1.59,.49,3.3,.3,4.75-.51l.65-.38c1.43-.77,2.47-2.1,2.91-3.66,.46-1.57,.3-3.25-.46-4.69h0c-.77-1.43-2.1-2.47-3.66-2.91-.59-.2-1.2-.29-1.82-.28h.02Z"/>
    <path class="cls-1" d="M412.32,420.58c1.5-.87,3.42-.35,4.3,1.15,.13,.23,.23,.48,.31,.73,1.59,5.63,11.73,22.71,3,26.56-6.76,3-10.42-3.66-11.63-10.98-2.53-6.57-2.4-14.26,4.03-17.45h-.01Z"/>
    <path class="cls-4" d="M416.88,450.23c-1.02,0-2.02-.27-2.91-.75-2.91-1.59-5.07-5.63-6.01-11.26-2.44-6.47-2.63-14.64,4.22-18.02,1.02-.54,2.23-.59,3.28-.09,.95,.43,1.67,1.25,1.97,2.25,.38,1.22,1.13,2.91,1.97,4.97,3.19,7.51,8.08,18.87,.75,22.15-1.04,.46-2.15,.72-3.28,.75h.01Zm-2.91-29.57c-.5,0-.98,.12-1.4,.38h0c-6.39,3.09-6.2,10.79-3.84,16.99v.09c.84,5.35,2.91,9.2,5.53,10.69,1.71,.85,3.72,.85,5.45,0,6.47-2.91,1.78-13.8-1.22-20.92-.84-2.07-1.59-3.84-1.97-5.07-.19-.75-.71-1.37-1.4-1.69-.27-.34-.7-.52-1.13-.46h-.02Z"/>
    <path class="cls-1" d="M521.6,493.5c9.95,1.88,26.18-2.44,37.54-13.8,8.26-8.26,9.29-20.46,1.97-22.71,0,0-9.48,29.19-39.7,23.65l.19,12.86h.01Z"/>
    <path class="cls-4" d="M526.48,496.87c-1.82,0-3.65-.17-5.45-.46-1.4-.27-2.42-1.48-2.44-2.91l-.19-12.86c-.02-.89,.36-1.76,1.03-2.34,.67-.59,1.57-.82,2.44-.65,27.22,4.97,35.95-20.55,36.32-21.67,.52-1.56,2.18-2.42,3.76-1.97,3.37,1.02,5.92,3.79,6.66,7.22,1.59,6.29-1.4,14.45-7.32,20.36-10.42,10.61-24.3,15.3-34.82,15.3v-.02Zm-1.96-6.01c9.01,.65,22.61-3.47,32.47-13.32,4.97-4.97,6.66-11.17,5.82-14.74-.1-.43-.25-.84-.46-1.22-3.76,7.79-14.83,24.97-37.91,22.52l.09,6.76h0Z"/>
    <path class="cls-1" d="M498.61,477.35c-5.49,5.6-5.4,14.59,.19,20.08,5.6,5.49,14.59,5.4,20.08-.19,5.49-5.6,5.4-14.58-.19-20.07-5.55-5.49-14.49-5.46-19.98,.09l-.1,.1h0Z"/>
    <path class="cls-4" d="M508.84,504.47c-4.49,0-8.79-1.76-12.01-4.88-3.29-3.17-5.16-7.53-5.16-12.11-.03-4.55,1.71-8.94,4.88-12.2h0c3.17-3.29,7.53-5.16,12.11-5.16h.19c4.49,0,8.79,1.76,12.01,4.88,3.29,3.17,5.16,7.53,5.16,12.11,.03,4.55-1.71,8.94-4.88,12.2-3.17,3.29-7.53,5.16-12.11,5.16h-.19Zm0-28.44h-.09c-2.98,0-5.83,1.22-7.89,3.38h0c-2.1,2.12-3.25,4.99-3.19,7.98,0,2.98,1.22,5.83,3.38,7.89,2.11,2.05,4.94,3.2,7.89,3.19h.09c2.98,0,5.83-1.22,7.89-3.38,2.1-2.12,3.25-4.99,3.19-7.98,0-2.98-1.22-5.83-3.38-7.89-2.12-2.04-4.94-3.18-7.89-3.19Z"/>
    <path class="cls-1" d="M504.52,482.98c-2.33,2.39-2.3,6.21,.09,8.55,2.39,2.33,6.21,2.3,8.55-.09,2.33-2.39,2.3-6.21-.09-8.55h0c-2.41-2.28-6.19-2.23-8.54,.09h-.01Z"/>
    <path class="cls-4" d="M508.84,496.31c-4.95,.02-8.98-3.97-9-8.93-.01-2.39,.93-4.68,2.62-6.37h0c3.41-3.63,9.12-3.82,12.76-.42,3.63,3.41,3.82,9.12,.42,12.76-.1,.11-.21,.22-.32,.32-1.75,1.67-4.07,2.61-6.47,2.63h0Zm0-12.1h0c-.82,.01-1.59,.35-2.15,.94h0c-1.17,1.2-1.17,3.12,0,4.32,1.18,1.17,3.08,1.16,4.24-.02,.02-.02,.04-.04,.07-.08,.56-.57,.86-1.36,.84-2.15-.01-.82-.35-1.59-.94-2.15-.55-.54-1.29-.85-2.07-.84h.01Z"/>
    <path class="cls-4" d="M471.96,537.79c-8.56-.02-17.07-1.31-25.24-3.84-1.58-.5-2.46-2.18-1.97-3.76s2.18-2.46,3.76-1.97c39.33,12.3,71.98-11.54,72.26-11.73,1.35-.98,3.24-.7,4.22,.65h0c.97,1.3,.72,3.14-.56,4.13-1.13,.84-22.61,16.52-52.46,16.52Z"/>
    <path class="cls-4" d="M424.75,522.31c-.56-.01-1.12-.18-1.59-.46-13.42-8.73-23.55-28.53-24.03-29.37-.7-1.5-.03-3.29,1.47-3.99,1.43-.66,3.12-.11,3.88,1.26,.09,.19,9.85,19.24,21.96,27.03,1.37,.86,1.77,2.67,.91,4.04-.02,.03-.03,.06-.06,.09-.56,.86-1.51,1.39-2.53,1.4h-.01Z"/>
    <path class="cls-1" d="M377.36,570.08s4.78-5.72,14.92-4.22c10.13,1.5,62.97,9.77,62.97,9.77,4.24,.02,7.68,3.46,7.7,7.7v70.19c-.02,4.24-3.46,7.68-7.7,7.7l-70.19-10.88c-2.15,0-8.91-7.7-8.91-7.7l1.22-72.55h0Z"/>
    <path class="cls-4" d="M455.25,664.2h-.46l-70.01-10.79c-1.13-.09-3.84-.65-10.88-8.73-.48-.59-.75-1.31-.75-2.07l1.13-72.63c.03-.67,.27-1.33,.65-1.88,.28-.28,6.01-7.04,17.74-5.26l62.78,9.67c5.8,.14,10.42,4.89,10.38,10.69v70.19c.12,5.84-4.52,10.67-10.36,10.79h-.22Zm-69.73-16.79h0l69.97,10.79c2.52-.1,4.51-2.18,4.51-4.69v-70.19c0-2.6-2.1-4.69-4.69-4.69h-.46s-52.84-8.16-62.97-9.77c-6.39-.94-10.04,1.31-11.54,2.53l-1.13,70.19c2.47,2.82,5.29,5.35,6.33,5.82h-.01Z"/>
    <path class="cls-1" d="M374.45,638.12c.02,3.78,3.07,6.83,6.85,6.85l62.4,9.67c3.78-.02,6.83-3.07,6.85-6.85v-62.4c-.02-3.78-3.07-6.83-6.85-6.85l-62.4-9.67c-3.78,.02-6.83,3.07-6.85,6.85v62.4Z"/>
    <path class="cls-4" d="M443.62,657.54h-.46l-62.13-9.58c-5.35-.12-9.6-4.51-9.58-9.85v-62.4c0-5.45,4.41-9.85,9.85-9.85h.46l62.22,9.58c5.35,.12,9.6,4.51,9.58,9.85v62.4c-.08,5.45-4.5,9.83-9.95,9.85h.01Zm-62.59-85.68c-2.05,.09-3.67,1.79-3.66,3.84v62.4c0,2.12,1.72,3.83,3.84,3.84h.46l62.13,9.58c2.05-.09,3.67-1.79,3.66-3.84v-62.4c0-2.12-1.72-3.83-3.84-3.84h-.46l-62.13-9.58Z"/>
    <line class="cls-6" x1="459.01" y1="658.39" x2="448.78" y2="652.29"/>
    <path class="cls-4" d="M459.01,661.39c-.54,.03-1.07-.13-1.5-.46l-10.23-6.1c-1.39-.92-1.77-2.78-.85-4.18,.86-1.3,2.57-1.73,3.95-.98l10.23,6.1c1.41,.86,1.87,2.71,1.03,4.13-.57,.91-1.56,1.47-2.63,1.5h0Z"/>
    <line class="cls-6" x1="460.89" y1="577.96" x2="449.72" y2="582.09"/>
    <path class="cls-4" d="M449.72,585.09c-1.26,0-2.38-.8-2.82-1.97-.57-1.55,.21-3.26,1.76-3.83h.02l11.17-4.13c1.52-.65,3.29,.06,3.94,1.58s-.06,3.29-1.58,3.94c-.1,.04-.2,.08-.31,.11l-11.17,4.13c-.33,.1-.68,.17-1.03,.19v-.02Z"/>
  </g>
  <g>
    <path class="cls-2" d="M65.25,185.25s-1.94,.38-4.57,1.81c-1.23,.68-2.53,1.63-3.9,2.87-1.08,1.24-.94,3.13,.3,4.22s3.13,.94,4.22-.3c.75-1.12,1.5-2.05,2.27-2.74,1.56-1.42,2.8-2.05,2.8-2.05,1.05-.31,1.66-1.4,1.35-2.46-.31-1.05-1.4-1.66-2.46-1.35Z"/>
    <path class="cls-2" d="M78.84,193.3c-1.07,.22-1.76,1.27-1.54,2.35h0s.01,1.39-.51,3.43c-.25,1-.71,2.08-1.36,3.28-.59,1.54,.17,3.27,1.71,3.87,1.54,.59,3.27-.17,3.87-1.71,.46-1.79,.7-3.38,.72-4.79,.03-2.99-.54-4.89-.54-4.89-.22-1.07-1.27-1.76-2.35-1.54Z"/>
  </g>
  <path class="cls-3" d="M64.45,164.01c-11.36,3.01-26.28-11.53-29.71-26.76-3.44-15.29,3.85-35.06,15.67-37.09,11.03-1.89,22.78,12.21,26.43,24.75,4.41,15.18-.72,36.01-12.4,39.11h0Z"/>
  <path class="cls-3" d="M100.72,182.15c-2.19-10.9,22.92-25.37,40.99-30.66,9.25-2.71,20.54-6.02,28.22-.04,9.66,7.53,9.8,26.82,2,37.04-15.93,20.85-68.29,8.18-71.21-6.34h0Z"/>
  <path class="cls-1" d="M71.73,148.95c1.99-6.51,1.7-13.59,.05-20.14-.42-1.7-.95-3.36-1.56-5-.44-1.18-.96-2.15-2.08-2.82-.97-.58-2.37-.84-3.47-.52s-2.24,1.01-2.82,2.08c-.54,1-.94,2.35-.52,3.47,1.24,3.34,2.13,6.8,2.55,10.34l-.14-1.17c.31,2.78,.32,5.59-.08,8.37l.17-1.18c-.2,1.39-.51,2.75-.93,4.08-.7,2.3,.81,5.1,3.18,5.66s4.9-.73,5.66-3.18h-.02Z"/>
  <path class="cls-1" d="M61.11,160.46l.09-.02c.6-.13,1.12-.38,1.58-.78,.53-.32,.95-.76,1.25-1.31,.34-.53,.53-1.1,.57-1.72,.13-.58,.12-1.16-.05-1.76l-.42-1.09c-.4-.73-.96-1.3-1.65-1.73l-1.13-.48c-.78-.21-1.55-.23-2.34-.03l-.09,.02c-.6,.13-1.12,.38-1.58,.78-.53,.32-.95,.76-1.25,1.31-.34,.53-.53,1.1-.57,1.72-.13,.58-.12,1.16,.05,1.76l.42,1.09c.4,.73,.96,1.3,1.65,1.73l1.13,.48c.78,.21,1.55,.23,2.34,.03h0Z"/>
  <path class="cls-1" d="M163.59,175.06c-.08,.2-.17,.39-.25,.58l.48-1.13c-.98,2.27-2.04,4.54-3.6,6.49l.77-.96c-.71,.86-1.5,1.62-2.39,2.28l.96-.7c-1.93,1.39-4.11,2.46-6.33,3.33l1.09-.42c-2.72,1.05-5.56,1.77-8.47,2.12l1.17-.14c-2.12,.24-4.25,.29-6.37,.13-1.11-.08-2.43,.51-3.22,1.26s-1.46,2.11-1.43,3.27c.08,2.6,1.96,4.45,4.53,4.65,4.55,.33,9.24-.21,13.59-1.55,2.34-.72,4.65-1.64,6.82-2.78,2.36-1.24,4.65-2.74,6.36-4.81,1.13-1.36,2.11-2.77,2.92-4.34s1.48-3.19,2.18-4.81c.42-.97,.09-2.55-.39-3.43-.55-1-1.66-1.95-2.79-2.22s-2.41-.22-3.43,.39l-.96,.7c-.61,.59-1.03,1.28-1.26,2.09h.02Z"/>
  <path class="cls-1" d="M129.99,191.76l.11-.18c.34-.53,.53-1.1,.57-1.72,.13-.58,.12-1.16-.05-1.76-.13-.6-.38-1.12-.78-1.58-.32-.53-.76-.95-1.31-1.25l-1.13-.48c-.78-.21-1.55-.23-2.34-.03l-1.09,.42c-.73,.4-1.3,.96-1.73,1.65l-.11,.18c-.34,.53-.53,1.1-.57,1.72-.13,.58-.12,1.16,.05,1.76,.13,.6,.38,1.12,.78,1.58,.32,.53,.76,.95,1.31,1.25l1.13,.48c.78,.21,1.55,.23,2.34,.03l1.09-.42c.73-.4,1.3-.96,1.73-1.65h0Z"/>
  <g>
    <path class="cls-10" d="M53.39,68.86c-2.31,1.25-4.66,2.52-6.58,4.31-1.04,.97-1.97,2.15-2.22,3.55s.4,3.02,1.71,3.53c.29,.11,.63,.17,.93,.08,.26-.06,.47-.23,.69-.4,.99-.79,1.83-1.8,2.44-2.92,1.36-2.51,1.57-5.63,3.44-7.81"/>
    <path class="cls-4" d="M53.12,68.35c-1.99,1.07-3.99,2.16-5.76,3.6-1.61,1.3-3.3,3.07-3.38,5.26-.05,1.67,1.08,3.73,2.96,3.74,.94,0,1.74-.82,2.34-1.45,.81-.85,1.47-1.84,1.95-2.91,1.03-2.28,1.35-4.98,2.97-6.95,.47-.56-.32-1.4-.79-.83-1.21,1.46-1.8,3.23-2.38,5.02-.61,1.87-1.33,3.66-2.77,5.07-.65,.63-1.27,1.23-2.14,.6-.64-.46-.96-1.27-.99-2.03-.08-1.94,1.56-3.51,2.95-4.63,1.71-1.39,3.68-2.44,5.61-3.48,.65-.36,.1-1.36-.56-1h0Z"/>
  </g>
  <g>
    <path class="cls-10" d="M181.18,119.61l-4.86,5.69c-.64,.75-1.29,1.52-1.67,2.43s-.44,2,.05,2.84c.15,.26,.38,.5,.66,.62,.7,.29,1.47-.24,1.99-.78,2.65-2.8,3.4-6.89,3.63-10.74"/>
    <path class="cls-4" d="M180.79,119.19l-4.48,5.26c-1.22,1.43-2.68,3.02-2.51,5.04,.07,.79,.41,1.68,1.12,2.1s1.5,.26,2.13-.17c1.57-1.05,2.59-3.04,3.24-4.76,.84-2.23,1.14-4.63,1.29-6.98,.04-.73-1.1-.75-1.15-.02-.14,2.24-.43,4.48-1.21,6.59-.35,.97-.83,1.9-1.43,2.75-.38,.54-1.29,1.89-2.12,1.68-.94-.23-.78-1.85-.57-2.5,.33-1.01,1.09-1.85,1.77-2.65,1.57-1.84,3.14-3.68,4.71-5.52,.47-.55-.31-1.39-.79-.83h0v.02Z"/>
  </g>
  <g>
    <path class="cls-10" d="M170.01,68.6c-.76,1.26-1.68,2.43-2.36,3.74s-1.07,2.85-.69,4.27c.08,.29,.2,.6,.43,.81s.56,.34,.84,.22c.2-.07,.35-.23,.47-.4,.46-.55,.87-1.14,1.2-1.76,.2-.36,.37-.73,.48-1.13,.09-.34,.1-.68,.12-1.02,.1-1.82,.08-3.65-.04-5.46"/>
    <path class="cls-4" d="M169.51,68.31c-1.5,2.5-3.88,5.13-3.14,8.3,.14,.62,.45,1.25,1.05,1.52,.68,.31,1.28,.01,1.74-.53,1.02-1.22,1.83-2.56,1.92-4.17,.11-1.85,.09-3.71-.03-5.55-.05-.73-1.19-.76-1.15-.02,.11,1.69,.13,3.39,.06,5.1-.04,.81-.13,1.5-.53,2.23-.2,.37-.43,.71-.66,1.06-.12,.18-.52,.86-.78,.86-.57,0-.6-1.4-.6-1.77,.01-.69,.19-1.37,.44-2.01,.62-1.61,1.78-2.98,2.67-4.44,.38-.63-.6-1.23-.98-.59h0Z"/>
  </g>
  <g>
    <path class="cls-10" d="M111.46,33.84c-1.79-.35-3.64-.27-5.39,.24-1.04,.3-1.7,.72-2.09,.99-.53,.37-1.9,1.31-2.24,2.91-.09,.43-.23,1.09,.13,1.54,.61,.78,2.21,.39,2.43,.34,1.78-.43,2.27-1.71,4.28-3.36,.69-.57,1.76-1.34,3.26-2.05l-.38-.6v.02Z"/>
    <path class="cls-4" d="M111.62,33.28c-2.05-.39-4.23-.32-6.2,.4-1.59,.58-3.22,1.72-3.93,3.29-.35,.77-.61,1.83-.21,2.63s1.3,.97,2.08,.94c1.45-.05,2.61-.71,3.62-1.73,.73-.75,1.45-1.49,2.27-2.14,.89-.7,1.87-1.27,2.89-1.76,.27-.12,.39-.52,.22-.78l-.38-.6c-.4-.63-1.4-.07-1,.56l.38,.6,.22-.78c-1.52,.72-2.92,1.66-4.14,2.81-.92,.86-1.76,2.1-3.02,2.49-.48,.15-1.01,.24-1.51,.17-.78-.11-.72-.75-.57-1.36,.35-1.44,1.7-2.48,3-3.07,1.82-.84,4.05-.94,5.99-.57,.72,.14,1.03-.96,.3-1.11h0Z"/>
  </g>
  <g>
    <path class="cls-10" d="M136.67,83.11c-.83,1.21-2.02,2.12-3.2,3s-2.37,1.79-3.22,2.99-1.32,2.77-.86,4.16c.06,.18,.14,.35,.28,.48,.42,.35,1.04-.03,1.43-.42,1.39-1.42,2.5-3.12,3.21-4.98,.24-.64,.45-1.3,.74-1.93,.57-1.23,1.49-2.32,1.86-3.62"/>
    <path class="cls-4" d="M136.18,82.81c-2.23,3.13-6.95,4.43-7.49,8.69-.1,.77-.06,1.77,.41,2.43s1.28,.59,1.89,.2c.75-.47,1.32-1.28,1.85-1.98,.64-.85,1.18-1.77,1.63-2.75,.5-1.08,.79-2.25,1.36-3.29s1.26-2.04,1.62-3.19c.22-.71-.89-1.01-1.11-.3-.35,1.13-1.06,2.07-1.61,3.09s-.8,2.08-1.25,3.1-1.06,2.02-1.76,2.91c-.34,.44-.7,.89-1.13,1.25-.11,.09-.32,.3-.47,.29-.19,0-.2-.24-.26-.41-.5-2,.93-3.81,2.34-5.04,1.68-1.46,3.63-2.58,4.94-4.43,.43-.61-.56-1.19-.98-.59h0v.02Z"/>
  </g>
  <path class="cls-4" d="M43,93.63c-3.17,2.5-6.16,5.32-8.68,8.48s-3.99,6.65-4.81,10.49c-.47,2.17-.74,4.38-.95,6.58-.06,.62,.54,1.15,1.13,1.16,.66,.01,1.11-.51,1.16-1.13,.35-3.62,.89-7.25,2.26-10.64s3.93-6.35,6.57-8.96c1.55-1.53,3.18-2.96,4.89-4.31,.49-.38,.44-1.2,.05-1.62-.46-.48-1.14-.43-1.62-.05h0Z"/>
  <path class="cls-4" d="M77.8,156.4c-1.72,6.64-7.63,11-13.93,12.95-1.8,.55-3.64,.95-5.5,1.24-.61,.1-.98,.83-.84,1.39,.16,.65,.78,.93,1.39,.84,7.12-1.09,14.21-4.07,18.47-10.14,1.2-1.71,2.1-3.64,2.62-5.66,.37-1.43-1.84-2.05-2.21-.62h0Z"/>
  <path class="cls-4" d="M100.52,167.48c-1.51,1.54-2.7,3.34-3.75,5.22-.97,1.72-1.9,3.52-2.42,5.44s-.54,3.93-.26,5.93c.25,1.85,.84,3.62,2.03,5.09,.39,.48,1.2,.45,1.62,.05,.48-.46,.43-1.15,.05-1.62-.96-1.19-1.31-2.76-1.49-4.25-.2-1.68-.12-3.33,.38-4.95s1.33-3.19,2.18-4.67c.93-1.63,1.93-3.21,3.26-4.55,1.03-1.05-.54-2.71-1.58-1.66h0v-.02Z"/>
  <path class="cls-4" d="M153.46,143.33c9.02-1.64,18.4,1.94,24.04,9.17,1.43,1.84,2.55,3.94,3.03,6.23,.3,1.45,2.52,.89,2.23-.55-.99-4.78-4.41-8.84-8.16-11.8-3.94-3.11-8.73-5.01-13.7-5.58-2.66-.3-5.35-.18-7.98,.3-.61,.11-.98,.81-.84,1.39,.16,.64,.78,.95,1.39,.84h-.02Z"/>
  <path class="cls-5" d="M275.57,335.2l-.32-.87-.82-.44c-30.12-16.07-48.65-39.79-48.65-65.78,0-23.41,15.01-44.97,40.04-60.79,24.99-15.81,59.67-25.66,98.09-25.66s73.11,9.86,98.1,25.67c25.02,15.83,40.03,37.39,40.03,60.8s-15.01,44.97-40.04,60.79c-24.99,15.81-59.67,25.66-98.09,25.66-18.85,0-36.81-2.39-53.16-6.68l-4.88-1.28,2.02,4.62c7.2,16.51,16.88,25.6,35.61,39.21-12.25-3.49-24.68-9.12-35.68-16.63-14.57-9.94-26.48-23.06-32.26-38.64Z"/>
  <g>
    <rect class="cls-9" x="306.79" y="232.59" width="112.06" height="67.24"/>
    <g>
      <g>
        <g>
          <polygon class="cls-1" points="362.95 263.21 306.8 299.83 306.8 299.83 306.8 299.84 306.81 299.84 321.13 299.84 362.95 272.57 362.95 263.21"/>
          <polygon class="cls-7" points="362.95 263.2 306.79 299.82 306.79 299.82 306.79 299.83 306.79 299.83 306.8 299.84 306.8 299.84 317.02 299.84 350.64 277.92 350.64 277.92 362.95 269.89 362.95 263.2"/>
        </g>
        <polygon class="cls-1" points="362.95 253.85 306.79 290.47 306.79 299.82 306.79 299.82 306.79 299.83 306.79 299.83 306.79 299.83 306.8 299.83 362.95 263.21 362.95 253.85"/>
      </g>
      <g>
        <g>
          <polygon class="cls-1" points="362.95 269.21 306.81 232.61 306.8 232.6 306.8 232.6 306.81 232.61 306.79 232.61 306.79 241.96 362.95 278.58 362.95 269.21"/>
          <polygon class="cls-7" points="362.95 269.2 306.82 232.61 306.8 232.59 306.8 232.59 306.79 232.59 306.8 232.6 306.8 232.6 306.81 232.61 306.79 232.61 306.79 239.28 362.95 275.89 362.95 269.2"/>
        </g>
        <polygon class="cls-1" points="362.95 259.85 321.17 232.61 306.82 232.61 306.8 232.59 306.8 232.6 306.8 232.6 306.81 232.61 362.95 269.21 362.95 259.85"/>
      </g>
    </g>
    <g>
      <g>
        <g>
          <polygon class="cls-1" points="362.69 269.21 418.84 232.59 418.84 232.59 418.83 232.58 418.83 232.57 404.51 232.57 362.69 259.84 362.69 269.21"/>
          <polygon class="cls-7" points="362.69 269.21 418.85 232.59 418.85 232.59 418.85 232.59 418.85 232.58 418.84 232.58 418.84 232.57 408.62 232.57 375 254.5 375 254.5 362.69 262.52 362.69 269.21"/>
        </g>
        <polygon class="cls-1" points="362.69 278.57 418.85 241.95 418.85 232.59 418.85 232.59 418.85 232.59 418.85 232.58 418.85 232.58 418.84 232.59 362.69 269.2 362.69 278.57"/>
      </g>
      <g>
        <g>
          <polygon class="cls-1" points="362.69 263.2 418.82 299.81 418.84 299.82 418.84 299.82 418.83 299.81 418.85 299.81 418.85 290.46 362.69 253.84 362.69 263.2"/>
          <polygon class="cls-7" points="362.69 263.21 418.81 299.81 418.84 299.82 418.84 299.83 418.85 299.82 418.84 299.82 418.84 299.82 418.83 299.81 418.85 299.81 418.85 293.14 362.69 256.52 362.69 263.21"/>
        </g>
        <polygon class="cls-1" points="362.69 272.57 404.47 299.81 418.81 299.81 418.84 299.82 418.84 299.82 418.84 299.82 418.83 299.81 362.69 263.2 362.69 272.57"/>
      </g>
    </g>
    <g>
      <rect class="cls-1" x="306.79" y="255" width="112.06" height="22.41"/>
      <rect class="cls-1" x="351.61" y="232.59" width="22.41" height="67.24"/>
      <rect class="cls-7" x="306.79" y="258.36" width="112.06" height="15.69"/>
      <rect class="cls-7" x="354.97" y="232.59" width="15.69" height="67.24"/>
    </g>
  </g>
  <g>
    <path class="cls-2" d="M30.5,235.46c.64-.66,.64-1.72-.03-2.37-.66-.64-1.72-.64-2.37,.03h0c-7.54,7.23-14.55,13.41-21.03,18.96-2.56,2.19-5.03,4.26-7.44,6.26v7.67c3.51-3.11,7.15-6.44,10.94-10.06,6.23-5.96,12.81-12.71,19.93-20.49Z"/>
    <path class="cls-2" d="M174.69,21.5C125.84-7.92,62.25,7.85,32.82,56.71c-.31,.52-33.15,55.21-14.63,107.52,6.33,17.89,6.15,30.46,7.86,40.62,.81,4.79,1.98,9.1,4.24,13.18-4.42,3.81-15.68,13.27-30.67,24.11v8.26c16.57-11.74,29.3-22.35,34.56-26.85,2.99,3.42,7.07,6.76,12.74,10.17,5.65,3.4,10.49,5.5,14.91,6.62-2.43,10.76-9.48,44.65-10.77,80.39-.45,12.5-3.66,40.87-14.21,58.85-5.7,9.73-13.66,16.29-24.89,14.3,1.59-2.38,3.08-4.69,4.48-6.96,6.29,.09,10.65-2.2,13.61-5.32,5.05-5.32,5.97-12.82,5.97-12.82,.14-.83-.42-1.61-1.25-1.76-.83-.14-1.61,.42-1.76,1.25,0,0-1.41,6.13-6.05,10.05-1.78,1.5-4.09,2.58-7.05,2.77,4.05-7.08,7.24-13.7,9.83-20.11,5.27-13.03,8.14-25.25,10.82-38.92,1.04-5.32,2.06-10.87,3.15-16.77,1.54-8.38,3.28-17.48,5.59-27.74,1.88-8.33,4.06-17.41,6.93-27.46,.28-.87-.2-1.82-1.08-2.11s-1.82,.2-2.11,1.08h0c-3.55,9.93-6.45,18.91-8.79,27.19-2.89,10.22-5.01,19.35-6.83,27.77-1.27,5.88-2.35,11.4-3.45,16.71-2.73,13.21-5.48,25.04-10.61,37.66-4.99,12.28-12.23,25.29-23.75,41.03v11.55c2.98-3.85,5.72-7.55,8.25-11.11,15.84,4.4,27.07-3.68,34.79-16.86,11.11-18.96,14.64-48.83,15.12-62,1.3-35.81,8.46-69.72,10.72-79.65,4.7,.21,9.09-.64,13.74-2.09,9.85-3.07,20.93-9.12,39.67-12.67,59.13-11.19,86.74-60.91,88.03-63.3,29.37-48.86,13.59-112.37-35.26-141.79Zm29.46,138.39c-.03,.06-.06,.1-.1,.16,0,0-26.06,49.09-83.39,59.94-15.39,2.92-25.75,7.45-34.45,10.75-11.88,4.52-20.36,6.54-35.82-2.78-15.46-9.31-17.1-17.93-18.56-30.56-1.07-9.31-2.05-20.6-7.3-35.43h0c-17.54-49.53,13.76-101.31,14.05-101.8C66.1,14.49,125.53-.27,171.22,27.25c45.69,27.52,60.45,86.95,32.93,132.64Z"/>
  </g>
</svg>