<svg width="188" height="80" viewBox="0 0 188 80" fill="none" xmlns="http://www.w3.org/2000/svg">
<path d="M97.2021 25.4053V28.3841H77.5469C78.3038 27.7004 78.6822 26.6749 78.6822 24.7216V4.37048C78.6822 2.42937 78.3038 1.40388 77.5469 0.708008H96.7871V3.72345C96.1034 3.00316 95.2244 2.66132 93.2467 2.66132H86.8251V12.2814H91.2689C92.4968 12.3991 93.7264 12.0744 94.7361 11.3658V15.1015C93.7264 14.393 92.4968 14.0683 91.2689 14.1859H86.8251V26.4674H93.6373C95.5662 26.4674 96.4819 26.1256 97.1655 25.4053H97.2021Z" fill="white"/>
<path d="M113.073 28.3841L112.768 25.1123C112.117 26.2467 111.164 27.1782 110.015 27.8032C108.866 28.4282 107.566 28.7223 106.261 28.6527C102.146 28.6527 98.8379 25.4908 98.8379 18.6053C98.8379 11.7199 102.72 8.53355 106.566 8.53355C107.82 8.51492 109.057 8.83225 110.147 9.45264C111.238 10.073 112.143 10.9739 112.768 12.0617V4.17521C112.886 2.96249 112.561 1.74782 111.852 0.756914C113.671 0.64704 118.127 0.341831 120.825 0V24.9536C120.727 26.1756 121.069 27.3922 121.789 28.3841H113.073ZM112.768 22.7561V14.4545C112.589 13.9094 112.243 13.4349 111.778 13.0992C111.312 12.7636 110.753 12.5841 110.179 12.5867C108.385 12.5867 107.481 13.8808 107.445 18.6908C107.408 23.5009 108.385 24.7949 110.179 24.7949C110.772 24.7881 111.345 24.5874 111.813 24.2237C112.28 23.8599 112.615 23.353 112.768 22.7806V22.7561Z" fill="white"/>
<path d="M137.147 28.3842L136.952 25.1124C136.37 26.2458 135.469 27.1846 134.361 27.8135C133.253 28.4425 131.985 28.7341 130.714 28.6528C126.416 28.6528 124.609 26.2111 124.609 21.6575V12.3181C124.681 11.8225 124.635 11.3171 124.476 10.8422C124.317 10.3674 124.049 9.93636 123.694 9.5835C126.465 9.46142 129.7 9.1196 132.667 8.8266V21.9016C132.667 23.4277 133.045 24.6851 134.608 24.6851C135.03 24.6716 135.438 24.5349 135.783 24.2919C136.128 24.049 136.394 23.7103 136.549 23.3178V12.3304C136.62 11.8347 136.575 11.3293 136.416 10.8545C136.257 10.3796 135.989 9.94857 135.634 9.59572C138.417 9.47363 141.652 9.1318 144.619 8.8388V24.9537C144.504 26.1758 144.824 27.3993 145.522 28.4086L137.147 28.3842Z" fill="white"/>
<path d="M93.7102 34.3539L92.8312 36.6369C91.4351 35.5466 89.7191 34.946 87.9479 34.9277C85.7016 34.9277 84.6761 35.5015 84.6761 36.8322C84.6761 39.3715 94.6868 40.397 94.6868 46.4157C94.6868 50.9815 90.6825 53.0691 84.2976 53.0691C81.7169 53.2155 79.1434 52.6763 76.8384 51.5065L77.6808 49.2602C79.2897 50.4115 81.2205 51.0267 83.1989 51.0182C85.6405 51.0182 86.7271 50.3345 86.7271 48.8817C86.7271 45.5 76.9605 46.0372 76.8384 39.4936C76.8384 35.8311 79.6951 32.9133 87.0323 32.9133C89.3412 32.8545 91.6308 33.3484 93.7102 34.3539Z" fill="white"/>
<path d="M118.127 43.034C118.127 48.4789 114.062 53.118 107.14 53.118C99.8148 53.118 96.1523 48.8207 96.1523 43.034C96.1523 37.6013 100.267 32.9622 107.14 32.9622C114.367 32.9134 118.127 37.2107 118.127 43.034ZM104.698 43.034C104.698 50.0781 105.345 51.5798 107.14 51.5798C108.934 51.5798 109.581 50.1026 109.581 43.034C109.581 35.9654 108.971 34.5615 107.14 34.5615C105.309 34.5615 104.698 35.9532 104.698 43.034Z" fill="white"/>
<path d="M153.616 52.8006H163.541C162.833 51.7956 162.508 50.5698 162.626 49.3457V40.7999C162.626 36.1974 161.075 32.889 155.972 32.889C154.779 32.8395 153.594 33.1184 152.548 33.6953C151.502 34.2722 150.634 35.1249 150.039 36.1608V33.1697C147.829 33.4505 144.716 33.9755 142.592 34.2929C139.805 34.6635 136.989 34.782 134.181 34.6469C132.542 33.6307 130.62 33.1685 128.699 33.3284C123.572 33.3284 120.153 36.4049 120.153 40.1773C120.158 41.305 120.464 42.411 121.039 43.381C121.614 44.351 122.438 45.15 123.425 45.6954C122.594 46.1764 121.912 46.8781 121.455 47.7228C120.999 48.5675 120.785 49.5221 120.837 50.481C120.82 51.1125 120.929 51.7411 121.158 52.33C121.386 52.919 121.729 53.4566 122.168 53.9115C121.557 54.1216 121.026 54.5141 120.646 55.036C120.266 55.5579 120.056 56.1839 120.043 56.8293C120.043 59.271 124.219 60.4918 129.053 60.4918C134.803 60.4918 139.247 58.2821 139.247 54.3877C139.247 50.9571 136.39 48.8695 129.09 48.7597L125.427 48.6864C124.292 48.6864 123.938 48.1859 123.938 47.6487C123.968 47.377 124.073 47.1191 124.241 46.9036C124.409 46.688 124.634 46.5234 124.89 46.4279C126.144 46.8333 127.455 47.0352 128.772 47.0261C133.985 47.0261 137.404 43.9496 137.404 40.2261C137.46 38.5989 136.872 37.015 135.768 35.8189L142.311 36.1363C142.396 36.5377 142.437 36.947 142.433 37.3572V49.3823C142.551 50.6064 142.226 51.8322 141.518 52.8372H151.406C150.698 51.8322 150.373 50.6064 150.491 49.3823V37.931C150.727 37.5826 151.055 37.3061 151.439 37.1317C151.822 36.9573 152.246 36.8917 152.664 36.9421C154.227 36.9421 154.605 38.1629 154.605 39.6767V49.3457C154.702 50.5788 154.351 51.8055 153.616 52.8006ZM124.023 54.7417L131.348 55.0835C133.79 55.1934 134.73 55.6573 134.73 56.5363C134.73 57.4153 133.448 58.978 129.029 58.978C126.868 58.978 123.779 58.1356 123.779 56.2799C123.749 55.7556 123.833 55.231 124.023 54.7417ZM128.699 45.6099C127.332 45.6099 126.795 44.6211 126.843 40.1773C126.892 35.7335 127.332 34.6958 128.699 34.6958C130.066 34.6958 130.604 35.648 130.604 40.1773C130.604 44.7065 130.152 45.6099 128.699 45.6099Z" fill="white"/>
<path d="M187.433 43.034C187.433 48.4789 183.356 53.118 176.446 53.118C169.121 53.118 165.458 48.8207 165.458 43.034C165.458 37.6013 169.56 32.9622 176.446 32.9622C183.661 32.9134 187.433 37.2107 187.433 43.034ZM174.004 43.034C174.004 50.0781 174.651 51.5798 176.446 51.5798C178.241 51.5798 178.888 50.1026 178.888 43.034C178.888 35.9654 178.277 34.5615 176.446 34.5615C174.615 34.5615 174.041 35.9532 174.004 43.034Z" fill="white"/>
<path d="M0 0.732483H68.5859V1.72136C68.5859 12.5623 68.6958 23.391 68.5859 34.2197C68.354 52.5321 60.1378 65.9611 44.084 74.7389C41.2517 76.2771 38.3827 77.7299 35.5382 79.2437C35.167 79.458 34.746 79.5708 34.3174 79.5708C33.8888 79.5708 33.4677 79.458 33.0965 79.2437C29.8369 77.5101 26.5285 75.8742 23.33 74.0674C17.4182 70.9126 12.3091 66.4436 8.39567 61.0042C4.48228 55.5648 1.869 49.3001 0.756912 42.6922C0.291069 40.0566 0.0622659 37.3845 0.0732488 34.708C-6.50353e-07 23.7206 0.0732488 12.7332 0.0732488 1.74577L0 0.732483ZM3.57702 4.27288V5.07862C3.57702 14.9551 3.57702 24.8316 3.57702 34.708C3.58238 36.8126 3.74151 38.9139 4.05314 40.9953C4.8521 46.8043 6.92285 52.3654 10.1177 57.2823C13.3126 62.1991 17.553 66.3505 22.5364 69.4405C26.1989 71.7722 30.0933 73.5913 33.9023 75.6178C34.0432 75.678 34.1947 75.7089 34.3479 75.7089C34.5011 75.7089 34.6526 75.678 34.7935 75.6178C36.5515 74.7266 38.2606 73.7622 40.0308 72.8832C45.2845 70.4639 50.035 67.0759 54.0337 62.8969C60.984 55.5428 64.8884 45.8276 64.9601 35.7091C65.1066 25.503 64.9601 15.2969 64.9601 5.09083C64.9601 4.83445 64.9601 4.56587 64.9601 4.27288H3.57702Z" fill="white"/>
<path d="M38.92 22.9759H28.0669V50.2613H38.92V22.9759Z" fill="white"/>
<path d="M27.8926 33.0364L20.4888 30.3913L14.2785 47.7741L21.6823 50.4192L27.8926 33.0364Z" fill="white"/>
<path d="M42.3413 17.0035L37.5298 18.7756L49.0785 50.1304L53.89 48.3582L42.3413 17.0035Z" fill="white"/>
</svg>
